<?xml version="1.0" encoding="utf-8"?>
<!-- Generator: Adobe Illustrator 23.0.2, SVG Export Plug-In . SVG Version: 6.00 Build 0)  -->
<svg version="1.1" id="Layer_1" xmlns="http://www.w3.org/2000/svg" xmlns:xlink="http://www.w3.org/1999/xlink" x="0px" y="0px"
	 viewBox="0 0 60 60" style="enable-background:new 0 0 60 60;" xml:space="preserve">
<style type="text/css">
	.st0{fill:#868686;}
</style>
<g>
	<path class="st0" d="M55.1,30.3c0.3-0.3,0.3-0.7,0-1.1C48.9,20.7,40.9,16,32.2,15.6V5.9c0-0.6-0.4-0.9-0.9-0.9c-0.5,0-1,0.4-1,0.9
		v9.8C21.6,16,13.6,20.8,7.4,29.3c-0.3,0.3-0.3,0.8,0,1.1c6.2,8.5,14.2,13.2,22.9,13.6v9.8c0,0.6,0.4,0.9,0.9,0.9
		c0.5,0,0.9-0.4,0.9-0.9v-9.9C40.8,43.5,48.9,38.8,55.1,30.3z M53.1,29.8c-5.7,7.6-13.1,11.9-21,12.3v-2.8c4.8-0.5,8.6-4.5,8.6-9.4
		s-3.8-9-8.6-9.4v-2.8C40,17.8,47.5,22.1,53.1,29.8z M32.2,27c1.2,0.4,2,1.5,2,2.7c0,1.3-0.8,2.4-2,2.7C32.2,32.5,32.2,27,32.2,27z
		 M30.3,32.5c-1.2-0.4-2-1.5-2-2.7c0-1.3,0.8-2.4,2-2.7V32.5z M32.2,34.4c2.2-0.5,3.8-2.4,3.8-4.6s-1.7-4.2-3.8-4.6v-3
		c3.8,0.5,6.8,3.7,6.8,7.6s-3,7.2-6.8,7.6V34.4z M30.3,25.2c-2.2,0.5-3.8,2.4-3.8,4.6c0,2.3,1.7,4.2,3.8,4.6v3
		c-3.8-0.5-6.8-3.7-6.8-7.6s3-7.2,6.8-7.6V25.2z M9.3,29.8c5.7-7.7,13.1-11.9,21.1-12.3v2.8c-4.8,0.5-8.6,4.5-8.6,9.4s3.8,9,8.6,9.4
		v2.8C22.4,41.7,15,37.4,9.3,29.8z"/>
	<path class="st0" d="M59.3,40.2c-0.6,0-0.9,0.4-0.9,0.9v15.9H42.6c-0.6,0-0.9,0.4-0.9,0.9s0.4,0.9,0.9,0.9h16.7
		c0.6,0,0.9-0.4,0.9-0.9V41.1C60.3,40.6,59.9,40.2,59.3,40.2z"/>
	<path class="st0" d="M3.1,19.3c0.6,0,0.9-0.4,0.9-0.9V2.6h15.9c0.6,0,0.9-0.4,0.9-0.9s-0.4-0.9-0.9-0.9H3.1c-0.5,0-0.9,0.3-0.9,0.9
		v16.7C2.2,19,2.6,19.3,3.1,19.3z"/>
	<path class="st0" d="M19.9,56.9H4.1V41.1c0-0.6-0.4-0.9-0.9-0.9s-1,0.4-1,0.9v16.7c0,0.6,0.4,1,0.9,1h16.7c0.6,0,0.9-0.4,0.9-0.9
		S20.4,56.9,19.9,56.9z"/>
	<path class="st0" d="M59.3,0.8H42.6c-0.6,0-0.9,0.4-0.9,0.9s0.4,0.9,0.9,0.9h15.9v15.9c0,0.6,0.4,0.9,0.9,0.9
		c0.5,0,0.9-0.4,0.9-0.9V1.7C60.3,1.1,59.9,0.8,59.3,0.8z"/>
</g>
</svg>
