<?xml version="1.0" encoding="utf-8"?>
<!-- Generator: Adobe Illustrator 23.0.1, SVG Export Plug-In . SVG Version: 6.00 Build 0)  -->
<svg version="1.1" xmlns="http://www.w3.org/2000/svg" xmlns:xlink="http://www.w3.org/1999/xlink" x="0px" y="0px"
	 viewBox="0 0 387 209.8" style="enable-background:new 0 0 387 209.8;" xml:space="preserve">
<style type="text/css">
	.st0{fill:#4DEB91;}
	.st1{fill:none;stroke:#474747;stroke-width:2;stroke-miterlimit:10;}
	.st2{fill:#26292D;}
	.st3{fill:#FFFFFF;}
	.st4{fill:#474747;}
	.st5{fill:#26292D;stroke:#FFFFFF;stroke-width:0.25;stroke-miterlimit:10;}
	.st6{fill:#474747;stroke:#FFFFFF;stroke-width:0.25;stroke-miterlimit:10;}
</style>
<g id="Layer_3">
</g>
<g id="Layer_1">
</g>
<g id="Layer_2">
	<g>
		<path class="st0" d="M54.4,5.3H60v5.6c0,0.5,0.4,0.9,0.9,0.9h0.4V4h-7.7v0.4C53.5,4.9,53.9,5.3,54.4,5.3z"/>
		<path class="st0" d="M60,41.5v5.4h-5.4c-0.5,0-0.9,0.4-0.9,0.9v0.3h7.5v-7.5h-0.3C60.4,40.6,60,41,60,41.5z"/>
		<path class="st0" d="M11.9,46.9H6.4v-5.4c0-0.5-0.4-0.9-0.9-0.9H5.2v7.5h7.5v-0.3C12.7,47.3,12.3,46.9,11.9,46.9z"/>
		<path class="st0" d="M6.4,10.7V5.2h5.4c0.5,0,0.9-0.4,0.9-0.9V4H5.2v7.5h0.3C6,11.6,6.4,11.2,6.4,10.7z"/>
		<path class="st1" d="M57.1,41.6v-31c0-1.5-1.2-2.7-2.7-2.7H12.1c-1.5,0-2.7,1.2-2.7,2.7v31c0,1.5,1.2,2.7,2.7,2.7h42.2
			C55.8,44.3,57.1,43.1,57.1,41.6z"/>
		<path class="st2" d="M5.2,4h7.5v0.3c0,0.5-0.4,0.9-0.9,0.9H6.4v5.4c0,0.5-0.4,0.9-0.9,0.9H5.2V4z"/>
		<path class="st2" d="M53.5,4h7.7v7.7h-0.4c-0.5,0-0.9-0.4-0.9-0.9V5.3h-5.6c-0.5,0-0.9-0.4-0.9-0.9V4z"/>
		<path class="st2" d="M12.7,48.2H5.2v-7.5h0.3c0.5,0,0.9,0.4,0.9,0.9v5.4h5.4c0.5,0,0.9,0.4,0.9,0.9V48.2z"/>
		<path class="st2" d="M61.3,48.2h-7.5v-0.3c0-0.5,0.4-0.9,0.9-0.9H60v-5.4c0-0.5,0.4-0.9,0.9-0.9h0.3V48.2z"/>
		<path class="st2" d="M30,25.6L24.1,18L13.4,31.9c-0.7,0.9-0.8,2-0.3,3c0.5,1,1.4,1.6,2.5,1.6h6L30,25.6z M15.6,34.8
			c-0.5,0-0.9-0.2-1.1-0.7c-0.2-0.4-0.2-0.9,0.1-1.2l9.4-12.2l3.8,5l-7.1,9.2H15.6z"/>
		<path class="st2" d="M31.3,19.8c2.1,0,3.9-1.7,3.9-3.9c0-2.1-1.7-3.9-3.9-3.9c-2.1,0-3.9,1.7-3.9,3.9
			C27.4,18.1,29.2,19.8,31.3,19.8z M31.3,13.6c1.2,0,2.3,1,2.3,2.3c0,1.2-1,2.3-2.3,2.3c-1.2,0-2.3-1-2.3-2.3
			C29.1,14.7,30.1,13.6,31.3,13.6z"/>
		<path class="st2" d="M45.7,25.8l-0.5-0.6l-0.7-0.9l-4.2-5.5L39,17.1l-1.3,1.7l-6.2,8.1l-6.3,8.2l-1.7,2.2l-2,2.6h3.3h25.8
			c1.1,0,2.2-0.6,2.7-1.7c0.5-1,0.4-2.2-0.3-3.1L45.7,25.8z M51.7,37.5c-0.2,0.5-0.7,0.8-1.2,0.8H24.7l1.7-2.2l6.3-8.2l6.2-8.1
			l4.2,5.5h-6.6c-0.4,0-0.8,0.3-0.8,0.8c0,0.4,0.3,0.8,0.8,0.8h7.8l7.2,9.2C51.9,36.5,51.9,37,51.7,37.5z"/>
		<g>
			<g>
				<path class="st2" d="M117,121.7H76.7c-0.7,0-1.3,0.6-1.3,1.3v33.9c0,0.7,0.6,1.3,1.3,1.3H117c0.7,0,1.3-0.6,1.3-1.3V123
					C118.3,122.3,117.7,121.7,117,121.7z M116.8,156.8h-40v-33.6h40V156.8z"/>
				<path class="st2" d="M80.3,132.3h4.8c0.6,0,1.2-0.5,1.2-1.2v-4.8c0-0.6-0.5-1.2-1.2-1.2h-4.8c-0.6,0-1.2,0.5-1.2,1.2v4.8
					C79.2,131.8,79.7,132.3,80.3,132.3z M80.6,126.7h4.1v4.1h-4.1V126.7z"/>
				<path class="st2" d="M89.8,132.3h4.8c0.6,0,1.2-0.5,1.2-1.2v-4.8c0-0.6-0.5-1.2-1.2-1.2h-4.8c-0.6,0-1.2,0.5-1.2,1.2v4.8
					C88.7,131.8,89.2,132.3,89.8,132.3z M90.1,126.7h4.1v4.1h-4.1V126.7z"/>
				<path class="st2" d="M99.3,132.3h4.8c0.6,0,1.2-0.5,1.2-1.2v-4.8c0-0.6-0.5-1.2-1.2-1.2h-4.8c-0.6,0-1.2,0.5-1.2,1.2v4.8
					C98.2,131.8,98.7,132.3,99.3,132.3z M99.7,126.7h4.1v4.1h-4.1V126.7z"/>
				<path class="st2" d="M108.8,132.3h4.8c0.6,0,1.2-0.5,1.2-1.2v-4.8c0-0.6-0.5-1.2-1.2-1.2h-4.8c-0.6,0-1.2,0.5-1.2,1.2v4.8
					C107.6,131.8,108.1,132.3,108.8,132.3z M109.1,126.7h4.1v4.1h-4.1V126.7z"/>
				<path class="st2" d="M80.3,155h4.8c0.6,0,1.2-0.5,1.2-1.2v-4.8c0-0.6-0.5-1.2-1.2-1.2h-4.8c-0.6,0-1.2,0.5-1.2,1.2v4.8
					C79.2,154.5,79.7,155,80.3,155z M80.6,149.4h4.1v4.1h-4.1V149.4z"/>
				<path class="st2" d="M89.8,155h4.8c0.6,0,1.2-0.5,1.2-1.2v-4.8c0-0.6-0.5-1.2-1.2-1.2h-4.8c-0.6,0-1.2,0.5-1.2,1.2v4.8
					C88.7,154.5,89.2,155,89.8,155z M90.1,149.4h4.1v4.1h-4.1V149.4z"/>
				<path class="st2" d="M99.3,155h4.8c0.6,0,1.2-0.5,1.2-1.2v-4.8c0-0.6-0.5-1.2-1.2-1.2h-4.8c-0.6,0-1.2,0.5-1.2,1.2v4.8
					C98.2,154.5,98.7,155,99.3,155z M99.7,149.4h4.1v4.1h-4.1V149.4z"/>
				<path class="st2" d="M108.8,155h4.8c0.6,0,1.2-0.5,1.2-1.2v-4.8c0-0.6-0.5-1.2-1.2-1.2h-4.8c-0.6,0-1.2,0.5-1.2,1.2v4.8
					C107.6,154.5,108.1,155,108.8,155z M109.1,149.4h4.1v4.1h-4.1V149.4z"/>
				<path class="st2" d="M122.2,130.7c-0.3-0.3-0.8-0.3-1,0l0,0c-0.1,0.1-0.2,0.3-0.2,0.5v3.7c0,1.3,0.5,2.4,1.4,3.3l1.7,1.7
					l-1.7,1.7c-0.9,0.9-1.4,2.1-1.4,3.3v3.7c0,0.2,0.1,0.4,0.2,0.5l0,0c0.1,0.1,0.3,0.2,0.5,0.2c0.2,0,0.4-0.1,0.5-0.2l8.7-8.7
					c0.1-0.1,0.2-0.3,0.2-0.5c0-0.2-0.1-0.4-0.2-0.5L122.2,130.7z M122.4,147v-2c0-0.9,0.3-1.7,0.9-2.3l2.2-2.2c0.3-0.3,0.3-0.8,0-1
					l-2.2-2.2c-0.6-0.6-0.9-1.4-0.9-2.3v-2l7,7L122.4,147z"/>
				<path class="st2" d="M72.4,130.7c-0.3-0.3-0.8-0.3-1,0l-8.7,8.7c-0.1,0.1-0.2,0.3-0.2,0.5c0,0.2,0.1,0.4,0.2,0.5l8.7,8.7
					c0.1,0.1,0.3,0.2,0.5,0.2c0.2,0,0.4-0.1,0.5-0.2l0,0c0.1-0.1,0.2-0.3,0.2-0.5V145c0-1.3-0.5-2.4-1.4-3.3l-1.7-1.7l1.7-1.7
					c0.9-0.9,1.4-2.1,1.4-3.3v-3.7C72.7,131.1,72.6,130.9,72.4,130.7L72.4,130.7z M71.2,135c0,0.9-0.3,1.7-0.9,2.3l-2.2,2.2
					c-0.3,0.3-0.3,0.8,0,1l2.2,2.2c0.6,0.6,0.9,1.4,0.9,2.3v2l-7-7l7-7V135z"/>
				<path class="st2" d="M88.1,115.9h3.7c1.3,0,2.4-0.5,3.3-1.4l1.7-1.7l1.7,1.7c0.9,0.9,2.1,1.4,3.3,1.4h3.7c0.2,0,0.4-0.1,0.5-0.2
					l0,0c0.3-0.3,0.3-0.8,0-1l-8.7-8.7c-0.3-0.3-0.8-0.3-1,0l-8.7,8.7c-0.3,0.3-0.3,0.8,0,1l0,0C87.7,115.8,87.9,115.9,88.1,115.9z
					 M96.8,107.4l7,7h-2c-0.9,0-1.7-0.3-2.3-0.9l-2.2-2.2c-0.1-0.1-0.3-0.2-0.5-0.2c-0.2,0-0.4,0.1-0.5,0.2l-2.2,2.2
					c-0.6,0.6-1.4,0.9-2.3,0.9h-2L96.8,107.4z"/>
				<path class="st2" d="M106,164.3c-0.1-0.1-0.3-0.2-0.5-0.2h-3.7c-1.3,0-2.4,0.5-3.3,1.4l-1.7,1.7l-1.7-1.7
					c-0.9-0.9-2.1-1.4-3.3-1.4h-3.7c-0.2,0-0.4,0.1-0.5,0.2l0,0c-0.3,0.3-0.3,0.8,0,1l8.7,8.7c0.1,0.1,0.3,0.2,0.5,0.2
					s0.4-0.1,0.5-0.2l8.7-8.7C106.4,165.1,106.4,164.7,106,164.3L106,164.3z M96.8,172.6l-7-7h2c0.9,0,1.7,0.3,2.3,0.9l2.2,2.2
					c0.3,0.3,0.8,0.3,1,0l2.2-2.2c0.6-0.6,1.4-0.9,2.3-0.9h2L96.8,172.6z"/>
			</g>
		</g>
		<path class="st3" d="M232.2,176.8c-0.6,0-1.1,0.5-1.1,1.1c0,0.6,0.5,1.1,1.1,1.1c0.6,0,1.1-0.5,1.1-1.1
			C233.3,177.2,232.8,176.8,232.2,176.8z"/>
		<path class="st3" d="M225.9,176.8c-0.6,0-1.1,0.5-1.1,1.1c0,0.6,0.5,1.1,1.1,1.1c0.6,0,1.1-0.5,1.1-1.1
			C227,177.2,226.5,176.8,225.9,176.8z"/>
		<path class="st2" d="M208,201.7c0.4-2.7,0.8-8.8,1.2-14.8c0.3-4.4,0.6-9,0.9-12c2.9-2.5,4.5-6.1,4.5-9.9c0-7.2-5.9-13.1-13.1-13.1
			c-5.8,0-10.8,3.8-12.5,9.1h-2.1c-1.1,0-2,0.9-2,2v3.9c0,1,0.7,1.8,1.7,2l2.4,0.2c0.7,2.3,2.1,4.3,3.9,5.9c0.3,3.1,0.6,7.6,0.9,12
			c0.4,5.9,0.8,12.1,1.2,14.8c0.6,3.2,3.3,5.6,6.5,5.6C204.7,207.3,207.4,205,208,201.7z M188.6,167.5l-1.8-0.2
			c-0.2-0.1-0.4-0.3-0.4-0.5v-3.9c0-0.3,0.2-0.5,0.5-0.5h1.7c-0.2,0.8-0.3,1.7-0.3,2.6C188.4,165.8,188.5,166.7,188.6,167.5z
			 M208,193L208,193L208,193z M195,193L195,193L195,193z M195.7,192.7L195.7,192.7c-0.2-1.9-0.3-3.9-0.4-5.9
			c-0.3-4.6-0.6-9.3-0.9-12.4l0-0.3l-0.2-0.2c-2.7-2.2-4.2-5.5-4.2-9c0-6.4,5.2-11.7,11.7-11.7c6.4,0,11.7,5.2,11.7,11.7
			c0,3.5-1.5,6.8-4.2,9l-0.2,0.2l0,0.3c-0.3,3.1-0.6,7.8-0.9,12.4c-0.1,2-0.3,4-0.4,5.9l0,0c0,0.1-0.1,0.2-0.1,0.2
			c-0.7,1.4-3.1,2.4-5.7,2.4c-2.6,0-5.1-1.1-5.7-2.4C195.8,192.9,195.7,192.8,195.7,192.7z M196.5,201.5c-0.2-1.3-0.4-3.6-0.6-6.3
			c1.5,1.1,3.7,1.6,5.7,1.6c2,0,4.2-0.5,5.7-1.6c-0.2,2.7-0.4,4.9-0.6,6.2c-0.5,2.5-2.6,4.4-5,4.4
			C199.1,205.9,196.9,204,196.5,201.5z"/>
		<path class="st2" d="M210.1,163.4c0-4.7-3.8-8.5-8.5-8.5c-4.7,0-8.5,3.8-8.5,8.5c0,4.7,3.8,8.5,8.5,8.5
			C206.2,171.9,210.1,168.1,210.1,163.4z M194.4,163.4c0-3.9,3.2-7.1,7.1-7.1s7.1,3.2,7.1,7.1c0,3.9-3.2,7.1-7.1,7.1
			S194.4,167.3,194.4,163.4z"/>
		<path class="st2" d="M198.4,180.4c1.4,0,2.5-1.1,2.5-2.6c0-1.4-1.1-2.5-2.5-2.5c-1.4,0-2.5,1.1-2.5,2.5
			C195.8,179.2,197,180.4,198.4,180.4z"/>
		<path class="st2" d="M204.7,175.3c-1.4,0-2.5,1.1-2.5,2.5c0,1.4,1.1,2.6,2.5,2.6c1.4,0,2.5-1.1,2.5-2.6
			C207.2,176.4,206.1,175.3,204.7,175.3z M204.7,178.9c-0.6,0-1.1-0.5-1.1-1.1c0-0.6,0.5-1.1,1.1-1.1s1.1,0.5,1.1,1.1
			C205.7,178.4,205.3,178.9,204.7,178.9z"/>
		<path class="st2" d="M229.1,151.8c-7.3,0-13.1,5.9-13.1,13.1c0,3.8,1.6,7.4,4.5,9.9c0.3,3.1,0.6,7.6,0.9,12.1
			c0.4,5.9,0.8,12.1,1.2,14.8c0.6,3.2,3.3,5.6,6.5,5.6c3.2,0,5.9-2.4,6.5-5.6c0.4-2.7,0.8-8.8,1.2-14.8c0.3-4.4,0.6-9,0.9-12
			c1.8-1.6,3.2-3.6,3.9-5.9l2.4-0.2l0.1,0c1-0.2,1.7-1,1.7-2v-3.9c0-1.1-0.9-2-2-2h-2.2C239.8,155.7,234.9,151.8,229.1,151.8z
			 M222.5,193L222.5,193L222.5,193z M234.1,201.5c-0.5,2.5-2.6,4.4-5,4.4c-2.5,0-4.6-1.9-5.1-4.4c-0.2-1.3-0.4-3.6-0.6-6.3
			c1.5,1.1,3.7,1.6,5.7,1.6c2,0,4.2-0.5,5.7-1.6C234.5,197.9,234.3,200.1,234.1,201.5z M235.6,193L235.6,193L235.6,193L235.6,193
			L235.6,193z M236.5,174l-0.2,0.2l0,0.3c-0.3,3.1-0.6,7.8-0.9,12.4c-0.1,2-0.3,4-0.4,5.9l0,0c0,0.1-0.1,0.2-0.1,0.2
			c-0.7,1.4-3.1,2.4-5.7,2.4c-2.6,0-5.1-1.1-5.7-2.4c0-0.1-0.1-0.2-0.1-0.2l0,0c-0.1-1.9-0.3-3.9-0.4-5.9c-0.3-4.6-0.6-9.3-0.9-12.4
			l0-0.3l-0.2-0.2c-2.7-2.2-4.2-5.5-4.2-9c0-6.4,5.2-11.7,11.7-11.7c6.4,0,11.7,5.2,11.7,11.7C240.7,168.5,239.2,171.7,236.5,174z
			 M243.7,162.4c0.3,0,0.5,0.2,0.5,0.5v3.9c0,0.3-0.2,0.5-0.4,0.5l-1.9,0.2c0.2-0.8,0.2-1.7,0.2-2.5c0-0.9-0.1-1.8-0.3-2.6H243.7z"
			/>
		<path class="st2" d="M229.1,154.8c-4.7,0-8.5,3.8-8.5,8.5c0,4.7,3.8,8.5,8.5,8.5c4.7,0,8.5-3.8,8.5-8.5
			C237.6,158.7,233.8,154.8,229.1,154.8z M229.1,170.5c-3.9,0-7.1-3.2-7.1-7.1c0-3.9,3.2-7.1,7.1-7.1c3.9,0,7.1,3.2,7.1,7.1
			C236.1,167.3,233,170.5,229.1,170.5z"/>
		<path class="st2" d="M225.9,175.3c-1.4,0-2.5,1.1-2.5,2.5c0,1.4,1.1,2.6,2.5,2.6c1.4,0,2.5-1.1,2.5-2.6
			C228.5,176.4,227.3,175.3,225.9,175.3z M225.9,178.9c-0.6,0-1.1-0.5-1.1-1.1c0-0.6,0.5-1.1,1.1-1.1c0.6,0,1.1,0.5,1.1,1.1
			C227,178.4,226.5,178.9,225.9,178.9z"/>
		<path class="st2" d="M232.2,175.3c-1.4,0-2.5,1.1-2.5,2.5c0,1.4,1.1,2.6,2.5,2.6s2.5-1.1,2.5-2.6
			C234.7,176.4,233.6,175.3,232.2,175.3z M232.2,178.9c-0.6,0-1.1-0.5-1.1-1.1c0-0.6,0.5-1.1,1.1-1.1c0.6,0,1.1,0.5,1.1,1.1
			C233.3,178.4,232.8,178.9,232.2,178.9z"/>
		<g>
			<path class="st2" d="M371.7,85.6c0-0.1-0.1-0.1-0.1-0.2l0,0c-3.8-8.3-13.4-13.9-23.9-13.9c-16.5,0-25.6,8.9-25.6,25.2l0.1,2.8
				c0,6.3,2.5,9.9,5.2,13.7c1.1,1.6,2.3,3.3,3.3,5.2l0,0c1.8,3.5,2.7,7.2,2.9,11.7c0.1,1.4,1.2,2.5,2.7,2.5h0l23.3,0
				c1.5,0,2.7-1.2,2.7-2.7v-2.3c1.1,0.1,2.4,0.2,3.5,0.2c4.5,0,7.6-2.9,7.6-7.1v-6.7c1.8-0.3,3.4-0.7,3.5-0.7
				c1.5-0.3,2.7-1.3,3.2-2.7l1.9-0.2c0.9-0.2,1.6-1,1.6-1.9V93.2c0-1.1-0.9-2-2-2h-1.7c-0.5-1-1.6-1.7-2.8-1.7h-4
				c-0.2-1-0.5-2-0.9-3h0L371.7,85.6z M380.1,92.7L380.1,92.7l1.3,0c0.3,0,0.5,0.2,0.5,0.5v15.4c0,0.2-0.2,0.4-0.4,0.5l-1.4,0.2
				V92.7z M370.4,86.5c0.4,1,0.8,2,1,3h-2.6c-0.8,0-1.4,0.5-1.6,1.3h-2.5h-0.3l-0.1,0c-1,0.2-1.8,1-2,2c0,0.1,0,0.3,0,0.5v1.2
				l-2.8,0.6l-0.8,0.2c-0.7,0.2-1.4,0.5-1.8,1.4h-4.8c0-2.9,0.3-6,2.2-8c1.4-1.5,3.6-2.2,6.6-2.2c2.7,0,4.9,0,7,0c0.7,0,1.5,0,2.2,0
				C370.1,86.5,370.3,86.5,370.4,86.5z M363.7,107c0.3,0,0.6-0.2,0.9-0.4c0.4-0.4,0.7-0.9,0.7-1.4V96c0-0.6-0.3-1.1-0.7-1.4
				c-0.3-0.2-0.6-0.3-0.9-0.4v-1c0-0.5,0.3-0.8,0.8-0.9h2.6v19.7h-2.4c-0.5,0-1-0.4-1-1V107z M363.7,105.5c-0.1,0-0.2,0.1-0.3,0.1
				l-0.4-0.1l-0.7-0.2l-3.3-0.7c-0.4-0.1-0.9-0.5-0.9-1.3V98c0-0.9,0.4-1.2,0.9-1.3l3.3-0.7l0.7-0.2l0.4-0.1c0,0,0.1,0,0.1,0
				c0.1,0,0.2,0,0.2,0.1c0,0,0,0,0,0c0.1,0,0.1,0.1,0.1,0.3v9.1C363.9,105.3,363.8,105.4,363.7,105.5
				C363.7,105.5,363.7,105.5,363.7,105.5z M352.5,98.1h3.3h0.8v5.1h-4.3c0.3-0.8,0.5-1.7,0.5-2.6c0,0,0-0.1,0-0.1
				C352.8,99.6,352.7,98.8,352.5,98.1z M347.7,73c9.5,0,18.2,4.8,22,12c-0.6,0-1.3,0-1.9,0c-2.1,0-4.3,0-7,0c-3.4,0-5.9,0.9-7.6,2.6
				c-1.8,1.9-2.4,4.6-2.6,7.2c-1.5-1.7-3.7-2.7-6.1-2.7c-3.2,0-6,1.8-7.4,4.5h-13.6C323.6,76.1,338.7,73,347.7,73z M351.3,100.4
				c0,0.2,0,0.3,0,0.5c0,0.2,0,0.5-0.1,0.7c0,0.1,0,0.2,0,0.2c-0.1,0.4-0.2,0.9-0.4,1.3c-0.2,0.5-0.5,1-0.9,1.5
				c-1.2,1.5-3.1,2.5-5.2,2.6c0,0-0.1,0-0.1,0c-0.2,0-0.5,0-0.7,0c-0.3,0-0.5-0.1-0.8-0.1c-0.2-0.1-0.5-0.1-0.7-0.2
				c-1.2-0.4-2.3-1.2-3.1-2.2c-0.4-0.4-0.7-0.9-0.9-1.5c-0.4-0.8-0.6-1.8-0.6-2.8c0-0.8,0.1-1.6,0.4-2.3c0.2-0.5,0.4-1,0.7-1.5
				c1.2-1.8,3.3-3,5.6-3c2.4,0,4.4,1.2,5.6,3c0.2,0.2,0.3,0.5,0.4,0.7c0.1,0.2,0.2,0.5,0.3,0.7C351.2,98.8,351.3,99.6,351.3,100.4z
				 M323.6,99.5l0-1.4h13c-0.2,0.7-0.3,1.5-0.3,2.3c0,1,0.2,1.9,0.5,2.8H324C323.8,102,323.6,100.8,323.6,99.5z M331.7,117.4
				c-1-1.8-2.1-3.4-3.2-5c-1.7-2.5-3.3-4.8-4.2-7.8h13.1c1,1.7,2.6,2.9,4.4,3.6c-0.2,0.5-0.3,1-0.4,1.6c-0.3,1.4-0.6,2.9-0.7,4.7
				c-0.1,1.5-1.3,2.7-2.8,2.7l-5.7,0.1L331.7,117.4z M371.8,120.8c0,3.3-2.5,5.6-6.2,5.6c-1.3,0-2.9-0.1-4.1-0.3
				c-0.5-0.1-1.1-0.2-1.6-0.3c-5.9-1.3-12-4.8-13.1-9.3c-0.1-0.2-0.1-0.5-0.1-0.7c-0.1-0.4-0.4-0.7-0.8-0.6
				c-0.4,0.1-0.7,0.4-0.6,0.8c0.8,5.8,8.2,10.1,15.4,11.4v2.6c0,0.7-0.5,1.2-1.2,1.2l-23.3,0h0c-0.6,0-1.2-0.5-1.2-1.1
				c-0.2-4.3-1-7.9-2.6-11.3l5.5-0.1c2.3-0.1,4.1-1.8,4.3-4.1c0.2-2.4,0.6-4.4,1.1-6c0.4,0.1,0.8,0.1,1.2,0.1c3,0,5.7-1.6,7.1-4h5.3
				c0.4,0.7,1.1,1.2,1.8,1.4l3.6,0.8v4.2c0,1.3,1.1,2.4,2.4,2.4h2.5c0,0.4,0.2,0.8,0.6,1.1c0.3,0.3,0.7,0.4,1.1,0.4
				c0.1,0,0.1,0,0.2,0c0.6-0.1,1.6-0.3,2.8-0.5V120.8z M372.4,91h0.7h3.8c1,0,1.7,0.8,1.7,1.7v16.7c0,1.3-0.9,2.3-2.2,2.6
				c0,0-1.5,0.3-3.2,0.7c-0.2,0-0.5,0.1-0.7,0.1c-0.2,0-0.5,0.1-0.7,0.1c-1.2,0.2-2.4,0.4-3,0.5c-0.1,0-0.1,0-0.2,0c0,0,0,0,0,0
				c0,0-0.1-0.1-0.1-0.1V91.2c0-0.1,0.1-0.2,0.2-0.2h0.1h2.7H372.4z"/>
		</g>
		<g>
			<path class="st2" d="M62.6,168.2H61c-0.5-0.9-1.6-1.5-2.7-1.5h-3.8c-0.4-5-2.6-9.2-6.5-12.3l0,0c0,0,0,0,0,0c0,0,0,0,0,0v0
				c-4.6-3.8-9.9-5.6-16-5.6c-7.5,0-13.4,1.6-17.6,4.8c-5.1,3.9-7.8,10-7.8,18.4l0,2c0,3.7,0.6,7.1,1.3,10.3
				c1.3,7.1,2.5,13.2-3.6,19.7c-0.6,0.6-0.7,1.5-0.4,2.2c0.4,0.7,1.1,1.2,2,1.2h16.6c0.6,0,1.2,0,1.8-0.1l17.2,0
				c1.3,0,2.4-1,2.6-2.3v-3.2c0-0.1,0-0.2,0-0.3l0-2.1c1.2,0.2,2.7,0.3,3.9,0.3c1.8,0,2.9-0.3,3.6-1c0.9-0.9,0.9-2.1,0.9-3.7
				c0-0.2,0-0.4,0-0.6c0-1,0.3-2.9,0.7-5c2.2-0.4,4.9-0.9,5-1c1.4-0.2,2.6-1.2,3-2.4l1.7-0.2c0.9-0.1,1.6-0.9,1.6-1.8V170
				C64.5,169,63.6,168.2,62.6,168.2z M50.9,161.1c0.1-0.2,0.2-0.5,0.2-0.7c1,1.9,1.7,4,1.9,6.3h-2.3c-0.8,0-1.4,0.5-1.6,1.1h-2.6
				l-0.1,0c-1.2,0.2-2,1.1-2,2.2v1l-3.3,0.7c-0.1,0-0.2,0.1-0.3,0.1c-0.5,0.2-1.1,0.5-1.4,1.1h-4.6c-0.3-0.6-0.7-1.1-1.2-1.6
				c0.1-4.6,3.6-7.2,10.3-7.5c0.4,0,0.7,0,1.1,0C48,163.9,50.2,162.9,50.9,161.1z M46.8,171.2c-0.2-0.2-0.5-0.3-0.8-0.4V170
				c0-0.4,0.3-0.7,0.6-0.8H49v17.5h-2.2c-0.5,0-0.8-0.4-0.8-0.8v-3.5c0.3,0,0.6-0.2,0.8-0.4c0.4-0.3,0.7-0.8,0.7-1.4v-8.2
				C47.5,172.1,47.2,171.6,46.8,171.2z M45.9,172.6v8.2c0,0.1-0.1,0.2-0.1,0.2c0,0-0.1,0.1-0.2,0.1l-0.4-0.1l-0.8-0.2l-3-0.6
				c-0.4-0.1-0.8-0.4-0.8-1.1v-4.7c0-0.8,0.3-1,0.8-1.1l3-0.6l0.8-0.2l0.4-0.1c0,0,0,0,0.1,0c0.1,0,0.1,0,0.2,0.1
				C45.9,172.4,45.9,172.5,45.9,172.6z M35.4,174.5h3.7v4.4h-3.8c0.3-0.8,0.4-1.6,0.4-2.4C35.6,175.8,35.5,175.1,35.4,174.5z
				 M34.1,176.5c0,0.9-0.2,1.7-0.5,2.4c0,0,0,0,0,0c-0.2,0.4-0.5,0.9-0.8,1.2c-0.1,0.1-0.1,0.2-0.2,0.2c-0.2,0.2-0.4,0.4-0.6,0.6
				c-1.1,1-2.6,1.6-4.2,1.6c-1.9,0-3.7-0.8-4.8-2.2c-0.4-0.4-0.7-0.9-1-1.5c-0.3-0.7-0.5-1.5-0.5-2.4c0-0.7,0.1-1.4,0.4-2
				c0.2-0.5,0.5-1,0.8-1.5c1.1-1.5,3-2.6,5.2-2.6c1.6,0,3.1,0.6,4.2,1.6c0.3,0.2,0.5,0.5,0.8,0.8c0,0.1,0.1,0.1,0.1,0.2
				c0.2,0.3,0.5,0.7,0.6,1.1c0.1,0.1,0.1,0.3,0.2,0.4C34,175.1,34.1,175.8,34.1,176.5z M8,171.9c0-14.4,8-21.7,23.8-21.7
				c5.8,0,10.7,1.7,15,5.2c0.1,0.1,0.1,0.1,0.2,0.2c1.9,1.7,2.8,3.5,2.3,4.9c-0.5,1.2-2.1,1.9-4.4,1.9c-0.2,0-0.4,0-0.5,0
				c-9.4,0.2-11.9,4.4-12.3,7.8c-1.2-0.8-2.7-1.3-4.3-1.3c-3,0-5.7,1.6-7,4H8L8,171.9z M8,174.5h12.2c-0.2,0.6-0.3,1.3-0.3,2
				c0,0.8,0.2,1.6,0.4,2.4H8.4C8.2,177.5,8.1,176,8,174.5z M23.8,205.8L23.8,205.8L23.8,205.8c-0.5,0.1-1,0.1-1.4,0.1H5.7
				c-0.4,0-0.5-0.2-0.6-0.3c0-0.1-0.1-0.4,0.1-0.6c6.6-7,5.3-13.8,4-20.9c-0.2-1.2-0.5-2.4-0.7-3.7h12.5c1.4,2.2,3.9,3.6,6.7,3.6
				c1.6,0,3-0.4,4.2-1.2v13.9c0,2.2-0.8,4.2-2.1,5.7c-0.2,0.3-0.4,0.5-0.7,0.7c-0.2,0.2-0.5,0.4-0.7,0.7
				C27.2,204.8,25.5,205.5,23.8,205.8z M42.6,204.6c0,0.6-0.5,1.2-1.2,1.2l-13.2,0c0.9-0.5,1.7-1.2,2.4-1.9l1.2-1.5
				c1.1-1.7,1.8-3.6,1.8-5.7v-1.2c2.6,1.7,5.8,2.9,9,3.6v1.5c0,0,0,2.7,0,3V204.6z M43.3,198.4L43.3,198.4L43.3,198.4z M50.9,194.9
				c0,1.3,0,2.2-0.4,2.7c-0.4,0.4-1.2,0.5-2.5,0.5c-1.4,0-3.1-0.1-4.5-0.4c-0.6-0.1-1.1-0.2-1.7-0.4c-3-0.7-6-2-8.2-3.7v-12.1
				c0.3-0.4,0.7-0.8,0.9-1.2h4.9c0.3,0.6,0.9,1.1,1.7,1.2l3.3,0.7v3.7c0,1.3,1.1,2.3,2.4,2.3H49c0.1,0.4,0.2,0.7,0.5,1
				c0.3,0.3,0.7,0.4,1.1,0.4c0.1,0,0.1,0,0.2,0c0.2,0,0.4-0.1,0.7-0.1c-0.4,2-0.7,3.8-0.7,4.7C50.9,194.5,50.9,194.7,50.9,194.9z
				 M59.9,184.6c0,1.1-0.8,2-2,2.2c0,0-2.3,0.5-4.4,0.8c-0.3,0.1-0.6,0.1-0.8,0.1c-0.3,0.1-0.6,0.1-0.8,0.1
				c-0.4,0.1-0.7,0.1-0.9,0.1c-0.1,0-0.1,0-0.2,0c0,0-0.1,0-0.1,0c0,0,0,0,0-0.1v-19.9c0-0.1,0-0.1,0.1-0.1h7.7
				c0.9,0,1.6,0.7,1.6,1.5V184.6z M63,183.9c0,0.2-0.1,0.3-0.3,0.3l-1.3,0.1v-14.7h1.2c0.2,0,0.4,0.2,0.4,0.4V183.9z"/>
		</g>
		<path class="st2" d="M192.9,37.7c0.3,2.7,3.9,4.8,7.1,5.5c1,0.2,2,0.3,3.1,0.3c2.4,0,4.7-0.6,5.7-2.3l0,0c0.9-1.6,2.2-5.1,3.6-8.8
			c0.6,0.2,1.2,0.3,1.8,0.3c2.5,0,4.6-1.4,5.7-3.3c0.6-0.1,1.3-0.1,2-0.1h5.3c0.7,0,1.4,0,2,0.1c1.1,2,3.3,3.3,5.7,3.3
			c0.6,0,1.3-0.1,1.8-0.3c1.4,3.8,2.7,7.2,3.6,8.8l0,0c1,1.6,3.3,2.3,5.7,2.3c1.1,0,2.1-0.1,3.1-0.3c3.2-0.7,6.8-2.8,7.1-5.6
			c0.1-1.9-0.3-5.8-0.6-10c-0.4-3.9-0.8-8-0.6-9.7l0,0c0-0.1,0-2.4-0.3-3.7c-1-4.2-4.1-7.4-7.9-8.6l-0.2-1.7l0-0.1
			c-0.2-0.8-0.9-1.4-1.8-1.4h-3.5c-1,0-1.9,0.8-1.9,1.7v1.5c-1.2,0.4-2.3,1-3.3,1.7c-1.5,0.7-4.2,1.6-7.9,1.6H221
			c-3.7,0-6.4-0.9-7.9-1.6c-1-0.7-2.1-1.3-3.3-1.7V4.1c0-0.9-0.8-1.7-1.9-1.7h-3.5c-0.9,0-1.7,0.6-1.8,1.4l-0.2,1.8
			c-3.8,1.3-7,4.4-7.9,8.6c-0.3,1.3-0.3,3.6-0.3,3.7l0,0c0.1,1.8-0.3,5.8-0.6,9.7C193.1,31.9,192.8,35.8,192.9,37.7L192.9,37.7z
			 M219,28c-0.2,0.6-0.6,1.2-1,1.6c-0.9,1-2.3,1.6-3.7,1.6c-0.3,0-0.5,0-0.8-0.1c-0.2,0-0.4-0.1-0.6-0.1c-0.4-0.1-0.8-0.3-1.2-0.5
			c0,0-0.1-0.1-0.1-0.1c-1.5-0.9-2.4-2.5-2.4-4.3c0-2.8,2.3-5.1,5.1-5.1c0.4,0,0.8,0.1,1.2,0.2c0.5,0.1,0.9,0.3,1.3,0.6
			c1.5,0.9,2.5,2.5,2.5,4.4C219.3,26.9,219.2,27.5,219,28z M237.4,30.6c-0.4,0.2-0.8,0.4-1.2,0.5c-0.2,0-0.4,0.1-0.6,0.1
			c-0.3,0-0.5,0.1-0.8,0.1c-1.5,0-2.8-0.6-3.7-1.6c-0.4-0.5-0.8-1-1-1.6c-0.2-0.6-0.3-1.2-0.3-1.8c0-1.9,1-3.5,2.5-4.4
			c0.4-0.2,0.9-0.4,1.3-0.6c0.4-0.1,0.8-0.2,1.2-0.2c2.8,0,5.1,2.3,5.1,5.1c0,1.8-1,3.4-2.4,4.3C237.5,30.6,237.5,30.6,237.4,30.6z
			 M240.8,4.1c0-0.1,0.2-0.3,0.4-0.3h3.5c0.2,0,0.4,0.1,0.4,0.2l0.1,1.1c-1.4-0.3-2.9-0.3-4.5,0V4.1z M236.8,8.5
			c1.1-0.6,1.7-1,1.8-1.1l0,0c0.7-0.3,1.4-0.6,2.2-0.8c5.6-1.3,11.2,2.2,12.5,7.8c0.2,1,0.2,3.1,0.2,3.3c-0.1,1.9,0.3,5.8,0.7,10
			c0.4,3.9,0.8,8,0.6,9.7c-0.2,1.7-2.8,3.6-6,4.3c-3.1,0.7-6.3,0.2-7.2-1.3c-0.8-1.5-2.2-5.1-3.5-8.7c2-1.1,3.4-3.2,3.4-5.7
			c0-3.6-2.9-6.5-6.5-6.5c-0.6,0-1.2,0.1-1.8,0.3c-0.1-0.3-0.2-0.5-0.2-0.8C231.9,15.1,233.6,10.9,236.8,8.5z M221,10.4h7.2
			c2.1,0,4-0.3,5.4-0.7c-2,2.7-2.9,6.2-2.1,9.8c0.1,0.3,0.2,0.7,0.3,1c-2,1.1-3.4,3.3-3.4,5.7c0,0.6,0.1,1.1,0.2,1.7
			c-0.4,0-0.9,0-1.4,0h-5.3c-0.5,0-0.9,0-1.4,0c0.1-0.5,0.2-1.1,0.2-1.7c0-2.5-1.4-4.6-3.4-5.7c0.1-0.3,0.2-0.7,0.3-1
			c0.8-3.5-0.1-7.1-2.1-9.8C217,10.1,218.8,10.4,221,10.4z M204,4.1c0-0.1,0.2-0.2,0.4-0.2h3.5c0.2,0,0.4,0.1,0.4,0.3v1.1
			c-1.5-0.3-3-0.3-4.5,0L204,4.1z M195,27.8c0.4-4.1,0.8-8.1,0.7-10c0-0.2,0-2.3,0.2-3.3c1.3-5.6,6.9-9.1,12.5-7.8
			c0.8,0.2,1.5,0.4,2.2,0.8l0,0c0.1,0,0.7,0.5,1.8,1.1c3.2,2.4,4.8,6.5,3.9,10.6c-0.1,0.3-0.1,0.5-0.2,0.8c-0.6-0.2-1.2-0.3-1.8-0.3
			c-3.6,0-6.5,2.9-6.5,6.5c0,2.4,1.4,4.6,3.4,5.7c-1.3,3.6-2.7,7.2-3.5,8.7c-0.9,1.4-4.1,2-7.2,1.3c-3.1-0.7-5.8-2.6-6-4.3
			C194.2,35.8,194.6,31.7,195,27.8z"/>
		<path class="st2" d="M239.3,18.3c1.4,0,2.5-1.1,2.5-2.5c0-1.4-1.1-2.5-2.5-2.5c-1.4,0-2.5,1.1-2.5,2.5
			C236.9,17.2,238,18.3,239.3,18.3z M239.3,14.8c0.6,0,1,0.5,1,1c0,0.6-0.5,1-1,1c-0.6,0-1-0.5-1-1
			C238.3,15.3,238.8,14.8,239.3,14.8z"/>
		<path class="st2" d="M248.9,18.3c1.4,0,2.5-1.1,2.5-2.5c0-1.4-1.1-2.5-2.5-2.5c-1.4,0-2.5,1.1-2.5,2.5
			C246.4,17.2,247.5,18.3,248.9,18.3z M248.9,14.8c0.6,0,1,0.5,1,1c0,0.6-0.5,1-1,1c-0.6,0-1-0.5-1-1
			C247.8,15.3,248.3,14.8,248.9,14.8z"/>
		<path class="st2" d="M244.1,18.1c-1.4,0-2.5,1.1-2.5,2.5c0,1.4,1.1,2.5,2.5,2.5c1.4,0,2.5-1.1,2.5-2.5
			C246.6,19.2,245.5,18.1,244.1,18.1z M244.1,21.6c-0.6,0-1-0.5-1-1c0-0.6,0.5-1,1-1c0.6,0,1,0.5,1,1
			C245.1,21.1,244.7,21.6,244.1,21.6z"/>
		<path class="st2" d="M244.1,13.6c1.4,0,2.5-1.1,2.5-2.5s-1.1-2.5-2.5-2.5c-1.4,0-2.5,1.1-2.5,2.5S242.7,13.6,244.1,13.6z
			 M244.1,10c0.6,0,1,0.5,1,1c0,0.6-0.5,1-1,1c-0.6,0-1-0.5-1-1C243.1,10.5,243.5,10,244.1,10z"/>
		<path class="st2" d="M200.6,18.8h1.9v2.6c0,0.9,0.7,1.6,1.6,1.6h2.9c0.9,0,1.6-0.7,1.6-1.6v-2.6h1.9c0.9,0,1.6-0.7,1.6-1.6v-2.9
			c0-0.9-0.7-1.6-1.6-1.6h-1.9v-2.6c0-0.9-0.7-1.6-1.6-1.6h-2.9c-0.9,0-1.6,0.7-1.6,1.6v2.6h-1.9c-0.9,0-1.6,0.7-1.6,1.6v2.9
			C199,18.1,199.7,18.8,200.6,18.8z M207.1,21.5c0,0.1-0.1,0.1-0.1,0.1h-2.9c-0.1,0-0.1-0.1-0.1-0.1v-2.7c0,0,0-0.1,0-0.1l0.3-0.3
			c0,0,0,0,0,0l1.1-1.1c0,0,0.1,0,0.1,0c0,0,0.1,0,0.1,0l1.4,1.4c0,0,0,0.1,0,0.1V21.5z M207.8,14.3h2.7c0.1,0,0.1,0.1,0.1,0.1v2.9
			c0,0.1-0.1,0.1-0.1,0.1h-2.7c0,0-0.1,0-0.1,0l-1.4-1.4c0,0,0-0.1,0-0.1c0,0,0-0.1,0-0.1L207.8,14.3
			C207.7,14.3,207.8,14.3,207.8,14.3z M204,10.2c0-0.1,0.1-0.1,0.1-0.1h2.9c0.1,0,0.1,0.1,0.1,0.1v2.7c0,0,0,0.1,0,0.1l-1.4,1.4
			c-0.1,0.1-0.1,0.1-0.2,0l-1.1-1.1c0,0,0,0,0,0L204,13c0,0,0-0.1,0-0.1V10.2z M200.5,14.4c0-0.1,0.1-0.1,0.1-0.1h2.7
			c0,0,0.1,0,0.1,0l1.1,1.1c0,0,0,0,0,0l0.3,0.3c0,0,0,0.1,0,0.1c0,0,0,0.1,0,0.1l-0.3,0.3c0,0,0,0,0,0l-1.1,1.1c0,0-0.1,0-0.1,0
			h-2.7c-0.1,0-0.1-0.1-0.1-0.1V14.4z"/>
		<path class="st2" d="M221,19.8h1.8c0.8,0,1.5-0.7,1.5-1.4v-3.2c0-0.8-0.7-1.4-1.5-1.4H221c-0.8,0-1.5,0.7-1.5,1.4v3.2
			C219.6,19.1,220.2,19.8,221,19.8z M221,15.1h1.8c0,0,0,0,0,0l0,3.2l-1.8,0L221,15.1z"/>
		<path class="st2" d="M226.7,19.8h1.8c0.8,0,1.5-0.7,1.5-1.4v-3.2c0-0.8-0.7-1.4-1.5-1.4h-1.8c-0.8,0-1.5,0.7-1.5,1.4v3.2
			C225.3,19.1,225.9,19.8,226.7,19.8z M226.7,15.1h1.8c0,0,0,0,0,0l0,3.2l-1.8,0L226.7,15.1z"/>
		<g>
			<path class="st2" d="M309.1,186.1v-0.4c0-0.7-0.6-1.3-1.3-1.3h-1.2l0.4,0c-0.1-1.4-0.3-2.7-0.6-4c0.7-0.5,1.2-1.3,1.2-2.2
				c0-1.5-1.2-2.7-2.7-2.7c-0.1,0-0.2,0-0.2,0c-1.1-2.1-2.5-4-4.4-5.9c0.3-0.3,0.4-0.6,0.4-1c0-0.4-0.2-0.7-0.5-1
				c-4.7-4.1-11.2-6.4-18.5-6.4c-7.6,0-14,2.3-18.7,6.5c-0.3,0.3-0.4,0.6-0.4,1c0,0.4,0.1,0.7,0.4,1c-1.8,1.8-3.2,3.7-4.2,5.8
				c-0.2,0-0.3-0.1-0.5-0.1c-1.5,0-2.7,1.2-2.7,2.7c0,1,0.6,2,1.5,2.4c-0.3,1.2-0.5,2.5-0.6,3.8l0.4,0h-1.3c-0.7,0-1.3,0.6-1.3,1.3
				v0.4c-3.7,0.4-6.5,3.5-6.5,7.2v5c0,3.8,2.9,6.9,6.5,7.2v0.4c0,0.7,0.6,1.3,1.3,1.3h5.4c0.7,0,1.3-0.6,1.3-1.3v-0.7l1-0.2
				c0.9-0.2,1.6-1,1.6-1.9v-15.1c0-1.1-0.9-1.9-1.9-1.9h-0.6v-0.6c0-0.6-0.4-1.2-1-1.3h-3.3c0,0,0,0,0,0c0.1-1.3,0.3-2.4,0.6-3.5
				c1.4-0.1,2.6-1.3,2.6-2.7c0-0.8-0.3-1.5-0.9-2c1-1.9,2.3-3.7,3.9-5.4c0.3,0.3,0.6,0.4,1,0.4c0.3,0,0.7-0.1,0.9-0.4
				c3.9-3.5,9.3-5.4,15.8-5.4c6.2,0,11.7,1.9,15.6,5.3c0.6,0.5,1.4,0.5,1.9-0.1c1.7,1.7,3.1,3.4,4.1,5.3c-0.7,0.5-1.1,1.3-1.1,2.2
				c0,1.5,1.2,2.7,2.7,2.7c0.1,0,0.1,0,0.2,0c0.3,1.1,0.4,2.3,0.5,3.5c0,0,0,0,0,0h-3.4c-0.6,0.1-1,0.7-1,1.3v0.6h-0.6
				c-1.1,0-1.9,0.9-1.9,1.9v15.1c0,0.9,0.7,1.7,1.6,1.9l1,0.2v0.7c0,0.7,0.6,1.3,1.3,1.3h5.4c0.7,0,1.3-0.6,1.3-1.3v-0.4
				c3.7-0.4,6.5-3.5,6.5-7.2v-5C315.6,189.6,312.8,186.5,309.1,186.1z M253.9,204.1c-2.8-0.4-5.1-2.8-5.1-5.7v-5
				c0-2.9,2.2-5.4,5.1-5.7V204.1z M261.9,187.7h0.6c0.3,0,0.5,0.2,0.5,0.5v15.1c0,0.2-0.2,0.4-0.4,0.5l-0.7,0.1V187.7z M260.4,185.9
				v0.4v19.4v0.3h-5.1v-0.2v-19.5v-0.2H260.4z M258.6,179.2c-0.2,0.1-0.4,0.1-0.6,0.1c-0.1,0-0.1,0-0.2,0c-0.3,0-0.5-0.2-0.7-0.3
				c-0.2-0.2-0.4-0.6-0.4-0.9c0-0.7,0.5-1.2,1.1-1.3c0,0,0.1,0,0.1,0c0.2,0,0.4,0.1,0.6,0.2c0.2,0.1,0.4,0.3,0.6,0.6
				c0.1,0.2,0.1,0.3,0.1,0.5C259.3,178.6,259,179,258.6,179.2z M298.5,169.1l-0.4,0.5c-4.2-3.6-10-5.6-16.6-5.6
				c-6.8,0-12.6,2-16.7,5.7l-0.5-0.5l-0.5-0.5c4.4-4,10.5-6.1,17.6-6.1c6.8,0,13,2.1,17.5,6L298.5,169.1z M301.1,203.9l-0.7-0.1
				c-0.2,0-0.4-0.2-0.4-0.5v-15.1c0-0.3,0.2-0.5,0.5-0.5h0.6V203.9z M305.3,179.3c-0.2,0.1-0.3,0.1-0.5,0.1c-0.1,0-0.1,0-0.2,0
				c-0.6-0.1-1.1-0.6-1.1-1.2c0-0.3,0.1-0.6,0.3-0.8c0.2-0.2,0.4-0.3,0.6-0.4c0.1,0,0.2-0.1,0.3-0.1c0.2,0,0.3,0,0.5,0.1
				c0.5,0.2,0.8,0.6,0.8,1.2c0,0.2-0.1,0.4-0.1,0.6C305.8,178.9,305.6,179.2,305.3,179.3z M307.6,186.1v19.5v0.2h-5.1v-0.3v-19.4
				v-0.4h5.1V186.1z M314.2,198.4c0,2.9-2.2,5.4-5.1,5.7v-16.5c2.8,0.4,5.1,2.8,5.1,5.7V198.4z"/>
		</g>
		<g>
			<path class="st2" d="M171.5,170.2c0.3-0.3,0.3-0.8,0-1c-5.7-5.7-13.4-8.9-21.5-8.9c-8.1,0-15.8,3.2-21.5,8.9
				c-0.3,0.3-0.3,0.8,0,1c5.9,5.9,13.7,8.9,21.5,8.9C157.7,179.1,165.5,176.2,171.5,170.2z M169.9,169.7c-4.7,4.4-10.4,7-16.4,7.7
				c3.1-1.4,5.3-4.5,5.3-8.1c0-2.9-1.4-5.5-3.6-7.1C160.7,163.2,165.8,165.8,169.9,169.7z M150,161.9c4.1,0,7.4,3.3,7.4,7.4
				c0,4.1-3.3,7.4-7.4,7.4s-7.4-3.3-7.4-7.4C142.6,165.3,145.9,161.9,150,161.9z M130,169.7c4.1-3.9,9.2-6.5,14.7-7.5
				c-2.2,1.6-3.6,4.2-3.6,7.1c0,3.6,2.2,6.7,5.3,8.1C140.5,176.7,134.7,174.1,130,169.7z"/>
			<path class="st2" d="M150,174.1c2.6,0,4.7-2.1,4.7-4.7c0-2.6-2.1-4.7-4.7-4.7c-2.6,0-4.7,2.1-4.7,4.7
				C145.3,172,147.4,174.1,150,174.1z M150,166.2c0.8,0,1.5,0.3,2.1,0.8c-0.2-0.1-0.5-0.2-0.7-0.2c-0.8,0-1.5,0.7-1.5,1.5
				c0,0.8,0.7,1.5,1.5,1.5c0.8,0,1.5-0.7,1.5-1.5c0-0.2,0-0.3-0.1-0.5c0.3,0.5,0.4,1,0.4,1.6c0,1.8-1.4,3.2-3.2,3.2
				c-1.8,0-3.2-1.4-3.2-3.2C146.7,167.6,148.2,166.2,150,166.2z M151.4,168.2C151.4,168.2,151.3,168.2,151.4,168.2
				C151.3,168.2,151.3,168.2,151.4,168.2C151.3,168.2,151.3,168.2,151.4,168.2C151.3,168.2,151.4,168.2,151.4,168.2z"/>
			<path class="st2" d="M125,166.5c0.2,0.1,0.5,0.2,0.7,0.2c0.2,0,0.5-0.1,0.7-0.2l7-4.1c0.4-0.3,0.7-0.7,0.7-1.2
				c0-0.5-0.3-1-0.7-1.2l-2.7-1.5c4.1-2.7,11.2-4.3,18.9-4.3c7.8,0,15.1,1.7,19.2,4.5l-2.3,1.4c-0.4,0.3-0.7,0.7-0.7,1.2
				c0,0.5,0.3,1,0.7,1.2l7,4.1c0.2,0.1,0.5,0.2,0.7,0.2s0.5-0.1,0.7-0.2c0.5-0.3,0.7-0.7,0.7-1.2v-8.1c0-0.5-0.3-1-0.7-1.2
				c-0.5-0.3-1-0.3-1.4,0l-3.3,1.9c0-0.1-0.1-0.1-0.2-0.2c-4.2-3.1-12.1-5-20.4-5c-8.3,0-16.1,1.9-20.3,5l-2.9-1.7
				c-0.4-0.3-1-0.3-1.4,0c-0.4,0.3-0.7,0.7-0.7,1.2v8.1C124.3,165.7,124.6,166.2,125,166.5z M175,165.2h-0.7H175z M174.3,157.2v8
				l-6.9-4L174.3,157.2z M125.8,157.2l3.2,1.8l0.2,0.1l3.5,2l-6.9,4V157.2z M125.8,165.2L125.8,165.2H125H125.8z"/>
			<path class="st2" d="M126.4,174.4c0-0.4-0.3-0.7-0.7-0.7c-0.4,0-0.7,0.3-0.7,0.7v24.3c0,5.5,12.7,8.8,25,8.8
				c12.3,0,25-3.3,25-8.8v-24.3c0-0.4-0.3-0.7-0.7-0.7c-0.4,0-0.7,0.3-0.7,0.7c0,3.4-9.7,7.3-23.6,7.3
				C136.1,181.6,126.4,177.8,126.4,174.4z M173.5,177.4v21.2c0,3.4-9.7,7.3-23.6,7.3c-13.9,0-23.6-3.8-23.6-7.3v-21.2
				c3.7,3.6,13.8,5.7,23.6,5.7S169.8,181,173.5,177.4z"/>
			<path class="st2" d="M166.3,200.6c0.2,0.1,0.4,0.2,0.7,0.2c0.1,0,0.3,0,0.4-0.1c1.8-0.7,3.8-1.7,3.8-2.9v-3
				c0-0.4-0.2-0.9-0.6-1.1c-0.3-0.2-0.8-0.2-1.1,0c-0.8,0.4-1.8,0.8-2.9,1.2c-0.5,0.2-0.8,0.6-0.8,1.2v3.5
				C165.8,200,166,200.4,166.3,200.6z M167.3,196.3c0.9-0.3,1.8-0.6,2.5-1v2.5c-0.1,0.2-0.7,0.8-2.5,1.5V196.3z"/>
			<path class="st2" d="M132.3,200.8c0.1,0,0.3,0.1,0.4,0.1c0.2,0,0.5-0.1,0.7-0.2c0.3-0.2,0.5-0.6,0.5-1v-3.5c0-0.5-0.3-1-0.8-1.2
				c-1.2-0.4-2.2-0.8-3-1.2c-0.4-0.2-0.8-0.2-1.1,0c-0.4,0.2-0.6,0.6-0.6,1.1v3C128.3,199.1,130.5,200.2,132.3,200.8z M129.8,195.3
				c0.8,0.4,1.7,0.7,2.6,1.1v3c-1.9-0.7-2.5-1.3-2.6-1.5V195.3z"/>
			<path class="st2" d="M143.9,202.9c1.2,0.1,2.5,0.2,3.8,0.2c0,0,0,0,0,0c0.3,0,0.6-0.1,0.8-0.3c0.2-0.2,0.4-0.6,0.4-0.9v-3.7
				c0-0.7-0.5-1.2-1.2-1.2c-1.2,0-2.5-0.1-3.7-0.2c-0.3,0-0.6,0.1-0.9,0.3c-0.3,0.2-0.4,0.6-0.4,0.9v3.7
				C142.8,202.3,143.3,202.8,143.9,202.9z M144.3,198.2c1,0.1,2.1,0.1,3.2,0.2v3.2c-1.1,0-2.1-0.1-3.2-0.2V198.2z"/>
			<path class="st2" d="M151.8,203.1C151.8,203.1,151.8,203.1,151.8,203.1c1.4,0,2.7-0.1,4-0.2c0.6-0.1,1.1-0.6,1.1-1.2V198
				c0-0.4-0.1-0.7-0.4-0.9c-0.2-0.2-0.6-0.3-0.9-0.3c-1.3,0.1-2.5,0.2-3.8,0.2c-0.6,0-1.2,0.6-1.2,1.2v3.7c0,0.3,0.1,0.7,0.4,0.9
				C151.2,202.9,151.5,203.1,151.8,203.1z M152.1,198.4c1.1,0,2.2-0.1,3.3-0.2v3.2c-1.1,0.1-2.2,0.1-3.3,0.2V198.4z"/>
			<path class="st2" d="M136.5,201.9c1.1,0.2,2.2,0.4,3.4,0.6c0.1,0,0.1,0,0.2,0c0.3,0,0.5-0.1,0.8-0.3c0.3-0.2,0.4-0.6,0.4-1v-3.6
				c0-0.6-0.4-1.1-1-1.2c-1.1-0.1-2.2-0.3-3.2-0.5c-0.3-0.1-0.7,0-1,0.2c-0.3,0.2-0.5,0.6-0.5,1v3.6
				C135.5,201.3,135.9,201.8,136.5,201.9z M137,197.4c0.9,0.2,1.8,0.3,2.7,0.5v3.2c-0.9-0.1-1.8-0.3-2.7-0.5V197.4z"/>
			<path class="st2" d="M159.7,202.5c0.1,0,0.1,0,0.2,0c1.2-0.2,2.3-0.4,3.4-0.6c0.5-0.1,0.9-0.6,0.9-1.2V197c0-0.4-0.2-0.7-0.5-1
				c-0.3-0.2-0.6-0.3-1-0.2c-1,0.2-2.1,0.4-3.2,0.5c-0.6,0.1-1,0.6-1,1.2v3.6c0,0.4,0.2,0.7,0.4,1
				C159.1,202.4,159.4,202.5,159.7,202.5z M160,197.8c0.9-0.1,1.8-0.3,2.7-0.5v3.1c-0.9,0.2-1.8,0.4-2.7,0.5V197.8z"/>
		</g>
		<g>
			<path class="st2" d="M366.8,5.8c2.9-2.9,8.3-2.3,11.9,1.3c3.7,3.7,4.2,9,1.3,11.9c-0.3,0.3-0.3,0.8,0,1.1
				c0.1,0.1,0.3,0.2,0.5,0.2c0.2,0,0.4-0.1,0.5-0.2c3.5-3.5,2.9-9.8-1.3-14.1c-4.2-4.2-10.5-4.8-14.1-1.3c-0.3,0.3-0.3,0.8,0,1.1
				C366,6.1,366.5,6.1,366.8,5.8z"/>
			<path class="st2" d="M366,10.9c2.5-2.5,6.6-2.5,9.1,0c2.5,2.5,2.5,6.6,0,9.1c-0.3,0.3-0.3,0.8,0,1.1c0.1,0.1,0.3,0.2,0.5,0.2
				c0.2,0,0.4-0.1,0.5-0.2c3.1-3.1,3.1-8.2,0-11.3c-3.1-3.1-8.2-3.1-11.3,0c-0.3,0.3-0.3,0.8,0,1.1C365.2,11.2,365.7,11.2,366,10.9z
				"/>
			<path class="st2" d="M329,20.3c0.2,0,0.4-0.1,0.5-0.2c0.3-0.3,0.3-0.8,0-1.1c-2.9-2.9-2.3-8.3,1.3-11.9c3.7-3.7,9-4.2,11.9-1.3
				c0.3,0.3,0.8,0.3,1.1,0c0.3-0.3,0.3-0.8,0-1.1c-3.5-3.5-9.8-2.9-14.1,1.3c-4.2,4.2-4.8,10.5-1.3,14.1
				C328.7,20.2,328.9,20.3,329,20.3z"/>
			<path class="st2" d="M333.4,9.8c-3.1,3.1-3.1,8.2,0,11.3c0.1,0.1,0.3,0.2,0.5,0.2c0.2,0,0.4-0.1,0.5-0.2c0.3-0.3,0.3-0.8,0-1.1
				c-2.5-2.5-2.5-6.6,0-9.1c2.5-2.5,6.6-2.5,9.1,0c0.3,0.3,0.8,0.3,1.1,0c0.3-0.3,0.3-0.8,0-1.1C341.6,6.7,336.5,6.7,333.4,9.8z"/>
			<path class="st2" d="M372.5,12.8c-0.7-0.6-1.5-0.9-2.3-0.9c-1.1,0-2.2,0.5-3,1.5l0,0c-0.5,0.5-2.9,3.4-7.1,8.4
				c-1.3,1.6-3.3,2.5-5.3,2.5h0c-2.1,0-4-0.9-5.3-2.5c-4.2-4.9-6.6-7.8-7.1-8.4c-0.8-0.9-1.8-1.5-3-1.5c-0.9,0-1.7,0.3-2.3,0.9
				c-1.7,1.4-2,3.9-0.7,5.6l9.5,11.7c0,1.5-0.1,8.5-0.2,13.6c-1.3,1.5-8.8,10.6-9.1,11c-1.4,1.7-1.2,4.1,0.4,5.4
				c0.7,0.6,1.6,0.9,2.6,0.9c1.2,0,2.2-0.5,3-1.4l0.6-0.7c8.4-10.2,10.7-12.6,11.3-13.1h0.3c0.2,0,0.3,0.1,0.4,0.2
				c0.2,0.2,0.3,0.5,0.3,0.8c0,0.2,0,1.8,0,3.8c0,2.8-0.1,6.3-0.1,7.3c0,1,0.4,2,1.1,2.7c0.8,0.8,1.8,1.2,2.8,1.2
				c2.1,0,3.7-1.7,3.8-3.9c0-1,0.3-25.1,0.3-27.9c5.1-6.2,9.3-11.2,9.7-11.7C374.4,16.7,374.2,14.2,372.5,12.8z M371.9,17.4
				c-0.4,0.5-4.7,5.7-9.9,12l-0.2,0.2l0,0.3c0,0.3-0.3,27.1-0.3,28.2c0,1.4-1,2.4-2.3,2.4c-0.7,0-1.3-0.3-1.8-0.8
				c-0.4-0.5-0.7-1-0.7-1.6c0-1,0-4.5,0.1-7.3c0-1.9,0-3.5,0-3.8c0-0.7-0.3-1.4-0.7-1.9c-0.4-0.4-0.9-0.6-1.5-0.6h-0.6l0,0
				c-0.5,0.1-1.1,0.1-12.2,13.6l-0.6,0.7c-0.4,0.5-1.1,0.8-1.8,0.8c-0.6,0-1.2-0.2-1.6-0.6c-1-0.8-1-2.2-0.2-3.3
				c0.4-0.4,9.2-11,9.3-11.2l0.2-0.2l0-0.3c0.1-5.8,0.2-14.2,0.2-14.2l0-0.3l-9.8-12.2c-0.8-1-0.6-2.6,0.5-3.5
				c0.4-0.3,0.9-0.5,1.4-0.5c0.7,0,1.3,0.3,1.8,0.9c0.6,0.7,4.2,5,7.1,8.4c1.6,1.9,4,3,6.5,3h0c2.5,0,4.9-1.1,6.5-3
				c4.3-5,6.6-7.8,7.1-8.4c0.5-0.6,1.2-0.9,1.8-0.9c0.5,0,1,0.2,1.4,0.5C372.6,14.8,372.7,16.4,371.9,17.4z"/>
			<path class="st2" d="M354.8,22.4c3.8,0,7-3.2,7-7c0-1.9-0.7-3.7-2-5c-1.3-1.3-3-2-4.9-2c-3.8,0-7,3.2-7,7c0,1.9,0.7,3.7,2,5
				C351.2,21.7,352.9,22.4,354.8,22.4z M354.8,20.9c-1.4,0-2.8-0.6-3.8-1.6c-0.3-0.3-0.6-0.6-0.8-1h9.3
				C358.5,19.9,356.8,20.9,354.8,20.9z M354.9,9.8c1.4,0,2.8,0.6,3.8,1.6c0.3,0.3,0.5,0.6,0.7,0.9h-9.1
				C351.3,10.8,353,9.8,354.9,9.8z M349.4,15.4c0-0.5,0.1-1,0.2-1.5h10.5c0.1,0.5,0.2,1,0.2,1.5c0,0.5-0.1,1-0.2,1.4h-10.6
				C349.5,16.3,349.4,15.9,349.4,15.4z"/>
		</g>
		<path class="st3" d="M61.4,94.3c-0.2-0.2-0.4-0.3-0.6-0.4c-0.4-0.2-0.7-0.4-1.1-0.6c0.3,0.3,0.6,0.6,0.9,1
			c0.1,0.1,0.2,0.3,0.3,0.5c0.5,0.8,0.8,1.8,0.8,2.8c0,0.1,0,0.2,0,0.4l0,7.3v0v0.9c0,0.2,0,0.3,0,0.5c-0.1,1.5-0.6,3-1.5,4.3
			c-1,1.4-2.6,2.5-4.8,2.7c-5.8,1-11.7,1.5-17.5,1.5c-5.8,0-11.6-0.5-17.3-1.5c-3-0.5-4.7-2.2-5.6-4.1c-0.5-1.1-0.7-2.3-0.7-3.4
			v-0.9v-7.3c0-1,0.3-2,0.7-2.9c0-0.1,0.1-0.2,0.1-0.3c0.3-0.5,0.7-1,1.1-1.5c-0.4,0.1-0.8,0.3-1.1,0.6c-0.2,0.1-0.4,0.3-0.6,0.4
			c-0.5,0.4-0.9,0.9-1.3,1.5c-0.5,0.9-0.8,1.9-0.8,3v9.3c0,1.5,0.4,2.9,1,4c0.3,0.6,0.7,1,1.2,1.5c0.9,0.8,2.2,1.4,3.6,1.6
			c13,2.2,26.2,2.2,39.4,0l0,0c1.6-0.2,2.8-0.8,3.7-1.6c0.5-0.4,0.8-0.9,1.1-1.5c0.7-1.2,1-2.7,1-4v-9.3c0-1.1-0.3-2.1-0.8-3
			C62.3,95.2,61.9,94.7,61.4,94.3z"/>
		<path class="st2" d="M69.5,110.6v-2.1h0.1c1.1,0,1.9-0.8,1.9-1.8V101c0-1-0.9-1.8-1.9-1.8h-0.1v-2.1c0-1.6-1.5-2.9-3.2-2.9h-2.8
			c-0.7-0.9-1.6-1.6-2.7-2.1v-3.5c0-5.2-2.7-9.9-7.1-13.2c0.1-0.2,0.1-0.5,0.1-0.7c0-0.6-0.3-1.1-0.8-1.4c-3.8-2.8-9.1-4.2-15.2-4.2
			h0h0c-5.9,0-11.2,1.5-15,4.2c-0.5,0.3-0.8,0.9-0.8,1.4c0,0.3,0,0.5,0.1,0.8c-4.4,3.3-7.1,8-7.1,13.2v3.5c-1,0.5-2,1.2-2.7,2.1H8.9
			c-1.8,0-3.2,1.3-3.2,2.9v2.1H5.5c-1.1,0-1.9,0.8-1.9,1.8v5.7c0,1,0.9,1.8,1.9,1.8h0.1v2.1c0,1.6,1.5,2.9,3.2,2.9h3.7
			c1.2,1.6,3.1,2.7,5.4,3.1c6.6,1.1,13.2,1.7,19.9,1.7c6.7,0,13.3-0.6,20-1.7c2.5-0.3,4.3-1.5,5.4-3.1h1.8c-0.5,9.4-10,15.8-17,16.5
			c-0.5-1.6-2.3-2.7-4.6-2.7c-2.6,0-4.7,1.5-4.7,3.5c0,2,2.1,3.5,4.7,3.5c2.3,0,4.2-1.2,4.6-2.8c8.5-0.7,18-8.4,18.5-17.9
			C68.2,113.3,69.5,112.1,69.5,110.6z M43.5,132.8c-1.7,0-3.2-0.9-3.2-2c0-1.1,1.5-2,3.2-2c1.7,0,3.2,0.9,3.2,2
			C46.7,131.8,45.2,132.8,43.5,132.8z M23.7,74.4c0.3-0.2,0.6-0.4,0.9-0.6c1.3-0.8,2.6-1.4,4.2-1.9c2.7-0.9,5.8-1.4,9.1-1.4
			c3.4,0,6.5,0.5,9.2,1.4c1.1,0.4,2.2,0.8,3.2,1.4c0.7,0.4,1.3,0.8,1.9,1.2c0.2,0.2,0.2,0.4,0,0.6l-0.7,0.6l-0.1,0.1
			c-0.1,0.1-0.2,0.1-0.4,0.1c-0.1,0-0.3,0-0.4-0.1c-3.1-2.3-7.6-3.5-12.8-3.5c-5,0-9.5,1.2-12.7,3.4c-0.1,0.1-0.2,0.1-0.4,0.1
			c-0.1,0-0.3,0-0.4-0.1l0,0L23.7,75C23.5,74.9,23.5,74.6,23.7,74.4z M16.6,88.7c0-4.8,2.5-9.1,6.6-12.1l0.3,0.3
			c0.4,0.3,0.8,0.5,1.3,0.5c0.4,0,0.8-0.1,1.2-0.4c2.9-2,7.1-3.2,11.8-3.2c4.9,0,9.1,1.1,11.9,3.2c0.3,0.3,0.8,0.4,1.2,0.4
			c0.5,0,0.9-0.2,1.3-0.5l0.4-0.3c4,3.1,6.6,7.4,6.6,12.1v2.9c-0.5-0.1-1-0.2-1.6-0.2h-2.5H20.7h-2.5c-0.5,0-1.1,0.1-1.6,0.2V88.7z
			 M20.7,92.9h34.5c1.7,0,3.2,0.9,4.1,2.2c0.4,0.5,0.6,1.1,0.7,1.8c0,0.2,0.1,0.4,0.1,0.6c0,0.1,0,0.2,0,0.4l0,7.3v0
			c0,0.2,0,0.3,0,0.5c-0.2,2.4-1.5,5.1-4.9,5.5c-4.6,0-6.9-0.6-9.1-1.2c-2.1-0.6-4.2-1.2-8.2-1.2c-4.4,0-6.6,0.6-8.8,1.2
			c-2.2,0.6-4.2,1.2-8.5,1.2c-3.9,0-4.9-3.8-4.9-6.1v-7.3c0-0.3,0-0.7,0.1-1c0.1-0.6,0.4-1.2,0.7-1.8C17.5,93.8,19,92.9,20.7,92.9z
			 M52,112.6c-9.4,1.3-18.9,1.3-28.2,0c2.5-0.2,4.1-0.7,5.7-1.1c2.2-0.6,4.2-1.2,8.4-1.2c3.8,0,5.7,0.5,7.8,1.1
			C47.4,111.9,49.2,112.3,52,112.6z M8.9,112c-1,0-1.8-0.6-1.8-1.4V107H5.5c-0.3,0-0.5-0.2-0.5-0.3V101c0-0.1,0.2-0.3,0.5-0.3h1.6
			v-3.6c0-0.8,0.8-1.4,1.8-1.4h2.7c-0.4,0.9-0.7,1.9-0.6,3v9.3c0,1.5,0.3,2.8,0.8,4H8.9z M63.5,108.1c0,1.3-0.3,2.7-1,4
			c-0.3,0.5-0.7,1-1.1,1.5c-0.9,0.8-2.1,1.4-3.7,1.6l0,0c-13.2,2.2-26.4,2.2-39.4,0c-1.4-0.2-2.7-0.8-3.6-1.6
			c-0.5-0.4-0.9-0.9-1.2-1.5c-0.7-1.1-1-2.4-1-4v-9.3c0-1.1,0.3-2.1,0.8-3c0.3-0.6,0.8-1.1,1.3-1.5c0.2-0.2,0.4-0.3,0.6-0.4
			c0.4-0.2,0.7-0.4,1.1-0.6c-0.4,0.4-0.8,0.9-1.1,1.5C15.1,94.8,15,94.9,15,95c-0.4,0.9-0.7,1.8-0.7,2.9v7.3v0.9
			c0,1.1,0.2,2.3,0.7,3.4c0.9,2,2.6,3.6,5.6,4.1c5.7,1,11.5,1.5,17.3,1.5c5.8,0,11.6-0.5,17.5-1.5c2.2-0.3,3.8-1.3,4.8-2.7
			c0.9-1.2,1.4-2.8,1.5-4.3c0-0.2,0-0.3,0-0.5v-0.9v0l0-7.3c0-0.1,0-0.2,0-0.4c-0.1-1-0.3-1.9-0.8-2.8c-0.1-0.2-0.2-0.3-0.3-0.5
			c-0.3-0.4-0.5-0.7-0.9-1c0.4,0.1,0.8,0.3,1.1,0.6c0.2,0.1,0.4,0.3,0.6,0.4c0.5,0.4,0.9,0.9,1.3,1.5c0.5,0.9,0.8,1.9,0.8,3V108.1z
			 M64.2,112c0.6-1.2,0.8-2.6,0.8-4v-9.3c0-1.1-0.2-2.1-0.6-3h1.9c1,0,1.8,0.6,1.8,1.4v3.6h1.6c0.3,0,0.5,0.2,0.5,0.3v5.7
			c0,0.1-0.2,0.3-0.5,0.3H68v3.6c0,0.8-0.8,1.4-1.8,1.4H64.2z"/>
		<path class="st4" d="M38,102.1c1.2,0,2.2-1,2.2-2.2v-3c0-1.2-1-2.2-2.2-2.2c-1.2,0-2.2,1-2.2,2.2v3
			C35.8,101.1,36.7,102.1,38,102.1z M37.2,96.9c0-0.4,0.3-0.7,0.7-0.7c0.4,0,0.7,0.3,0.7,0.7v3c0,0.4-0.3,0.7-0.7,0.7
			c-0.4,0-0.7-0.3-0.7-0.7V96.9z"/>
		<g>
			<path class="st2" d="M358.8,195.7c-3,0.6-6.1,0.6-9.1,0c-0.4-0.1-0.8,0.2-0.9,0.6c-0.1,0.4,0.2,0.8,0.6,0.9
				c1.6,0.3,3.2,0.5,4.8,0.5c1.6,0,3.2-0.2,4.8-0.5c0.4-0.1,0.7-0.5,0.6-0.9C359.5,195.9,359.2,195.6,358.8,195.7z"/>
			<path class="st2" d="M380.8,170.4h-1.1c-0.1,0-0.2,0-0.3,0.1c-0.6-1.5-1.6-2.7-2.9-3.5v-4c0-10.7-10.1-19.4-22.4-19.4
				c-12.4,0-22.4,8.7-22.4,19.4l0,4c-1.3,0.8-2.3,2.1-2.9,3.5c-0.1,0-0.2-0.1-0.3-0.1h-1.1c-1.4,0-2.6,1.2-2.6,2.6v8.1
				c0,1.6,0.9,2.7,2.4,3l1.2,0c0,0,0,0,0,0c0.5,2.3,1.9,4.6,4.7,5.7c0.2,1.6,0.7,7.5-6.1,12c-0.6,0.4-0.8,1.1-0.6,1.7
				c0.2,0.7,0.8,1.1,1.4,1.1h18.2c0.1,0,0.3,0,0.4-0.1c2.6,1.7,5.4,2.7,7.5,2.7c2.2,0,4.9-1,7.6-2.6c0.1,0,0.1,0,0.2,0h18.3
				c0.7,0,1.3-0.4,1.4-1.1c0.2-0.7-0.1-1.4-0.6-1.7c-6.6-4.5-6.3-10.3-6.1-11.9c2.6-1,4.2-3.3,4.7-5.8c0,0,0,0,0,0h1.1l0.1,0
				c1.5-0.3,2.4-1.4,2.4-3v-8.1C383.4,171.6,382.3,170.5,380.8,170.4z M328.4,182.7h-0.8c-0.9-0.2-1.1-0.9-1.1-1.5v-8.1
				c0-0.6,0.5-1.1,1.1-1.1h1c-0.1,0.3-0.1,0.7-0.1,1v9.1C328.4,182.3,328.4,182.5,328.4,182.7z M354.2,145.1
				c11.4,0,20.7,7.9,20.9,17.6c-1-1.1-2.5-1.4-3.8-1.6c-2.9-0.5-5.9-1-6.1-10.9c0-0.4-0.3-0.8-0.8-0.8h0c-0.4,0-0.7,0.3-0.7,0.8
				c0,3.6-0.8,6.1-2.4,7.7c-2.7,2.7-7.5,2.6-12.5,2.5c-5.2-0.1-10.6-0.2-13.9,3.1c-0.6,0.6-1.1,1.3-1.6,2.1l0-2.7
				C333.3,153.1,342.7,145.1,354.2,145.1z M362,183.9c-2-0.6-4-1.1-7.8-1.1c-4.2,0-6.3,0.6-8.4,1.2c-2.1,0.6-4,1.1-8,1.1
				c-3.6,0-4.6-3.7-4.6-5.8v-5.9v-1.2c0-0.6,0.1-1.2,0.3-1.7c0.7-1.8,2.4-3,4.3-3h32.8c2.6,0,4.7,2.2,4.7,4.8v7.1v0
				c0,2.4-1.2,5.4-4.7,5.8C366.2,185.1,364.1,184.5,362,183.9z M367.1,186.5c-8.6,1.2-17.3,1.2-25.8,0c2.1-0.2,3.6-0.6,5-1
				c2.1-0.6,4-1.1,8-1.1c3.6,0,5.4,0.5,7.4,1.1C363.1,185.8,364.7,186.3,367.1,186.5z M373,165.9h-2.4h-32.8h-2.4
				c-0.2,0-0.4,0-0.5,0c0.3-0.5,0.7-1,1.1-1.4c2.8-2.9,7.9-2.8,12.8-2.7c5.1,0.1,10.4,0.2,13.6-3c0.8-0.8,1.4-1.8,1.9-3
				c1.2,5.7,4.2,6.2,6.8,6.6c2.1,0.4,3.6,0.6,4,3.7C374.4,166,373.7,165.9,373,165.9z M328.1,203.2c6.6-4.4,7-10.3,6.8-12.8
				c0,0,0,0,0,0c0.1,0,0.2,0.1,0.3,0.1c0.6,0.1,1.2,0.2,1.9,0.3c0.2,1.1,0.4,2.2,0.8,3.2c1.4,3.7,4,6.9,6.9,9.2L328.1,203.2z
				 M354.3,205.8c-5.2,0-14.2-6.7-15.6-14.8c5.1,0.7,10.3,1.1,15.5,1.1c5.3,0,10.6-0.4,15.8-1.1
				C368.8,199.1,359.7,205.8,354.3,205.8z M380.3,203.2h-16.4c3.1-2.5,5.8-5.9,7-9.8c0.3-0.9,0.5-1.8,0.6-2.7
				c0.6-0.1,1.1-0.2,1.7-0.3c0.1,0,0.2,0,0.3-0.1c0,0,0,0,0,0C373.3,192.9,373.7,198.8,380.3,203.2z M378.5,182.1
				c0,2.5-1.1,5.4-4,6.5c-0.2,0.1-0.3,0.1-0.5,0.2c-0.3,0.1-0.6,0.2-1,0.2l0,0c-3.8,0.7-7.7,1.1-11.5,1.4c-4.9,0.3-9.8,0.3-14.6,0
				c-3.8-0.3-7.6-0.7-11.3-1.4c-0.4-0.1-0.8-0.2-1.2-0.3c0,0-0.1,0-0.1,0c-3.8-1.3-4.2-4.9-4.2-6.5V173c0-1.7,0.7-3.1,1.9-4.2
				c0.2-0.2,0.5-0.4,0.8-0.6c0.2-0.1,0.4-0.2,0.6-0.3c0.1,0,0.1-0.1,0.2-0.1c-0.1,0.1-0.1,0.2-0.2,0.2c-0.2,0.2-0.4,0.5-0.6,0.8
				c-0.3,0.5-0.6,1.1-0.7,1.8c-0.1,0.5-0.2,1-0.2,1.5v7.1v0.9c0,3.1,1.6,6.6,6,7.4c5.4,0.9,11,1.4,16.5,1.4c5.5,0,11.1-0.5,16.6-1.4
				c4.2-0.5,6-4.1,6-7.4v-0.9v0v-7.1c0-1.2-0.3-2.3-0.9-3.3c-0.2-0.3-0.5-0.7-0.7-1c0,0,0-0.1-0.1-0.1c0,0,0,0,0.1,0
				c0.5,0.2,0.9,0.5,1.3,0.8c1.3,1,2.1,2.6,2.1,4.3V182.1z M381.9,181.2c0,0.6-0.2,1.3-1.1,1.5h-0.8c0-0.2,0-0.4,0-0.6V173
				c0-0.4,0-0.7-0.1-1h0.9c0.6,0,1.1,0.5,1.1,1.1V181.2z"/>
			<path class="st2" d="M354.2,169.4c-1.2,0-2.2,1-2.2,2.2v2.8c0,1.2,1,2.2,2.2,2.2c1.2,0,2.2-1,2.2-2.2v-2.8
				C356.4,170.3,355.4,169.4,354.2,169.4z M354.9,174.3c0,0.4-0.3,0.7-0.7,0.7c-0.4,0-0.7-0.3-0.7-0.7v-2.8c0-0.4,0.3-0.7,0.7-0.7
				c0.4,0,0.7,0.3,0.7,0.7V174.3z"/>
		</g>
		<g>
			<path class="st3" d="M241,82.2c-0.2-0.2-0.5-0.4-0.7-0.5c-0.2-0.1-0.4-0.2-0.6-0.3c-0.2-0.1-0.4-0.2-0.6-0.3
				c0.3,0.3,0.5,0.5,0.7,0.8c0.2,0.2,0.3,0.4,0.5,0.7c0.3,0.6,0.6,1.2,0.7,1.9c0.1,0.5,0.2,0.9,0.2,1.4v7.5v0.9c0,3.5-2,7.2-6.4,7.7
				c-6,1-11.9,1.5-17.9,1.5c-6,0-11.9-0.5-17.8-1.5c-4.7-0.8-6.4-4.5-6.4-7.7v-0.9v-7.5c0-0.5,0.1-1.1,0.2-1.6
				c0.2-0.6,0.4-1.2,0.7-1.7c0.2-0.3,0.3-0.5,0.5-0.7c0.2-0.3,0.4-0.5,0.7-0.7c-0.2,0.1-0.4,0.1-0.6,0.2c-0.2,0.1-0.4,0.2-0.6,0.3
				c-0.3,0.2-0.5,0.3-0.7,0.5c-1.3,1.1-2.2,2.7-2.2,4.6v9.6c0,3.9,2.3,6.6,6,7.3c4.5,0.8,8.9,1.3,13.5,1.5
				c5.3,0.3,10.7,0.2,16.1-0.2c3.6-0.3,7.3-0.7,10.9-1.3l0,0c4.4-0.5,6-4.2,6-7.3v-9.6C243.2,84.9,242.4,83.3,241,82.2z"/>
			<path class="st2" d="M211,110.4c-0.1,0.4,0.2,0.8,0.6,0.9c1.8,0.3,3.5,0.5,5.3,0.5c1.8,0,3.6-0.2,5.3-0.5
				c0.4-0.1,0.7-0.5,0.6-0.9c-0.1-0.4-0.5-0.7-0.9-0.6c-3.4,0.6-6.7,0.6-10.1,0C211.5,109.8,211.1,110,211,110.4z"/>
			<path class="st2" d="M248.4,95.4v-8.6c0-1.5-1.2-2.7-2.7-2.7h-1.1c-0.1,0-0.2,0-0.3,0.1c-0.6-1.6-1.7-2.9-3.1-3.8V76
				c0-11.2-10.8-20.4-24.1-20.4c-13.3,0-24.1,9.1-24.1,20.4l0,4.4c-1.4,0.9-2.6,2.2-3.2,3.8c-0.1-0.1-0.2-0.1-0.3-0.1h-1.2
				c-1.5,0-2.7,1.2-2.7,2.7v8.6c0,1.6,1,2.8,2.6,3.1l1.3,0c0,0,0.1,0,0.1,0c0.7,3.5,3.2,5.9,7,6.6c0.2,0,0.4,0.1,0.5,0.1
				c0,0.1,0,0.1,0,0.2c1.3,9.8,10,17.4,19.9,17.4c10,0,18.8-7.9,19.9-17.6c0.2,0,0.4-0.1,0.5-0.1c4.1-0.5,6.4-3.4,7-6.6
				c0,0,0.1,0,0.1,0h1.2l0.1,0C247.4,98.2,248.4,97,248.4,95.4z M189.3,97h-1c-1.1-0.2-1.3-1.1-1.3-1.6v-8.6c0-0.7,0.6-1.2,1.2-1.2
				h1.1c-0.1,0.4-0.1,0.8-0.1,1.2v9.6C189.3,96.5,189.3,96.8,189.3,97z M217,57c12.5,0,22.6,8.5,22.6,18.9V78
				c-1.1-3-3.1-5.7-6.7-5.7c-1.5,0-3,0.5-4.7,1.1c-2.7,0.9-6,2-11.2,2c-5.2,0-8.6-1.1-11.2-2c-1.7-0.6-3.2-1.1-4.7-1.1
				c-3.6,0-5.6,2.7-6.7,5.8l0-2.2C194.3,65.5,204.5,57,217,57z M225.3,98.3c-2.1-0.6-4.3-1.2-8.4-1.2c-4.5,0-6.8,0.6-9,1.3
				c-2.2,0.6-4.3,1.2-8.7,1.2c-4,0-5-3.9-5.1-6.2v-6.4v-1.1c0-0.7,0.1-1.3,0.4-1.9c0.8-1.8,2.6-3.1,4.7-3.2h35.3
				c2.2,0,4.1,1.4,4.8,3.4c0.2,0.5,0.3,1.1,0.3,1.7v1v6.5c0,2.6-1.3,5.8-5.1,6.2C229.9,99.6,227.6,98.9,225.3,98.3z M231.5,100.9
				c-9.8,1.4-19.6,1.3-29.2,0c2.7-0.2,4.4-0.7,6-1.1c2.2-0.6,4.3-1.2,8.6-1.2c3.9,0,5.9,0.6,8,1.1
				C226.7,100.2,228.5,100.7,231.5,100.9z M237.2,79.3h-2.6h-35.4h-2.6c-0.4,0-0.8,0-1.2,0.1c0.9-2.9,2.6-5.6,5.6-5.6
				c1.3,0,2.6,0.4,4.2,1c2.6,0.9,6.2,2.1,11.7,2.1c5.5,0,9.1-1.2,11.7-2.1c1.7-0.6,3-1,4.2-1c3,0,4.7,2.7,5.6,5.6
				C238.1,79.4,237.7,79.3,237.2,79.3z M216.9,121.2c-9.1,0-17.1-7-18.4-15.9c6.1,0.9,12.2,1.4,18.3,1.4c6.1,0,12.3-0.5,18.5-1.4
				C234.2,114.2,226,121.2,216.9,121.2z M243.2,96.3c0,3-1.6,6.8-6,7.3l0,0c-3.6,0.6-7.3,1-10.9,1.3c-5.4,0.4-10.7,0.5-16.1,0.2
				c-4.5-0.2-9-0.7-13.5-1.5c-3.8-0.6-6-3.4-6-7.3v-9.6c0-1.8,0.8-3.5,2.2-4.6c0.2-0.2,0.5-0.4,0.7-0.5c0.2-0.1,0.4-0.2,0.6-0.3
				c0.2-0.1,0.4-0.2,0.6-0.2c-0.2,0.2-0.5,0.5-0.7,0.7c-0.2,0.2-0.3,0.5-0.5,0.7c-0.3,0.5-0.6,1.1-0.7,1.7c-0.1,0.5-0.2,1-0.2,1.6
				v7.5v0.9c0,3.2,1.7,6.9,6.4,7.7c5.9,1,11.8,1.5,17.8,1.5c6,0,11.9-0.5,17.9-1.5c4.4-0.5,6.4-4.2,6.4-7.7v-0.9v-7.5
				c0-0.5-0.1-0.9-0.2-1.4c-0.1-0.7-0.4-1.3-0.7-1.9c-0.1-0.2-0.3-0.5-0.5-0.7c-0.2-0.3-0.5-0.6-0.7-0.8c0.2,0.1,0.4,0.2,0.6,0.3
				c0.2,0.1,0.4,0.2,0.6,0.3c0.3,0.2,0.5,0.3,0.7,0.5c1.3,1.1,2.1,2.7,2.1,4.5V96.3z M246.9,95.4c0,0.5-0.2,1.4-1.3,1.6h-1
				c0-0.2,0-0.5,0-0.7v-9.6c0-0.4,0-0.8-0.1-1.2h1.1c0.7,0,1.2,0.6,1.2,1.2V95.4z"/>
			<path class="st2" d="M217,82.6c-1.2,0-2.2,1-2.2,2.2V88c0,1.2,1,2.2,2.2,2.2c1.2,0,2.2-1,2.2-2.2v-3.1
				C219.2,83.6,218.2,82.6,217,82.6z M217.7,88c0,0.4-0.3,0.8-0.8,0.8c-0.4,0-0.8-0.3-0.8-0.8v-3.1c0-0.4,0.3-0.8,0.8-0.8
				c0.4,0,0.8,0.3,0.8,0.8V88z"/>
		</g>
		<path class="st2" d="M69.7,64h0.5c0,1.2-0.1,2.5,0.2,3.6v7.1c0,6.6,2.8,12.6,7.3,16.8c-0.2,0.3-0.3,0.7-0.2,1c0,0.5,0.3,1,0.6,1.3
			c3.9,3.4,9.3,5.3,15.3,5.3c6.2,0,11.6-1.9,15.4-5.4c0.4-0.3,0.6-0.8,0.6-1.4c0-0.3-0.1-0.6-0.2-0.9c4.5-4.2,7.3-10.2,7.3-16.8
			v-7.4c0.2-1,0.2-2.2,0.2-3.3h0.5c1.1,0,2.1-0.9,2.1-2.1V49.9c0-1.1-0.9-2.1-2.1-2.1h-1c-1-2.3-3.2-3.9-5.7-3.9H76.5
			c-2.6,0-4.8,1.6-5.7,3.9h-1.1c-1.1,0-2.1,0.9-2.1,2.1V62C67.7,63.1,68.6,64,69.7,64z M108,92.6c0,0.1-0.1,0.1-0.1,0.2
			c-3.6,3.3-8.6,5-14.5,5c-5.6,0-10.7-1.8-14.4-5c-0.1-0.1-0.1-0.2-0.2-0.3c0-0.2,0-0.3,0.1-0.5l0.2-0.2l0.5-0.5l0.1-0.2
			c0.1-0.1,0.2-0.2,0.4-0.2c0.1,0,0.3,0,0.4,0.1c3.2,2.8,7.8,4.4,12.9,4.4c5.3,0,9.8-1.5,13-4.4c0.1-0.1,0.2-0.1,0.4-0.1
			c0.1,0,0.3,0.1,0.4,0.2l0.2,0.2l0.5,0.5l0.1,0.1C108.1,92.2,108.1,92.4,108,92.6z M115.2,74.7c0,6.2-2.6,11.8-6.8,15.8l-0.2-0.2
			c-0.4-0.4-0.8-0.6-1.4-0.6c-0.5,0-0.9,0.2-1.3,0.5c-2.9,2.7-7.1,4.1-12.1,4.1c-4.7,0-9-1.4-11.9-4c-0.4-0.3-0.8-0.5-1.3-0.5
			c-0.5,0-1,0.2-1.4,0.6l-0.2,0.2c-4.2-4-6.8-9.6-6.8-15.8v-4.9c0.6,0.4,1.5,0.7,2.5,0.7c1.9,0,3.6-0.5,5.5-1.1
			c3.1-0.9,6.9-2,13.7-2c7.1,0,11.3,1.2,14.4,2.1c1.9,0.5,3.3,1,4.8,1h0l0,0c1-0.1,1.8-0.4,2.4-0.9V74.7z M115.2,67.1
			c-0.3,1.1-1,1.8-2.5,2c-1.3,0-2.6-0.4-4.4-0.9c-3.2-0.9-7.5-2.2-14.8-2.2c-7,0-10.9,1.1-14.1,2.1c-1.9,0.6-3.5,1-5.1,1
			c-0.9,0-1.5-0.2-1.9-0.6c-0.3-0.3-0.4-0.6-0.5-1.1c-0.2-0.9-0.2-2-0.2-3.2c0-0.1,0-0.1,0-0.2c0,0,0,0,0,0h43.8c0,0.1,0,0.2,0,0.2
			C115.4,65.4,115.4,66.4,115.2,67.1z M76.5,45.3h33.9c1.8,0,3.3,1,4.2,2.6H72.3C73.2,46.3,74.7,45.3,76.5,45.3z M69,49.9
			c0-0.4,0.3-0.7,0.7-0.7h0.6h0.7h0.7h43.4h0.7h0.7h0.6c0.4,0,0.7,0.3,0.7,0.7V62c0,0.4-0.3,0.7-0.7,0.7h-0.5H116h-0.7H71.6h-0.7
			h-0.7h-0.5c-0.4,0-0.7-0.3-0.7-0.7V49.9z"/>
		<path class="st4" d="M108.4,58.5h3.1c1.2,0,2.1-1,2.1-2.1c0-1.2-1-2.1-2.1-2.1h-3.1c-1.2,0-2.1,1-2.1,2.1
			C106.3,57.5,107.2,58.5,108.4,58.5z M108.4,55.6h3.1c0.4,0,0.7,0.3,0.7,0.8c0,0.4-0.3,0.7-0.7,0.7h-3.1c-0.4,0-0.7-0.3-0.7-0.7
			C107.6,55.9,108,55.6,108.4,55.6z"/>
		<g>
			<path class="st3" d="M324.4,31.8c0-2.9-1.9-5.3-4.6-6.1c1.5,1.3,2.4,3.1,2.4,5.2v8v1c0,3.7-2.1,7.6-6.8,8.1
				c-6.4,1.1-12.7,1.6-19.1,1.6c-6.4,0-12.7-0.5-18.9-1.6c-4.2-0.7-6.8-3.8-6.8-8.1v-1v-8c0-2.1,0.9-3.9,2.4-5.2
				c-2.6,0.8-4.6,3.2-4.6,6.1V42c0,4.2,2.4,7.1,6.5,7.8c14.2,2.4,28.7,2.4,43.1,0l0,0c4.7-0.5,6.4-4.5,6.4-7.8V31.8z"/>
			<path class="st2" d="M325.7,44.2c0,0,0.1,0,0.1,0h1.3l0.1,0c1.7-0.3,2.7-1.5,2.7-3.2v-9.2c0-1.5-1.3-2.8-2.8-2.8h-1.2
				c-0.1,0-0.3,0-0.4,0.1c-1-2.7-3.4-4.7-6.3-5.1v-2.4c0-10.6-10.2-19.2-22.7-19.2c-12.5,0-22.7,8.6-22.7,19.2l0,2.4
				c-2.9,0.4-5.3,2.4-6.3,5.1c-0.1-0.1-0.2-0.1-0.4-0.1h-1.2c-1.6,0-2.8,1.3-2.8,2.8V41c0,1.7,1,2.9,2.7,3.2l1.4,0c0,0,0.1,0,0.1,0
				c0.7,3.8,3.4,6.3,7.5,7c1.3,0.2,2.6,0.4,3.9,0.6c-0.1,0.1-0.1,0.3-0.1,0.5c0.5,3.6,3.1,7.1,7.1,10c3.5,2.4,7.6,4,10.8,4
				c6.5,0,17.1-6.4,17.9-14.3c0,0,0-0.1,0-0.1c1.3-0.2,2.6-0.4,3.8-0.6C322.6,50.7,324.9,47.6,325.7,44.2z M325.8,30.5h1.2
				c0.8,0,1.4,0.6,1.4,1.4V41c0,0.6-0.2,1.5-1.4,1.8h-1.1c0-0.3,0-0.5,0-0.8V31.8C325.9,31.3,325.8,30.9,325.8,30.5
				C325.8,30.5,325.8,30.5,325.8,30.5z M266.9,31.8V42c0,0.3,0,0.5,0,0.8h-1.1c-1.2-0.2-1.4-1.2-1.4-1.8v-9.2c0-0.7,0.6-1.4,1.4-1.4
				h1.2c0,0,0,0,0,0C267,30.9,266.9,31.3,266.9,31.8z M296.4,3.9c11.7,0,21.2,8,21.2,17.7v1.8c-0.4-0.7-0.8-1.4-1.4-2.1
				c-3.7-4.4-10.3-6.7-19.8-6.7c-9.5,0-16.1,2.3-19.8,6.7c-0.6,0.7-1.1,1.4-1.5,2.2l0-1.9C275.2,11.8,284.7,3.9,296.4,3.9z
				 M316.3,23.9h-1h-37.7h-0.9c0.3-0.6,0.7-1.1,1.2-1.7c3.4-4.1,9.7-6.2,18.6-6.2c9,0,15.3,2.1,18.7,6.2
				C315.6,22.8,315.9,23.4,316.3,23.9z M273.7,27c0.2-0.2,0.5-0.4,0.7-0.6c0.1-0.1,0.3-0.2,0.4-0.3c0.3-0.2,0.6-0.3,0.9-0.4
				c0.5-0.2,1.1-0.3,1.7-0.3h37.7c0.6,0,1.2,0.1,1.8,0.3c0.3,0.1,0.6,0.3,0.9,0.4c0.1,0.1,0.3,0.2,0.4,0.3c0.3,0.2,0.5,0.4,0.7,0.6
				c1,1,1.6,2.4,1.6,3.9v8c0,2.8-1.4,6.2-5.5,6.7c-5.1,0-7.6-0.7-9.9-1.4c-2.2-0.6-4.6-1.3-8.9-1.3c-4.8,0-7.3,0.7-9.6,1.3
				c-2.4,0.7-4.6,1.3-9.3,1.3c-4.3,0-5.4-4.2-5.4-6.7v-8C272.1,29.4,272.7,28,273.7,27z M312.4,46.9c-10.8,1.5-21.5,1.5-32.1,0
				c3.1-0.2,5-0.7,6.9-1.3c2.4-0.7,4.6-1.3,9.2-1.3c4.1,0,6.3,0.6,8.5,1.2C306.9,46.1,309,46.7,312.4,46.9z M296.4,64.8
				c-5.7,0-15.3-5.6-16.4-12.6c0,0,0-0.1,0-0.1c0,0,0,0,0-0.1c0.4,0.1,0.8,0.1,1.2,0.1c5,0.6,10.1,0.9,15.2,0.9c5.5,0,11-0.3,16.5-1
				C311.9,59,302.1,64.8,296.4,64.8z M318,49.8L318,49.8c-14.5,2.4-29,2.4-43.1,0c-4-0.7-6.5-3.6-6.5-7.8V31.8
				c0-2.9,1.9-5.3,4.6-6.1c-1.5,1.3-2.4,3.1-2.4,5.2v8v1c0,4.4,2.5,7.4,6.8,8.1c6.3,1.1,12.6,1.6,18.9,1.6c6.3,0,12.7-0.5,19.1-1.6
				c4.7-0.5,6.8-4.5,6.8-8.1v-1v-8c0-2.1-0.9-3.9-2.4-5.2c2.7,0.8,4.6,3.2,4.6,6.1V42C324.4,45.3,322.7,49.3,318,49.8z"/>
			<path class="st2" d="M296.4,35.4c1.3,0,2.3-1,2.3-2.3v-3.3c0-1.3-1-2.3-2.3-2.3c-1.3,0-2.3,1-2.3,2.3v3.3
				C294.1,34.4,295.2,35.4,296.4,35.4z M295.6,29.8c0-0.4,0.4-0.8,0.8-0.8c0.4,0,0.8,0.4,0.8,0.8v3.3c0,0.4-0.4,0.8-0.8,0.8
				c-0.4,0-0.8-0.4-0.8-0.8V29.8z"/>
			<path class="st2" d="M289.6,55.4c-0.3,0.3-0.2,0.8,0.1,1c0,0,2.7,2.2,6.6,2.2c2,0,4.3-0.6,6.8-2.3c0.3-0.2,0.4-0.7,0.2-1
				c-0.2-0.3-0.7-0.4-1-0.2c-6.2,4.5-11.4,0.3-11.6,0.2C290.3,55.1,289.9,55.1,289.6,55.4z"/>
		</g>
		<g>
			<path class="st3" d="M176.1,37.3v0.9c0,3.5-2,7.2-6.4,7.7c-5.9,1-11.9,1.5-17.8,1.5c-5.9,0-11.8-0.5-17.7-1.5
				c-4.7-0.8-6.4-4.5-6.4-7.7v-0.9v-7.4c0-0.4,0-0.9,0.1-1.3c0.1-0.3,0.1-0.5,0.2-0.8c0-0.1,0.1-0.2,0.1-0.3
				c0.3-0.8,0.8-1.6,1.4-2.2c-2.2,0.9-3.7,3-3.7,5.4v9.5c0,1.8,0.6,6.2,5.9,7.1c5,0.8,10,1.4,15.1,1.6c4,0.2,8.1,0.1,12.1-0.1
				c2.7-0.2,5.3-0.4,8-0.7c0.2,0,0.5-0.1,0.7-0.1c1.4-0.2,2.8-0.4,4.2-0.6l0,0c4.3-0.5,5.9-4.2,5.9-7.1v-9.5c0-2.4-1.5-4.6-3.7-5.4
				c1.2,1.2,1.9,2.8,1.9,4.6V37.3z"/>
			<path class="st2" d="M184.1,14.8c0-0.2-0.1-0.4-0.3-0.5c-0.1-0.1-5.6-4.8-12.2,1.5c-2.4-7.6-10.5-13.2-20.2-13.2
				c-6.4,0-12.1,2.4-15.9,6.3c-3.7-8.5-10.9-6.3-10.9-6.3c-0.2,0.1-0.3,0.2-0.4,0.3l-5.2,8.3c-0.2,0.3-0.2,0.7,0.1,1
				c0.3,0.3,0.7,0.3,1,0.1c6.8-4.2,11.2-0.9,12.6,0.4c-1.3,2.3-2,4.9-2,7.6l0,3.1c-2.7,0.4-4.9,2.3-5.8,4.7c-0.1,0-0.2-0.1-0.3-0.1
				h-1.1c-1.5,0-2.7,1.3-2.7,2.7v8.5c0,1.6,1,2.8,2.6,3.1l1.3,0c0,0,0,0,0,0c0.7,3.5,3.2,5.9,7,6.5c1,0.2,2.1,0.3,3.1,0.5
				c1.3,7.4,11,12.9,16.7,12.9c5.9,0,15.4-5.6,16.7-12.7c1.3-0.2,2.7-0.4,4-0.6c4.1-0.5,6.3-3.4,7-6.5c0,0,0,0,0.1,0h1.2l0.1,0
				c1.6-0.3,2.6-1.5,2.6-3.1v-8.5c0-1.5-1.2-2.7-2.7-2.8h-1.1c-0.1,0-0.2,0-0.3,0.1c-1-2.7-3.6-4.6-6.7-4.8v-3c0,0,0,0,0,0
				c0,0,0.1,0,0.1,0c0.3-0.1,6.4-3.3,11.5,4.1c0.2,0.2,0.4,0.3,0.7,0.3c0.1,0,0.2,0,0.3-0.1c0.3-0.1,0.5-0.5,0.5-0.9L184.1,14.8z
				 M124.4,40.9h-0.9c-1-0.2-1.2-0.9-1.2-1.5v-8.5c0-0.6,0.5-1.2,1.2-1.2h1c-0.1,0.4-0.1,0.7-0.1,1.1v9.5
				C124.4,40.5,124.4,40.7,124.4,40.9z M180.5,29.6c0.6,0,1.2,0.5,1.2,1.2v8.5c0,0.6-0.2,1.3-1.2,1.5h-0.9c0-0.2,0-0.4,0-0.6v-9.5
				c0-0.4,0-0.7-0.1-1.1H180.5z M121.9,9.7l3.5-5.6c1.2-0.3,6.3-0.9,9,6.2c-0.3,0.4-0.6,0.8-0.9,1.2C131.8,9.9,127.7,7.3,121.9,9.7z
				 M134.1,13.5c0.2-0.3,0.3-0.5,0.5-0.8c0.3-0.4,0.6-0.8,0.9-1.2c0.2-0.3,0.5-0.6,0.7-0.9c3.5-3.9,9.1-6.3,15.3-6.3
				c10.4,0,18.9,6.9,19.3,15.6c-1-0.9-2.2-1.1-3.4-1.3c-2.7-0.4-5.4-0.9-5.5-9.8c0-0.4-0.4-0.8-0.8-0.8c-0.4,0-0.8,0.4-0.8,0.8
				c0,3.2-0.7,5.4-2.2,6.8c-2.5,2.4-6.8,2.3-11.4,2.2c-4.9-0.1-9.9-0.3-13,2.8c-0.5,0.5-1,1.1-1.4,1.7l0-1.9
				C132.2,17.9,132.9,15.6,134.1,13.5z M170.7,23.3h-1.1h-35.1h-0.9c0.3-0.6,0.7-1.2,1.2-1.7c2.6-2.6,7.3-2.4,11.9-2.3
				c4.7,0.1,9.6,0.3,12.5-2.6c0.7-0.7,1.2-1.5,1.7-2.4c1.1,4.5,3.5,5.3,6.3,5.8C168.9,20.4,170.3,20.6,170.7,23.3z M151.5,60.7
				c-5,0-13.6-5-15.1-11c5.1,0.7,10.3,1,15.5,1c4.9,0,9.8-0.3,14.7-0.9C165,55.8,156.6,60.7,151.5,60.7z M128.3,27.5
				c0,0.1-0.1,0.2-0.1,0.3c-0.1,0.3-0.2,0.5-0.2,0.8c-0.1,0.4-0.1,0.9-0.1,1.3v7.4v0.9c0,3.2,1.7,6.9,6.4,7.7
				c5.8,1,11.7,1.5,17.7,1.5c5.9,0,11.9-0.5,17.8-1.5c4.4-0.5,6.4-4.2,6.4-7.7v-0.9v-7.4c0-1.8-0.7-3.4-1.9-4.6
				c2.2,0.9,3.7,3,3.7,5.4v9.5c0,3-1.5,6.7-5.9,7.1l0,0c-1.4,0.2-2.8,0.4-4.2,0.6c-0.2,0-0.5,0.1-0.7,0.1c-2.7,0.3-5.3,0.6-8,0.7
				c-4.1,0.2-8.1,0.3-12.1,0.1c-5.1-0.2-10.1-0.7-15.1-1.6c-5.3-0.9-5.9-5.3-5.9-7.1v-9.5c0-2.4,1.5-4.6,3.7-5.4 M137.9,44.8
				c2.3-0.2,3.9-0.7,5.5-1.1c2.2-0.6,4.3-1.2,8.6-1.2c3.9,0,5.8,0.5,7.9,1.1c1.7,0.5,3.3,0.9,6,1.2
				C156.5,46.1,147.1,46.1,137.9,44.8z M174.5,29.9v7.4c0,2.6-1.3,5.7-5,6.1c-4.7,0-7-0.6-9.2-1.3c-2.1-0.6-4.3-1.2-8.3-1.2
				c-4.5,0-6.8,0.6-9,1.2c-2.2,0.6-4.3,1.2-8.6,1.2c-3.9,0-5-3.8-5-6.1v-7.4c0-1.3,0.5-2.5,1.3-3.3c0.2-0.3,0.5-0.5,0.8-0.7
				c0.1-0.1,0.2-0.2,0.4-0.2c0.3-0.2,0.6-0.3,0.9-0.4c0.5-0.2,1.1-0.3,1.6-0.3h35.1c0.4,0,0.9,0.1,1.3,0.2c0.5,0.1,0.9,0.3,1.3,0.6
				C173.5,26.5,174.5,28.1,174.5,29.9z M172.3,18.7c0-0.3-0.1-0.7-0.1-1c5.1-5.6,9.4-3.1,10.5-2.3l0.9,5.9
				C178.9,16.7,173.9,18,172.3,18.7z"/>
			<path class="st2" d="M151.8,26.8c-1.2,0-2.2,1-2.2,2.2v2.9c0,1.2,1,2.2,2.2,2.2c1.2,0,2.2-1,2.2-2.2V29
				C154,27.8,153,26.8,151.8,26.8z M152.5,31.9c0,0.4-0.3,0.7-0.7,0.7c-0.4,0-0.7-0.3-0.7-0.7V29c0-0.4,0.3-0.7,0.7-0.7
				c0.4,0,0.7,0.3,0.7,0.7V31.9z"/>
			<path class="st2" d="M145.6,52.5c-0.3-0.3-0.8-0.2-1,0.1c-0.3,0.3-0.2,0.8,0.1,1c0,0,2.8,2.2,6.7,2.2c2,0,4.4-0.6,6.8-2.3
				c0.3-0.2,0.4-0.7,0.2-1c-0.2-0.3-0.7-0.4-1-0.2C151,56.9,145.8,52.7,145.6,52.5z"/>
		</g>
		<path class="st2" d="M278.8,137.7c0,0.6,0.3,1.1,0.8,1.4c0.3,0.2,0.6,0.2,0.8,0.2c0.3,0,0.5-0.1,0.8-0.2l8.1-4.4
			c0.5-0.3,0.9-0.8,0.9-1.4c0-0.6-0.3-1.2-0.9-1.4l-8.1-4.4c-0.5-0.3-1.1-0.3-1.6,0c-0.5,0.3-0.8,0.8-0.8,1.4v0
			c-6.9-1.4-11.4-4-11.4-6.6c0-1.9,2.3-3.9,6.3-5.4c1.9-0.7,4.1-1.3,6.5-1.7c0.7-0.1,1.5-0.2,2.4-0.3c1.8-0.2,3.6-0.4,4.8-0.5
			c17.7-0.9,29,5.1,29.2,9.7c0.2,3.8-4.2,7.7-11.3,10V132c0-0.6-0.3-1.2-0.9-1.6c-0.6-0.3-1.2-0.3-1.8,0l-16.6,9.2
			c-0.6,0.3-0.9,0.9-0.9,1.6c0,0.7,0.4,1.3,0.9,1.6l16.6,9.2c0.3,0.1,0.6,0.2,0.9,0.2c0.3,0,0.6-0.1,0.9-0.3
			c0.6-0.3,0.9-0.9,0.9-1.6v-3.8c0.6-0.2,1.1-0.4,1.8-0.6l0.7-0.3c10.9-4.1,19.5-13,19.1-19.7c-0.5-9.4-15.7-15.4-36.3-14.4
			c-2.1,0.1-5.5,0.5-8.6,0.9c-3.3,0.5-4.7,0.9-5.4,1.1c-2.9,0.5-5.6,1.3-7.9,2.3c-5.1,2.1-7.9,5-7.8,8.1c0,5.4,7.8,10.9,17.9,12.7
			V137.7z M297,112.9c16.3,0.4,28.2,5.7,28.5,13.1c0.3,6.1-7.9,14.3-18.2,18.2l-0.7,0.3c-0.8,0.3-1.4,0.6-2.2,0.8l-0.5,0.2v4.9
			c0,0.1-0.1,0.2-0.2,0.3c-0.1,0.1-0.2,0.1-0.3,0l-16.6-9.2c-0.1-0.1-0.2-0.2-0.2-0.3c0-0.1,0.1-0.2,0.2-0.3l16.6-9.2
			c0.1,0,0.1,0,0.2,0c0.1,0,0.1,0,0.2,0c0.1,0.1,0.2,0.2,0.2,0.3v4.2l0.9-0.3c8.4-2.5,13.5-7,13.3-11.8c-0.2-4.9-8.5-9.7-21.1-10.9
			L297,112.9z M262.4,124c0-2.4,2.5-4.9,6.9-6.7c0.4-0.2,0.7-0.3,1.1-0.4c-3,1.6-4.6,3.5-4.5,5.6c0,3.7,5.1,6.7,13.5,8.2l0.9,0.2
			V129c0-0.1,0-0.1,0.1-0.2c0,0,0.1,0,0.2,0l8.1,4.4c0.1,0,0.1,0.1,0.1,0.2c0,0,0,0.1-0.1,0.2l-8.1,4.4c-0.1,0-0.1,0-0.2,0
			c0,0-0.1-0.1-0.1-0.2v-2.3l-0.6-0.1C269.4,133.7,262.4,128.1,262.4,124z"/>
		<g>
			<g>
				<g>
					<path class="st2" d="M168.6,99h-1.3c0-3.7-3-6.7-6.7-6.7s-6.7,3-6.7,6.7h-1.3c0-4.4,3.6-8,8-8C165,91,168.6,94.6,168.6,99z"/>
				</g>
			</g>
		</g>
		<g>
			<path class="st2" d="M161.2,142h-13.6c-1.4,0-2.6-1.1-2.6-2.5l-2.3-10.9l1.3-0.3l2.4,11.1v0.1c0,0.7,0.6,1.3,1.3,1.3h13.6
				c0.7,0,1.3-0.6,1.3-1.3v-2.9c0-1.8,0.8-3.5,2.2-4.6l9.7-8.9c1.4-1.2,1.7-2.3,1-3.2c-1.1-1.3-2.8-0.1-3.4,0.4l-0.1,0l-4.8,3.2
				c-0.8,0.7-2,0.8-2.9,0.4c-1-0.5-1.6-1.4-1.6-2.5l0-21.7c0-1.2-0.9-2.2-2-2.2c-0.6,0-1.2,0.2-1.6,0.6c-0.4,0.4-0.7,1-0.7,1.6V115
				h-1.3V99.5c0-1,0.4-1.9,1.1-2.5c0.7-0.7,1.6-1,2.6-0.9c1.8,0.1,3.3,1.7,3.3,3.6l0,21.7c0,0.6,0.3,1.1,0.8,1.3
				c0.5,0.2,1.1,0.2,1.5-0.2l0.1,0l4.8-3.2c2-1.7,4-1.8,5.3-0.3c1.3,1.5,0.9,3.4-1.1,5.1l-9.7,8.9c-1.1,0.9-1.7,2.2-1.7,3.6v2.9
				C163.8,140.8,162.7,142,161.2,142z"/>
		</g>
		<g>
			<path class="st2" d="M154.7,129.1c-1.9,0-3.5-1.6-3.5-3.5v-10.3c0-1.9,1.6-3.5,3.5-3.5c1.9,0,3.5,1.6,3.5,3.5v10.3
				C158.2,127.5,156.6,129.1,154.7,129.1z M154.7,113.1c-1.2,0-2.2,1-2.2,2.2v10.3c0,1.2,1,2.2,2.2,2.2c1.2,0,2.2-1,2.2-2.2v-10.3
				C156.9,114.1,155.9,113.1,154.7,113.1z"/>
		</g>
		<g>
			<path class="st2" d="M149.1,129.1c-1.9,0-3.5-1.6-3.5-3.5v-10.3c0-1.9,1.6-3.5,3.5-3.5s3.5,1.6,3.5,3.5v10.3
				C152.6,127.5,151,129.1,149.1,129.1z M149.1,113.1c-1.2,0-2.2,1-2.2,2.2v10.3c0,1.2,1,2.2,2.2,2.2s2.2-1,2.2-2.2v-10.3
				C151.2,114.1,150.2,113.1,149.1,113.1z"/>
		</g>
		<g>
			<path class="st2" d="M143.4,129.1c-1.9,0-3.5-1.6-3.5-3.5v-10.3c0-1.9,1.6-3.5,3.5-3.5c1.9,0,3.5,1.6,3.5,3.5v10.3
				C146.9,127.5,145.3,129.1,143.4,129.1z M143.4,113.1c-1.2,0-2.2,1-2.2,2.2v10.3c0,1.2,1,2.2,2.2,2.2s2.2-1,2.2-2.2v-10.3
				C145.6,114.1,144.6,113.1,143.4,113.1z"/>
		</g>
		<g>
			<path class="st2" d="M144.8,88.9c-2.9,0-5.3-2.4-5.3-5.3c0-2.9,2.4-5.3,5.3-5.3c2.9,0,5.3,2.4,5.3,5.3
				C150,86.6,147.7,88.9,144.8,88.9z M144.8,79.7c-2.2,0-3.9,1.8-3.9,3.9c0,2.2,1.8,3.9,3.9,3.9s3.9-1.8,3.9-3.9
				C148.7,81.5,146.9,79.7,144.8,79.7z"/>
		</g>
		<g>
			<path class="st2" d="M160.5,75.6c-2.1,0-3.8-1.7-3.8-3.8s1.7-3.8,3.8-3.8c2.1,0,3.8,1.7,3.8,3.8S162.6,75.6,160.5,75.6z
				 M160.5,69.3c-1.3,0-2.4,1.1-2.4,2.4c0,1.3,1.1,2.4,2.4,2.4c1.3,0,2.4-1.1,2.4-2.4C163,70.4,161.9,69.3,160.5,69.3z"/>
		</g>
		<g>
			<path class="st2" d="M175.3,89.8c-3.4,0-6.1-2.8-6.1-6.1c0-3.4,2.8-6.1,6.1-6.1c3.4,0,6.1,2.8,6.1,6.1
				C181.5,87.1,178.7,89.8,175.3,89.8z M175.3,78.9c-2.7,0-4.8,2.2-4.8,4.8c0,2.7,2.2,4.8,4.8,4.8c2.7,0,4.8-2.2,4.8-4.8
				C180.1,81,178,78.9,175.3,78.9z"/>
		</g>
		<g>
			<rect x="159.9" y="74.9" class="st2" width="1.3" height="16.8"/>
		</g>
		<g>
			
				<rect x="150.8" y="85.2" transform="matrix(0.7071 -0.7071 0.7071 0.7071 -19.5312 133.5812)" class="st2" width="1.3" height="10.3"/>
		</g>
		<g>
			
				<rect x="164.3" y="90.1" transform="matrix(0.7071 -0.7071 0.7071 0.7071 -14.9021 145.5448)" class="st2" width="7.8" height="1.3"/>
		</g>
		<g>
			<path class="st2" d="M301.4,78.7c-3.2,0-5.8,2.6-5.8,5.8c0,1.4,0.5,2.7,1.3,3.7l-0.1-0.1l-1.7,1.7c-1.8-1.8-4.3-3-7-3.2v-9.8
				c1.7-0.3,2.9-1.7,2.9-3.5c0-2-1.6-3.5-3.5-3.5s-3.5,1.6-3.5,3.5c0,1.7,1.3,3.2,2.9,3.5v9.8c-3,0.2-5.6,1.6-7.4,3.6l-2.8-2.8
				c0.6-0.8,1-1.9,1-3c0-2.7-2.2-4.9-4.9-4.9c-2.7,0-4.9,2.2-4.9,4.9c0,2.7,2.2,4.9,4.9,4.9c1.1,0,2.2-0.4,3-1l2.9,2.9
				c-1.2,1.7-1.9,3.8-1.9,6.1h1.3c0-1.9,0.6-3.7,1.5-5.2c0.2-0.4,0.5-0.7,0.8-1c1.6-1.9,3.9-3.1,6.6-3.3c0.2,0,0.4,0,0.6,0
				c0.2,0,0.4,0,0.6,0c2.4,0.2,4.5,1.2,6.1,2.8c0.3,0.3,0.6,0.6,0.8,1c1.2,1.6,1.9,3.6,1.9,5.7h1.3c0-2.5-0.8-4.8-2.3-6.6l1.8-1.8
				l-0.1-0.1c1,0.8,2.3,1.3,3.7,1.3c3.2,0,5.8-2.6,5.8-5.8C307.1,81.3,304.6,78.7,301.4,78.7z M269.1,84.5c0-2,1.7-3.7,3.7-3.7
				c2,0,3.7,1.7,3.7,3.7c0,2-1.7,3.7-3.7,3.7C270.7,88.2,269.1,86.5,269.1,84.5z M285.2,73.4c0-1.3,1-2.3,2.3-2.3
				c1.3,0,2.3,1,2.3,2.3c0,1.3-1,2.3-2.3,2.3C286.2,75.7,285.2,74.6,285.2,73.4z M301.4,89c-2.5,0-4.5-2-4.5-4.5
				c0-2.5,2-4.5,4.5-4.5s4.5,2,4.5,4.5C305.9,87,303.9,89,301.4,89z"/>
			<path class="st2" d="M287.5,89.9c-4.1,0-7.5,3.4-7.5,7.5c0,4.1,3.4,7.5,7.5,7.5c4.1,0,7.5-3.4,7.5-7.5
				C295,93.2,291.6,89.9,287.5,89.9z M287.5,103.4c-3.3,0-6-2.7-6-6s2.7-6,6-6c3.3,0,6,2.7,6,6S290.8,103.4,287.5,103.4z"/>
		</g>
		<g>
			<path class="st5" d="M101.2,194.4c-0.1-0.2-0.2-0.4-0.3-0.6c-0.1-0.2-0.2-0.4-0.4-0.6c-1.6-2.4-4.4-3.9-7.5-3.9
				c-3.1,0-5.8,1.6-7.5,3.9c-0.1,0.2-0.2,0.4-0.4,0.6c-0.1,0.2-0.2,0.4-0.3,0.6c-0.6,1.2-0.9,2.5-0.9,3.9c0,4.8,3.7,8.7,8.4,9
				c0.2,0,0.4,0,0.7,0c0,0,0,0,0,0c0.2,0,0.4,0,0.7,0c4.7-0.3,8.4-4.2,8.4-9C102,196.9,101.7,195.6,101.2,194.4z M93.7,206v-2.9
				c2.4-0.3,4.2-2.4,4.2-4.8c0-0.6-0.1-1.3-0.4-1.8l2.5-1.4c0.5,1,0.7,2.1,0.7,3.2C100.7,202.4,97.6,205.7,93.7,206z M99.3,193.9
				l-2.5,1.4c-0.9-1.1-2.3-1.9-3.8-1.9c-1.6,0-2.9,0.7-3.8,1.9l-2.5-1.4c1.4-2,3.7-3.3,6.3-3.3C95.6,190.6,97.9,191.9,99.3,193.9z
				 M96.5,198.3c0,1.7-1.2,3.1-2.8,3.4c-0.2,0-0.4,0.1-0.7,0.1c0,0,0,0,0,0c-0.2,0-0.5,0-0.7-0.1c-1.6-0.3-2.8-1.7-2.8-3.4
				c0-0.4,0.1-0.8,0.2-1.1c0.1-0.2,0.2-0.4,0.3-0.6c0.1-0.2,0.2-0.4,0.4-0.5c0.6-0.7,1.6-1.2,2.6-1.2c1.1,0,2,0.5,2.6,1.2
				c0.1,0.2,0.3,0.4,0.4,0.5c0.1,0.2,0.2,0.4,0.3,0.6C96.5,197.6,96.5,197.9,96.5,198.3z M88.5,196.5c-0.2,0.6-0.4,1.2-0.4,1.8
				c0,2.4,1.8,4.5,4.2,4.8v2.9c-3.9-0.3-7-3.6-7-7.7c0-1.2,0.3-2.3,0.7-3.2L88.5,196.5z"/>
		</g>
		<g>
			<path class="st5" d="M245.7,129c-0.1-0.2-0.2-0.4-0.3-0.6c-0.1-0.2-0.2-0.4-0.4-0.6c-1.6-2.4-4.4-3.9-7.5-3.9
				c-3.1,0-5.8,1.6-7.5,3.9c-0.1,0.2-0.2,0.4-0.4,0.6c-0.1,0.2-0.2,0.4-0.3,0.6c-0.6,1.2-0.9,2.5-0.9,3.9c0,4.8,3.7,8.7,8.4,9
				c0.2,0,0.4,0,0.7,0c0,0,0,0,0,0c0.2,0,0.4,0,0.7,0c4.7-0.3,8.4-4.2,8.4-9C246.6,131.6,246.3,130.2,245.7,129z M238.3,140.6v-2.9
				c2.4-0.3,4.2-2.4,4.2-4.8c0-0.6-0.1-1.3-0.4-1.8l2.5-1.4c0.5,1,0.7,2.1,0.7,3.2C245.3,137,242.2,140.3,238.3,140.6z M243.9,128.6
				l-2.5,1.4c-0.9-1.1-2.3-1.9-3.8-1.9c-1.6,0-2.9,0.7-3.8,1.9l-2.5-1.4c1.4-2,3.7-3.3,6.3-3.3C240.2,125.3,242.5,126.6,243.9,128.6
				z M241.1,133c0,1.7-1.2,3.1-2.8,3.4c-0.2,0-0.4,0.1-0.7,0.1c0,0,0,0,0,0c-0.2,0-0.5,0-0.7-0.1c-1.6-0.3-2.8-1.7-2.8-3.4
				c0-0.4,0.1-0.8,0.2-1.1c0.1-0.2,0.2-0.4,0.3-0.6c0.1-0.2,0.2-0.4,0.4-0.5c0.6-0.7,1.6-1.2,2.6-1.2c1.1,0,2,0.5,2.6,1.2
				c0.1,0.2,0.3,0.4,0.4,0.5c0.1,0.2,0.2,0.4,0.3,0.6C241,132.2,241.1,132.6,241.1,133z M233.1,131.2c-0.2,0.6-0.4,1.2-0.4,1.8
				c0,2.4,1.8,4.5,4.2,4.8v2.9c-3.9-0.3-7-3.6-7-7.7c0-1.2,0.3-2.3,0.7-3.2L233.1,131.2z"/>
		</g>
		<path class="st3" d="M198.4,178.9c0.6,0,1.1-0.5,1.1-1.1c0-0.6-0.5-1.1-1.1-1.1s-1.1,0.5-1.1,1.1
			C197.3,178.4,197.8,178.9,198.4,178.9z"/>
		<path class="st5" d="M131.2,101.3H127v-4.2c0-0.4-0.4-0.8-0.8-0.8c-0.4,0-0.8,0.4-0.8,0.8v4.2h-4.2c-0.4,0-0.8,0.4-0.8,0.8
			c0,0.4,0.4,0.8,0.8,0.8h4.2v4.2c0,0.4,0.4,0.8,0.8,0.8c0.4,0,0.8-0.4,0.8-0.8v-4.2h4.2c0.4,0,0.8-0.4,0.8-0.8
			C132,101.7,131.7,101.3,131.2,101.3z"/>
		<path class="st5" d="M118.3,186.1h-4.2v-4.2c0-0.4-0.4-0.8-0.8-0.8c-0.4,0-0.8,0.4-0.8,0.8v4.2h-4.2c-0.4,0-0.8,0.4-0.8,0.8
			c0,0.4,0.4,0.8,0.8,0.8h4.2v4.2c0,0.4,0.4,0.8,0.8,0.8c0.4,0,0.8-0.4,0.8-0.8v-4.2h4.2c0.4,0,0.8-0.4,0.8-0.8
			C119.1,186.4,118.7,186.1,118.3,186.1z"/>
		<path class="st5" d="M109.8,27.8h-4.2v-4.2c0-0.4-0.4-0.8-0.8-0.8s-0.8,0.4-0.8,0.8v4.2h-4.2c-0.4,0-0.8,0.4-0.8,0.8
			c0,0.4,0.4,0.8,0.8,0.8h4.2v4.2c0,0.4,0.4,0.8,0.8,0.8s0.8-0.4,0.8-0.8v-4.2h4.2c0.4,0,0.8-0.4,0.8-0.8
			C110.6,28.2,110.3,27.8,109.8,27.8z"/>
		<path class="st5" d="M260.2,107.1H256v-4.2c0-0.4-0.4-0.8-0.8-0.8c-0.4,0-0.8,0.4-0.8,0.8v4.2h-4.2c-0.4,0-0.8,0.4-0.8,0.8
			c0,0.4,0.4,0.8,0.8,0.8h4.2v4.2c0,0.4,0.4,0.8,0.8,0.8c0.4,0,0.8-0.4,0.8-0.8v-4.2h4.2c0.4,0,0.8-0.4,0.8-0.8
			C261,107.5,260.6,107.1,260.2,107.1z"/>
		<path class="st5" d="M235.3,47.4h-4.2v-4.2c0-0.4-0.4-0.8-0.8-0.8s-0.8,0.4-0.8,0.8v4.2h-4.2c-0.4,0-0.8,0.4-0.8,0.8
			c0,0.4,0.4,0.8,0.8,0.8h4.2v4.2c0,0.4,0.4,0.8,0.8,0.8s0.8-0.4,0.8-0.8V49h4.2c0.4,0,0.8-0.4,0.8-0.8
			C236.1,47.7,235.8,47.4,235.3,47.4z"/>
		<path class="st5" d="M293.7,180.3h-4.2v-4.2c0-0.4-0.4-0.8-0.8-0.8c-0.4,0-0.8,0.4-0.8,0.8v4.2h-4.2c-0.4,0-0.8,0.4-0.8,0.8
			s0.4,0.8,0.8,0.8h4.2v4.2c0,0.4,0.4,0.8,0.8,0.8c0.4,0,0.8-0.4,0.8-0.8v-4.2h4.2c0.4,0,0.8-0.4,0.8-0.8S294.2,180.3,293.7,180.3z"
			/>
		<path class="st6" d="M270.7,7.4h-4.2V3.2c0-0.4-0.4-0.8-0.8-0.8c-0.4,0-0.8,0.4-0.8,0.8v4.2h-4.2c-0.4,0-0.8,0.4-0.8,0.8
			s0.4,0.8,0.8,0.8h4.2v4.2c0,0.4,0.4,0.8,0.8,0.8c0.4,0,0.8-0.4,0.8-0.8V9h4.2c0.4,0,0.8-0.4,0.8-0.8S271.2,7.4,270.7,7.4z"/>
		<path class="st6" d="M40.8,57.2h-4.2v-4.2c0-0.4-0.4-0.8-0.8-0.8S35,52.5,35,52.9v4.2h-4.2c-0.4,0-0.8,0.4-0.8,0.8
			c0,0.4,0.4,0.8,0.8,0.8H35V63c0,0.4,0.4,0.8,0.8,0.8s0.8-0.4,0.8-0.8v-4.2h4.2c0.4,0,0.8-0.4,0.8-0.8
			C41.6,57.5,41.2,57.2,40.8,57.2z"/>
		<path class="st5" d="M382.6,137h-4.2v-4.2c0-0.4-0.4-0.8-0.8-0.8c-0.4,0-0.8,0.4-0.8,0.8v4.2h-4.2c-0.4,0-0.8,0.4-0.8,0.8
			s0.4,0.8,0.8,0.8h4.2v4.2c0,0.4,0.4,0.8,0.8,0.8c0.4,0,0.8-0.4,0.8-0.8v-4.2h4.2c0.4,0,0.8-0.4,0.8-0.8S383.1,137,382.6,137z"/>
		<g>
			<path class="st5" d="M11.4,130.8v0.5c0,0.6,0.5,1,1,1h2.3v2.3c0,0.6,0.5,1,1,1h0.5v-4.8H11.4z"/>
			<path class="st5" d="M3.6,135.7H4c0.6,0,1-0.5,1-1v-2.3h2.3c0.6,0,1-0.5,1-1v-0.5H3.6V135.7z"/>
			<path class="st5" d="M14.7,139.7v2.3h-2.3c-0.6,0-1,0.5-1,1v0.5h4.8v-4.8h-0.5C15.2,138.6,14.7,139.1,14.7,139.7z"/>
			<path class="st5" d="M7.4,142H5.1v-2.3c0-0.6-0.5-1-1-1H3.6v4.8h4.8V143C8.4,142.4,7.9,142,7.4,142z"/>
		</g>
		<g>
			<path class="st5" d="M91.9,2.4v0.5c0,0.6,0.5,1,1,1h2.3v2.3c0,0.6,0.5,1,1,1h0.5V2.4H91.9z"/>
			<path class="st5" d="M84.2,7.2h0.5c0.6,0,1-0.5,1-1V3.9H88c0.6,0,1-0.5,1-1V2.4h-4.8V7.2z"/>
			<path class="st5" d="M95.3,11.2v2.3H93c-0.6,0-1,0.5-1,1V15h4.8v-4.8h-0.5C95.7,10.2,95.3,10.6,95.3,11.2z"/>
			<path class="st5" d="M88,13.5h-2.3v-2.3c0-0.6-0.5-1-1-1h-0.5V15H89v-0.5C89,14,88.5,13.5,88,13.5z"/>
		</g>
		<g>
			<path class="st5" d="M318,66.6v0.5c0,0.6,0.5,1,1,1h2.3v2.3c0,0.6,0.5,1,1,1h0.5v-4.8H318z"/>
			<path class="st5" d="M310.3,71.5h0.5c0.6,0,1-0.5,1-1v-2.3h2.3c0.6,0,1-0.5,1-1v-0.5h-4.8V71.5z"/>
			<path class="st5" d="M321.4,75.5v2.3h-2.3c-0.6,0-1,0.5-1,1v0.5h4.8v-4.8h-0.5C321.8,74.4,321.4,74.9,321.4,75.5z"/>
			<path class="st5" d="M314.1,77.8h-2.3v-2.3c0-0.6-0.5-1-1-1h-0.5v4.8h4.8v-0.5C315.1,78.2,314.6,77.8,314.1,77.8z"/>
		</g>
		<g>
			<path class="st5" d="M208.1,127.6v0.5c0,0.6,0.5,1,1,1h2.3v2.3c0,0.6,0.5,1,1,1h0.5v-4.8H208.1z"/>
			<path class="st5" d="M200.3,132.4h0.5c0.6,0,1-0.5,1-1v-2.3h2.3c0.6,0,1-0.5,1-1v-0.5h-4.8V132.4z"/>
			<path class="st5" d="M211.4,136.4v2.3h-2.3c-0.6,0-1,0.5-1,1v0.5h4.8v-4.8h-0.5C211.9,135.3,211.4,135.8,211.4,136.4z"/>
			<path class="st5" d="M204.1,138.7h-2.3v-2.3c0-0.6-0.5-1-1-1h-0.5v4.8h4.8v-0.5C205.2,139.1,204.7,138.7,204.1,138.7z"/>
		</g>
		<g>
			<path class="st5" d="M319.5,154.8v0.5c0,0.6,0.5,1,1,1h2.3v2.3c0,0.6,0.5,1,1,1h0.5v-4.8H319.5z"/>
			<path class="st5" d="M311.7,159.6h0.5c0.6,0,1-0.5,1-1v-2.3h2.3c0.6,0,1-0.5,1-1v-0.5h-4.8V159.6z"/>
			<path class="st5" d="M322.9,163.6v2.3h-2.3c-0.6,0-1,0.5-1,1v0.5h4.8v-4.8h-0.5C323.3,162.6,322.9,163,322.9,163.6z"/>
			<path class="st5" d="M315.5,165.9h-2.3v-2.3c0-0.6-0.5-1-1-1h-0.5v4.8h4.8V167C316.6,166.4,316.1,165.9,315.5,165.9z"/>
		</g>
		<g>
			<path class="st5" d="M282.6,194.7v0.5c0,0.6,0.5,1,1,1h2.3v2.3c0,0.6,0.5,1,1,1h0.5v-4.8H282.6z"/>
			<path class="st5" d="M274.8,199.6h0.5c0.6,0,1-0.5,1-1v-2.3h2.3c0.6,0,1-0.5,1-1v-0.5h-4.8V199.6z"/>
			<path class="st5" d="M285.9,203.6v2.3h-2.3c-0.6,0-1,0.5-1,1v0.5h4.8v-4.8H287C286.4,202.5,285.9,203,285.9,203.6z"/>
			<path class="st5" d="M278.6,205.9h-2.3v-2.3c0-0.6-0.5-1-1-1h-0.5v4.8h4.8v-0.5C279.6,206.3,279.2,205.9,278.6,205.9z"/>
		</g>
		<g>
			<path class="st2" d="M80.1,170.2v0.5c0,0.6,0.5,1,1,1h2.3v2.3c0,0.6,0.5,1,1,1h0.5v-4.8H80.1z"/>
			<path class="st2" d="M72.3,175h0.5c0.6,0,1-0.5,1-1v-2.3h2.3c0.6,0,1-0.5,1-1v-0.5h-4.8V175z"/>
			<path class="st2" d="M83.4,179v2.3h-2.3c-0.6,0-1,0.5-1,1v0.5h4.8V178h-0.5C83.9,178,83.4,178.4,83.4,179z"/>
			<path class="st2" d="M76.1,181.3h-2.3V179c0-0.6-0.5-1-1-1h-0.5v4.8h4.8v-0.5C77.1,181.8,76.7,181.3,76.1,181.3z"/>
		</g>
		<g>
			<path class="st5" d="M14.2,70.7h1.7c-0.5-2.6-2.5-4.6-5.1-5.1v1.7C12.5,67.7,13.8,69,14.2,70.7z"/>
			<path class="st5" d="M3.6,70.7h1.7c0.4-1.7,1.7-3,3.4-3.4v-1.7C6.1,66.1,4,68.1,3.6,70.7z"/>
			<path class="st5" d="M10.8,76.3v1.7c2.6-0.5,4.6-2.5,5.1-5.1h-1.7C13.8,74.6,12.5,75.9,10.8,76.3z"/>
			<path class="st5" d="M5.2,72.9H3.6c0.5,2.6,2.5,4.6,5.1,5.1v-1.7C7,75.9,5.6,74.6,5.2,72.9z"/>
		</g>
		<g>
			<path class="st4" d="M91.3,77.3H93c-0.5-2.6-2.5-4.6-5.1-5.1v1.7C89.6,74.3,90.9,75.6,91.3,77.3z"/>
			<path class="st4" d="M80.7,77.3h1.7c0.4-1.7,1.7-3,3.4-3.4v-1.7C83.2,72.7,81.1,74.8,80.7,77.3z"/>
			<path class="st4" d="M87.9,82.9v1.7c2.6-0.5,4.6-2.5,5.1-5.1h-1.7C90.9,81.2,89.6,82.5,87.9,82.9z"/>
			<path class="st4" d="M82.3,79.5h-1.7c0.5,2.6,2.5,4.6,5.1,5.1v-1.7C84.1,82.5,82.8,81.2,82.3,79.5z"/>
		</g>
		<g>
			<path class="st5" d="M78.6,26.4h1.7c-0.5-2.6-2.5-4.6-5.1-5.1V23C76.9,23.4,78.2,24.8,78.6,26.4z"/>
			<path class="st5" d="M68,26.4h1.7c0.4-1.7,1.7-3,3.4-3.4v-1.7C70.5,21.8,68.4,23.9,68,26.4z"/>
			<path class="st5" d="M75.2,32v1.7c2.6-0.5,4.6-2.5,5.1-5.1h-1.7C78.2,30.3,76.9,31.6,75.2,32z"/>
			<path class="st5" d="M69.6,28.6H68c0.5,2.6,2.5,4.6,5.1,5.1V32C71.4,31.6,70,30.3,69.6,28.6z"/>
		</g>
		<g>
			<path class="st5" d="M265.3,151.7h1.7c-0.5-2.6-2.5-4.6-5.1-5.1v1.7C263.6,148.7,264.9,150,265.3,151.7z"/>
			<path class="st5" d="M254.7,151.7h1.7c0.4-1.7,1.7-3,3.4-3.4v-1.7C257.2,147.1,255.2,149.2,254.7,151.7z"/>
			<path class="st5" d="M261.9,157.3v1.7c2.6-0.5,4.6-2.5,5.1-5.1h-1.7C264.9,155.6,263.6,156.9,261.9,157.3z"/>
			<path class="st5" d="M256.4,153.9h-1.7c0.5,2.6,2.5,4.6,5.1,5.1v-1.7C258.1,156.9,256.8,155.6,256.4,153.9z"/>
		</g>
		<g>
			<path class="st5" d="M381.8,58.3h1.7c-0.5-2.6-2.5-4.6-5.1-5.1v1.7C380,55.3,381.4,56.6,381.8,58.3z"/>
			<path class="st5" d="M371.1,58.3h1.7c0.4-1.7,1.7-3,3.4-3.4v-1.7C373.6,53.6,371.6,55.7,371.1,58.3z"/>
			<path class="st5" d="M378.4,63.8v1.7c2.6-0.5,4.6-2.5,5.1-5.1h-1.7C381.4,62.1,380,63.4,378.4,63.8z"/>
			<path class="st5" d="M372.8,60.4h-1.7c0.5,2.6,2.5,4.6,5.1,5.1v-1.7C374.5,63.4,373.2,62.1,372.8,60.4z"/>
		</g>
		<g>
			<path class="st5" d="M194.9,54.6h1.7c-0.5-2.6-2.5-4.6-5.1-5.1v1.7C193.2,51.6,194.5,53,194.9,54.6z"/>
			<path class="st5" d="M184.2,54.6h1.7c0.4-1.7,1.7-3,3.4-3.4v-1.7C186.8,50,184.7,52.1,184.2,54.6z"/>
			<path class="st5" d="M191.5,60.2v1.7c2.6-0.5,4.6-2.5,5.1-5.1h-1.7C194.5,58.5,193.2,59.8,191.5,60.2z"/>
			<path class="st5" d="M185.9,56.8h-1.7c0.5,2.6,2.5,4.6,5.1,5.1v-1.7C187.6,59.8,186.3,58.5,185.9,56.8z"/>
		</g>
		<g>
			<path class="st5" d="M256,57.6h1.7c-0.5-2.6-2.5-4.6-5.1-5.1v1.7C254.3,54.6,255.6,55.9,256,57.6z"/>
			<path class="st5" d="M245.4,57.6h1.7c0.4-1.7,1.7-3,3.4-3.4v-1.7C247.9,53,245.9,55,245.4,57.6z"/>
			<path class="st5" d="M252.6,63.2v1.7c2.6-0.5,4.6-2.5,5.1-5.1H256C255.6,61.4,254.3,62.7,252.6,63.2z"/>
			<path class="st5" d="M247.1,59.8h-1.7c0.5,2.6,2.5,4.6,5.1,5.1v-1.7C248.8,62.7,247.5,61.4,247.1,59.8z"/>
		</g>
		<g>
			<path class="st5" d="M188.7,138.9h1.7c-0.5-2.6-2.5-4.6-5.1-5.1v1.7C187,135.9,188.3,137.2,188.7,138.9z"/>
			<path class="st5" d="M178.1,138.9h1.7c0.4-1.7,1.7-3,3.4-3.4v-1.7C180.6,134.3,178.5,136.3,178.1,138.9z"/>
			<path class="st5" d="M185.3,144.4v1.7c2.6-0.5,4.6-2.5,5.1-5.1h-1.7C188.3,142.7,187,144,185.3,144.4z"/>
			<path class="st5" d="M179.8,141h-1.7c0.5,2.6,2.5,4.6,5.1,5.1v-1.7C181.5,144,180.2,142.7,179.8,141z"/>
		</g>
	</g>
</g>
</svg>
