<?xml version="1.0" encoding="utf-8"?>
<!-- Generator: Adobe Illustrator 23.0.2, SVG Export Plug-In . SVG Version: 6.00 Build 0)  -->
<svg version="1.1" id="Layer_1" xmlns="http://www.w3.org/2000/svg" xmlns:xlink="http://www.w3.org/1999/xlink" x="0px" y="0px"
	 viewBox="0 0 60 60" style="enable-background:new 0 0 60 60;" xml:space="preserve">
<style type="text/css">
	.st0{fill:#868686;}
</style>
<title>062 - Repeat Task</title>
<desc>Created with Sketch.</desc>
<g>
	<g transform="translate(-1.000000, 0.000000)">
		<path class="st0" d="M30.9,4.2L32.7,6c0.4,0.4,1,0.4,1.4,0s0.4-1,0-1.4L34,4.5C45.8,5.7,55.2,15.1,56.5,27
			c1.2,11.9-6.1,23-17.5,26.5c-0.5,0.1-0.8,0.6-0.7,1.1s0.5,0.9,1,0.8c0.1,0,0.2,0,0.3,0c12.4-3.9,20.3-16,18.8-28.7
			c-1.4-13-11.8-23-24.6-24.1L34,2.2c0.4-0.4,0.4-1,0-1.4s-1-0.4-1.4,0l-1.9,1.9c-0.2,0.2-0.3,0.4-0.3,0.7l0,0
			C30.5,3.8,30.7,4,30.9,4.2z"/>
		<path class="st0" d="M23.4,3.7C11.2,7.4,3.3,19.4,4.5,32.2s11.4,22.9,24.2,24.3c0.2,0,0.3,0,0.5,0l-0.4,0.4
			c-0.3,0.3-0.4,0.6-0.3,1c0.1,0.3,0.4,0.6,0.7,0.7c0.3,0.1,0.7,0,1-0.3l1.9-1.9c0.3-0.2,0.4-0.5,0.4-0.8l0,0c0-0.3-0.1-0.5-0.3-0.7
			l-1.9-1.9c-0.4-0.4-1-0.4-1.4,0c-0.4,0.4-0.4,1,0,1.4l0.2,0.2c-0.1,0-0.1,0-0.2,0C16.9,53.2,7.6,43.9,6.4,32S12.6,9.1,24,5.6
			c0.4-0.1,0.6-0.4,0.7-0.7c0.1-0.4,0-0.7-0.3-1C24.1,3.7,23.8,3.6,23.4,3.7L23.4,3.7z"/>
		<path class="st0" d="M26.6,16.9h-3.9c-1.7,0-2.9,1.3-2.9,2.9V43c0,1.7,1.3,2.9,2.9,2.9h17.3c1.7,0,2.9-1.3,2.9-2.9V19.8
			c0-1.7-1.3-2.9-2.9-2.9h-3.9c0-0.9-0.5-1.6-1.4-1.9c0-0.1,0-0.3,0-0.4c0-1.9-1.6-3.6-3.6-3.6s-3.4,1.7-3.4,3.7c0,0.1,0,0.3,0,0.4
			C27.1,15.4,26.6,16.1,26.6,16.9z M41.2,19.8V43c0,0.6-0.4,1-1,1H22.7c-0.6,0-1-0.4-1-1V19.8c0-0.6,0.4-1,1-1h1v21.2
			c0,1.1,0.9,1.9,1.9,1.9h11.6c1.1,0,1.9-0.9,1.9-1.9V18.8h1C40.8,18.8,41.2,19.2,41.2,19.8z M37.3,18.8v21.2H25.7V18.8h1
			c0,1.1,0.9,1.9,1.9,1.9h5.7c1.1,0,1.9-0.9,1.9-1.9H37.3z M28.6,16.9h0.7c0.4,0,0.7-0.2,0.9-0.5c0.2-0.3,0.2-0.7,0-1
			c-0.4-0.7-0.2-1.6,0.4-2c0.6-0.5,1.5-0.5,2,0s0.8,1.4,0.4,2c-0.2,0.3-0.2,0.7,0,1c0.2,0.3,0.5,0.5,0.9,0.5h0.6v1.9h-5.7L28.6,16.9
			L28.6,16.9z"/>
		<path class="st0" d="M34.3,23.7h-5.7c-0.6,0-1,0.4-1,1c0,0.6,0.4,1,1,1h5.7c0.6,0,1-0.4,1-1C35.3,24.1,34.9,23.7,34.3,23.7z"/>
		<path class="st0" d="M34.3,27.5h-5.7c-0.6,0-1,0.4-1,1c0,0.6,0.4,1,1,1h5.7c0.6,0,1-0.4,1-1C35.3,27.9,34.9,27.5,34.3,27.5z"/>
		<path class="st0" d="M34.3,31.4h-5.7c-0.6,0-1,0.4-1,1c0,0.6,0.4,1,1,1h5.7c0.6,0,1-0.4,1-1S34.9,31.4,34.3,31.4z"/>
		<path class="st0" d="M31.4,35.3h-2.9c-0.6,0-1,0.4-1,1s0.4,1,1,1h2.9c0.6,0,1-0.4,1-1S32,35.3,31.4,35.3z"/>
	</g>
</g>
</svg>
