<?xml version="1.0" encoding="utf-8"?>
<!-- Generator: Adobe Illustrator 23.0.2, SVG Export Plug-In . SVG Version: 6.00 Build 0)  -->
<svg version="1.1" id="Layer_1" xmlns="http://www.w3.org/2000/svg" xmlns:xlink="http://www.w3.org/1999/xlink" x="0px" y="0px"
	 viewBox="0 0 60 60" style="enable-background:new 0 0 60 60;" xml:space="preserve">
<style type="text/css">
	.st0{fill:#868686;}
</style>
<path class="st0" d="M7.6,18.8h3.8v1.8H7.6V18.8z"/>
<path class="st0" d="M57.2,15c1.5,0,2.8-1.3,2.8-2.8V2.8C60,1.3,58.7,0,57.2,0H44c-1.5,0-2.8,1.3-2.8,2.8v9.4c0,1.5,1.3,2.8,2.8,2.8
	h2.8v1.8H45v1.8h4.6V28h-3.9c-0.8-0.8-1.6-1.3-2.7-1.5c0-0.1,0-0.2,0-0.3c0-4.2-3.4-7.4-7.4-7.4c-2.5,0-4.9,1.4-6.3,3.5
	c-1-0.4-2-0.7-3.1-0.7c-3.1,0-5.9,1.9-7,4.8c-0.7,0.2-1.4,0.4-1.9,0.8h-7v-2.8h3.8c1.5,0,2.8-1.3,2.8-2.8V2.8C17,1.3,15.7,0,14.2,0
	H4.8C3.3,0,2,1.3,2,2.8v18.8c0,1.5,1.3,2.8,2.8,2.8h3.8V29h6.9c-0.4,0.6-0.7,1.2-0.9,1.8h-4.2v10.2H6.6c-1.5,0-2.8,1.3-2.8,2.8v8.4
	H2v2.8C2,56.7,3.3,58,4.8,58h15c1.5,0,2.8-1.3,2.8-2.8v-2.8h-1.8V44c0-1.5-1.3-2.8-2.8-2.8h-5.6v-8.4h1.8c0,3.6,2.9,6.6,6.6,6.6
	h20.6c3.3,0,6-2.4,6.5-5.6h3.8v7.4H45V58h15V41.2h-6.6v-9.4h-5.7c-0.1-0.7-0.3-1.3-0.6-1.8h4.4V18.8h4.6v-1.8h-1.8v-1.8L57.2,15
	L57.2,15z M15.1,15H3.8V5.6h11.2V15z M4.8,1.8h9.4c0.5,0,1,0.4,1,1v1H3.8v-1C3.8,2.3,4.3,1.8,4.8,1.8z M3.8,21.6v-4.6h11.2v4.6
	c0,0.5-0.4,1-1,1H4.8C4.3,22.4,3.8,22,3.8,21.6z M20.8,55.2c0,0.5-0.4,1-1,1h-15c-0.5,0-1-0.4-1-1v-1h16.8L20.8,55.2L20.8,55.2z
	 M18.8,44v8.4h-13V44c0-0.5,0.4-1,1-1H18C18.4,43,18.8,43.4,18.8,44z M47,56.2v-5.6h11.2v5.6H47z M58.2,48.6H47V43h11.2V48.6z
	 M41.2,37.4H20.8c-2.6,0-4.6-2.1-4.6-4.6c0-2.3,1.7-4.3,4.2-4.6l0.6-0.1l0.2-0.6c0.7-2.4,2.9-4.1,5.4-4.1c1.1,0,2,0.3,2.9,0.9
	l0.9,0.6l0.5-1c1-1.9,2.9-3.3,5.1-3.3c3.1,0,5.6,2.5,5.6,5.6c0,0.3,0,0.6-0.1,0.9l-0.1,1l1,0.1c2.2,0.4,4,2.3,4,4.6
	C46,35.3,43.9,37.4,41.2,37.4z M44,1.8h13c0.5,0,1,0.4,1,1v6.6H43.2V2.8C43.2,2.3,43.6,1.8,44,1.8z M43.2,12.2v-1h15v1
	c0,0.5-0.4,1-1,1H44C43.6,13.1,43.2,12.7,43.2,12.2z M52.6,16.8h-3.8V15h3.8V16.8z"/>
<path class="st0" d="M48.8,45h1.8v1.8h-1.8V45z"/>
<path class="st0" d="M54.4,52.4h1.8v1.8h-1.8V52.4z"/>
<path class="st0" d="M52.6,45h3.8v1.8h-3.8V45z"/>
<path class="st0" d="M48.8,52.4h3.8v1.8h-3.8V52.4z"/>
</svg>
