<?xml version="1.0" encoding="utf-8"?>
<!-- Generator: Adobe Illustrator 23.0.2, SVG Export Plug-In . SVG Version: 6.00 Build 0)  -->
<svg version="1.1" id="Layer_1" xmlns="http://www.w3.org/2000/svg" xmlns:xlink="http://www.w3.org/1999/xlink" x="0px" y="0px"
	 viewBox="0 0 60 60" style="enable-background:new 0 0 60 60;" xml:space="preserve">
<style type="text/css">
	.st0{fill:#868686;}
</style>
<path class="st0" d="M30.4,42.2c-7,0-12.6-5.6-12.6-12.6s5.6-12.5,12.6-12.5S43,22.7,43,29.7S37.4,42.2,30.4,42.2z M30.4,19
	c-5.9,0-10.7,4.8-10.7,10.7s4.8,10.7,10.7,10.7s10.7-4.8,10.7-10.7S36.3,19,30.4,19z"/>
<path class="st0" d="M27.3,24.3c0-0.1,0.1-0.2,0.2-0.2h4.3c2.5,0,3.6,1.2,3.6,3.1c0,1.3-0.6,2-1.3,2.5l0,0c0.7,0.3,1.5,1.1,1.5,2.6
	c0,2.3-1.4,3.3-4,3.3h-4.1c-0.1,0-0.2-0.1-0.2-0.2C27.3,35.3,27.3,24.3,27.3,24.3z M31.6,28.9c1,0,1.6-0.6,1.6-1.5s-0.7-1.5-1.6-1.5
	h-2.3c-0.1,0-0.1,0-0.1,0.1v2.9c0,0.1,0,0.1,0.1,0.1H31.6z M29.4,33.9h2.4c1.1,0,1.7-0.7,1.7-1.6c0-1-0.7-1.6-1.7-1.6h-2.4
	c-0.1,0-0.1,0-0.1,0.1v3C29.3,33.8,29.3,33.9,29.4,33.9z"/>
<path class="st0" d="M30.4,25.8c-0.6,0-1-0.5-1-1v-1.9c0-0.6,0.5-1,1-1c0.5,0,1,0.5,1,1v1.9C31.4,25.3,31,25.8,30.4,25.8z"/>
<path class="st0" d="M30.4,37.4c-0.6,0-1-0.5-1-1v-1c0-0.6,0.5-1,1-1c0.5,0,1,0.5,1,1v1C31.4,36.9,31,37.4,30.4,37.4z"/>
<path class="st0" d="M35.3,14.1h-9.7c-0.6,0-1-0.5-1-1V3.6c0-0.6,0.5-1,1-1h9.6c0.6,0,1,0.5,1,1v9.6C36.2,13.8,35.7,14.1,35.3,14.1z
	 M26.5,12.2h7.7V4.5h-7.7V12.2z"/>
<path class="st0" d="M58.4,14.1h-9.6c-0.6,0-1-0.5-1-1V3.6c0-0.6,0.5-1,1-1h9.6c0.6,0,1,0.5,1,1v9.6C59.4,13.8,59,14.1,58.4,14.1z
	 M49.8,12.2h7.7V4.5h-7.7C49.8,4.5,49.8,12.2,49.8,12.2z"/>
<path class="st0" d="M12,14.1H2.4c-0.6,0-1-0.5-1-1V3.6c0-0.6,0.5-1,1-1H12c0.6,0,1,0.5,1,1v9.6C12.9,13.8,12.6,14.1,12,14.1z
	 M3.3,12.2H11V4.5H3.3V12.2z"/>
<path class="st0" d="M53.6,19H7.2c-0.6,0-1-0.5-1-1v-4.9c0-0.6,0.5-1,1-1s1,0.5,1,1v3.9h44.5v-3.9c0-0.6,0.5-1,1-1c0.5,0,1,0.5,1,1
	v4.9C54.6,18.5,54.2,19,53.6,19z"/>
<path class="st0" d="M35.3,56.7h-9.7c-0.6,0-1-0.5-1-1v-9.6c0-0.6,0.5-1,1-1h9.6c0.6,0,1,0.5,1,1v9.6C36.2,56.3,35.7,56.7,35.3,56.7
	z M26.5,54.8h7.7v-7.7h-7.7V54.8z"/>
<path class="st0" d="M58.4,56.7h-9.6c-0.6,0-1-0.5-1-1v-9.6c0-0.6,0.5-1,1-1h9.6c0.6,0,1,0.5,1,1v9.6C59.4,56.3,59,56.7,58.4,56.7z
	 M49.8,54.8h7.7v-7.7h-7.7C49.8,47.1,49.8,54.8,49.8,54.8z"/>
<path class="st0" d="M12,56.7H2.4c-0.6,0-1-0.5-1-1v-9.6c0-0.6,0.5-1,1-1H12c0.6,0,1,0.5,1,1v9.6C12.9,56.3,12.6,56.7,12,56.7z
	 M3.3,54.8H11v-7.7H3.3V54.8z"/>
<path class="st0" d="M53.6,47.1c-0.6,0-1-0.5-1-1v-3.9H8.2v3.9c0,0.6-0.5,1-1,1s-1-0.5-1-1v-4.9c0-0.6,0.5-1,1-1h46.5
	c0.6,0,1,0.5,1,1v4.9C54.6,46.7,54.2,47.1,53.6,47.1z"/>
<path class="st0" d="M25.5,9.3H12.9c-0.6,0-1-0.5-1-1s0.5-1,1-1h12.6c0.6,0,1,0.5,1,1S26.1,9.3,25.5,9.3z"/>
<path class="st0" d="M48.8,9.3H36.2c-0.6,0-1-0.5-1-1s0.5-1,1-1h12.6c0.6,0,1,0.5,1,1S49.3,9.3,48.8,9.3z"/>
<path class="st0" d="M25.5,51.9H12.9c-0.6,0-1-0.5-1-1s0.5-1,1-1h12.6c0.6,0,1,0.5,1,1S26.1,51.9,25.5,51.9z"/>
<path class="st0" d="M48.8,51.9H36.2c-0.6,0-1-0.5-1-1s0.5-1,1-1h12.6c0.6,0,1,0.5,1,1S49.3,51.9,48.8,51.9z"/>
</svg>
