<?xml version="1.0" encoding="utf-8"?>
<!-- Generator: Adobe Illustrator 23.0.2, SVG Export Plug-In . SVG Version: 6.00 Build 0)  -->
<svg version="1.1" id="OBJECTS" xmlns="http://www.w3.org/2000/svg" xmlns:xlink="http://www.w3.org/1999/xlink" x="0px" y="0px"
	 viewBox="0 0 387 180" style="enable-background:new 0 0 387 180;" xml:space="preserve">
<style type="text/css">
	.st0{fill:none;stroke:#26292D;stroke-width:1.5;stroke-linecap:round;stroke-linejoin:round;stroke-miterlimit:10;}
	.st1{fill:none;stroke:#231F20;stroke-width:1.5;stroke-linecap:round;stroke-linejoin:round;stroke-miterlimit:10;}
	.st2{fill:none;stroke:#D1D3D4;stroke-width:1.5;stroke-miterlimit:10;}
	.st3{fill:none;stroke:#A7A9AC;stroke-width:1.5;stroke-miterlimit:10;}
	.st4{fill:#A7A9AC;}
	.st5{fill:#FFFFFF;}
	.st6{fill:none;stroke:#26292D;stroke-width:1.5;stroke-miterlimit:10;}
	.st7{fill:#26292D;}
	.st8{fill:none;stroke:#231F20;stroke-width:1.5;stroke-miterlimit:10;}
	.st9{fill:none;stroke:#231F20;stroke-width:1.5;stroke-miterlimit:10;stroke-dasharray:4.9443,1.9777;}
	.st10{fill:#26292D;stroke:#FFFFFF;stroke-width:0.25;stroke-miterlimit:10;}
</style>
<path id="XMLID_42_" class="st0" d="M268.5,137.9H124.9c-2.7,0-5.4-1.1-7.2-3.1l-0.2-0.2v-4.1h158.4v4.1l-0.2,0.2
	C273.8,136.8,271.2,137.9,268.5,137.9z"/>
<rect id="XMLID_43_" x="117.5" y="130.4" class="st0" width="158.4" height="4.1"/>
<path id="XMLID_46_" class="st1" d="M196.7,132.7h12.6c1.5,0,3-0.4,4.1-1.2l1.6-1.1h-18.2h-18.2l1.6,1.1c1.1,0.7,2.5,1.2,4.1,1.2
	H196.7z"/>
<path id="XMLID_45_" class="st0" d="M263.9,130.4H129.6V53.6c0-2.3,1.8-4.1,4.1-4.1h126.1c2.3,0,4.1,1.8,4.1,4.1L263.9,130.4
	L263.9,130.4z"/>
<rect id="XMLID_47_" x="134.5" y="54.4" class="st0" width="124.5" height="71"/>
<rect id="XMLID_62_" x="143.4" y="105.6" class="st2" width="21.2" height="14.5"/>
<rect id="XMLID_1_" x="143.4" y="80.3" class="st2" width="21.2" height="14.5"/>
<rect id="XMLID_61_" x="168.6" y="85.9" class="st3" width="24.9" height="2.4"/>
<rect id="XMLID_64_" x="168.6" y="89.3" class="st3" width="21.3" height="1.2"/>
<rect id="XMLID_103_" x="168.6" y="111.3" class="st3" width="24.9" height="2.4"/>
<rect id="XMLID_102_" x="168.6" y="114.8" class="st3" width="21.3" height="1.2"/>
<rect id="XMLID_105_" x="256.5" y="123" class="st4" width="1.7" height="1.7"/>
<polygon id="XMLID_108_" class="st5" points="257.3,124.4 258.1,123.3 257.3,123.3 256.6,123.3 "/>
<g id="XMLID_59_">
	<g id="XMLID_49_">
		<path id="XMLID_50_" class="st0" d="M129.6,64.6v4.9c0,3.3,2.7,6,6.1,6c3.4,0,6.1-2.7,6.1-6v-4.9H129.6z"/>
		<path id="XMLID_51_" class="st0" d="M141.8,64.6v4.9c0,3.3,2.7,6,6.1,6c3.4,0,6.1-2.7,6.1-6v-4.9H141.8z"/>
		<path id="XMLID_52_" class="st0" d="M154,64.6v4.9c0,3.3,2.7,6,6.1,6c3.4,0,6.1-2.7,6.1-6v-4.9H154z"/>
		<path id="XMLID_53_" class="st0" d="M166.2,64.6v4.9c0,3.3,2.7,6,6.1,6c3.4,0,6.1-2.7,6.1-6v-4.9H166.2z"/>
		<path id="XMLID_54_" class="st0" d="M178.4,64.6v4.9c0,3.3,2.7,6,6.1,6c3.4,0,6.1-2.7,6.1-6v-4.9H178.4z"/>
		<path id="XMLID_55_" class="st0" d="M190.6,64.6v4.9c0,3.3,2.7,6,6.1,6c3.4,0,6.1-2.7,6.1-6v-4.9H190.6z"/>
		<path id="XMLID_56_" class="st0" d="M202.8,64.6v4.9c0,3.3,2.7,6,6.1,6s6.1-2.7,6.1-6v-4.9H202.8z"/>
		<path id="XMLID_58_" class="st0" d="M215,64.6v4.9c0,3.3,2.7,6,6.1,6s6.1-2.7,6.1-6v-4.9H215z"/>
		<path id="XMLID_57_" class="st0" d="M227.2,64.6v4.9c0,3.3,2.7,6,6.1,6s6.1-2.7,6.1-6v-4.9H227.2z"/>
		<path id="XMLID_83_" class="st0" d="M239.4,64.6v4.9c0,3.3,2.7,6,6.1,6c3.4,0,6.1-2.7,6.1-6v-4.9H239.4z"/>
		<path id="XMLID_82_" class="st0" d="M251.6,64.6v4.9c0,3.3,2.7,6,6.1,6c3.4,0,6.1-2.7,6.1-6v-4.9H251.6z"/>
	</g>
	<g id="XMLID_71_">
		<polygon id="XMLID_48_" class="st0" points="145.6,54.4 134.3,54.4 129.6,64.6 141.8,64.6 		"/>
		<polygon id="XMLID_70_" class="st0" points="156.9,54.4 145.6,54.4 141.8,64.6 154,64.6 		"/>
		<polygon id="XMLID_72_" class="st0" points="168.3,54.4 156.9,54.4 154,64.6 166.2,64.6 		"/>
		<polygon id="XMLID_73_" class="st0" points="179.6,54.4 168.3,54.4 166.2,64.6 178.4,64.6 		"/>
		<polygon id="XMLID_74_" class="st0" points="190.9,54.4 179.6,54.4 178.4,64.6 190.6,64.6 		"/>
		<polygon id="XMLID_75_" class="st0" points="202.3,54.4 190.9,54.4 190.6,64.6 202.8,64.6 		"/>
		<polygon id="XMLID_76_" class="st0" points="213.6,54.4 202.3,54.4 202.8,64.6 215,64.6 		"/>
		<polygon id="XMLID_77_" class="st0" points="224.9,54.4 213.6,54.4 215,64.6 227.2,64.6 		"/>
		<polygon id="XMLID_78_" class="st0" points="236.3,54.4 224.9,54.4 227.2,64.6 239.4,64.6 		"/>
		<polygon id="XMLID_80_" class="st0" points="247.6,54.4 236.3,54.4 239.4,64.6 251.6,64.6 		"/>
		<polygon id="XMLID_79_" class="st0" points="258.9,54.4 247.6,54.4 251.6,64.6 263.9,64.6 		"/>
	</g>
</g>
<path id="XMLID_115_" class="st0" d="M36.6,76.8H16.1c-1.7,0-3.1-1.4-3.1-3.1V31.5c0-1.7,1.4-3.1,3.1-3.1h20.5
	c1.7,0,3.1,1.4,3.1,3.1v42.2C39.8,75.4,38.4,76.8,36.6,76.8z"/>
<rect id="XMLID_116_" x="15.9" y="31.6" class="st0" width="20.9" height="38"/>
<line id="XMLID_119_" class="st6" x1="22.9" y1="73.2" x2="29.8" y2="73.2"/>
<polygon id="XMLID_118_" class="st0" points="305.7,73.1 279,73.1 280.4,44.3 303.6,44.3 "/>
<path id="XMLID_121_" class="st0" d="M285.3,48.2v-6.3c0-3.9,3.2-7,7-7l0,0c3.9,0,7,3.2,7,7v6.3"/>
<path id="XMLID_122_" class="st0" d="M89.5,111.2H54.9c-1.1,0-2-0.9-2-2V89.7c0-1.1,0.9-2,2-2h34.6c1.1,0,2,0.9,2,2v19.5
	C91.5,110.3,90.6,111.2,89.5,111.2z"/>
<rect id="XMLID_123_" x="52.9" y="93.1" class="st0" width="38.6" height="3.5"/>
<line id="XMLID_125_" class="st6" x1="54.9" y1="105.5" x2="67" y2="105.5"/>
<line id="XMLID_126_" class="st6" x1="69.9" y1="105.5" x2="81.9" y2="105.5"/>
<rect id="XMLID_127_" x="1.8" y="126.1" class="st0" width="42.3" height="22.5"/>
<path id="XMLID_136_" class="st0" d="M41.4,132.2v10.4c-1.7,0-3.1,1.4-3.2,3.1H7.6c0-1.7-1.4-3.1-3.1-3.1v-10.4
	c1.7,0,3.1-1.4,3.1-3.2h30.7C38.3,130.8,39.7,132.2,41.4,132.2z"/>
<path id="XMLID_128_" class="st0" d="M27.5,137.4c0,2.5-2.1,4.6-4.6,4.6s-4.6-2.1-4.6-4.6s2.1-4.6,4.6-4.6
	C25.5,132.8,27.5,134.9,27.5,137.4z"/>
<g id="XMLID_233_">
	<line id="XMLID_252_" class="st6" x1="344.3" y1="60.3" x2="313.6" y2="60.3"/>
	<line id="XMLID_246_" class="st6" x1="344.3" y1="66.7" x2="317.8" y2="66.7"/>
	<line id="XMLID_240_" class="st6" x1="344.3" y1="73" x2="323.6" y2="73"/>
</g>
<path id="XMLID_143_" class="st0" d="M379.4,74.7h-31.9c-1.5,0-2.8-1.1-2.9-2.6l-1.8-17.4c0-0.2,0.1-0.3,0.3-0.3h40.7
	c0.2,0,0.3,0.1,0.3,0.3L382.3,72C382.1,73.5,380.9,74.7,379.4,74.7z"/>
<path id="XMLID_142_" class="st0" d="M385.1,54h-43.4c-1,0-1.9-0.8-1.9-1.9v-0.2c0-1,0.8-1.9,1.9-1.9h43.4c1,0,1.9,0.8,1.9,1.9v0.2
	C387,53.1,386.2,54,385.1,54z"/>
<g id="XMLID_144_">
	<path id="XMLID_145_" class="st0" d="M348.4,67.8v-9.6c0-0.9,0.7-1.6,1.6-1.6l0,0c0.9,0,1.6,0.7,1.6,1.6v9.6c0,0.9-0.7,1.6-1.6,1.6
		l0,0C349.1,69.4,348.4,68.7,348.4,67.8z"/>
	<path id="XMLID_146_" class="st0" d="M357.4,67.8v-9.6c0-0.9,0.7-1.6,1.6-1.6l0,0c0.9,0,1.6,0.7,1.6,1.6v9.6c0,0.9-0.7,1.6-1.6,1.6
		l0,0C358.1,69.4,357.4,68.7,357.4,67.8z"/>
	<path id="XMLID_147_" class="st0" d="M366.3,67.8v-9.6c0-0.9,0.7-1.6,1.6-1.6l0,0c0.9,0,1.6,0.7,1.6,1.6v9.6c0,0.9-0.7,1.6-1.6,1.6
		l0,0C367,69.4,366.3,68.7,366.3,67.8z"/>
	<path id="XMLID_148_" class="st0" d="M375.2,67.8v-9.6c0-0.9,0.7-1.6,1.6-1.6l0,0c0.9,0,1.6,0.7,1.6,1.6v9.6c0,0.9-0.7,1.6-1.6,1.6
		l0,0C375.9,69.4,375.2,68.7,375.2,67.8z"/>
</g>
<g id="XMLID_150_">
	<path id="XMLID_149_" class="st0" d="M369.9,50.4l-8.1-14c-0.5-0.8-0.2-1.9,0.6-2.3l0.1-0.1c0.8-0.5,1.9-0.2,2.3,0.6l8.1,14
		c0.5,0.8,0.2,1.9-0.6,2.3l-0.1,0.1C371.4,51.5,370.4,51.3,369.9,50.4z"/>
	<path id="XMLID_151_" class="st0" d="M356.9,50.4l8.1-14c0.5-0.8,0.2-1.9-0.6-2.3l-0.1-0.1c-0.8-0.5-1.9-0.2-2.3,0.6l-8.1,14
		c-0.5,0.8-0.2,1.9,0.6,2.3l0.1,0.1C355.4,51.5,356.4,51.3,356.9,50.4z"/>
</g>
<circle id="XMLID_138_" class="st0" cx="372" cy="137.4" r="13"/>
<g id="XMLID_156_">
	<path id="XMLID_157_" class="st7" d="M371,134.8c0,2.4-1.5,3.7-3.2,3.7c-1.8,0-3.2-1.3-3.2-3.5c0-2.1,1.3-3.7,3.3-3.7
		C369.9,131.4,371,132.8,371,134.8z M366.6,135c0,1.2,0.4,2.1,1.2,2.1c0.8,0,1.1-0.8,1.1-2.1c0-1.2-0.3-2.1-1.2-2.1
		C367,132.9,366.6,133.8,366.6,135z M367.9,143.4l6.7-12.1h1.5l-6.7,12.1H367.9z M379.4,139.7c0,2.4-1.5,3.7-3.2,3.7
		c-1.8,0-3.2-1.3-3.2-3.5c0-2.1,1.3-3.7,3.3-3.7C378.3,136.2,379.4,137.7,379.4,139.7z M375.1,139.8c0,1.2,0.4,2.1,1.2,2.1
		c0.8,0,1.1-0.8,1.1-2.1c0-1.2-0.3-2.1-1.1-2.1C375.4,137.7,375.1,138.6,375.1,139.8z"/>
</g>
<circle id="XMLID_164_" class="st0" cx="114.8" cy="28.3" r="16.3"/>
<circle id="XMLID_165_" class="st0" cx="114.8" cy="28.3" r="12.8"/>
<g id="XMLID_166_">
	<line id="XMLID_167_" class="st6" x1="114.8" y1="15.5" x2="114.8" y2="18.5"/>
	<line id="XMLID_168_" class="st6" x1="108.4" y1="17.2" x2="109.9" y2="19.8"/>
	<line id="XMLID_169_" class="st6" x1="103.7" y1="21.9" x2="106.3" y2="23.4"/>
	<line id="XMLID_170_" class="st6" x1="102" y1="28.3" x2="105" y2="28.3"/>
	<line id="XMLID_171_" class="st6" x1="103.7" y1="34.7" x2="106.3" y2="33.2"/>
	<line id="XMLID_172_" class="st6" x1="108.4" y1="39.3" x2="109.9" y2="36.8"/>
	<line id="XMLID_173_" class="st6" x1="114.8" y1="41.1" x2="114.8" y2="38.1"/>
	<line id="XMLID_174_" class="st6" x1="121.2" y1="39.3" x2="119.7" y2="36.8"/>
	<line id="XMLID_175_" class="st6" x1="125.8" y1="34.7" x2="123.3" y2="33.2"/>
	<line id="XMLID_176_" class="st6" x1="127.5" y1="28.3" x2="124.6" y2="28.3"/>
	<line id="XMLID_177_" class="st6" x1="125.8" y1="21.9" x2="123.3" y2="23.4"/>
	<line id="XMLID_178_" class="st6" x1="121.2" y1="17.2" x2="119.7" y2="19.8"/>
</g>
<g id="XMLID_179_">
	<line id="XMLID_180_" class="st0" x1="114.8" y1="28.3" x2="114.8" y2="20.4"/>
	<polyline id="XMLID_182_" class="st0" points="116.6,22.6 114.8,20.1 113,22.6 	"/>
</g>
<g id="XMLID_183_">
	<line id="XMLID_185_" class="st0" x1="114.8" y1="28.3" x2="121" y2="28.3"/>
	<polyline id="XMLID_186_" class="st0" points="118.7,26.5 121.2,28.3 118.7,30.1 	"/>
</g>
<path id="XMLID_184_" class="st0" d="M104,137.6c0,5.8-10.5,19.7-10.5,19.7S83,143.4,83,137.6s4.7-10.5,10.5-10.5
	S104,131.8,104,137.6z"/>
<circle id="XMLID_187_" class="st0" cx="93.6" cy="137.6" r="5.1"/>
<path id="XMLID_191_" class="st0" d="M308.9,137.8h-19.4c-1.4,0-2.6,1.2-2.6,2.6v10.4c0,1.4,1.2,2.6,2.6,2.6h1.6
	c0,2.1-1.1,3.9-2.8,4.9c0.8,0.5,1.8,0.8,2.8,0.8c3.1,0,5.7-2.5,5.7-5.7h12.1c1.4,0,2.6-1.2,2.6-2.6v-10.4
	C311.5,138.9,310.4,137.8,308.9,137.8z"/>
<line id="XMLID_190_" class="st0" x1="290.4" y1="142.2" x2="308.1" y2="142.2"/>
<line id="XMLID_192_" class="st0" x1="290.4" y1="145.8" x2="308.1" y2="145.8"/>
<line id="XMLID_193_" class="st0" x1="290.4" y1="149.3" x2="308.1" y2="149.3"/>
<g id="XMLID_194_">
	<line id="XMLID_195_" class="st6" x1="50.6" y1="93.1" x2="11.8" y2="93.1"/>
	<line id="XMLID_196_" class="st6" x1="50.6" y1="99.5" x2="17.1" y2="99.5"/>
	<line id="XMLID_197_" class="st6" x1="50.6" y1="105.8" x2="24.4" y2="105.8"/>
</g>
<polyline id="XMLID_232_" class="st0" points="267.4,35 263.7,39.2 260,35 256.3,39.2 252.6,35 248.8,39.2 245.1,35 241.4,39.2 
	237.7,35 234,39.2 230.3,35 226.6,39.2 "/>
<polyline id="XMLID_235_" class="st0" points="168.9,37.9 165.1,42.1 161.4,37.9 157.7,42.1 154,37.9 150.3,42.1 146.6,37.9 
	142.9,42.1 139.2,37.9 135.5,42.1 131.8,37.9 "/>
<g id="XMLID_204_">
	<line id="XMLID_203_" class="st6" x1="50.4" y1="120.1" x2="55.3" y2="125"/>
	<line id="XMLID_202_" class="st6" x1="55.3" y1="120.1" x2="50.4" y2="125"/>
</g>
<g id="XMLID_238_">
	<line id="XMLID_241_" class="st6" x1="205.7" y1="39.6" x2="210.6" y2="44.5"/>
	<line id="XMLID_239_" class="st6" x1="210.6" y1="39.6" x2="205.7" y2="44.5"/>
</g>
<g id="XMLID_214_">
	<line id="XMLID_216_" class="st6" x1="109.1" y1="152.6" x2="114" y2="157.5"/>
	<line id="XMLID_215_" class="st6" x1="114" y1="152.6" x2="109.1" y2="157.5"/>
</g>
<circle id="XMLID_205_" class="st6" cx="80.6" cy="120.6" r="2.5"/>
<path id="XMLID_237_" class="st6" d="M181.2,33.2c0,1.4-1.1,2.5-2.5,2.5s-2.5-1.1-2.5-2.5s1.1-2.5,2.5-2.5
	C180,30.6,181.2,31.8,181.2,33.2z"/>
<rect id="XMLID_213_" x="66.1" y="140.3" transform="matrix(0.7071 -0.7071 0.7071 0.7071 -80.7755 90.1573)" class="st0" width="4.6" height="4.6"/>
<rect id="XMLID_242_" x="204.3" y="14.7" transform="matrix(0.7071 -0.7071 0.7071 0.7071 48.5261 151.0714)" class="st0" width="4.6" height="4.6"/>
<g id="XMLID_256_">
	<line id="XMLID_258_" class="st6" x1="358.6" y1="94.4" x2="363.5" y2="99.3"/>
	<line id="XMLID_257_" class="st6" x1="363.5" y1="94.4" x2="358.6" y2="99.3"/>
</g>
<path id="XMLID_255_" class="st6" d="M344.9,83.9c0,1.4-1.1,2.5-2.5,2.5s-2.5-1.1-2.5-2.5s1.1-2.5,2.5-2.5
	C343.8,81.3,344.9,82.5,344.9,83.9z"/>
<path id="XMLID_270_" class="st6" d="M342.4,155.1c0,1.4-1.1,2.5-2.5,2.5s-2.5-1.1-2.5-2.5s1.1-2.5,2.5-2.5S342.4,153.7,342.4,155.1
	z"/>
<path id="XMLID_266_" class="st6" d="M377.6,114.9c0,1.4-1.1,2.5-2.5,2.5s-2.5-1.1-2.5-2.5s1.1-2.5,2.5-2.5S377.6,113.5,377.6,114.9
	z"/>
<circle id="XMLID_262_" class="st6" cx="274.9" cy="37.1" r="2.5"/>
<rect id="XMLID_254_" x="376.2" y="83.9" transform="matrix(0.7071 -0.7071 0.7071 0.7071 49.8971 292.8934)" class="st0" width="4.6" height="4.6"/>
<rect id="XMLID_269_" x="342.6" y="128.1" transform="matrix(0.7071 -0.7071 0.7071 0.7071 8.8392 282.1042)" class="st0" width="4.6" height="4.6"/>
<line id="XMLID_208_" class="st8" x1="126.9" y1="145.7" x2="186.6" y2="145.7"/>
<line id="XMLID_210_" class="st8" x1="166.8" y1="152.6" x2="226.6" y2="152.6"/>
<line id="XMLID_209_" class="st8" x1="206.8" y1="145.7" x2="266.6" y2="145.7"/>
<line id="XMLID_211_" class="st6" x1="89.8" y1="158" x2="61.8" y2="158"/>
<line id="XMLID_212_" class="st6" x1="86.9" y1="154.1" x2="47" y2="154.1"/>
<g id="XMLID_227_">
	<g>
		<line class="st8" x1="139.4" y1="159" x2="141.9" y2="159"/>
		<line class="st9" x1="143.9" y1="159" x2="170.6" y2="159"/>
		<line class="st8" x1="171.6" y1="159" x2="174.1" y2="159"/>
	</g>
</g>
<g id="XMLID_228_">
	<g>
		<line class="st8" x1="219.3" y1="159" x2="221.8" y2="159"/>
		<line class="st9" x1="223.8" y1="159" x2="250.5" y2="159"/>
		<line class="st8" x1="251.5" y1="159" x2="254" y2="159"/>
	</g>
</g>
<g>
	<g>
		<path class="st7" d="M294.7,121.3h-3.6c-3.1,0-5.5,2.5-5.5,5.5h1.4l0,0c0-2.3,1.8-4.1,4.1-4.1h3.6c2.3,0,4.1,1.8,4.1,4.1l0,0h1.4
			C300.2,123.8,297.8,121.3,294.7,121.3z"/>
		<path class="st7" d="M297.6,112H288c-1.2,0-2.1,1-2.1,2.1v4.4c0,1.2,1,2.1,2.1,2.1h9.6c1.2,0,2.1-1,2.1-2.1v-4.4
			C299.7,113,298.8,112,297.6,112z M298.3,118.6c0,0.4-0.3,0.7-0.7,0.7H288c-0.4,0-0.7-0.3-0.7-0.7v-4.4c0-0.4,0.3-0.7,0.7-0.7h9.6
			c0.4,0,0.7,0.3,0.7,0.7V118.6z"/>
		<rect x="289.6" y="114.7" class="st7" width="1.4" height="3.3"/>
		<rect x="294.8" y="114.7" class="st7" width="1.4" height="3.3"/>
		<rect x="283.8" y="114.7" class="st7" width="1.4" height="3.2"/>
		<rect x="300.6" y="114.7" class="st7" width="1.4" height="3.2"/>
		<path class="st7" d="M306.8,87.8c0.5-0.1,1-0.3,1.5-0.3c-1.9-3-5.3-5-9.1-5c-6,0-10.8,4.9-10.8,10.8c0,0.3,0,10.1,0,10.1v1.5
			l3.9-3.2c1.5,1.3,3.4,2,5.3,2.3c-0.1-0.5-0.2-1-0.3-1.5c-1.7-0.3-3.2-1.1-4.5-2.3l-0.5-0.4l-2.6,2.1c0-2.8,0-8.4,0-8.6
			c0-5.2,4.2-9.4,9.4-9.4C302.3,83.9,305.1,85.4,306.8,87.8z"/>
		<path class="st7" d="M320.5,91.6c-2.1-1.4-4.6-2.2-7.3-2.2h-0.1c-7.2,0.1-13,5.9-13,13.1c0,1.3,0.2,2.5,0.5,3.7
			c0.7,2.6,2.3,4.8,4.3,6.5c2.3,1.9,5.2,3,8.3,3c3,0,5.8-1,8.1-2.8c0.1-0.1,0.2-0.2,0.3-0.2l2.3,1.9l2.4,1.9V115c0,0,0-12.1,0-12.4
			C326.3,98,324,94,320.5,91.6z M324.8,113.5l-3.3-2.7l-0.5,0.4c-2.2,2-5,3.1-7.9,3.1c-6.5,0-11.7-5.3-11.7-11.7s5.3-11.7,11.7-11.7
			c6.5,0,11.7,5.3,11.7,11.7C324.9,102.8,324.8,110.2,324.8,113.5z"/>
		<circle class="st7" cx="319.2" cy="102.6" r="1.5"/>
		<circle class="st7" cx="313.1" cy="102.6" r="1.5"/>
		<circle class="st7" cx="307.1" cy="102.6" r="1.5"/>
	</g>
</g>
<path class="st10" d="M96.4,48.6h-7.7v-9H63.4l-6.8,6.8v33h32.1V73h7.7C96.4,73,96.4,48.6,96.4,48.6z M63,41.8V46h-4.2L63,41.8z
	 M87.4,78.1H57.9V47.3h6.4v-6.4h23.1v7.7H61.7V73h25.7V78.1z M95.1,71.7H63V49.9h32.1V71.7z"/>
<rect x="59.2" y="51.1" class="st10" width="1.3" height="1.3"/>
<rect x="59.2" y="53.7" class="st10" width="1.3" height="1.3"/>
<rect x="59.2" y="56.3" class="st10" width="1.3" height="1.3"/>
<rect x="59.2" y="58.9" class="st10" width="1.3" height="1.3"/>
<rect x="59.2" y="61.4" class="st10" width="1.3" height="1.3"/>
<rect x="59.2" y="64" class="st10" width="1.3" height="1.3"/>
<rect x="59.2" y="66.6" class="st10" width="1.3" height="1.3"/>
<rect x="59.2" y="69.1" class="st10" width="1.3" height="1.3"/>
<rect x="59.2" y="71.7" class="st10" width="1.3" height="1.3"/>
<rect x="59.2" y="74.3" class="st10" width="1.3" height="1.3"/>
<rect x="61.7" y="74.3" class="st10" width="1.3" height="1.3"/>
<rect x="64.3" y="74.3" class="st10" width="1.3" height="1.3"/>
<rect x="66.9" y="74.3" class="st10" width="1.3" height="1.3"/>
<rect x="69.4" y="74.3" class="st10" width="1.3" height="1.3"/>
<rect x="72" y="74.3" class="st10" width="1.3" height="1.3"/>
<rect x="74.6" y="74.3" class="st10" width="1.3" height="1.3"/>
<rect x="77.2" y="74.3" class="st10" width="1.3" height="1.3"/>
<rect x="79.7" y="74.3" class="st10" width="1.3" height="1.3"/>
<rect x="82.3" y="74.3" class="st10" width="1.3" height="1.3"/>
<rect x="84.9" y="74.3" class="st10" width="1.3" height="1.3"/>
<rect x="92.6" y="69.1" class="st7" width="1.3" height="1.3"/>
<polygon class="st10" points="91.3,69.1 65.6,69.1 65.6,51.1 64.3,51.1 64.3,70.4 91.3,70.4 "/>
<path class="st10" d="M86.1,56.9v10.9h6.4V56.9h2l-5.3-6.1l-5.3,6.1H86.1z M89.4,52.8l2.5,2.9h-0.5v10.9h-3.9v-11H87L89.4,52.8z"/>
<path class="st10" d="M67.4,68.2l5.2-7.4c1,0,2,0.5,2.6,1.3l1.3,1.9c0.6,0.8,1.5,1.3,2.5,1.3s2-0.5,2.6-1.4l3.1-4.7l-1.1-0.7
	l-3.1,4.7C80.2,63.7,79.6,64,79,64s-1.1-0.3-1.5-0.8l-1.3-1.9c-0.7-0.9-1.7-1.6-2.8-1.8l1-1.5c1.1-1.5,2.9-2.5,4.7-2.5h5v-1.3h-5
	c-2.3,0-4.5,1.1-5.8,3l-1.5,2.1h-4.4v1.3H71l-4.7,6.7L67.4,68.2z"/>
<rect x="65.6" y="42.1" class="st10" width="1.3" height="1.3"/>
<rect x="68.2" y="42.1" class="st10" width="7.7" height="1.3"/>
</svg>
