<?xml version="1.0" encoding="utf-8"?>
<!-- Generator: Adobe Illustrator 23.0.2, SVG Export Plug-In . SVG Version: 6.00 Build 0)  -->
<svg version="1.1" xmlns="http://www.w3.org/2000/svg" xmlns:xlink="http://www.w3.org/1999/xlink" x="0px" y="0px"
	 viewBox="0 0 387 300" style="enable-background:new 0 0 387 300;" xml:space="preserve">
<style type="text/css">
	.st0{fill:#26292D;}
</style>
<g id="Background">
</g>
<g id="Icons">
	<g>
		<g>
			<path class="st0" d="M258.4,110.4h-21.2c-0.5,0-0.9-0.4-0.9-0.9V88.3c0-0.5,0.4-0.9,0.9-0.9c0.5,0,0.9,0.4,0.9,0.9v20.2h20.2
				c0.5,0,0.9,0.4,0.9,0.9C259.3,109.9,258.9,110.4,258.4,110.4z"/>
			<g>
				<path class="st0" d="M258.4,110.4c-0.2,0-0.5-0.1-0.7-0.3l-21.2-21.2c-0.2-0.2-0.3-0.4-0.3-0.7c0-0.3,0.1-0.5,0.3-0.7l52.8-50.8
					c1.3-1.3,3-2,4.9-2c1.9,0,3.6,0.7,4.9,2l12.7,12.7c1.3,1.3,2,3,2,4.9c0,1.9-0.7,3.6-2,4.9c0,0,0,0,0,0l-52.8,50.8
					C258.9,110.3,258.6,110.4,258.4,110.4z M238.6,88.3l19.9,19.9L310.6,58c1-1,1.5-2.2,1.5-3.6c0-1.4-0.5-2.6-1.5-3.6l-12.7-12.7
					c-1-1-2.2-1.5-3.6-1.5s-2.6,0.5-3.6,1.5c0,0,0,0,0,0L238.6,88.3z"/>
				<path class="st0" d="M258.4,110.4c-0.2,0-0.5-0.1-0.7-0.3l-21.2-21.2c-0.2-0.2-0.3-0.4-0.3-0.7c0-0.3,0.1-0.5,0.3-0.7l52.8-50.8
					c1.3-1.3,3-2,4.9-2c1.9,0,3.6,0.7,4.9,2l12.7,12.7c1.3,1.3,2,3,2,4.9c0,1.9-0.7,3.6-2,4.9c0,0,0,0,0,0l-52.8,50.8
					C258.9,110.3,258.6,110.4,258.4,110.4z M238.6,88.3l19.9,19.9L310.6,58c1-1,1.5-2.2,1.5-3.6c0-1.4-0.5-2.6-1.5-3.6l-12.7-12.7
					c-1-1-2.2-1.5-3.6-1.5s-2.6,0.5-3.6,1.5c0,0,0,0,0,0L238.6,88.3z"/>
				<path class="st0" d="M247.1,110.4h-9.8c-0.5,0-0.9-0.4-0.9-0.9v-9.8c0-0.4,0.2-0.7,0.6-0.9c0.3-0.1,0.8-0.1,1,0.2l9.8,9.8
					c0.3,0.3,0.3,0.7,0.2,1C247.8,110.1,247.5,110.4,247.1,110.4z M238.2,108.5h6.7l-6.7-6.7V108.5z"/>
				<path class="st0" d="M244.3,96.3c-0.2,0-0.5-0.1-0.7-0.3l-7.1-7.1c-0.2-0.2-0.3-0.4-0.3-0.7c0-0.3,0.1-0.5,0.3-0.7l45.7-43.7
					c0.4-0.4,1-0.3,1.3,0c0.4,0.4,0.3,1,0,1.3l-45,43l5.7,5.7L289.4,51c0.4-0.4,1-0.3,1.3,0c0.4,0.4,0.3,1,0,1.3L244.9,96
					C244.8,96.2,244.5,96.3,244.3,96.3z"/>
				<path class="st0" d="M258.4,110.4c-0.2,0-0.5-0.1-0.7-0.3l-7.1-7.1c-0.2-0.2-0.3-0.4-0.3-0.7c0-0.3,0.1-0.5,0.3-0.7l45.6-43.6
					c0.4-0.4,1-0.3,1.3,0c0.4,0.4,0.3,1,0,1.3l-44.9,42.9l5.7,5.7L303.6,65c0.4-0.4,1-0.3,1.3,0c0.4,0.4,0.3,1,0,1.3l-45.8,43.8
					C258.9,110.3,258.6,110.4,258.4,110.4z"/>
				<path class="st0" d="M304.1,66.7c-0.2,0-0.5-0.1-0.7-0.3l-21.2-21.2c-0.2-0.2-0.3-0.4-0.3-0.7c0-0.2,0.1-0.5,0.3-0.7l7.1-7.1
					c1.3-1.3,3-2,4.9-2c1.9,0,3.6,0.7,4.9,2l12.7,12.7c1.3,1.3,2,3,2,4.9c0,1.9-0.7,3.6-2,4.9l-7.1,7.1
					C304.6,66.6,304.4,66.7,304.1,66.7z M284.3,44.6l19.9,19.9l6.4-6.4c1-1,1.5-2.2,1.5-3.6c0-1.4-0.5-2.6-1.5-3.6l-12.7-12.7
					c-1-1-2.2-1.5-3.6-1.5s-2.6,0.5-3.6,1.5L284.3,44.6z"/>
			</g>
		</g>
	</g>
	<g>
		<g>
			<path class="st0" d="M287.3,247.3c-1.5,0-2.8-0.7-3.7-1.8h-24.7c-2.7,0-4.8-2.2-4.8-4.8V198c0-3,1.5-4.8,4-4.8
				c0.5,0,0.9,0.4,0.9,0.9s-0.4,0.9-0.9,0.9c-1.9,0-2.1,1.8-2.1,2.9v42.6c0,1.6,1.3,2.9,2.9,2.9h25.2c0.3,0,0.6,0.2,0.8,0.4
				c0.5,0.8,1.5,1.3,2.5,1.3c1,0,1.9-0.5,2.5-1.3c0.2-0.3,0.5-0.4,0.8-0.4h25.2c1.6,0,2.9-1.3,2.9-2.9V198c0-2.7-1.8-2.9-2.3-2.9
				c-0.5,0-0.9-0.4-0.9-0.9s0.4-0.9,0.9-0.9c2.5,0,4.2,1.9,4.2,4.8v42.6c0,2.7-2.2,4.8-4.8,4.8h-24.7
				C290.2,246.6,288.8,247.3,287.3,247.3z"/>
			<g>
				<path class="st0" d="M287.3,246.1c-0.5,0-0.9-0.4-0.9-0.9c0-1.6-1.3-2.9-2.9-2.9h-23.3c-1.6,0-2.9-1.3-2.9-2.9v-45.9
					c0-1.6,1.3-2.9,2.9-2.9h23.3c2.7,0,4.8,2.2,4.8,4.8v49.8C288.3,245.7,287.9,246.1,287.3,246.1z M260.2,192.5c-0.6,0-1,0.4-1,1
					v45.9c0,0.6,0.4,1,1,1h23.3c1.1,0,2.1,0.4,2.9,1v-45.9c0-1.6-1.3-2.9-2.9-2.9H260.2z"/>
				<path class="st0" d="M287.3,246.1c-0.5,0-0.9-0.4-0.9-0.9v-49.8c0-2.7,2.2-4.8,4.8-4.8h23.3c1.6,0,2.9,1.3,2.9,2.9v45.9
					c0,1.6-1.3,2.9-2.9,2.9h-23.3c-1.6,0-2.9,1.3-2.9,2.9C288.3,245.7,287.9,246.1,287.3,246.1z M291.2,192.5
					c-1.6,0-2.9,1.3-2.9,2.9v45.9c0.8-0.6,1.8-1,2.9-1h23.3c0.6,0,1-0.4,1-1v-45.9c0-0.6-0.4-1-1-1H291.2z"/>
				<path class="st0" d="M287.3,246.1c-0.5,0-0.9-0.4-0.9-0.9v-49.8c0-2.7,2.2-4.8,4.8-4.8h23.3c1.6,0,2.9,1.3,2.9,2.9v45.9
					c0,1.6-1.3,2.9-2.9,2.9h-23.3c-1.6,0-2.9,1.3-2.9,2.9C288.3,245.7,287.9,246.1,287.3,246.1z M291.2,192.5
					c-1.6,0-2.9,1.3-2.9,2.9v45.9c0.8-0.6,1.8-1,2.9-1h23.3c0.6,0,1-0.4,1-1v-45.9c0-0.6-0.4-1-1-1H291.2z"/>
			</g>
		</g>
		<g>
			<g>
				<path class="st0" d="M283.4,206.1h-21.3c-0.5,0-0.9-0.4-0.9-0.9c0-0.5,0.4-0.9,0.9-0.9h21.3c0.5,0,0.9,0.4,0.9,0.9
					C284.4,205.6,283.9,206.1,283.4,206.1z"/>
				<path class="st0" d="M283.5,211.2h-21.3c-0.5,0-0.9-0.4-0.9-0.9c0-0.5,0.4-0.9,0.9-0.9h21.3c0.5,0,0.9,0.4,0.9,0.9
					C284.4,210.8,284,211.2,283.5,211.2z"/>
				<path class="st0" d="M283.5,216.4h-21.3c-0.5,0-0.9-0.4-0.9-0.9s0.4-0.9,0.9-0.9h21.3c0.5,0,0.9,0.4,0.9,0.9
					S284,216.4,283.5,216.4z"/>
				<path class="st0" d="M283.5,221.6h-21.4c-0.5,0-0.9-0.4-0.9-0.9s0.4-0.9,0.9-0.9h21.4c0.5,0,0.9,0.4,0.9,0.9
					S284.1,221.6,283.5,221.6z"/>
			</g>
		</g>
		<g>
			<g>
				<path class="st0" d="M313.8,205.4h-21.3c-0.5,0-0.9-0.4-0.9-0.9s0.4-0.9,0.9-0.9h21.3c0.5,0,0.9,0.4,0.9,0.9
					S314.3,205.4,313.8,205.4z"/>
				<path class="st0" d="M313.8,210.6h-21.3c-0.5,0-0.9-0.4-0.9-0.9c0-0.5,0.4-0.9,0.9-0.9h21.3c0.5,0,0.9,0.4,0.9,0.9
					C314.8,210.2,314.4,210.6,313.8,210.6z"/>
				<path class="st0" d="M313.8,215.8h-21.3c-0.5,0-0.9-0.4-0.9-0.9c0-0.5,0.4-0.9,0.9-0.9h21.3c0.5,0,0.9,0.4,0.9,0.9
					C314.8,215.3,314.4,215.8,313.8,215.8z"/>
				<path class="st0" d="M302.9,220.9h-10.4c-0.5,0-0.9-0.4-0.9-0.9c0-0.5,0.4-0.9,0.9-0.9h10.4c0.5,0,0.9,0.4,0.9,0.9
					C303.9,220.5,303.4,220.9,302.9,220.9z"/>
			</g>
		</g>
	</g>
	<g>
		<path class="st0" d="M149.5,237.2c-0.2,0-0.5-0.1-0.7-0.3l-1.9-1.9c-0.8-0.8-1.2-1.9-1.2-3s0.4-2.2,1.2-3c0.8-0.8,1.9-1.2,3-1.2
			c1.1,0,2.2,0.4,3,1.2l1.9,1.9c0.4,0.4,0.4,1,0,1.3c-0.4,0.4-1,0.4-1.3,0l-1.9-1.9c-0.4-0.4-1-0.7-1.7-0.7c-0.6,0-1.2,0.2-1.7,0.7
			c-0.4,0.4-0.7,1-0.7,1.7c0,0.6,0.2,1.2,0.7,1.7l1.9,1.9c0.4,0.4,0.4,1,0,1.3C149.9,237.1,149.7,237.2,149.5,237.2z"/>
		<path class="st0" d="M196.5,283.1c-1.1,0-2.2-0.4-3-1.2l-1.9-1.9c-0.4-0.4-0.4-1,0-1.3c0.4-0.4,1-0.4,1.3,0l1.9,1.9
			c0.9,0.9,2.4,0.9,3.3,0c0.9-0.9,0.9-2.4,0-3.3l-1.9-1.9c-0.4-0.4-0.4-1,0-1.3c0.4-0.4,1-0.4,1.3,0l1.9,1.9c1.7,1.7,1.7,4.3,0,6
			C198.7,282.7,197.6,283.1,196.5,283.1z"/>
		<g>
			<path class="st0" d="M178.2,292.4h-11c-0.5,0-0.9-0.4-0.9-0.9v-5.9c0-0.5,0.4-0.9,0.9-0.9s0.9,0.4,0.9,0.9v4.9h9.1v-4.9
				c0-0.5,0.4-0.9,0.9-0.9s0.9,0.4,0.9,0.9v5.9C179.1,292,178.7,292.4,178.2,292.4z"/>
			<path class="st0" d="M191.4,299.7H154c-0.5,0-0.9-0.4-0.9-0.9v-2.9c0-2.9,2.4-5.3,5.3-5.3H187c2.9,0,5.3,2.4,5.3,5.3v2.9
				C192.3,299.3,191.9,299.7,191.4,299.7z M154.9,297.8h35.5v-2c0-1.9-1.6-3.5-3.5-3.5h-28.6c-1.9,0-3.5,1.6-3.5,3.5V297.8z"/>
		</g>
		<g>
			<path class="st0" d="M173.1,277.2C173.1,277.2,173.1,277.2,173.1,277.2c-5.8,0-11.2-2.3-15.3-6.3c-4.1-4.1-6.3-9.5-6.3-15.3
				c0-5.8,2.3-11.2,6.3-15.3c4.1-4.1,9.5-6.3,15.3-6.3c5.8,0,11.2,2.3,15.3,6.3c4.1,4.1,6.3,9.5,6.3,15.3c0,5.8-2.3,11.2-6.3,15.3
				C184.3,274.9,178.8,277.2,173.1,277.2z M173.1,235.7c-5.3,0-10.3,2.1-14,5.8c-3.7,3.7-5.8,8.7-5.8,14s2.1,10.3,5.8,14
				c3.7,3.7,8.7,5.8,14,5.8c0,0,0,0,0,0c5.3,0,10.3-2.1,14-5.8c3.7-3.7,5.8-8.7,5.8-14c0-5.3-2.1-10.3-5.8-14
				C183.3,237.8,178.3,235.7,173.1,235.7z"/>
			<path class="st0" d="M184,272.4C184,272.4,184,272.4,184,272.4c-4.9,0-11.9-3.9-17.9-9.9c-4-4-7.1-8.4-8.7-12.5
				c-1.7-4.3-1.6-7.8,0.4-9.8c1-1,2.5-1.6,4.3-1.6c4.9,0,11.9,3.9,17.9,9.9c4,4,7.1,8.4,8.7,12.5c1.7,4.3,1.6,7.8-0.4,9.8
				C187.3,271.9,185.9,272.4,184,272.4z M162.1,240.5c-1.3,0-2.3,0.3-3,1c-1.4,1.4-1.4,4.2,0,7.7c1.5,3.8,4.5,8.1,8.3,11.9
				c2.9,2.9,6,5.3,9,6.9c2.9,1.6,5.5,2.4,7.6,2.4c1.3,0,2.3-0.3,3-1c1.4-1.4,1.4-4.2,0-7.7c-1.5-3.8-4.5-8.1-8.3-11.9
				c-2.9-2.9-6-5.3-9-6.9C166.8,241.4,164.2,240.5,162.1,240.5z"/>
			<g>
				<g>
					<path class="st0" d="M153.3,261.8c-0.4,0-0.8-0.3-0.9-0.7c-0.1-0.5,0.2-1,0.7-1.1c4.2-1,9.6-4.5,14.3-9.2
						c5.1-5.1,8.7-11,9.4-15.3c0.1-0.5,0.6-0.9,1.1-0.8c0.5,0.1,0.9,0.6,0.8,1.1c-0.7,4.8-4.4,10.9-9.9,16.4
						c-4.9,4.9-10.6,8.6-15.2,9.7C153.5,261.8,153.4,261.8,153.3,261.8z"/>
				</g>
				<g>
					<path class="st0" d="M167.7,276.2c-0.1,0-0.1,0-0.2,0c-0.5-0.1-0.8-0.6-0.7-1.1c1.1-4.6,4.7-10.2,9.7-15.2
						c5.5-5.5,11.6-9.2,16.4-9.9c0.5-0.1,1,0.3,1.1,0.8c0.1,0.5-0.3,1-0.8,1.1c-4.3,0.7-10.2,4.3-15.3,9.4
						c-4.7,4.7-8.1,10.1-9.2,14.3C168.5,275.9,168.1,276.2,167.7,276.2z"/>
				</g>
			</g>
			<path class="st0" d="M159,270.5c-0.2,0-0.5-0.1-0.7-0.3c-0.4-0.4-0.4-1,0-1.3l28.1-28.1c0.4-0.4,1-0.4,1.3,0c0.4,0.4,0.4,1,0,1.3
				l-28.1,28.1C159.5,270.4,159.3,270.5,159,270.5z"/>
		</g>
		<path class="st0" d="M173.1,286.5c-8.3,0-16.1-3.2-21.9-9.1c-5.9-5.9-9.1-13.6-9.1-21.9c0-5.3,1.4-10.6,4-15.2
			c2.5-4.5,6.1-8.3,10.5-11c0.4-0.2,0.9-0.2,1.2,0.1l3.2,3.2c0.2,0.2,0.3,0.5,0.3,0.8c0,0.3-0.2,0.5-0.5,0.7
			c-3.7,2.1-6.8,5.2-8.9,8.9c-2.2,3.8-3.4,8.1-3.4,12.5c0,13.6,11.1,24.7,24.7,24.7c4.4,0,8.7-1.2,12.5-3.4c3.7-2.2,6.7-5.3,8.9-8.9
			c0.1-0.3,0.4-0.4,0.7-0.5c0.3,0,0.6,0.1,0.8,0.3l3.2,3.2c0.3,0.3,0.4,0.8,0.1,1.2c-2.7,4.3-6.6,8-11,10.5
			C183.6,285.1,178.4,286.5,173.1,286.5z M156.9,231.3c-3.8,2.5-7,6-9.2,10c-2.4,4.3-3.7,9.3-3.7,14.3c0,7.8,3,15.1,8.5,20.6
			c5.5,5.5,12.8,8.5,20.6,8.5c5,0,9.9-1.3,14.3-3.7c4-2.2,7.4-5.4,10-9.2l-1.8-1.8c-2.3,3.5-5.3,6.5-8.9,8.6
			c-4.1,2.4-8.7,3.7-13.5,3.7c-14.7,0-26.6-11.9-26.6-26.6c0-4.7,1.3-9.4,3.7-13.5c2.1-3.6,5.1-6.7,8.6-8.9L156.9,231.3z"/>
	</g>
	<g>
		<g>
			<path class="st0" d="M224.3,158.5c-0.3,0-0.6-0.2-0.8-0.5c-0.3-0.4-0.1-1,0.4-1.3c1.6-0.9,4.2-2.7,4.2-5.1V135
				c0-0.5,0.4-0.9,0.9-0.9c0.5,0,0.9,0.4,0.9,0.9v16.7c0,2.5-1.8,4.8-5.1,6.8C224.6,158.5,224.4,158.5,224.3,158.5z"/>
			<path class="st0" d="M204.8,162.7c-6.6,0-12.7-1.1-17.4-3c-4.9-2.1-7.6-4.9-7.6-8V135c0-0.5,0.4-0.9,0.9-0.9
				c0.5,0,0.9,0.4,0.9,0.9v16.7c0,2.3,2.4,4.5,6.5,6.2c4.4,1.9,10.4,2.9,16.7,2.9c5.3,0,10.3-0.7,14.5-2.1c0.5-0.2,1,0.1,1.2,0.6
				c0.2,0.5-0.1,1-0.6,1.2C215.5,161.9,210.3,162.7,204.8,162.7z"/>
		</g>
		<path class="st0" d="M205.6,147.7C205.6,147.7,205.6,147.7,205.6,147.7c-1.9,0-3.8-0.4-5.2-1.2l-29.9-17.1
			c-2.1-1.2-2.4-2.7-2.4-3.5s0.3-2.3,2.4-3.5l29.9-17.1c1.4-0.8,3.2-1.2,5.2-1.2c1.9,0,3.8,0.4,5.2,1.2l29.9,17.1
			c2.1,1.2,2.4,2.7,2.4,3.5s-0.3,2.3-2.4,3.5l-29.9,17.1C209.3,147.3,207.5,147.7,205.6,147.7z M205.6,105.9c-1.6,0-3.1,0.4-4.3,1
			L171.4,124c-0.9,0.5-1.5,1.2-1.5,1.9c0,0.7,0.5,1.4,1.5,1.9l29.9,17.1c1.1,0.6,2.7,1,4.3,1c0,0,0,0,0,0c1.6,0,3.1-0.4,4.2-1
			l29.9-17.1c0.9-0.5,1.5-1.2,1.5-1.9c0-0.7-0.5-1.4-1.5-1.9l-29.9-17.1C208.7,106.2,207.2,105.9,205.6,105.9z"/>
		<path class="st0" d="M225.6,167.8h-7.3c-0.3,0-0.5-0.1-0.7-0.3c-0.2-0.2-0.3-0.5-0.2-0.8l2.2-12.7c0.1-0.5,0.6-0.9,1.1-0.8
			c0.5,0.1,0.9,0.6,0.8,1.1l-2,11.6h5.1l-2-11.6c-0.1-0.5,0.3-1,0.8-1.1c0.5-0.1,1,0.3,1.1,0.8l2.2,12.7c0,0.3,0,0.6-0.2,0.8
			C226.2,167.7,225.9,167.8,225.6,167.8z"/>
		<path class="st0" d="M222,150.1c-0.5,0-0.9-0.4-0.9-0.9v-15.3l-17-9.5c-0.5-0.3-0.6-0.8-0.4-1.3c0.3-0.5,0.8-0.6,1.3-0.4l17.5,9.8
			c0.3,0.2,0.5,0.5,0.5,0.8v15.8C222.9,149.6,222.5,150.1,222,150.1z"/>
		<path class="st0" d="M222,155.1c-2,0-3.6-1.6-3.6-3.5s1.6-3.5,3.6-3.5c2,0,3.6,1.6,3.6,3.5S224,155.1,222,155.1z M222,150.1
			c-1,0-1.7,0.7-1.7,1.6c0,0.9,0.8,1.6,1.7,1.6c1,0,1.7-0.7,1.7-1.6C223.7,150.8,222.9,150.1,222,150.1z"/>
	</g>
	<g>
		<path class="st0" d="M238.6,228h-11c-0.5,0-0.9-0.4-0.9-0.9s0.4-0.9,0.9-0.9h11c1.7,0,3.2-1.4,3.2-3.2v-45c0-1.7-1.4-3.2-3.2-3.2
			h-60.1c-1.7,0-3.2,1.4-3.2,3.2v45c0,1.7,1.4,3.2,3.2,3.2h37.6c0.5,0,0.9,0.4,0.9,0.9s-0.4,0.9-0.9,0.9h-37.6c-2.8,0-5-2.3-5-5v-45
			c0-2.8,2.3-5,5-5h60.1c2.8,0,5,2.3,5,5v45C243.6,225.8,241.4,228,238.6,228z"/>
		<path class="st0" d="M234.7,223.2h-7.3c-0.5,0-0.9-0.4-0.9-0.9c0-0.5,0.4-0.9,0.9-0.9h7.3c1.3,0,2.3-1,2.3-2.3v-37.2
			c0-1.3-1-2.3-2.3-2.3h-52.3c-1.3,0-2.3,1-2.3,2.3v37.2c0,1.3,1,2.3,2.3,2.3h33.9c0.5,0,0.9,0.4,0.9,0.9c0,0.5-0.4,0.9-0.9,0.9
			h-33.9c-2.3,0-4.2-1.9-4.2-4.2v-37.2c0-2.3,1.9-4.2,4.2-4.2h52.3c2.3,0,4.2,1.9,4.2,4.2v37.2C238.8,221.4,237,223.2,234.7,223.2z"
			/>
		<g>
			<path class="st0" d="M231,195.6h-43.6c-0.5,0-0.9-0.4-0.9-0.9c0-0.5,0.4-0.9,0.9-0.9H231c0.5,0,0.9,0.4,0.9,0.9
				C232,195.1,231.6,195.6,231,195.6z"/>
			<path class="st0" d="M231,189.8h-43.6c-0.5,0-0.9-0.4-0.9-0.9s0.4-0.9,0.9-0.9H231c0.5,0,0.9,0.4,0.9,0.9S231.6,189.8,231,189.8z
				"/>
			<path class="st0" d="M231,201.3h-43.6c-0.5,0-0.9-0.4-0.9-0.9s0.4-0.9,0.9-0.9H231c0.5,0,0.9,0.4,0.9,0.9S231.6,201.3,231,201.3z
				"/>
			<path class="st0" d="M198.3,207h-10.9c-0.5,0-0.9-0.4-0.9-0.9s0.4-0.9,0.9-0.9h10.9c0.5,0,0.9,0.4,0.9,0.9S198.8,207,198.3,207z"
				/>
		</g>
		<g>
			<path class="st0" d="M227.3,243.4c-0.2,0-0.4-0.1-0.6-0.2l-4.9-3.7l-4.9,3.7c-0.3,0.2-0.7,0.2-1,0.1c-0.3-0.2-0.5-0.5-0.5-0.8
				V222c0-0.5,0.4-0.9,0.9-0.9s0.9,0.4,0.9,0.9v18.6l4-3c0.3-0.2,0.8-0.2,1.1,0l4,3V222c0-0.5,0.4-0.9,0.9-0.9
				c0.5,0,0.9,0.4,0.9,0.9v20.4c0,0.4-0.2,0.7-0.5,0.8C227.6,243.4,227.4,243.4,227.3,243.4z"/>
			<g>
				<path class="st0" d="M221.8,225c-4.7,0-8.4-3.8-8.4-8.4c0-4.7,3.8-8.4,8.4-8.4c4.7,0,8.4,3.8,8.4,8.4
					C230.3,221.2,226.5,225,221.8,225z M221.8,209.9c-3.6,0-6.6,2.9-6.6,6.6c0,3.6,2.9,6.6,6.6,6.6c3.6,0,6.6-2.9,6.6-6.6
					C228.4,212.9,225.5,209.9,221.8,209.9z"/>
				<path class="st0" d="M221.8,220c-1.9,0-3.5-1.6-3.5-3.5c0-1.9,1.6-3.5,3.5-3.5c1.9,0,3.5,1.6,3.5,3.5
					C225.3,218.4,223.8,220,221.8,220z M221.8,214.9c-0.9,0-1.6,0.7-1.6,1.6c0,0.9,0.7,1.6,1.6,1.6c0.9,0,1.6-0.7,1.6-1.6
					C223.5,215.6,222.7,214.9,221.8,214.9z"/>
			</g>
		</g>
	</g>
	<g>
		<path class="st0" d="M338.5,130.6h-39.9c-3.7,0-7-1.7-8.8-4.4c-3.3-5.2,2.3-12.7,2.6-13.1l16.5-22V78.3c0-0.5,0.4-0.9,0.9-0.9
			c0.5,0,0.9,0.4,0.9,0.9v13.1c0,0.2-0.1,0.4-0.2,0.6l-16.7,22.2c0,0,0,0,0,0c-0.1,0.1-5.2,6.8-2.5,10.9c1.4,2.2,4.1,3.6,7.2,3.6
			h39.9c3.1,0,5.8-1.3,7.2-3.6c1.3-2.1,0.6-4.9-0.2-6.9c-1-2.3-2.3-4-2.3-4c0,0,0,0,0,0L326.4,92c-0.1-0.2-0.2-0.4-0.2-0.6V78.3
			c0-0.5,0.4-0.9,0.9-0.9c0.5,0,0.9,0.4,0.9,0.9v12.8l16.5,22c0.3,0.4,5.9,7.8,2.6,13.1C345.5,128.9,342.2,130.6,338.5,130.6z"/>
		<path class="st0" d="M332.9,126h-28.7c-2.8,0-5.2-1.2-6.5-3.3c-2.5-3.9,1.6-9.4,1.9-9.7L313,95V78.5c0-0.5,0.4-0.9,0.9-0.9
			s0.9,0.4,0.9,0.9v16.7c0,0.2-0.1,0.4-0.2,0.6L301,114.1c0,0,0,0,0,0c-1,1.3-3.3,5.2-1.8,7.6c1,1.5,2.8,2.4,5,2.4h28.7
			c2.1,0,4-0.9,5-2.4c1.8-2.8-1.8-7.5-1.8-7.6L322.4,96c-0.1-0.2-0.2-0.4-0.2-0.6v-17c0-0.5,0.4-0.9,0.9-0.9c0.5,0,0.9,0.4,0.9,0.9
			v16.6l13.5,17.9c0.2,0.2,4.4,5.8,1.9,9.7C338.1,124.8,335.7,126,332.9,126z"/>
		<path class="st0" d="M326.9,79.3h-16.7c-2.3,0-4.1-1.8-4.1-4.1c0-2.3,1.8-4.1,4.1-4.1h16.7c2.3,0,4.1,1.8,4.1,4.1
			C331,77.4,329.1,79.3,326.9,79.3z M310.2,72.9c-1.2,0-2.2,1-2.2,2.2c0,1.2,1,2.2,2.2,2.2h16.7c1.2,0,2.2-1,2.2-2.2
			c0-1.2-1-2.2-2.2-2.2H310.2z"/>
		<path class="st0" d="M330.7,106.4h-24.4c-0.5,0-0.9-0.4-0.9-0.9c0-0.5,0.4-0.9,0.9-0.9h24.4c0.5,0,0.9,0.4,0.9,0.9
			C331.6,106,331.2,106.4,330.7,106.4z"/>
		<path class="st0" d="M305.2,121.6c-1.6,0-3-1.3-3-3c0-1.6,1.3-3,3-3c1.6,0,3,1.3,3,3C308.1,120.3,306.8,121.6,305.2,121.6z
			 M305.2,117.6c-0.6,0-1.1,0.5-1.1,1.1c0,0.6,0.5,1.1,1.1,1.1c0.6,0,1.1-0.5,1.1-1.1C306.3,118,305.8,117.6,305.2,117.6z"/>
		<path class="st0" d="M327.2,114c-1.6,0-3-1.3-3-3s1.3-3,3-3c1.6,0,3,1.3,3,3S328.8,114,327.2,114z M327.2,110
			c-0.6,0-1.1,0.5-1.1,1.1s0.5,1.1,1.1,1.1c0.6,0,1.1-0.5,1.1-1.1S327.8,110,327.2,110z"/>
		<path class="st0" d="M319.1,121.8c-1.6,0-3-1.3-3-3c0-1.6,1.3-3,3-3c1.6,0,3,1.3,3,3C322.1,120.4,320.8,121.8,319.1,121.8z
			 M319.1,117.7c-0.6,0-1.1,0.5-1.1,1.1c0,0.6,0.5,1.1,1.1,1.1c0.6,0,1.1-0.5,1.1-1.1C320.2,118.2,319.7,117.7,319.1,117.7z"/>
		<path class="st0" d="M312.8,113.8c-1.3,0-2.4-1.1-2.4-2.4c0-1.3,1.1-2.4,2.4-2.4s2.4,1.1,2.4,2.4
			C315.2,112.8,314.1,113.8,312.8,113.8z M312.8,110.9c-0.3,0-0.5,0.2-0.5,0.5c0,0.3,0.2,0.5,0.5,0.5s0.5-0.2,0.5-0.5
			C313.3,111.2,313.1,110.9,312.8,110.9z"/>
		<path class="st0" d="M331,122.4c-1.3,0-2.4-1.1-2.4-2.4c0-1.3,1.1-2.4,2.4-2.4c1.3,0,2.4,1.1,2.4,2.4
			C333.4,121.3,332.3,122.4,331,122.4z M331,119.5c-0.3,0-0.5,0.2-0.5,0.5s0.2,0.5,0.5,0.5c0.3,0,0.5-0.2,0.5-0.5
			S331.3,119.5,331,119.5z"/>
	</g>
	<g>
		<g>
			<path class="st0" d="M158.2,193.5h-37c-4.2,0-7.6-3.4-7.6-7.6c0-0.5,0.4-0.9,0.9-0.9c0.5,0,0.9,0.4,0.9,0.9
				c0,3.2,2.6,5.8,5.8,5.8h37c3.2,0,5.8-2.6,5.8-5.8v-42.5c0-3.2-2.6-5.8-5.8-5.8h-37c-3.2,0-5.8,2.6-5.8,5.8c0,0.5-0.4,0.9-0.9,0.9
				c-0.5,0-0.9-0.4-0.9-0.9c0-4.2,3.4-7.6,7.6-7.6h37c4.2,0,7.6,3.4,7.6,7.6v42.5C165.8,190.1,162.4,193.5,158.2,193.5z"/>
		</g>
		<g>
			<path class="st0" d="M158.8,161.2h-25.9c-0.5,0-0.9-0.4-0.9-0.9v-6.7c0-0.5,0.4-0.9,0.9-0.9h25.9c0.5,0,0.9,0.4,0.9,0.9v6.7
				C159.7,160.8,159.3,161.2,158.8,161.2z M133.8,159.3h24v-4.8h-24V159.3z"/>
			<g>
				<path class="st0" d="M158.8,165.7h-25.9c-0.5,0-0.9-0.4-0.9-0.9s0.4-0.9,0.9-0.9h25.9c0.5,0,0.9,0.4,0.9,0.9
					S159.3,165.7,158.8,165.7z"/>
				<path class="st0" d="M158.8,170.2h-25.9c-0.5,0-0.9-0.4-0.9-0.9c0-0.5,0.4-0.9,0.9-0.9h25.9c0.5,0,0.9,0.4,0.9,0.9
					C159.7,169.8,159.3,170.2,158.8,170.2z"/>
				<path class="st0" d="M149,174.7h-16.1c-0.5,0-0.9-0.4-0.9-0.9c0-0.5,0.4-0.9,0.9-0.9H149c0.5,0,0.9,0.4,0.9,0.9
					C149.9,174.3,149.5,174.7,149,174.7z"/>
			</g>
		</g>
		<path class="st0" d="M126.7,193.5h-5.6c-4.2,0-7.6-3.4-7.6-7.6c0-0.5,0.4-0.9,0.9-0.9c0.5,0,0.9,0.4,0.9,0.9
			c0,3.2,2.6,5.8,5.8,5.8h4.7v-54h-4.7c-3.2,0-5.8,2.6-5.8,5.8c0,0.5-0.4,0.9-0.9,0.9c-0.5,0-0.9-0.4-0.9-0.9c0-4.2,3.4-7.6,7.6-7.6
			h5.6c0.5,0,0.9,0.4,0.9,0.9v55.9C127.7,193.1,127.3,193.5,126.7,193.5z"/>
		<path class="st0" d="M114.4,181.7c-0.5,0-0.9-0.4-0.9-0.9v-7.2c0-0.5,0.4-0.9,0.9-0.9c0.5,0,0.9,0.4,0.9,0.9v7.2
			C115.4,181.3,115,181.7,114.4,181.7z"/>
		<path class="st0" d="M114.4,169.4c-0.5,0-0.9-0.4-0.9-0.9v-7.2c0-0.5,0.4-0.9,0.9-0.9c0.5,0,0.9,0.4,0.9,0.9v7.2
			C115.4,169,115,169.4,114.4,169.4z"/>
		<path class="st0" d="M114.4,157.2c-0.5,0-0.9-0.4-0.9-0.9V149c0-0.5,0.4-0.9,0.9-0.9c0.5,0,0.9,0.4,0.9,0.9v7.2
			C115.4,156.7,115,157.2,114.4,157.2z"/>
		<g>
			<g>
				<path class="st0" d="M120.3,162.2H113c-1.9,0-3.5-1.5-3.5-3.5c0-1.9,1.5-3.5,3.5-3.5h7.3c1.9,0,3.5,1.5,3.5,3.5
					C123.8,160.7,122.2,162.2,120.3,162.2z M113,157.2c-0.9,0-1.6,0.7-1.6,1.6c0,0.9,0.7,1.6,1.6,1.6h7.3c0.9,0,1.6-0.7,1.6-1.6
					c0-0.9-0.7-1.6-1.6-1.6H113z"/>
			</g>
			<g>
				<path class="st0" d="M120.3,174.5H113c-1.9,0-3.5-1.5-3.5-3.5c0-1.9,1.5-3.5,3.5-3.5h7.3c1.9,0,3.5,1.5,3.5,3.5
					C123.8,173,122.2,174.5,120.3,174.5z M113,169.5c-0.9,0-1.6,0.7-1.6,1.6c0,0.9,0.7,1.6,1.6,1.6h7.3c0.9,0,1.6-0.7,1.6-1.6
					c0-0.9-0.7-1.6-1.6-1.6H113z"/>
			</g>
			<g>
				<path class="st0" d="M120.3,186.8H113c-1.9,0-3.5-1.5-3.5-3.5s1.5-3.5,3.5-3.5h7.3c1.9,0,3.5,1.5,3.5,3.5
					S122.2,186.8,120.3,186.8z M113,181.8c-0.9,0-1.6,0.7-1.6,1.6c0,0.9,0.7,1.6,1.6,1.6h7.3c0.9,0,1.6-0.7,1.6-1.6
					c0-0.9-0.7-1.6-1.6-1.6H113z"/>
			</g>
			<g>
				<path class="st0" d="M120.3,149.9H113c-1.9,0-3.5-1.5-3.5-3.5c0-1.9,1.5-3.5,3.5-3.5h7.3c1.9,0,3.5,1.5,3.5,3.5
					C123.8,148.4,122.2,149.9,120.3,149.9z M113,144.9c-0.9,0-1.6,0.7-1.6,1.6s0.7,1.6,1.6,1.6h7.3c0.9,0,1.6-0.7,1.6-1.6
					s-0.7-1.6-1.6-1.6H113z"/>
			</g>
		</g>
	</g>
	<g>
		<g>
			<path class="st0" d="M275.7,180C275.7,180,275.7,180,275.7,180c-3.7,0-6.9-2.5-8.3-3.8c-1.3,1.2-4.2,3.5-8,3.5
				c-2.2,0-4.4-0.8-6.3-2.4c-5.9-4.8-12.2-14.6-12.8-25.8c-0.3-6,0.4-11.1,2.3-14.9c1.7-3.7,4.5-6.5,8.2-8.3
				c1.8-0.9,3.7-1.3,5.8-1.3c5.1,0,9.3,2.7,10.8,3.9c1.6-1.1,6.1-3.9,11.3-3.9c2,0,3.9,0.4,5.6,1.2c7.4,3.5,11.3,12,10.1,22.2
				c-0.7,5.6-2.4,11.6-5,16.7c-2.6,5.3-6,9.4-9.4,11.6C278.6,179.5,277.2,180,275.7,180z M267.4,173.9c0.3,0,0.5,0.1,0.7,0.3
				c0,0,3.6,3.8,7.6,3.8c0,0,0,0,0,0c1.2,0,2.3-0.3,3.3-1c3.1-2,6.2-5.8,8.7-10.8c2.5-4.9,4.2-10.7,4.8-16.1
				c1.1-9.4-2.3-17.2-9-20.3c-1.5-0.7-3.1-1.1-4.9-1.1c-5.7,0-10.7,3.9-10.7,4c-0.4,0.3-0.9,0.3-1.2,0c0,0-4.6-3.9-10.1-3.9
				c-1.7,0-3.4,0.4-4.9,1.1c-3.4,1.6-5.8,4-7.3,7.4c-1.7,3.6-2.4,8.3-2.1,14c0.6,10.6,6.5,19.9,12.1,24.4c1.6,1.3,3.4,2,5.2,2
				c4.1,0,7.2-3.6,7.3-3.6C266.9,174.1,267.1,173.9,267.4,173.9C267.4,173.9,267.4,173.9,267.4,173.9z"/>
		</g>
		<g>
			<path class="st0" d="M288.5,149.1c0,0-0.1,0-0.1,0c-0.5-0.1-0.9-0.5-0.8-1c0.7-5.8-1.4-10.6-5.5-12.6c-1.9-0.9-4-0.9-6.4,0.1
				c-1.8,0.7-3.1,1.7-3.1,1.7c-0.4,0.3-1,0.3-1.3-0.1c-0.3-0.4-0.3-1,0.1-1.3c0.1,0,1.5-1.2,3.6-2c2.8-1.1,5.6-1.1,7.9,0
				c4.9,2.3,7.4,7.8,6.6,14.5C289.4,148.7,289,149.1,288.5,149.1z"/>
		</g>
		<g>
			<path class="st0" d="M269,131.5C269,131.5,269,131.5,269,131.5c-0.5,0-0.9-0.4-0.9-1c0-1.7,0-3-0.3-4.3c-0.1-0.3,0-0.6,0.2-0.8
				l4.7-4.9c0.4-0.4,0.9-0.4,1.3,0c0.4,0.4,0.4,0.9,0,1.3l-4.4,4.6c0.2,1.3,0.2,2.6,0.2,4.3C270,131.1,269.6,131.5,269,131.5z"/>
			<path class="st0" d="M266.1,131.6c-0.5,0-0.9-0.3-0.9-0.8c-0.8-5.1-7.5-10.6-7.6-10.6c-0.4-0.3-0.5-0.8-0.2-1.2l3.4-5.4
				c0.3-0.4,0.8-0.6,1.3-0.3c0.2,0.1,3.7,2.2,5.9,8.1l2.9-3.1c0.4-0.4,0.9-0.4,1.3,0c0.4,0.4,0.4,0.9,0,1.3l-4,4.2
				c-0.2,0.2-0.6,0.3-0.9,0.3c-0.3-0.1-0.6-0.3-0.7-0.6c-1-3.3-2.5-5.4-3.6-6.6c-0.5-0.6-1-1-1.3-1.3l-2.5,3.9
				c1.8,1.6,6.9,6.4,7.6,11.2c0.1,0.5-0.3,1-0.8,1.1C266.2,131.6,266.1,131.6,266.1,131.6z"/>
			<g>
				<path class="st0" d="M276.3,122.6C276.3,122.6,276.3,122.6,276.3,122.6c-1.9,0-3.6-0.8-4.6-2.3c-1-1.4-1.2-3.2-0.6-5
					c0.6-1.8,2-3.5,4-4.9c1.7-1.2,4.1-1.8,7.1-1.8c2.4,0,4.3,0.4,4.4,0.4c0.5,0.1,0.8,0.6,0.7,1c0,0.3-1.1,7.5-5.2,10.4
					C280.1,121.8,278.1,122.6,276.3,122.6z M282.1,110.5c-2.6,0-4.7,0.5-6.1,1.5c-1.7,1.2-2.8,2.5-3.3,3.9c-0.4,1.2-0.3,2.4,0.4,3.3
					c0.7,1,1.8,1.5,3.1,1.5c1.4,0,3.1-0.6,4.7-1.7c2.7-1.9,3.9-6.3,4.3-8.2C284.5,110.6,283.4,110.5,282.1,110.5z"/>
			</g>
		</g>
	</g>
	<g>
		<path class="st0" d="M153.1,102.1c-0.4,0-0.8-0.3-0.9-0.8l-2.4-11.9c-0.2-0.7,0.2-1.5,0.8-1.9c0.6-0.4,1.5-0.3,2.1,0.1
			c0.3,0.2,0.7,0.4,0.9,0.5c0.1-0.1,0.3-0.4,0.4-0.8c0-0.9,0.6-1.6,1.5-1.8c0.1,0,0.3,0,0.4,0c0.1,0,0.2,0,0.3,0
			c0.9,0.2,1.5,0.9,1.5,1.8c0.1,0.4,0.3,0.7,0.4,0.8c0.2-0.1,0.7-0.3,0.9-0.5c0.6-0.5,1.4-0.5,2.1-0.1c0.6,0.4,1,1.2,0.8,1.9
			l-2.4,11.9c-0.1,0.5-0.6,0.8-1.1,0.7c-0.5-0.1-0.8-0.6-0.7-1.1l2.4-11.8c-0.4,0.3-1.8,1.2-2.8,0.6c-0.8-0.5-1.2-1.5-1.4-2.1
			c-0.2,0.6-0.6,1.7-1.4,2.1c-1,0.6-2.4-0.3-2.8-0.6L154,101c0.1,0.5-0.2,1-0.7,1.1C153.2,102.1,153.1,102.1,153.1,102.1z"/>
		<path class="st0" d="M167.8,82.4C167.8,82.4,167.8,82.4,167.8,82.4c-0.6,0-1-0.5-0.9-1l0,0c0,0,0,0,0-0.1c0-6-4.9-10.9-10.9-10.9
			c-3.9,0-7.5,2.1-9.4,5.5c-0.3,0.4-0.8,0.6-1.3,0.3c-0.4-0.3-0.6-0.8-0.3-1.3c2.3-3.9,6.5-6.4,11.1-6.4c7,0,12.8,5.7,12.8,12.8
			c0,0,0,0.1,0,0.1l0,0C168.7,82,168.3,82.4,167.8,82.4z"/>
		<g>
			<g>
				<path class="st0" d="M165.1,108.4h-18.3c-2.2,0-4-1.8-4-4c0-2.2,1.8-4,4-4h18.3c2.2,0,4,1.8,4,4
					C169.1,106.6,167.3,108.4,165.1,108.4z M146.8,102.2c-1.2,0-2.1,1-2.1,2.1c0,1.2,1,2.1,2.1,2.1h18.3c1.2,0,2.1-1,2.1-2.1
					c0-1.2-1-2.1-2.1-2.1H146.8z"/>
			</g>
		</g>
		<path class="st0" d="M165.1,114.5h-18.3c-2.2,0-4-1.8-4-4c0-2.2,1.8-4,4-4h18.3c2.2,0,4,1.8,4,4
			C169.1,112.7,167.3,114.5,165.1,114.5z M146.8,108.4c-1.2,0-2.1,1-2.1,2.1c0,1.2,1,2.1,2.1,2.1h18.3c1.2,0,2.1-1,2.1-2.1
			c0-1.2-1-2.1-2.1-2.1H146.8z"/>
		<g>
			<g>
				<path class="st0" d="M155.9,121.1c-2.1,0-4.1-0.6-5.9-1.7c-1.7-1.1-3.1-2.6-4-4.4c-0.3-0.6-0.2-1.2,0.1-1.8
					c0.3-0.4,0.9-0.6,1.3-0.3c0.4,0.3,0.6,0.8,0.3,1.3c0.7,1.5,1.9,2.8,3.3,3.7c1.5,0.9,3.1,1.4,4.9,1.4s3.4-0.5,4.9-1.4
					c1.4-0.9,2.5-2.2,3.3-3.7c-0.3-0.4-0.1-1,0.3-1.3c0.4-0.3,1-0.1,1.3,0.3c0.3,0.5,0.4,1.2,0.1,1.8c-0.9,1.8-2.3,3.3-4,4.4
					C160.1,120.5,158,121.1,155.9,121.1z"/>
			</g>
		</g>
		<g>
			<g>
				<path class="st0" d="M155.3,57.3c-0.5,0-0.9-0.4-0.9-0.9V45.5c0-0.5,0.4-0.9,0.9-0.9s0.9,0.4,0.9,0.9v10.8
					C156.3,56.8,155.9,57.3,155.3,57.3z"/>
			</g>
			<g>
				<path class="st0" d="M143,60.9c-0.3,0-0.6-0.2-0.8-0.5l-5.4-9.4c-0.3-0.4-0.1-1,0.3-1.3c0.4-0.3,1-0.1,1.3,0.3l5.4,9.4
					c0.3,0.4,0.1,1-0.3,1.3C143.3,60.8,143.2,60.9,143,60.9z"/>
			</g>
			<g>
				<path class="st0" d="M134.1,70.2c-0.2,0-0.3,0-0.5-0.1l-9.4-5.4c-0.4-0.3-0.6-0.8-0.3-1.3c0.3-0.4,0.8-0.6,1.3-0.3l9.4,5.4
					c0.4,0.3,0.6,0.8,0.3,1.3C134.8,70,134.5,70.2,134.1,70.2z"/>
			</g>
			<g>
				<path class="st0" d="M131.1,82.7h-10.8c-0.5,0-0.9-0.4-0.9-0.9c0-0.5,0.4-0.9,0.9-0.9h10.8c0.5,0,0.9,0.4,0.9,0.9
					C132,82.3,131.6,82.7,131.1,82.7z"/>
			</g>
			<g>
				<path class="st0" d="M124.9,100.5c-0.5,0-0.9-0.4-0.9-0.9c0-0.5,0.4-0.9,0.9-0.9l9.3-5.4c0.4-0.3,1-0.1,1.3,0.3
					c0.3,0.4,0.1,1-0.3,1.3l-9.4,5.4C125.6,100.5,125.3,100.5,124.9,100.5z"/>
			</g>
		</g>
		<g>
			<g>
				<path class="st0" d="M168.1,60c-0.2,0-0.3,0-0.5-0.1c-0.4-0.3-0.6-0.8-0.3-1.3l5.4-9.4c0.3-0.4,0.8-0.6,1.3-0.3
					c0.4,0.3,0.6,0.8,0.3,1.3l-5.4,9.4C168.7,59.8,168.4,60,168.1,60z"/>
			</g>
			<g>
				<path class="st0" d="M177.6,68.7c-0.3,0-0.6-0.2-0.8-0.5c-0.3-0.4-0.1-1,0.3-1.3l9.4-5.4c0.4-0.3,1-0.1,1.3,0.3
					c0.3,0.4,0.1,1-0.3,1.3l-9.4,5.4C177.9,68.6,177.7,68.7,177.6,68.7z"/>
			</g>
			<g>
				<path class="st0" d="M192.3,80.9h-10.8c-0.5,0-0.9-0.4-0.9-0.9c0-0.5,0.4-0.9,0.9-0.9h10.8c0.5,0,0.9,0.4,0.9,0.9
					C193.2,80.5,192.8,80.9,192.3,80.9z"/>
			</g>
			<g>
				<path class="st0" d="M188.1,98.9c-0.2,0-0.3,0-0.5-0.1l-9.4-5.4c-0.4-0.3-0.6-0.8-0.3-1.3c0.3-0.4,0.8-0.6,1.3-0.3l9.4,5.4
					c0.4,0.3,0.6,0.8,0.3,1.3C188.7,98.7,188.4,98.9,188.1,98.9z"/>
			</g>
		</g>
		<path class="st0" d="M144.9,102.8c-0.5,0-0.9-0.4-0.9-0.9c0,0,0,0,0-0.1l0,0c-0.2-1.6-2.7-4.6-4.4-6.5c-0.9-1-1.7-2-2.4-2.9
			c-1.5-2.1-2.4-5.4-2.6-6.4c-0.5-2-0.7-3.6-0.7-4.9c0-2.9,0.6-5.8,1.8-8.4c1.1-2.6,2.7-4.8,4.8-6.8c2-1.9,4.4-3.5,7-4.5
			c2.7-1.1,5.6-1.6,8.5-1.6c2.9,0,5.8,0.6,8.5,1.6c2.6,1.1,5,2.6,7,4.5c2,2,3.7,4.3,4.8,6.8c1.2,2.7,1.8,5.5,1.8,8.4
			c0,5.5-2.1,10.7-6,14.6c-0.1,0.2-0.4,0.4-0.6,0.6c-2,2-2.7,2.7-2.9,3c-0.8,1.1-1.1,1.9-1.2,2.3c-0.1,0.5-0.7,0.8-1.2,0.6
			c-0.5-0.1-0.8-0.7-0.6-1.2c0.2-0.8,0.7-1.7,1.5-2.8c0,0,0,0,0,0c0.3-0.4,1.3-1.5,3-3.2c0.3-0.3,0.5-0.5,0.6-0.6
			c3.5-3.6,5.5-8.4,5.5-13.3c0-2.7-0.5-5.2-1.6-7.7c-1-2.3-2.5-4.4-4.4-6.2c-1.9-1.8-4-3.2-6.4-4.1c-2.5-1-5.1-1.5-7.8-1.5
			c-2.7,0-5.3,0.5-7.8,1.5c-2.4,1-4.6,2.4-6.4,4.1c-1.9,1.8-3.3,3.9-4.4,6.2c-1.1,2.4-1.6,5-1.6,7.7c0,1.2,0.2,2.6,0.6,4.4
			c0.4,1.8,1.3,4.3,2.3,5.7c0.7,0.9,1.5,1.8,2.3,2.8c2,2.3,4.5,5.3,4.8,7.5l0,0c0,0.1,0,0.1,0,0.2
			C145.9,102.4,145.5,102.8,144.9,102.8C145,102.8,144.9,102.8,144.9,102.8z"/>
	</g>
	<g>
		<g>
			<path class="st0" d="M108,60.8c-0.3,0-0.6-0.1-0.7-0.4L96.7,47.1c-0.3-0.3-0.3-0.8,0-1.1l14.6-21.6c0.3-0.4,0.8-0.5,1.2-0.3
				c0.9,0.5,3.7,1.5,7.6,1.5c4.5,0,11.9-1.3,21.4-7.7c0.4-0.3,1-0.2,1.3,0.2l1.1,1.4c0.2,0.2,0.2,0.4,0.2,0.7c0,0.2-0.1,0.3-0.2,0.5
				c0.4-0.2,0.8-0.1,1.1,0.3l1.1,1.4c0.3,0.4,0.3,0.9-0.1,1.3c-16.1,14.9-12.8,26.7-12.7,26.8c0.1,0.5-0.1,1-0.6,1.1l-24.4,9.2
				C108.3,60.8,108.1,60.8,108,60.8z M98.6,46.5l9.7,12.3l23-8.7c-0.2-1.3-0.5-4,0.4-7.7c0.7-3,2-6.1,3.8-9.1
				c2.1-3.5,5-7.1,8.6-10.5l0,0l-17.8,14c0.2,1.2-0.3,2.5-1.3,3.3c-0.6,0.5-1.4,0.8-2.2,0.8c-1.1,0-2.1-0.5-2.8-1.4
				c-1.2-1.6-1-3.8,0.6-5.1c0.6-0.5,1.4-0.8,2.2-0.8c0.4,0,0.9,0.1,1.3,0.2l17.8-14l0,0c-4.1,2.7-8.2,4.7-12.1,5.9
				c-3.3,1.1-6.6,1.6-9.7,1.6c-3.9,0-6.5-0.9-7.7-1.4L98.6,46.5z M122.8,35.6c-0.4,0-0.8,0.1-1.1,0.4c-0.7,0.6-0.9,1.7-0.3,2.4
				c0.3,0.4,0.8,0.7,1.4,0.7c0.4,0,0.8-0.1,1.1-0.4c0.6-0.4,0.8-1.2,0.6-1.9c-0.1-0.3,0-0.6,0.1-0.9c-0.3,0.1-0.6,0.1-0.9-0.1
				C123.5,35.7,123.2,35.6,122.8,35.6z"/>
			<path class="st0" d="M108,60.8c-0.3,0-0.6-0.1-0.7-0.4l-5.6-7.1c-0.2-0.2-0.2-0.4-0.2-0.7c0-0.2,0.2-0.5,0.3-0.6l18-14.2
				c0.2-0.2,0.5-0.2,0.8-0.2c0.3,0.1,0.5,0.2,0.6,0.5c0.1,0.1,0.1,0.2,0.2,0.3c0.3,0.4,0.8,0.7,1.4,0.7c0.4,0,0.8-0.1,1.1-0.4
				c0.6-0.4,0.8-1.2,0.6-1.9c-0.1-0.4,0-0.8,0.3-1l18.9-15c0.4-0.3,1-0.3,1.3,0.2l1.1,1.4c0.3,0.4,0.3,0.9-0.1,1.3
				c-16.1,14.9-12.8,26.7-12.7,26.8c0.1,0.5-0.1,1-0.6,1.1l-24.4,9.2C108.3,60.8,108.1,60.8,108,60.8z M103.8,53l4.6,5.8l23-8.7
				c-0.2-1.3-0.5-4,0.4-7.7c0.7-3,2-6.1,3.8-9.1c2.1-3.5,5-7.1,8.6-10.5l0,0l-17.8,14c0.2,1.2-0.3,2.5-1.3,3.3
				c-0.6,0.5-1.4,0.8-2.2,0.8c-1,0-1.8-0.4-2.5-1L103.8,53z"/>
		</g>
		<g>
			<path class="st0" d="M106.9,67.9c-0.3,0-0.6-0.1-0.7-0.4l-16.6-21c-0.2-0.2-0.3-0.6-0.2-0.9c0.1-0.3,0.3-0.5,0.7-0.6l5.6-1.4
				c0.4-0.1,0.7,0,1,0.3l13.6,17.3c0.2,0.3,0.3,0.7,0.1,1l-2.6,5.2C107.6,67.7,107.3,67.9,106.9,67.9C107,67.9,107,67.9,106.9,67.9z
				 M91.9,46.5l14.8,18.7l1.7-3.3L95.5,45.6L91.9,46.5z"/>
		</g>
		<path class="st0" d="M99,74.2c-0.3,0-0.6-0.1-0.7-0.4l-16.6-21c-0.2-0.2-0.2-0.4-0.2-0.7c0-0.2,0.2-0.5,0.3-0.6l7.9-6.2
			c0.4-0.3,1-0.3,1.3,0.2l16.6,21c0.2,0.2,0.2,0.4,0.2,0.7c0,0.2-0.2,0.5-0.3,0.6L99.6,74C99.4,74.1,99.2,74.2,99,74.2z M83.7,52.4
			l15.4,19.6l6.4-5.1L90.2,47.3L83.7,52.4z"/>
		<path class="st0" d="M105.9,57.3c-0.4,0-0.7-0.2-0.9-0.6c-0.2-0.5,0-1,0.5-1.2l21.1-8.3c0.5-0.2,1,0,1.2,0.5c0.2,0.5,0,1-0.5,1.2
			l-21.1,8.3C106.1,57.2,106,57.3,105.9,57.3z"/>
	</g>
	<g>
		<g>
			<g>
				<g>
					<path class="st0" d="M201,15.8c-0.2,0-0.5-0.1-0.7-0.3l-5.1-5.2c-0.4-0.4-0.4-1,0-1.3c0.4-0.4,1-0.4,1.3,0l5.1,5.2
						c0.4,0.4,0.4,1,0,1.3C201.5,15.7,201.3,15.8,201,15.8z"/>
				</g>
				<g>
					<path class="st0" d="M221.9,8.3C221.9,8.3,221.9,8.3,221.9,8.3c-0.5,0-0.9-0.4-0.9-0.9l0-6.4c0-0.5,0.4-0.9,0.9-0.9
						c0.5,0,0.9,0.4,0.9,0.9l0,6.4C222.9,7.8,222.5,8.3,221.9,8.3z"/>
				</g>
				<g>
					<path class="st0" d="M214.6,8.9c-0.4,0-0.8-0.3-0.9-0.7l-1.6-6c-0.1-0.5,0.2-1,0.7-1.1c0.5-0.1,1,0.2,1.1,0.7l1.6,6
						c0.1,0.5-0.2,1-0.7,1.1C214.8,8.9,214.7,8.9,214.6,8.9z"/>
				</g>
				<g>
					<path class="st0" d="M207.6,11.4c-0.3,0-0.6-0.2-0.8-0.5l-3.2-5.8c-0.3-0.5-0.1-1,0.4-1.3c0.5-0.3,1-0.1,1.3,0.4l3.2,5.8
						c0.3,0.5,0.1,1-0.4,1.3C207.9,11.4,207.7,11.4,207.6,11.4z"/>
				</g>
			</g>
			<g>
				<g>
					<path class="st0" d="M242.8,15.7c-0.2,0-0.5-0.1-0.7-0.3c-0.4-0.4-0.4-1,0-1.3l5-5.1c0.4-0.4,1-0.4,1.3,0c0.4,0.4,0.4,1,0,1.3
						l-5,5.1C243.3,15.6,243.1,15.7,242.8,15.7z"/>
				</g>
				<g>
					<path class="st0" d="M229.2,8.9c-0.1,0-0.2,0-0.2,0c-0.5-0.1-0.8-0.6-0.7-1.1l1.6-6c0.1-0.5,0.6-0.8,1.1-0.7
						c0.5,0.1,0.8,0.6,0.7,1.1l-1.6,6C230,8.6,229.6,8.9,229.2,8.9z"/>
				</g>
				<g>
					<path class="st0" d="M236.3,11.3c-0.2,0-0.3,0-0.5-0.1c-0.5-0.3-0.6-0.8-0.4-1.3l3.2-5.7c0.3-0.5,0.8-0.6,1.3-0.4
						c0.5,0.3,0.6,0.8,0.4,1.3l-3.2,5.7C236.9,11.1,236.6,11.3,236.3,11.3z"/>
				</g>
			</g>
		</g>
		<g>
			<path class="st0" d="M227.9,71.9c-0.2,0-0.5-0.1-0.7-0.3c-0.4-0.4-0.4-1,0-1.3L246.5,51c0.4-0.4,1-0.4,1.3,0c0.4,0.4,0.4,1,0,1.3
				l-19.3,19.3C228.4,71.8,228.1,71.9,227.9,71.9z"/>
			<path class="st0" d="M227.9,62.2c-0.2,0-0.5-0.1-0.7-0.3c-0.4-0.4-0.4-1,0-1.3l19.3-19.3c0.4-0.4,1-0.4,1.3,0
				c0.4,0.4,0.4,1,0,1.3l-19.3,19.3C228.4,62.1,228.1,62.2,227.9,62.2z"/>
			<path class="st0" d="M227.9,52.5c-0.2,0-0.5-0.1-0.7-0.3c-0.4-0.4-0.4-1,0-1.3l19.3-19.3c0.4-0.4,1-0.4,1.3,0
				c0.4,0.4,0.4,1,0,1.3l-19.3,19.3C228.4,52.4,228.1,52.5,227.9,52.5z"/>
		</g>
		<g>
			<path class="st0" d="M221.9,89.9c-0.1,0-0.2,0-0.4-0.1c-0.3-0.1-0.6-0.5-0.6-0.9V45.1c0-0.2,0.1-0.5,0.3-0.7l31-31.4
				c0.3-0.3,0.7-0.4,1-0.2c0.4,0.1,0.6,0.5,0.6,0.9l0.3,44c0,0.3-0.1,0.5-0.3,0.7l-31.3,31.3C222.4,89.8,222.2,89.9,221.9,89.9z
				 M222.9,45.5v41.2l29.4-29.4L252,16L222.9,45.5z"/>
			<path class="st0" d="M221.9,89.9c-0.2,0-0.5-0.1-0.7-0.3L190,58.3c-0.2-0.2-0.3-0.4-0.3-0.7l0.3-44c0-0.4,0.2-0.7,0.6-0.9
				c0.4-0.1,0.8-0.1,1,0.2l31,31.4c0.2,0.2,0.3,0.4,0.3,0.7v43.8c0,0.4-0.2,0.7-0.6,0.9C222.2,89.9,222,89.9,221.9,89.9z
				 M191.6,57.3L221,86.7V45.5L191.9,16L191.6,57.3z"/>
		</g>
		<g>
			<path class="st0" d="M221.9,36.7c-0.3,0-0.5-0.1-0.7-0.3l-16.4-16.6c-0.4-0.4-0.4-1,0-1.3c0.4-0.4,1-0.4,1.3,0l15.7,15.9
				l15.7-15.9c0.4-0.4,1-0.4,1.3,0c0.4,0.4,0.4,1,0,1.3l-16.4,16.6C222.4,36.6,222.2,36.7,221.9,36.7z"/>
		</g>
	</g>
	<g>
		<path class="st0" d="M77.7,98.2H58.8c-0.5,0-0.9-0.4-0.9-0.9V84.5c0-0.5,0.4-0.9,0.9-0.9h18.9c4,0,7.3,3.3,7.3,7.3
			C85,94.9,81.7,98.2,77.7,98.2z M59.7,96.3h18c3,0,5.5-2.4,5.5-5.5c0-3-2.4-5.5-5.5-5.5h-18V96.3z"/>
		<path class="st0" d="M105.8,98.2H72.9c-0.5,0-0.9-0.4-0.9-0.9c0-0.5,0.4-0.9,0.9-0.9h32.9c3,0,5.5-2.4,5.5-5.5
			c0-3-2.4-5.5-5.5-5.5H72.9c-0.5,0-0.9-0.4-0.9-0.9c0-0.5,0.4-0.9,0.9-0.9h32.9c4,0,7.3,3.3,7.3,7.3
			C113.1,94.9,109.9,98.2,105.8,98.2z"/>
		<path class="st0" d="M68.1,93.9h-9.3c-0.5,0-0.9-0.4-0.9-0.9c0-0.5,0.4-0.9,0.9-0.9h9.3c0.5,0,0.9,0.4,0.9,0.9
			C69.1,93.5,68.6,93.9,68.1,93.9z"/>
		<path class="st0" d="M72.7,89.5H59.5c-0.5,0-0.9-0.4-0.9-0.9c0-0.5,0.4-0.9,0.9-0.9h13.2c0.5,0,0.9,0.4,0.9,0.9
			C73.7,89.1,73.2,89.5,72.7,89.5z"/>
		<path class="st0" d="M77.7,111h-5c-0.5,0-0.9-0.4-0.9-0.9c0-0.5,0.4-0.9,0.9-0.9h5c3,0,5.5-2.4,5.5-5.5s-2.4-5.5-5.5-5.5h-18v10.9
			h5.6c0.5,0,0.9,0.4,0.9,0.9c0,0.5-0.4,0.9-0.9,0.9h-6.6c-0.5,0-0.9-0.4-0.9-0.9V97.3c0-0.5,0.4-0.9,0.9-0.9h18.9
			c4,0,7.3,3.3,7.3,7.3C85,107.7,81.7,111,77.7,111z"/>
		<path class="st0" d="M105.8,111H73.6c-0.5,0-0.9-0.4-0.9-0.9c0-0.5,0.4-0.9,0.9-0.9h32.2c3,0,5.5-2.4,5.5-5.5s-2.4-5.5-5.5-5.5
			H72.9c-0.5,0-0.9-0.4-0.9-0.9c0-0.5,0.4-0.9,0.9-0.9h32.9c4,0,7.3,3.3,7.3,7.3C113.1,107.7,109.9,111,105.8,111z"/>
		<path class="st0" d="M75.8,106.7H58.9c-0.5,0-0.9-0.4-0.9-0.9c0-0.5,0.4-0.9,0.9-0.9h16.9c0.5,0,0.9,0.4,0.9,0.9
			C76.7,106.3,76.3,106.7,75.8,106.7z"/>
		<path class="st0" d="M72.6,118c-0.2,0-0.4-0.1-0.6-0.2l-2.8-2.1l-3.2,2.1c-0.3,0.2-0.7,0.2-1,0c-0.3-0.2-0.5-0.5-0.5-0.8v-11.2
			c0-0.5,0.4-0.9,0.9-0.9h7.1c0.5,0,0.9,0.4,0.9,0.9V117c0,0.4-0.2,0.7-0.5,0.8C72.9,117.9,72.8,118,72.6,118z M66.5,106.7v8.6
			l2.2-1.5c0.3-0.2,0.8-0.2,1.1,0l1.9,1.4v-8.5H66.5z"/>
	</g>
	<g>
		<g>
			<path class="st0" d="M88.5,146.5H62.3c-0.5,0-0.9-0.4-0.9-0.9s0.4-0.9,0.9-0.9h26.2c0.5,0,0.9,0.4,0.9,0.9S89,146.5,88.5,146.5z"
				/>
			<path class="st0" d="M88.5,152.1H62.3c-0.5,0-0.9-0.4-0.9-0.9c0-0.5,0.4-0.9,0.9-0.9h26.2c0.5,0,0.9,0.4,0.9,0.9
				C89.5,151.7,89,152.1,88.5,152.1z"/>
			<path class="st0" d="M88.5,157.7H62.3c-0.5,0-0.9-0.4-0.9-0.9s0.4-0.9,0.9-0.9h26.2c0.5,0,0.9,0.4,0.9,0.9S89,157.7,88.5,157.7z"
				/>
			<path class="st0" d="M88.5,163.3H62.3c-0.5,0-0.9-0.4-0.9-0.9c0-0.5,0.4-0.9,0.9-0.9h26.2c0.5,0,0.9,0.4,0.9,0.9
				C89.5,162.9,89,163.3,88.5,163.3z"/>
			<path class="st0" d="M79,168.9H62.3c-0.5,0-0.9-0.4-0.9-0.9s0.4-0.9,0.9-0.9H79c0.5,0,0.9,0.4,0.9,0.9S79.5,168.9,79,168.9z"/>
		</g>
		<path class="st0" d="M85.2,193.3H50.1c-0.5,0-0.9-0.4-0.9-0.9v-65.5c0-0.5,0.4-0.9,0.9-0.9h50.6c0.5,0,0.9,0.4,0.9,0.9v50.1
			c0,0.2-0.1,0.5-0.3,0.7L85.9,193C85.7,193.2,85.5,193.3,85.2,193.3z M51.1,191.4h33.8l14.9-14.9v-48.7H51.1V191.4z"/>
		<path class="st0" d="M85.2,193.3c-0.1,0-0.2,0-0.4-0.1c-0.3-0.1-0.6-0.5-0.6-0.9v-15.5c0-0.5,0.4-0.9,0.9-0.9h15.5
			c0.4,0,0.7,0.2,0.9,0.6c0.1,0.3,0.1,0.8-0.2,1L85.9,193C85.7,193.2,85.5,193.3,85.2,193.3z M86.2,177.8v12.3l12.3-12.3H86.2z"/>
	</g>
	<g>
		<g>
			<path class="st0" d="M126.5,218.6h-4.7c-0.5,0-0.9-0.4-0.9-0.9c0-0.5,0.4-0.9,0.9-0.9h4.7c0.5,0,0.9,0.4,0.9,0.9
				C127.4,218.2,127,218.6,126.5,218.6z"/>
			<path class="st0" d="M101.2,218.6H83.5c-0.5,0-0.9-0.4-0.9-0.9c0-0.5,0.4-0.9,0.9-0.9h17.6c0.5,0,0.9,0.4,0.9,0.9
				C102.1,218.2,101.7,218.6,101.2,218.6z"/>
			<path class="st0" d="M126.5,224.3h-43c-0.5,0-0.9-0.4-0.9-0.9c0-0.5,0.4-0.9,0.9-0.9h43c0.5,0,0.9,0.4,0.9,0.9
				C127.4,223.9,127,224.3,126.5,224.3z"/>
			<path class="st0" d="M126.5,230.1h-5.7c-0.5,0-0.9-0.4-0.9-0.9c0-0.5,0.4-0.9,0.9-0.9h5.7c0.5,0,0.9,0.4,0.9,0.9
				C127.4,229.6,127,230.1,126.5,230.1z"/>
			<path class="st0" d="M101.9,230.1H83.5c-0.5,0-0.9-0.4-0.9-0.9c0-0.5,0.4-0.9,0.9-0.9h18.3c0.5,0,0.9,0.4,0.9,0.9
				C102.8,229.6,102.4,230.1,101.9,230.1z"/>
			<path class="st0" d="M98.9,235.8H83.5c-0.5,0-0.9-0.4-0.9-0.9s0.4-0.9,0.9-0.9h15.3c0.5,0,0.9,0.4,0.9,0.9S99.4,235.8,98.9,235.8
				z"/>
		</g>
		<g>
			<path class="st0" d="M106.3,217h-4c-0.5,0-0.9-0.4-0.9-0.9s0.4-0.9,0.9-0.9h4c0.5,0,0.9,0.4,0.9,0.9S106.8,217,106.3,217z"/>
			<path class="st0" d="M119.1,231.7h-15.3c-0.5,0-0.9-0.4-0.9-0.9s0.4-0.9,0.9-0.9h15.3c0.5,0,0.9,0.4,0.9,0.9
				S119.6,231.7,119.1,231.7z"/>
		</g>
		<path class="st0" d="M133.4,247.9h-8.9c-0.5,0-0.9-0.4-0.9-0.9s0.4-0.9,0.9-0.9h8v-41.4H77.6v41.4H115c0.5,0,0.9,0.4,0.9,0.9
			s-0.4,0.9-0.9,0.9H76.7c-0.5,0-0.9-0.4-0.9-0.9v-43.3c0-0.5,0.4-0.9,0.9-0.9h56.7c0.5,0,0.9,0.4,0.9,0.9V247
			C134.3,247.5,133.9,247.9,133.4,247.9z"/>
		<g>
			<path class="st0" d="M111.4,234.9c-5.3,0-10-3.4-11.7-8.4c-1.1-3.1-0.8-6.5,0.6-9.4c1.5-2.9,4-5.2,7.1-6.2c1.3-0.4,2.6-0.7,4-0.7
				c5.3,0,10,3.4,11.7,8.4c1.1,3.1,0.8,6.5-0.6,9.4c-1.5,2.9-4,5.2-7.1,6.2C114.1,234.7,112.8,234.9,111.4,234.9z M111.4,212.1
				c-1.1,0-2.3,0.2-3.4,0.6c-2.6,0.9-4.8,2.8-6,5.3c-1.2,2.5-1.4,5.3-0.5,8c1.4,4.2,5.4,7.1,9.9,7.1c1.1,0,2.3-0.2,3.4-0.6
				c2.6-0.9,4.8-2.8,6-5.3c1.2-2.5,1.4-5.3,0.5-8C119.9,215,115.9,212.1,111.4,212.1z"/>
			<path class="st0" d="M118.1,221.2c-0.4,0-0.8-0.2-0.9-0.6c-0.5-1.6-1.6-2.8-3.1-3.5c-1.5-0.7-3.1-0.8-4.7-0.3
				c-0.5,0.2-1-0.1-1.2-0.6c-0.2-0.5,0.1-1,0.6-1.2c2-0.7,4.2-0.5,6.1,0.4c1.9,0.9,3.4,2.6,4,4.6c0.2,0.5-0.1,1-0.6,1.2
				C118.3,221.2,118.2,221.2,118.1,221.2z"/>
			<path class="st0" d="M117.9,255.9c-0.4,0-0.8-0.2-0.9-0.6l-5.4-16c-0.2-0.5,0.1-1,0.6-1.2l8.2-2.8c0.2-0.1,0.5-0.1,0.7,0
				c0.2,0.1,0.4,0.3,0.5,0.5l5.4,16c0.1,0.2,0.1,0.5,0,0.7c-0.1,0.2-0.3,0.4-0.5,0.5l-8.2,2.8C118.1,255.9,118,255.9,117.9,255.9z
				 M113.6,239.6l4.8,14.2l6.4-2.2l-4.8-14.2L113.6,239.6z"/>
			<path class="st0" d="M114.5,239.2c-0.1,0-0.3,0-0.4-0.1c-0.2-0.1-0.4-0.3-0.5-0.5l-1.5-4.3c-0.2-0.5,0.1-1,0.6-1.2
				c0.5-0.2,1,0.1,1.2,0.6l1.2,3.4l2.4-0.8l-1.2-3.4c-0.2-0.5,0.1-1,0.6-1.2c0.5-0.2,1,0.1,1.2,0.6l1.5,4.3c0.2,0.5-0.1,1-0.6,1.2
				l-4.1,1.4C114.7,239.2,114.6,239.2,114.5,239.2z"/>
		</g>
	</g>
	<g>
		<g>
			<g>
				<g>
					<path class="st0" d="M234,257.9c-0.5,0-0.9-0.4-0.9-0.9v-2c0-0.3-0.2-0.5-0.5-0.5h-2.1c-0.3,0-0.5,0.2-0.5,0.5v2
						c0,0.5-0.4,0.9-0.9,0.9c-0.5,0-0.9-0.4-0.9-0.9v-2c0-1.3,1.1-2.4,2.4-2.4h2.1c1.3,0,2.4,1.1,2.4,2.4v2
						C234.9,257.5,234.5,257.9,234,257.9z"/>
				</g>
			</g>
			<g>
				<g>
					<path class="st0" d="M232.5,296.8h-2.1c-1.3,0-2.4-1.1-2.4-2.4v-6.6c0-0.5,0.4-0.9,0.9-0.9c0.5,0,0.9,0.4,0.9,0.9v6.6
						c0,0.3,0.2,0.5,0.5,0.5h2.1c0.3,0,0.5-0.2,0.5-0.5v-6.6c0-0.5,0.4-0.9,0.9-0.9s0.9,0.4,0.9,0.9v6.6
						C234.9,295.7,233.8,296.8,232.5,296.8z"/>
				</g>
			</g>
		</g>
		<g>
			<g>
				<g>
					<path class="st0" d="M219.2,300H217c-1.3,0-2.4-1.1-2.4-2.4c0-0.1,0-0.1,0-0.2l2.1-9.9c0.1-0.5,0.6-0.8,1.1-0.7
						c0.5,0.1,0.8,0.6,0.7,1.1l-2,9.8c0,0.3,0.3,0.5,0.5,0.5h2.2c0.3,0,0.5-0.2,0.5-0.5c0-0.1,0-0.1,0-0.2l2.1-9.9
						c0.1-0.5,0.6-0.8,1.1-0.7c0.5,0.1,0.8,0.6,0.7,1.1l-2,9.8C221.5,299,220.5,300,219.2,300z"/>
				</g>
			</g>
			<g>
				<g>
					<path class="st0" d="M245.5,300h-2.2c-1.3,0-2.3-1-2.4-2.3l-2-9.8c-0.1-0.5,0.2-1,0.7-1.1c0.5-0.1,1,0.2,1.1,0.7l2.1,9.9
						c0,0.1,0,0.1,0,0.2c0,0.3,0.2,0.5,0.5,0.5h2.2c0.3,0,0.5-0.2,0.5-0.5l-2-9.8c-0.1-0.5,0.2-1,0.7-1.1c0.5-0.1,1,0.2,1.1,0.7
						l2.1,9.9c0,0.1,0,0.1,0,0.2C247.9,298.9,246.8,300,245.5,300z"/>
				</g>
			</g>
		</g>
		<g>
			<path class="st0" d="M248.6,288.6h-34.6c-3.5,0-6.4-2.9-6.4-6.4v-19.6c0-3.5,2.9-6.4,6.4-6.4h34.6c3.5,0,6.4,2.9,6.4,6.4v19.6
				C255,285.7,252.1,288.6,248.6,288.6z M213.9,258.1c-2.5,0-4.5,2-4.5,4.5v19.6c0,2.5,2,4.5,4.5,4.5h34.6c2.5,0,4.5-2,4.5-4.5
				v-19.6c0-2.5-2-4.5-4.5-4.5H213.9z"/>
			<path class="st0" d="M249,284.5h-35.5c-1,0-1.8-0.8-1.8-1.8v-20.5c0-1,0.8-1.8,1.8-1.8H249c1,0,1.8,0.8,1.8,1.8v20.5
				C250.9,283.7,250,284.5,249,284.5z M213.5,282.6H249v-20.5h-35.5V282.6z"/>
			<path class="st0" d="M249,284.5h-35.5c-1,0-1.8-0.8-1.8-1.8v-20.5c0-1,0.8-1.8,1.8-1.8H249c1,0,1.8,0.8,1.8,1.8v20.5
				C250.9,283.7,250,284.5,249,284.5z M213.5,282.6H249v-20.5h-35.5V282.6z"/>
		</g>
		<g>
			<g>
				<path class="st0" d="M225.7,279.6h-4.3c-0.5,0-0.9-0.4-0.9-0.9v-5.2c0-0.5,0.4-0.9,0.9-0.9h4.3c0.5,0,0.9,0.4,0.9,0.9v5.2
					C226.6,279.2,226.2,279.6,225.7,279.6z M222.3,277.7h2.4v-3.4h-2.4V277.7z"/>
				<path class="st0" d="M233.4,279.6h-4.3c-0.5,0-0.9-0.4-0.9-0.9v-8.4c0-0.5,0.4-0.9,0.9-0.9h4.3c0.5,0,0.9,0.4,0.9,0.9v8.4
					C234.3,279.2,233.9,279.6,233.4,279.6z M230,277.7h2.4v-6.5H230V277.7z"/>
				<path class="st0" d="M241.1,279.6h-4.3c-0.5,0-0.9-0.4-0.9-0.9v-12.5c0-0.5,0.4-0.9,0.9-0.9h4.3c0.5,0,0.9,0.4,0.9,0.9v12.5
					C242,279.2,241.6,279.6,241.1,279.6z M237.7,277.7h2.4v-10.6h-2.4V277.7z"/>
			</g>
			<path class="st0" d="M245.6,279.6h-28.8c-0.5,0-0.9-0.4-0.9-0.9c0-0.5,0.4-0.9,0.9-0.9h28.8c0.5,0,0.9,0.4,0.9,0.9
				C246.6,279.2,246.2,279.6,245.6,279.6z"/>
		</g>
	</g>
	<g>
		<path class="st0" d="M327.2,186.7c-6.6,0-12.8-2.6-17.5-7.2c-4.7-4.7-7.2-10.9-7.2-17.5s2.6-12.8,7.2-17.5
			c4.7-4.7,10.9-7.2,17.5-7.2s12.8,2.6,17.5,7.2c4.7,4.7,7.2,10.9,7.2,17.5s-2.6,12.8-7.2,17.5C340,184.1,333.8,186.7,327.2,186.7z
			 M327.2,139.2c-12.6,0-22.8,10.2-22.8,22.8s10.2,22.8,22.8,22.8c12.6,0,22.8-10.2,22.8-22.8S339.8,139.2,327.2,139.2z"/>
		<g>
			<g>
				<path class="st0" d="M332.4,180.9c-0.3,0-0.8-0.1-1.9-1c-0.4-0.3-1-0.8-1.2-1.1c-0.2-0.2-0.3-0.4-0.4-2.4c0-0.6-0.1-1.8,0-2.2
					c0-0.3-0.1-1.5-0.2-1.8c-0.2-0.3-0.3-0.4-0.5-0.4c0,0,0,0,0,0c0,0,0,0,0,0c-0.3,0-0.6,0.2-1,0.4c-0.4,0.2-0.9,0.4-1.3,0.4
					c-0.8,0-1.5-0.8-1.9-1.4c-0.7-0.7-1.6-1.6-1.7-2.2c-0.2-0.6-0.2-2.7,0.3-3.4c0.4-0.6,2.4-1.9,3.6-1.9c0.2,0,0.4,0,0.6,0.1
					c0.1,0,0.3-0.1,0.4-0.2c0.4-0.2,0.8-0.4,1.3-0.4c0.2,0,0.3,0,0.4,0.1c0.7,0.2,1.5,0.7,2.1,1c0.2,0.1,0.4,0.3,0.6,0.3
					c0.2,0.1,0.3,0.1,0.6,0.1c0.3,0,0.8,0,1.4,0.3c1.2,0.5,1.9,1.7,2,2.7c0.1,0.5,0.3,1,0.5,1.2c0.1,0,0.1,0,0.2,0
					c0.1,0,0.3,0,0.4,0c1,0,1.3,0.7,1.4,1c0.3,1.1-0.6,2.3-1.1,2.8l0,0c-0.2,0.2-0.7,0.7-0.8,0.9v2.4c0,0.7-0.7,2.7-1.5,3.3
					c-0.1,0.1-0.3,0.3-0.4,0.4C333.8,180.3,333.2,180.9,332.4,180.9z M330.9,177.8c0.3,0.3,1.1,1,1.5,1.2c0.2-0.1,0.4-0.4,0.5-0.5
					c0.2-0.2,0.4-0.4,0.6-0.6c0.3-0.2,0.8-1.5,0.8-1.9v-2.5c0-0.8,0.7-1.5,1.4-2.1l0,0c0.2-0.2,0.3-0.4,0.4-0.5c0,0,0,0-0.1,0
					c-0.2,0-0.4,0-0.5-0.1c-1.3-0.3-1.7-2.4-1.7-2.6c-0.1-0.5-0.5-1.1-0.9-1.3c-0.2-0.1-0.4-0.1-0.6-0.1c-0.3,0-0.8,0-1.4-0.3
					c-0.2-0.1-0.4-0.2-0.7-0.4c-0.5-0.3-1.2-0.7-1.6-0.8c-0.1,0-0.3,0.1-0.4,0.2c-0.4,0.2-0.8,0.4-1.3,0.4c0,0,0,0,0,0
					c-0.2,0-0.4,0-0.6-0.1c-0.5,0-1.7,0.8-2.1,1.1c-0.1,0.4-0.2,1.5-0.1,1.9c0.1,0.2,0.7,0.9,1.3,1.4c0.1,0.1,0.1,0.1,0.2,0.2
					c0.1,0.2,0.3,0.4,0.4,0.6c0.1,0,0.3-0.1,0.4-0.2c0.5-0.2,1-0.5,1.6-0.5c0.1,0,0.1,0,0.2,0c0.8,0,1.5,0.4,2.1,1.3
					c0.4,0.7,0.5,2.6,0.4,3C330.7,175,330.8,177.2,330.9,177.8z"/>
				<path class="st0" d="M316.2,183.6c-0.1,0-0.3,0-0.4-0.1c-0.5-0.2-0.6-0.8-0.4-1.3c0.2-0.4,0.4-1.6,0.5-2.3
					c0.2-2.2,0.4-4.9,0.4-5.6c-0.3-0.4-1.4-1.4-2.1-1.7c-0.3-0.1-0.6-0.1-1-0.1c-0.5,0-1,0.1-1.5-0.1c-0.8-0.3-1.2-1-1.6-1.5
					c-0.1-0.2-0.3-0.5-0.4-0.6l0,0c-0.5-0.4-0.7-0.5-1.4-0.7c-1.2-0.3-1.5-1.5-1.7-2.2c0-0.1-0.1-0.3-0.1-0.3
					c-0.3-0.6-0.3-1.4,0.1-2c0.3-0.5,0.7-0.8,1.2-0.9c0.1,0,0.2,0,0.3,0c0.2,0,0.2,0,2.1-0.9c0.2-0.1,0.4-0.2,0.5-0.3
					c-0.1-0.1-0.2-0.3-0.3-0.4c-0.4-0.5-1-1.3-0.9-2.3c0.1-1.7,1.6-2.2,2.5-2.6c0.4-0.2,0.9-0.4,1.1-0.6c-0.2-0.2-0.5-0.4-0.7-0.5
					c-0.2-0.1-0.4-0.3-0.6-0.4c0,0,0,0,0,0c-0.1,0-0.7,0.2-0.9,0.7c-0.1,0.1-0.1,0.2-0.2,0.3c-0.3,0.6-0.8,1.7-2.3,1.4
					c-1.1-0.2-1.7-0.5-2.3-1.8c-0.4-0.8-0.2-1.4,0.1-1.8c0.3-0.4,0.7-0.6,1.3-0.9c0.3-0.2,0.8-0.5,1.2-0.8c0.2-0.1,0.4-0.3,0.5-0.4
					c0,0-0.1-0.1-0.1-0.2c0,0-0.1,0-0.1,0c-0.3,0-0.8-0.1-1.2-0.3c-0.1,0-0.1-0.1-0.2-0.1c-0.1-0.1-1.1-0.7-1.2-0.7
					c-0.4-0.3-0.6-0.8-0.3-1.3c0.3-0.4,0.8-0.6,1.3-0.3c0,0,0.7,0.5,1.1,0.7c0.3,0.1,0.5,0.1,0.8,0.2c0.4,0.1,1.3,0.2,1.5,1
					c0.2,0.2,0.5,0.5,0.5,1.1c-0.1,0.7-0.6,1.2-1.5,1.8c-0.5,0.4-1,0.6-1.3,0.8c-0.2,0.1-0.4,0.3-0.6,0.4c0.3,0.6,0.4,0.6,1,0.7
					c0,0,0,0,0,0c0.1-0.1,0.2-0.3,0.2-0.4c0.1-0.1,0.1-0.3,0.2-0.4c0.4-0.8,1.3-1.4,2.1-1.6c0.6-0.1,1.2,0,1.6,0.4
					c0.1,0.1,0.3,0.2,0.4,0.3c0.7,0.4,1.5,1,1.6,1.9c0,0.4,0,0.9-0.5,1.4c-0.5,0.5-1.2,0.8-1.8,1.1c-1,0.4-1.3,0.6-1.3,1
					c0,0.3,0.2,0.6,0.5,1.1c0.4,0.5,0.8,1.1,0.6,1.9c-0.2,0.8-1,1.2-1.5,1.5c-2,1-2.3,1.1-2.8,1.1c0,0-0.1,0-0.1,0
					c0,0.1,0,0.2,0,0.3c0.1,0.2,0.1,0.4,0.2,0.6c0.1,0.3,0.3,0.8,0.4,0.9c1,0.3,1.4,0.5,2,1l0,0c0.4,0.3,0.6,0.7,0.9,1.1
					c0.2,0.3,0.4,0.7,0.6,0.8c0,0,0,0,0,0c0.2,0.1,0.4,0,0.7,0c0.5,0,1.2-0.1,2,0.2c1.1,0.5,2.7,1.9,3,2.5c0.2,0.3,0.4,0.7-0.2,6.7
					c0,0.3-0.2,2-0.7,3C316.8,183.4,316.5,183.6,316.2,183.6z M349.9,168.9c-0.2,0-0.4-0.1-0.6-0.2c-0.6-0.4-0.8-0.6-1.5-1.3
					c-0.2-0.2-0.2-0.2-0.5-0.2c-0.1,0-0.3,0-0.5,0c-0.1,0.1-0.2,0.2-0.3,0.3c-0.3,0.3-0.6,0.7-1.1,0.8c-1.2,0.3-2.2-0.1-2.7-1.1
					c-0.2-0.3-0.3-0.6-0.4-0.7c-0.3-0.1-0.6-0.3-0.7-0.3c-0.4-0.1-1.4-1-1.8-1.8c-0.2-0.1-0.6-0.2-0.9-0.2c-0.1,0.3-0.3,0.8-0.6,1.2
					c0,0,0,0,0,0c-0.3,0.4-0.7,0.5-1,0.5c-0.6,0-1.1-0.4-1.5-0.7c-0.1-0.1-0.2-0.2-0.4-0.3c-0.7-0.5-1.3-1.3-1.6-2
					c-0.4-1,0.4-1.6,0.7-1.9c0,0,0.1-0.1,0.1-0.1c0-0.1,0-0.2,0-0.4c-0.1,0.1-0.2,0.1-0.2,0.2c-0.6,0.4-1.2,0.9-1.9,0.6
					c-0.9-0.3-1.9-0.1-2.5,0c0,0-0.1,0-0.1,0c0,0,0,0,0,0c-0.6,0.6-1.3,1.2-3.2,1.1c-1.8-0.1-2.3-0.8-2.3-1.4
					c-0.1-0.8,0.6-1.6,1.1-1.8c0-0.1,0-0.2-0.1-0.3c-0.5-1.4,0.4-2,0.7-2.2c0.1,0,0.1-0.1,0.2-0.1c0,0,0,0,0,0
					c0.6-0.7,1.8-0.4,2.7-0.2c0.1,0,0.3,0.1,0.4,0.1c0.1,0,0.4-0.1,0.7-0.2c-0.1-0.1-0.2-0.1-0.3-0.1c-0.6,0-1.2-0.4-1.6-1
					c-0.5-0.9-0.5-1.9,0.1-2.8c0-0.1,0.1-0.1,0.1-0.2c0.1-0.1,0.4-0.3,0.9-0.5c0.4-0.1,0.8-0.1,1.2,0l0,0c0.1,0,0.2,0,0.4,0.1
					c0,0,0.1,0,0.3-0.1c0.4-0.2,0.9-0.6,1.2-0.9c0.7-0.9,1.3-1,2.1-1c0.8-0.1,1.5,0.3,2,0.6c0.1,0.1,0.3,0.2,0.4,0.2
					c0.3,0.2,1.3,0,1.5-0.2c0.2-0.2,0.4-0.5,3.1-1.5c1.5-0.5,3.2-1.1,4.3-1.5c0.5-0.2,1,0.1,1.2,0.6c0.2,0.5-0.1,1-0.6,1.2
					c-3,1-5.9,2.1-6.5,2.4c-0.8,0.9-2.7,1.2-3.8,0.7c-0.2-0.1-0.4-0.2-0.5-0.3c-0.5-0.3-0.7-0.4-0.9-0.3c-0.6,0.1-0.6,0.1-0.9,0.4
					c-0.4,0.4-1.1,1.1-1.9,1.4c-0.3,0.1-1,0.4-1.7,0.1c0,0-0.1,0-0.1,0c-0.1,0-0.1,0-0.1,0c0,0,0,0,0,0c0,0-0.1,0-0.1,0.1
					c0,0.1-0.1,0.2,0,0.3c0,0.2,0.1,0.3,0.2,0.4c0.3,0,0.8,0.1,1.7,0.8c1.1,0.9,1.2,1.3,1.2,1.5c0.1,0.6-0.3,1.1-0.8,1.1
					c-0.1,0-0.5,0.1-0.9,0.2c-0.9,0.3-1.4,0.4-1.7,0.4c-0.2,0-0.5-0.1-0.8-0.2c-0.2-0.1-0.7-0.2-1-0.2c-0.1,0.1-0.3,0.2-0.4,0.3
					c0,0,0,0,0,0c0.3,0.9,0.2,1.5,0,1.8c-0.1,0.2-0.2,0.3-0.3,0.4c0,0,0,0,0.1,0c1.1,0,1.3-0.3,1.5-0.5c0.2-0.2,0.5-0.5,0.9-0.6
					c0.1,0,0.2,0,0.2,0c0.7-0.1,1.9-0.4,3.2,0c0.1-0.1,0.3-0.2,0.4-0.3c0.6-0.5,1.7-1.3,2.6-0.4c0.9,0.9,0.6,2.4,0.5,2.9
					c0,0,0,0,0,0c-0.1,0.4-0.4,0.6-0.6,0.8c0.2,0.3,0.4,0.7,0.9,1c0.2,0.1,0.3,0.3,0.4,0.4c0-0.1,0-0.1,0.1-0.2
					c0.1-0.3,0.2-0.5,0.3-0.8c0,0,0,0,0,0c0.4-0.5,1.2-0.6,2.4-0.3c0.6,0.1,1.4,0.4,1.5,1.2c0.1,0.2,0.6,0.7,0.8,0.8
					c0.3,0.1,0.8,0.3,1,0.4c0.1,0.1,0.2,0.1,0.3,0.2c0.1,0.1,0.4,0.4,0.7,1.3c0,0.1,0.1,0.2,0.4,0.1c0.1-0.1,0.2-0.2,0.2-0.3
					c0.3-0.4,0.9-1,1.8-1c0.1,0,0.2,0,0.3,0c0.6,0,1.2,0,2,0.8c0.7,0.7,0.8,0.8,1.3,1.2c0.4,0.3,0.5,0.9,0.2,1.3
					C350.4,168.7,350.1,168.9,349.9,168.9z M316.7,154.6c-0.5,0-1-0.2-1.4-0.7c-0.2-0.3-0.5-0.6-0.7-1c-0.1-0.2-0.3-0.4-0.4-0.7
					c-0.3-0.4-0.5-0.8-0.7-1.1c-0.1-0.1-0.1-0.2-0.2-0.3c0-0.1-0.1-0.2-0.2-0.2c-0.1,0-0.3,0-0.7,0.2c-1.8,0.7-3.6-0.6-4.4-1.2
					c-0.1-0.1-0.2-0.2-0.3-0.2c-0.4-0.3-0.6-0.9-0.3-1.3c0.3-0.4,0.9-0.6,1.3-0.3c0.1,0.1,0.2,0.2,0.4,0.3c0.6,0.4,1.8,1.3,2.6,1
					c1.7-0.7,2.4-0.2,3,0.8c0,0.1,0.1,0.1,0.2,0.2c0.2,0.3,0.5,0.7,0.8,1.2c0.1,0.2,0.3,0.4,0.4,0.7c0.2,0.4,0.4,0.6,0.6,0.8
					c0.2,0,0.7-0.1,2-0.9c0,0,0.1,0,0.1-0.1c0.4-0.2,0.4-0.5,0.4-1.3c0-0.3,0-0.5,0-0.8c0-0.1,0-0.1,0-0.1c-0.1,0-0.2-0.1-0.2-0.1
					c-0.2-0.1-0.4-0.2-0.6-0.4c-0.4-0.4-0.6-1-0.8-1.6c-0.1-0.4-0.2-0.8-0.4-1c-0.2-0.3-0.8-0.2-1.1-0.1c-0.2,0.1-0.6,0.4-0.9,0.5
					c-0.6,0.4-1.1,0.7-1.7,0.5c-0.6-0.2-0.7-0.8-0.8-1.2c0-0.1-0.1-0.4-0.1-0.5c-0.1-0.1-0.2-0.2-0.3-0.3c-0.2-0.2-0.4-0.4-0.9-0.5
					c-0.5-0.1-0.8-0.6-0.8-1.1c0.1-0.5,0.6-0.8,1.1-0.8c1,0.2,1.6,0.7,1.9,1c0,0,0.1,0.1,0.1,0.1c0.3,0.2,0.5,0.6,0.7,0.9
					c0.4-0.2,0.8-0.5,1.1-0.6c0,0,0,0,0,0c1.6-0.5,2.7,0.1,3.2,0.8c0.3,0.5,0.5,1.1,0.6,1.6c0.1,0.2,0.2,0.5,0.2,0.7
					c0,0,0.1,0.1,0.2,0.1c0.4,0.2,1.4,0.7,1.3,2c0,0.2,0,0.4,0,0.6c0,0.8,0.1,2.1-1.2,3c0,0-0.1,0.1-0.1,0.1
					C318.9,153.9,317.7,154.6,316.7,154.6z"/>
			</g>
		</g>
	</g>
	<g>
		<path class="st0" d="M123.3,285.8C123.3,285.8,123.3,285.8,123.3,285.8c-3,0-5.8-0.9-8.2-2.7c-3.1-2.2-5.1-5.5-5.7-9.2
			c-0.6-3.7,0.3-7.5,2.5-10.5c2.6-3.7,6.9-5.9,11.5-5.9c3,0,5.8,0.9,8.2,2.7c3.1,2.2,5.1,5.5,5.7,9.2c0.6,3.7-0.3,7.5-2.5,10.5
			C132.1,283.6,127.8,285.8,123.3,285.8z M123.3,259.5c-3.9,0-7.6,1.9-9.9,5.1c-1.9,2.7-2.7,5.9-2.2,9.1c0.5,3.2,2.3,6.1,4.9,8
			c2.1,1.5,4.6,2.3,7.1,2.3c0,0,0,0,0,0c3.9,0,7.6-1.9,9.9-5.1c1.9-2.7,2.7-5.9,2.2-9.1c-0.5-3.2-2.3-6.1-4.9-8
			C128.3,260.3,125.9,259.5,123.3,259.5z"/>
		<path class="st0" d="M137,285.1c-1.3,0-3-0.3-4.9-1c-3.8-1.3-8.3-3.8-12.7-6.9c-4.4-3.2-8.1-6.6-10.6-9.8
			c-2.7-3.5-3.5-6.2-2.3-7.9c1-1.3,3.4-2.3,9.9,0.3c0.5,0.2,0.7,0.7,0.5,1.2c-0.2,0.5-0.7,0.7-1.2,0.5c-4.4-1.8-7-1.8-7.6-0.9
			c-0.8,1,0.8,3.7,2.3,5.7c2.3,3,6,6.4,10.2,9.4c4.2,3.1,8.6,5.4,12.2,6.7c2.3,0.8,5.3,1.4,6.1,0.4c0.6-0.8-0.2-3.3-3.3-6.9
			c-0.3-0.4-0.3-1,0.1-1.3c0.4-0.3,1-0.3,1.3,0.1c4.5,5.2,4.3,7.9,3.4,9.2C139.7,284.6,138.5,285.1,137,285.1z"/>
		<path class="st0" d="M115.1,266.8c-0.2,0-0.4-0.1-0.5-0.2c-0.4-0.3-0.5-0.9-0.2-1.3c3.5-4.9,10.4-6,15.3-2.5
			c0.4,0.3,0.5,0.9,0.2,1.3c-0.3,0.4-0.9,0.5-1.3,0.2c-4.1-2.9-9.7-2-12.7,2.1C115.7,266.7,115.4,266.8,115.1,266.8z"/>
	</g>
	<g>
		<path class="st0" d="M277,270.2c-0.2,0-0.5-0.1-0.7-0.3c-0.2-0.2-0.3-0.4-0.3-0.7c0-0.2,0.1-0.5,0.3-0.7c1.8-1.8,2.7-4.1,2.7-6.6
			c0-2.5-1-4.8-2.8-6.6c-0.2-0.2-0.3-0.4-0.3-0.7c0-0.2,0.1-0.5,0.3-0.7c0.4-0.4,1-0.4,1.3,0c1.8,1.8,4.1,2.8,6.6,2.8
			c2.5,0,4.8-1,6.6-2.8c0.4-0.4,1-0.4,1.3,0c0.2,0.2,0.3,0.4,0.3,0.7c0,0.2-0.1,0.5-0.3,0.7c-1.8,1.8-2.8,4.1-2.8,6.6
			c0,2.5,0.9,4.8,2.7,6.6c0.2,0.2,0.3,0.4,0.3,0.7c0,0.5-0.4,0.9-0.9,0.9c0,0,0,0,0,0c-0.2,0-0.5-0.1-0.7-0.3
			c-1.8-1.8-4.1-2.8-6.6-2.8c-2.5,0-4.8,1-6.6,2.8C277.5,270.2,277.2,270.2,277,270.2z M280.1,258c0.5,1.3,0.8,2.6,0.8,4
			c0,1.4-0.2,2.8-0.7,4.1c1.3-0.5,2.6-0.8,4-0.8c1.4,0,2.8,0.3,4,0.8c-0.5-1.3-0.8-2.7-0.7-4.1c0-1.4,0.3-2.8,0.8-4.1
			c-1.3,0.5-2.7,0.8-4.1,0.8C282.8,258.8,281.4,258.5,280.1,258z"/>
		<path class="st0" d="M271.1,285.6c-0.5,0-0.9-0.4-0.9-0.9c0-3.2-2.5-5.7-5.7-5.7c-0.5,0-0.9-0.4-0.9-0.9c0-0.5,0.4-0.9,0.9-0.9
			c0,0,0,0,0,0c1.5,0,3-0.6,4.1-1.7c1.1-1.1,1.7-2.5,1.7-4.1c0-0.5,0.4-0.9,0.9-0.9c0,0,0,0,0,0c0.5,0,0.9,0.4,0.9,0.9
			c0,3.2,2.6,5.8,5.8,5.8c0,0,0,0,0,0c0,0,0,0,0,0c0.5,0,0.9,0.4,0.9,0.9c0,0.5-0.4,0.9-0.9,0.9c0,0,0,0,0,0c-1.6,0-3,0.6-4.1,1.7
			c-1.1,1.1-1.7,2.5-1.7,4.1C272.1,285.2,271.6,285.6,271.1,285.6z M268.2,278.1c0.6,0.3,1.2,0.8,1.7,1.3c0.5,0.5,0.9,1.1,1.3,1.7
			c0.3-0.6,0.8-1.2,1.3-1.7s1.1-0.9,1.7-1.3c-1.3-0.7-2.3-1.7-3-3c-0.3,0.6-0.8,1.2-1.3,1.7C269.3,277.3,268.8,277.7,268.2,278.1z"
			/>
	</g>
	<path class="st0" d="M273.9,38.4c-0.4,0-0.8-0.3-0.9-0.7c-1.1-4-4.7-6.7-8.9-6.7c-0.9,0-1.8,0.1-2.6,0.4c-0.5,0.1-1-0.1-1.2-0.6
		c0-0.1,0-0.2,0-0.3c0-0.4,0.3-0.8,0.7-0.9c2.4-0.7,4.4-2.3,5.6-4.4c1.2-2.2,1.5-4.7,0.8-7.1c0-0.1,0-0.2,0-0.3
		c0-0.4,0.3-0.8,0.7-0.9c0.5-0.1,1,0.1,1.2,0.6c0.6,2,1.7,3.7,3.4,5c1.6,1.2,3.6,1.9,5.5,1.9c0.9,0,1.7-0.1,2.6-0.4
		c0.5-0.1,1,0.1,1.2,0.6c0,0.1,0,0.2,0,0.3c0,0.4-0.3,0.8-0.7,0.9c-5,1.4-7.8,6.4-6.4,11.4c0,0.1,0.1,0.2,0.1,0.3
		C274.8,38,274.4,38.4,273.9,38.4C273.9,38.4,273.9,38.4,273.9,38.4z M265.5,29.2c1.9,0.3,3.7,1,5.2,2.1c0.7,0.5,1.4,1.1,1.9,1.8
		c0.2-1.4,0.6-2.7,1.3-3.9c0.7-1.2,1.6-2.3,2.6-3.2c-1.9-0.3-3.6-1-5.1-2.1c-0.7-0.5-1.4-1.2-1.9-1.8c-0.2,1.4-0.6,2.7-1.3,3.9
		C267.5,27.2,266.6,28.3,265.5,29.2z"/>
	<path class="st0" d="M267.9,51.4c-0.2,0-0.5-0.1-0.7-0.3c-0.8-0.8-2-1.3-3.1-1.3c-1.2,0-2.3,0.5-3.1,1.3c-0.4,0.4-1,0.4-1.3,0
		c-0.2-0.2-0.3-0.4-0.3-0.7c0-0.2,0.1-0.5,0.3-0.7c0.8-0.8,1.3-2,1.3-3.1c0-1.2-0.5-2.3-1.3-3.1c-0.2-0.2-0.3-0.4-0.3-0.7
		c0-0.2,0.1-0.5,0.3-0.7c0.4-0.4,1-0.4,1.3,0c0.8,0.8,2,1.3,3.2,1.3c1.2,0,2.3-0.5,3.2-1.3c0.4-0.4,1-0.4,1.3,0
		c0.2,0.2,0.3,0.4,0.3,0.7c0,0.2-0.1,0.5-0.3,0.7c-1.8,1.8-1.8,4.5-0.1,6.2c0.2,0.2,0.3,0.4,0.3,0.7
		C268.9,50.9,268.4,51.4,267.9,51.4C267.9,51.4,267.9,51.4,267.9,51.4z M262.7,45.2c0.1,0.5,0.2,1,0.2,1.4c0,0.5-0.1,1-0.2,1.5
		c0.9-0.2,1.9-0.2,2.9,0c-0.1-0.5-0.2-1-0.2-1.5c0-0.5,0.1-1,0.2-1.4C264.6,45.4,263.6,45.4,262.7,45.2z"/>
	<path class="st0" d="M199.7,95.5c-0.2,0-0.5-0.1-0.7-0.3c-0.2-0.2-0.3-0.4-0.3-0.7c0-0.2,0.1-0.5,0.3-0.7c0.8-0.8,1.3-2,1.3-3.1
		c0-1.2-0.5-2.3-1.3-3.1c-0.2-0.2-0.3-0.4-0.3-0.7s0.1-0.5,0.3-0.7c0.4-0.4,1-0.4,1.3,0c0.8,0.8,2,1.3,3.2,1.3
		c1.2,0,2.3-0.5,3.2-1.3c0.4-0.4,1-0.4,1.3,0c0.2,0.2,0.3,0.4,0.3,0.7c0,0.2-0.1,0.5-0.3,0.7c-1.8,1.8-1.8,4.5-0.1,6.2
		c0.2,0.2,0.3,0.4,0.3,0.7c0,0.5-0.4,0.9-0.9,0.9c0,0,0,0,0,0c-0.2,0-0.5-0.1-0.7-0.3c-0.8-0.8-2-1.3-3.1-1.3
		c-1.2,0-2.3,0.5-3.1,1.3C200.1,95.4,199.9,95.5,199.7,95.5z M202,89.3c0.1,0.5,0.2,1,0.2,1.4c0,0.5-0.1,1-0.2,1.5
		c0.5-0.1,1-0.2,1.4-0.2c0,0,0,0,0,0c0.5,0,1,0.1,1.4,0.2c-0.1-0.5-0.2-1-0.2-1.5c0-0.5,0.1-1,0.2-1.4C204,89.5,202.9,89.5,202,89.3
		z"/>
	<path class="st0" d="M204.6,247.8C204.6,247.8,204.6,247.8,204.6,247.8c-0.5,0-0.9-0.4-0.9-0.9c0-0.8-0.3-1.5-0.8-2.1
		c-0.5-0.5-1.3-0.8-2.1-0.8c0,0,0,0,0,0c0,0,0,0,0,0c-0.5,0-0.9-0.4-0.9-0.9c0-0.5,0.4-0.9,0.9-0.9c0,0,0,0,0,0c0,0,0,0,0,0
		c0,0,0,0,0,0c0,0,0,0,0,0c0.8,0,1.5-0.3,2.1-0.9c0.6-0.6,0.9-1.3,0.9-2.1c0-0.5,0.4-0.9,0.9-0.9c0,0,0,0,0,0c0.5,0,0.9,0.4,0.9,0.9
		c0,1.6,1.3,2.9,2.9,2.9c0.5,0,0.9,0.4,0.9,0.9c0,0.5-0.4,0.9-0.9,0.9c-1.6,0-2.9,1.3-2.9,2.9C205.5,247.4,205.1,247.8,204.6,247.8z
		 M203.6,243.1c0.2,0.1,0.4,0.3,0.5,0.5c0.2,0.2,0.3,0.3,0.5,0.5c0.3-0.4,0.6-0.7,1-1c-0.4-0.3-0.7-0.6-1-1
		c-0.1,0.2-0.3,0.4-0.5,0.5C203.9,242.8,203.7,242.9,203.6,243.1z"/>
	<path class="st0" d="M78.6,74.4c-0.2,0-0.5-0.1-0.7-0.3c-0.8-0.8-2-1.3-3.1-1.3c-1.2,0-2.3,0.5-3.1,1.3c-0.4,0.4-1,0.4-1.3,0
		c-0.2-0.2-0.3-0.4-0.3-0.7c0-0.2,0.1-0.5,0.3-0.7c0.8-0.8,1.3-2,1.3-3.1c0-1.2-0.5-2.3-1.3-3.1c-0.2-0.2-0.3-0.4-0.3-0.7
		c0-0.2,0.1-0.5,0.3-0.7c0.4-0.4,1-0.4,1.3,0c0.8,0.8,2,1.3,3.2,1.3c1.2,0,2.3-0.5,3.2-1.3c0.4-0.4,1-0.4,1.3,0
		c0.2,0.2,0.3,0.4,0.3,0.7c0,0.2-0.1,0.5-0.3,0.7c-1.8,1.8-1.8,4.5-0.1,6.2c0.2,0.2,0.3,0.4,0.3,0.7C79.6,73.9,79.2,74.4,78.6,74.4
		C78.6,74.4,78.6,74.4,78.6,74.4z M73.4,68.2c0.1,0.5,0.2,1,0.2,1.4c0,0.5-0.1,1-0.2,1.5c0.9-0.2,1.9-0.2,2.9,0
		c-0.1-0.5-0.2-1-0.2-1.5c0-0.5,0.1-1,0.2-1.4C75.4,68.4,74.3,68.4,73.4,68.2z"/>
	<path class="st0" d="M338.3,209c-0.2,0-0.5-0.1-0.7-0.3c-0.8-0.8-2-1.3-3.1-1.3c-1.2,0-2.3,0.5-3.1,1.3c-0.4,0.4-1,0.4-1.3,0
		c-0.2-0.2-0.3-0.4-0.3-0.7c0-0.2,0.1-0.5,0.3-0.7c0.8-0.8,1.3-2,1.3-3.1c0-1.2-0.5-2.3-1.3-3.1c-0.2-0.2-0.3-0.4-0.3-0.7
		c0-0.2,0.1-0.5,0.3-0.7c0.4-0.4,1-0.4,1.3,0c0.8,0.8,2,1.3,3.2,1.3c1.2,0,2.3-0.5,3.2-1.3c0.4-0.4,1-0.4,1.3,0
		c0.2,0.2,0.3,0.4,0.3,0.7c0,0.2-0.1,0.5-0.3,0.7c-1.8,1.8-1.8,4.5-0.1,6.2c0.2,0.2,0.3,0.4,0.3,0.7
		C339.2,208.6,338.8,209,338.3,209C338.3,209,338.3,209,338.3,209z M333,202.8c0.1,0.5,0.2,1,0.2,1.4c0,0.5-0.1,1-0.2,1.5
		c0.9-0.2,1.9-0.2,2.9,0c-0.1-0.5-0.2-1-0.2-1.5c0-0.5,0.1-1,0.2-1.4C335,203,334,203,333,202.8z"/>
	<path class="st0" d="M265.4,267.2c-0.5,0-0.9-0.4-0.9-0.9c0-3.2-2.5-5.7-5.7-5.7c-0.5,0-0.9-0.4-0.9-0.9c0-0.5,0.4-0.9,0.9-0.9
		c0,0,0,0,0,0c1.5,0,3-0.6,4.1-1.7c1.1-1.1,1.7-2.5,1.7-4.1c0-0.5,0.4-0.9,0.9-0.9c0,0,0,0,0,0c0.5,0,0.9,0.4,0.9,0.9
		c0,3.2,2.6,5.8,5.8,5.8c0,0,0,0,0,0c0,0,0,0,0,0c0.5,0,0.9,0.4,0.9,0.9c0,0.5-0.4,0.9-0.9,0.9c0,0,0,0,0,0c-1.6,0-3,0.6-4.1,1.7
		c-1.1,1.1-1.7,2.5-1.7,4.1C266.3,266.8,265.9,267.2,265.4,267.2z M262.4,259.6c0.6,0.3,1.2,0.8,1.7,1.3c0.5,0.5,0.9,1.1,1.3,1.7
		c0.3-0.6,0.8-1.2,1.3-1.7c0.5-0.5,1.1-0.9,1.7-1.3c-1.3-0.7-2.3-1.7-3-3c-0.3,0.6-0.8,1.2-1.3,1.7
		C263.6,258.9,263,259.3,262.4,259.6z"/>
	<path class="st0" d="M61,218.8c-0.1,0-0.1,0-0.2,0c-0.4-0.1-0.8-0.5-0.8-0.9c0-0.1,0-0.1,0-0.2c0.9-4.5-2-8.8-6.5-9.7
		c-0.4-0.1-0.8-0.5-0.8-0.9c0-0.1,0-0.1,0-0.2c0.1-0.5,0.6-0.8,1.1-0.7c0.5,0.1,1.1,0.2,1.6,0.2c1.9,0,3.7-0.7,5.2-1.9
		c1.5-1.2,2.5-2.9,2.9-4.8c0.1-0.5,0.6-0.8,1.1-0.7c0.4,0.1,0.8,0.5,0.8,0.9c0,0.1,0,0.1,0,0.2c-0.4,2.2,0,4.4,1.2,6.2
		c1.2,1.8,3.1,3.1,5.3,3.5c0.4,0.1,0.8,0.5,0.8,0.9c0,0.1,0,0.1,0,0.2c-0.1,0.5-0.6,0.8-1.1,0.7c-0.5-0.1-1.1-0.2-1.7-0.2
		c-1.9,0-3.7,0.7-5.2,1.8c-1.5,1.2-2.5,2.9-2.9,4.8C61.8,218.5,61.4,218.8,61,218.8z M58,207.9c0.9,0.7,1.8,1.5,2.4,2.5
		c0.7,1,1.1,2.1,1.4,3.2c0.5-0.7,1.1-1.3,1.8-1.9c1.2-0.9,2.5-1.6,4-2c-1-0.7-1.8-1.6-2.5-2.6c-0.7-1-1.2-2.1-1.4-3.2
		c-0.5,0.7-1.1,1.3-1.8,1.9C60.8,206.9,59.4,207.6,58,207.9z"/>
	<g>
		<g>
			<path class="st0" d="M167.6,42.9c-2.6,0-4.9-2.2-6.6-6.2c-1.6-3.7-2.4-8.6-2.4-13.9c0-5.2,0.9-10.1,2.4-13.9
				c0.2-0.5,0.7-0.7,1.2-0.5c0.5,0.2,0.7,0.7,0.5,1.2c-1.5,3.5-2.3,8.2-2.3,13.1c0,5,0.8,9.7,2.3,13.1c1.3,3.2,3.1,5,4.8,5
				s3.5-1.8,4.8-5c1.5-3.5,2.3-8.2,2.3-13.1c0-5-0.8-9.7-2.3-13.1c-1.3-3.2-3.1-5-4.8-5c-1,0-1.9,0.5-2.8,1.6
				c-0.3,0.4-0.9,0.4-1.3,0.1c-0.4-0.3-0.4-0.9-0.1-1.3c1.3-1.5,2.8-2.3,4.3-2.3c2.6,0,4.9,2.2,6.6,6.2c1.6,3.7,2.4,8.6,2.4,13.9
				c0,5.2-0.9,10.2-2.4,13.9C172.5,40.8,170.1,42.9,167.6,42.9z"/>
			<path class="st0" d="M159,35.5c-0.5,0-0.9-0.3-0.9-0.8c-0.1-0.5,0.3-1,0.8-1.1c3.7-0.5,8.1-2.1,12.3-4.6c4.3-2.5,8-5.5,10.2-8.6
				c2.1-2.8,2.8-5.2,1.9-6.7c-0.9-1.5-3.3-2.1-6.8-1.7c-3.8,0.5-8.2,2.1-12.5,4.6c-4.3,2.5-8,5.5-10.2,8.6c-2.1,2.8-2.8,5.2-1.9,6.7
				c0.5,0.8,1.4,1.4,2.8,1.7c0.5,0.1,0.8,0.6,0.7,1.1c-0.1,0.5-0.6,0.8-1.1,0.7c-1.9-0.4-3.4-1.2-4.1-2.6c-1.3-2.2-0.5-5.3,2.1-8.8
				c2.4-3.2,6.3-6.4,10.8-9s9.2-4.3,13.2-4.8c4.3-0.5,7.3,0.4,8.6,2.6c1.3,2.2,0.5,5.3-2.1,8.8c-2.4,3.2-6.3,6.4-10.8,9
				c-4.4,2.6-9,4.3-13,4.8C159.1,35.5,159,35.5,159,35.5z"/>
			<path class="st0" d="M178.6,35.7c-0.7,0-1.5,0-2.2-0.1c-4-0.5-8.7-2.2-13.2-4.8c-4.5-2.6-8.4-5.8-10.8-9
				c-2.6-3.4-3.3-6.6-2.1-8.8c1.3-2.2,4.3-3.1,8.6-2.6c4,0.5,8.7,2.2,13.2,4.8c4.8,2.7,8.8,6.2,11.2,9.6c0.3,0.4,0.2,1-0.2,1.3
				c-0.4,0.3-1,0.2-1.3-0.2c-2.2-3.1-6.1-6.4-10.6-9.1c-4.3-2.5-8.8-4.1-12.5-4.6c-3.4-0.4-5.9,0.2-6.8,1.7
				c-0.9,1.5-0.2,3.9,1.9,6.7c2.3,3,5.9,6.1,10.2,8.6c4.3,2.5,8.8,4.1,12.5,4.6c3.4,0.4,5.9-0.2,6.8-1.7c0.4-0.7,0.5-1.5,0.2-2.5
				c-0.1-0.5,0.2-1,0.7-1.1c0.5-0.1,1,0.2,1.1,0.7c0.3,1.5,0.2,2.8-0.4,3.9C183.9,34.7,181.7,35.7,178.6,35.7z"/>
		</g>
		<path class="st0" d="M162.9,10.5c-1.7,0-3.1-1.4-3.1-3.1c0-1.7,1.4-3.1,3.1-3.1c1.7,0,3.1,1.4,3.1,3.1
			C165.9,9.2,164.6,10.5,162.9,10.5z M162.9,6.3c-0.7,0-1.2,0.5-1.2,1.2c0,0.7,0.5,1.2,1.2,1.2c0.7,0,1.2-0.5,1.2-1.2
			C164.1,6.8,163.5,6.3,162.9,6.3z"/>
		<path class="st0" d="M156.8,37.7c-1.7,0-3.1-1.4-3.1-3.1c0-1.7,1.4-3.1,3.1-3.1s3.1,1.4,3.1,3.1C159.8,36.3,158.5,37.7,156.8,37.7
			z M156.8,33.5c-0.7,0-1.2,0.5-1.2,1.2c0,0.7,0.5,1.2,1.2,1.2c0.7,0,1.2-0.5,1.2-1.2C158,34,157.4,33.5,156.8,33.5z"/>
		<path class="st0" d="M183.6,30.2c-1.7,0-3.1-1.4-3.1-3.1c0-1.7,1.4-3.1,3.1-3.1c1.7,0,3.1,1.4,3.1,3.1
			C186.6,28.8,185.3,30.2,183.6,30.2z M183.6,25.9c-0.7,0-1.2,0.5-1.2,1.2c0,0.7,0.5,1.2,1.2,1.2s1.2-0.5,1.2-1.2
			C184.8,26.5,184.2,25.9,183.6,25.9z"/>
	</g>
	<g>
		<path class="st0" d="M129.2,127.8c-0.4,0-0.7-0.1-1.1-0.3l-4.1-2.3c-0.1-0.1-0.2-0.1-0.3,0l-4.2,2.1c-0.3,0.2-0.6,0.2-1,0.2
			c-0.7,0-1.3-0.3-1.7-0.8c-0.4-0.5-0.6-1.2-0.5-1.8l0.9-4.6c0-0.1,0-0.2-0.1-0.3l-3.3-3.4c-0.6-0.6-0.8-1.5-0.5-2.3
			c0.3-0.8,1-1.4,1.8-1.5l4.7-0.6c0.1,0,0.2-0.1,0.3-0.2l2.2-4.2c0.4-0.7,1.1-1.2,2-1.2c0.9,0,1.6,0.5,2,1.3l2,4.3
			c0,0.1,0.1,0.2,0.2,0.2l4.7,0.8c0.8,0.1,1.5,0.7,1.8,1.5c0.2,0.8,0,1.7-0.6,2.2l-3.4,3.2c-0.1,0.1-0.1,0.2-0.1,0.3l0.7,4.7
			c0.1,0.6-0.1,1.3-0.5,1.8C130.5,127.5,129.8,127.8,129.2,127.8z M123.8,123.3c0.4,0,0.7,0.1,1.1,0.3l4.1,2.3
			c0.1,0.1,0.3,0,0.4-0.1c0.1-0.1,0.1-0.2,0.1-0.3l-0.7-4.7c-0.1-0.7,0.1-1.4,0.7-1.9l3.4-3.2c0.1-0.1,0.1-0.3,0.1-0.3
			c0-0.1-0.1-0.2-0.3-0.2l-4.7-0.8c-0.7-0.1-1.3-0.6-1.6-1.2l-2-4.3c-0.1-0.2-0.2-0.2-0.3-0.2c-0.1,0-0.2,0-0.3,0.2l-2.2,4.2
			c-0.3,0.6-1,1.1-1.7,1.2l-4.7,0.6c-0.2,0-0.2,0.1-0.3,0.2c0,0.1,0,0.2,0.1,0.3l3.3,3.4c0.5,0.5,0.7,1.2,0.6,2l-0.9,4.6
			c0,0.1,0,0.2,0.1,0.3c0.1,0.1,0.3,0.2,0.4,0.1l4.2-2.1C123.2,123.4,123.5,123.3,123.8,123.3z"/>
	</g>
	<g>
		<path class="st0" d="M157.3,221.4c-0.4,0-0.7-0.1-1.1-0.3l-4.1-2.3c-0.1-0.1-0.2-0.1-0.3,0l-4.2,2.1c-0.3,0.2-0.6,0.2-1,0.2
			c-0.7,0-1.3-0.3-1.7-0.8c-0.4-0.5-0.6-1.2-0.5-1.8l0.9-4.6c0-0.1,0-0.2-0.1-0.3l-3.3-3.4c-0.6-0.6-0.8-1.5-0.5-2.3
			c0.3-0.8,1-1.4,1.8-1.5l4.7-0.6c0.1,0,0.2-0.1,0.3-0.2l2.2-4.2c0.4-0.7,1.1-1.2,2-1.2c0.9,0,1.6,0.5,2,1.3l2,4.3
			c0,0.1,0.1,0.2,0.2,0.2l4.7,0.8c0.8,0.1,1.5,0.7,1.8,1.5c0.2,0.8,0,1.7-0.6,2.2l-3.4,3.2c-0.1,0.1-0.1,0.2-0.1,0.3l0.7,4.7
			c0.1,0.6-0.1,1.3-0.5,1.8C158.5,221.1,157.9,221.4,157.3,221.4z M151.9,217c0.4,0,0.7,0.1,1.1,0.3l4.1,2.3c0.1,0.1,0.3,0,0.4-0.1
			c0.1-0.1,0.1-0.2,0.1-0.3l-0.7-4.7c-0.1-0.7,0.1-1.4,0.7-1.9l3.4-3.2c0.1-0.1,0.1-0.3,0.1-0.3c0-0.1-0.1-0.2-0.3-0.2l-4.7-0.8
			c-0.7-0.1-1.3-0.6-1.6-1.2l-2-4.3c-0.1-0.2-0.2-0.2-0.3-0.2c-0.1,0-0.2,0-0.3,0.2l-2.2,4.2c-0.3,0.6-1,1.1-1.7,1.2l-4.7,0.6
			c-0.2,0-0.2,0.1-0.3,0.2c0,0.1,0,0.2,0.1,0.3l3.3,3.4c0.5,0.5,0.7,1.2,0.6,2l-0.9,4.6c0,0.1,0,0.2,0.1,0.3
			c0.1,0.1,0.3,0.2,0.4,0.1l4.2-2.1C151.2,217.1,151.6,217,151.9,217z"/>
	</g>
</g>
</svg>
