<?xml version="1.0" encoding="utf-8"?>
<!-- Generator: Adobe Illustrator 23.0.2, SVG Export Plug-In . SVG Version: 6.00 Build 0)  -->
<svg version="1.1" id="Layer_1" xmlns="http://www.w3.org/2000/svg" xmlns:xlink="http://www.w3.org/1999/xlink" x="0px" y="0px"
	 viewBox="0 0 60 60" style="enable-background:new 0 0 60 60;" xml:space="preserve">
<style type="text/css">
	.st0{fill:#868686;}
</style>
<g>
	<path class="st0" d="M3.1,45.7h55.9c0.6,0,1.1-0.5,1.1-1.1V15.4V9.8c0-0.6-0.5-1.1-1.1-1.1H3.1C2.5,8.7,2,9.2,2,9.8v5.6v29.2
		C2,45.2,2.5,45.7,3.1,45.7z M4,43.6V16.4h53.8v27.1H4z M4,10.8h53.8v3.5H4V10.8z"/>
	<circle class="st0" cx="5.8" cy="12.6" r="1.1"/>
	<circle class="st0" cx="8.6" cy="12.6" r="1.1"/>
	<circle class="st0" cx="11.4" cy="12.6" r="1.1"/>
	<path class="st0" d="M31,18.5c-6.3,0-11.5,5.1-11.5,11.5S24.7,41.5,31,41.5S42.6,36.4,42.6,30S37.3,18.5,31,18.5z M31,39.4
		c-5.1,0-9.4-4.3-9.4-9.4s4.3-9.4,9.4-9.4s9.4,4.3,9.4,9.4S36.2,39.4,31,39.4z"/>
	<path class="st0" d="M32.9,26.6L31,28.5l-4.3-4.3c-0.4-0.4-1.1-0.4-1.5,0s-0.4,1.1,0,1.5l5,5c0.2,0.2,0.5,0.3,0.8,0.3
		s0.6-0.1,0.8-0.3l2.6-2.6c0.4-0.4,0.4-1.1,0-1.5C34,26.2,33.3,26.2,32.9,26.6z"/>
</g>
</svg>
