<?xml version="1.0" encoding="utf-8"?>
<!-- Generator: Adobe Illustrator 23.0.2, SVG Export Plug-In . SVG Version: 6.00 Build 0)  -->
<svg version="1.1" id="Capa_1" xmlns="http://www.w3.org/2000/svg" xmlns:xlink="http://www.w3.org/1999/xlink" x="0px" y="0px"
	 viewBox="0 0 60 60" style="enable-background:new 0 0 60 60;" xml:space="preserve">
<style type="text/css">
	.st0{fill:#868686;}
</style>
<g>
	<g>
		<path class="st0" d="M22.7,41.5c-0.1,0-0.2,0-0.3,0c1.3-1.3,2-3.1,2-5v-6c0-0.1,0-0.1,0-0.2s0-0.2,0-0.3v-3.8
			c0-0.6-0.5-1.2-1.2-1.2h-7.6c-3.2,0-5.8,2.6-5.8,5.8v5.5c0,1.9,0.8,3.7,2,5c-0.1,0-0.2,0-0.3,0C6.3,42,2.1,46.5,2.1,51.9v4.8
			c0,0.7,0.5,1.2,1.2,1.2h27.8c0.6,0,1.2-0.5,1.2-1.2v-4.8C32.2,46.5,28,42,22.7,41.5z M12.1,32.3v-1.4c0-1.9,1.5-3.6,3.6-3.6h6.5
			v2.6c0,1.4-1.1,2.4-2.4,2.4H12.1L12.1,32.3z M12.1,34.6h7.6c0.9,0,1.7-0.3,2.4-0.7v2.4c0,2.8-2.2,5-5,5s-5-2.2-5-5V34.6z
			 M19.6,43.7l-2.5,2.5l-2.4-2.5H19.6z M29.9,55.7L29.9,55.7H4.3v-2.2H9c0.6,0,1.2-0.5,1.2-1.2S9.7,51.1,9,51.1H4.4
			c0.4-3.9,3.4-6.9,7.1-7.3l4.8,4.8c0.2,0.2,0.5,0.3,0.8,0.3c0.3,0,0.6-0.1,0.8-0.3l4.8-4.8c4.1,0.5,7.2,4,7.2,8.2L29.9,55.7
			L29.9,55.7z"/>
	</g>
</g>
<g>
	<g>
		<path class="st0" d="M50.4,16.4c-0.1,0-0.2,0-0.3,0c1.3-1.3,2-3.1,2-5v-6c0-0.1,0-0.1,0-0.2c0-0.1,0-0.2,0-0.3V1.2
			C52.2,0.6,51.7,0,51,0h-7.6c-3.2,0-5.8,2.6-5.8,5.8v5.5c0,1.9,0.8,3.7,2,5c-0.1,0-0.2,0-0.3,0c-5.3,0.5-9.6,5-9.6,10.4v4.8
			c0,0.6,0.5,1.2,1.2,1.2H40c0.6,0,1.2-0.5,1.2-1.2s-0.5-1.2-1.2-1.2h-8v-3.7c0-4.1,3.2-7.6,7.2-8.2l4.8,4.8
			c0.2,0.2,0.5,0.3,0.8,0.3s0.6-0.1,0.8-0.3l4.8-4.8c4.1,0.5,7.2,4,7.2,8.2v3.7h-8.3c-0.6,0-1.2,0.5-1.2,1.2s0.6,1.3,1.2,1.3h9.5
			c0.6,0,1.2-0.5,1.2-1.2v-4.8C60,21.3,55.8,16.9,50.4,16.4z M44.9,21l-2.5-2.5h5L44.9,21z M50,11.3c0,2.8-2.2,5-5,5
			c-2.8,0-5-2.2-5-5V9.6h7.6c0.9,0,1.7-0.3,2.4-0.7V11.3z M50,4.9c0,1.4-1.1,2.4-2.4,2.4h-7.6V7.2V5.8c0-1.9,1.5-3.6,3.6-3.6H50V4.9
			L50,4.9z"/>
	</g>
</g>
<g>
	<g>
		<path class="st0" d="M45.7,30.9c-0.2-0.2-0.5-0.3-0.8-0.3s-0.6,0.1-0.8,0.3c-0.2,0.2-0.3,0.5-0.3,0.8s0.1,0.6,0.3,0.8
			s0.5,0.3,0.8,0.3s0.6-0.1,0.8-0.3s0.3-0.5,0.3-0.8C46.1,31.4,46,31.1,45.7,30.9z"/>
	</g>
</g>
<g>
	<g>
		<path class="st0" d="M32.3,15.8l-4.7-4.7V5.7c0-3.1-2.5-5.7-5.7-5.7H7.8C4.6,0,2.1,2.5,2.1,5.7v9.9c0,3.1,2.5,5.6,5.7,5.6H22
			c2.3,0,4.3-1.4,5.2-3.5h4.3c0.5,0,0.9-0.3,1.1-0.7C32.8,16.6,32.7,16.1,32.3,15.8z M26.3,15.5c-0.5,0-1,0.4-1.1,0.9
			C24.9,18,23.5,19,22,19H7.8c-1.8,0-3.4-1.5-3.4-3.4V5.7c0-1.8,1.5-3.4,3.4-3.4H22c1.8,0,3.4,1.5,3.4,3.4v5.9
			c0,0.3,0.1,0.6,0.3,0.8l3.1,3.1L26.3,15.5L26.3,15.5z"/>
	</g>
</g>
<g>
	<g>
		<path class="st0" d="M54.3,36.7H40.1c-2.3,0-4.3,1.4-5.2,3.5h-4.3c-0.5,0-0.9,0.3-1.1,0.7s-0.1,0.9,0.3,1.3l4.7,4.7v5.4
			c0,3.1,2.5,5.7,5.7,5.7h14.2c3.1,0,5.7-2.5,5.7-5.7v-9.9C60,39.2,57.5,36.7,54.3,36.7z M57.8,52.2c0,1.8-1.5,3.4-3.4,3.4H40.1
			c-1.8,0-3.4-1.5-3.4-3.4v-5.9c0-0.3-0.1-0.6-0.3-0.8l-3.1-3.1h2.4c0.5,0,1-0.4,1.1-0.9c0.4-1.5,1.7-2.6,3.3-2.6h14.2
			c1.8,0,3.4,1.5,3.4,3.4L57.8,52.2L57.8,52.2z"/>
	</g>
</g>
<g>
	<g>
		<path class="st0" d="M52.3,44.3c-0.5-0.5-1.2-0.5-1.6,0l-2.9,3l-1.4-1.4c-0.5-0.5-1.2-0.5-1.6,0c-0.5,0.5-0.5,1.2,0,1.6l2.2,2.2
			c0.2,0.2,0.5,0.3,0.8,0.3s0.6-0.1,0.8-0.3l3.8-3.8C52.8,45.5,52.8,44.7,52.3,44.3z"/>
	</g>
</g>
<g>
	<g>
		<path class="st0" d="M20,7.5c-0.1-1.9-1.7-3.5-3.7-3.7c-1.1-0.1-2.1,0.3-3,1.1C12.5,5.7,12,6.7,12,7.8C12,8.4,12.5,9,13.2,9
			c0.6,0,1.2-0.5,1.2-1.2c0-0.5,0.2-0.9,0.5-1.3c0.4-0.3,0.8-0.5,1.3-0.5c0.8,0.1,1.4,0.7,1.5,1.5s-0.5,1.5-1.3,1.7
			c-0.9,0.2-1.5,1-1.5,1.8v0.6c0,0.6,0.5,1.2,1.2,1.2c0.6,0,1.2-0.5,1.2-1.2v-0.3C19,11,20.1,9.4,20,7.5z"/>
	</g>
</g>
<g>
	<g>
		<path class="st0" d="M16.9,15.3c-0.2-0.2-0.5-0.3-0.8-0.3c-0.3,0-0.6,0.1-0.8,0.3c-0.2,0.2-0.3,0.5-0.3,0.8s0.1,0.6,0.3,0.8
			c0.2,0.2,0.5,0.3,0.8,0.3c0.3,0,0.6-0.1,0.8-0.3c0.2-0.2,0.3-0.5,0.3-0.8C17.3,15.9,17.1,15.6,16.9,15.3z"/>
	</g>
</g>
<g>
	<g>
		<path class="st0" d="M14.4,51.4c-0.2-0.2-0.5-0.3-0.8-0.3c-0.3,0-0.6,0.1-0.8,0.3c-0.2,0.2-0.3,0.5-0.3,0.8s0.1,0.6,0.3,0.8
			c0.2,0.2,0.5,0.3,0.8,0.3c0.3,0,0.6-0.1,0.8-0.3s0.3-0.5,0.3-0.8S14.5,51.6,14.4,51.4z"/>
	</g>
</g>
</svg>
