<?xml version="1.0" encoding="utf-8"?>
<!-- Generator: Adobe Illustrator 23.0.2, SVG Export Plug-In . SVG Version: 6.00 Build 0)  -->
<svg version="1.1" id="Layer_1" xmlns="http://www.w3.org/2000/svg" xmlns:xlink="http://www.w3.org/1999/xlink" x="0px" y="0px"
	 viewBox="0 0 60 60" style="enable-background:new 0 0 60 60;" xml:space="preserve">
<style type="text/css">
	.st0{fill:#868686;}
</style>
<g>
	<g>
		<path class="st0" d="M35.7,36.2h-9.4c-6.3,0-11.4,5-11.5,11.2c-0.4,1.9-0.9,5.1,0.4,6.3C18.4,56.9,25.4,58,31,58
			s12.6-1.1,15.8-4.2c1.2-1.2,0.7-4.5,0.4-6.3C47,41.2,42,36.2,35.7,36.2z M45.2,51.9c-2.2,2.2-7.6,3.6-14.1,3.6S19.2,54.1,17,52
			c-0.2-0.4-0.1-2.5,0.2-4.2v-0.2c0-5,4.1-9,9-9v-0.1h9.5c4.9,0,9,4,9,9v0.2C45.2,49.4,45.4,51.5,45.2,51.9L45.2,51.9z"/>
		<path class="st0" d="M31,34.7c5.2,0,9.3-4.1,9.3-9.2s-4.1-9.2-9.3-9.2c-5.1,0-9.3,4.1-9.3,9.2S25.8,34.7,31,34.7z M31,18.7
			c3.8,0,6.9,3.1,6.9,6.8s-3.1,6.8-6.9,6.8s-6.9-3.1-6.9-6.8S27.2,18.7,31,18.7L31,18.7z"/>
		<polygon class="st0" points="29.8,4.6 29.8,13.9 32.1,13.9 32.1,4.4 34.8,7.1 36.4,5.5 31,0 25.6,5.5 27.2,7.1 		"/>
		<polygon class="st0" points="16.1,24.3 16.1,21.9 6.5,21.9 9.2,19.3 7.4,17.7 2,23 7.4,28.5 9.2,26.8 6.6,24.3 		"/>
		<polygon class="st0" points="54.6,17.7 52.8,19.3 55.5,21.9 45.9,21.9 45.9,24.3 55.4,24.3 52.8,26.8 54.6,28.5 60,23 		"/>
	</g>
</g>
</svg>
