<?xml version="1.0" encoding="utf-8"?>
<!-- Generator: Adobe Illustrator 23.0.2, SVG Export Plug-In . SVG Version: 6.00 Build 0)  -->
<svg version="1.1" id="Layer_1" xmlns="http://www.w3.org/2000/svg" xmlns:xlink="http://www.w3.org/1999/xlink" x="0px" y="0px"
	 viewBox="0 0 387 160" style="enable-background:new 0 0 387 160;" xml:space="preserve">
<style type="text/css">
	.st0{display:none;fill:#FFFFFF;}
	.st1{fill:none;stroke:#26292D;stroke-miterlimit:10;}
	.st2{fill:#FFFFFF;stroke:#26292D;stroke-miterlimit:10;}
	.st3{fill:#26292D;}
	.st4{fill:#FFFFFF;}
	.st5{fill:#43566B;}
	.st6{fill:none;stroke:#26292D;stroke-width:2;stroke-miterlimit:10;}
	.st7{fill:#FFFFFF;stroke:#26292D;stroke-width:2;stroke-miterlimit:10;}
	.st8{fill:#26292D;stroke:#FFFFFF;stroke-width:0.5;stroke-miterlimit:10;}
	.st9{fill:none;stroke:#26292D;stroke-width:0.75;stroke-miterlimit:10;}
	.st10{fill:none;stroke:#26292D;stroke-width:0.25;stroke-miterlimit:10;}
</style>
<rect x="-30.5" class="st0" width="449.8" height="159.4"/>
<polygon class="st1" points="114.5,113.6 60.2,113.6 87.5,89.6 "/>
<rect x="301.1" y="19" class="st1" width="19.8" height="58.4"/>
<rect x="303.9" y="21.8" class="st1" width="14.2" height="52.8"/>
<ellipse class="st2" cx="311" cy="48.2" rx="8.6" ry="6.9"/>
<g>
	<path class="st3" d="M308.4,46.3c-0.5,0.5-0.8,1-0.8,1.7c0,0.8,0.4,1.2,1.1,1.2c1.7,0,1.4-3.9,4.3-3.9c1.4,0,2.4,0.8,2.6,2.2h1.5
		v1.1h-1.4c-0.1,0.9-0.5,1.8-1.1,2.5l-1.1-0.7c0.5-0.7,0.9-1.3,0.9-2.1c0-0.9-0.5-1.4-1.2-1.4c-1.9,0-1.6,3.9-4.3,3.9
		c-1.3,0-2.3-0.8-2.5-2.1h-1.5v-1.1h1.4c0.1-0.9,0.6-1.5,1.1-2.1L308.4,46.3z"/>
</g>
<path class="st4" d="M312.7,31.8c0,1.2-1,2.1-2.1,2.1c-1.2,0-2.1-1-2.1-2.1c0-1.2,1-2.1,2.1-2.1C311.7,29.7,312.7,30.6,312.7,31.8z"
	/>
<path class="st3" d="M310.5,34.6c-1.6,0-2.9-1.3-2.9-2.9c0-1.6,1.3-2.9,2.9-2.9c1.6,0,2.9,1.3,2.9,2.9
	C313.4,33.4,312.1,34.6,310.5,34.6z M310.5,30.4c-0.8,0-1.4,0.6-1.4,1.4c0,0.8,0.6,1.4,1.4,1.4c0.8,0,1.4-0.6,1.4-1.4
	C311.9,31,311.3,30.4,310.5,30.4z"/>
<g>
	<circle class="st4" cx="310.5" cy="63.8" r="2.1"/>
	<path class="st5" d="M310.5,66.6c-1.6,0-2.9-1.3-2.9-2.9c0-1.6,1.3-2.9,2.9-2.9c1.6,0,2.9,1.3,2.9,2.9
		C313.4,65.4,312.1,66.6,310.5,66.6z M310.5,62.4c-0.8,0-1.4,0.6-1.4,1.4c0,0.8,0.6,1.4,1.4,1.4c0.8,0,1.4-0.6,1.4-1.4
		C311.9,63,311.3,62.4,310.5,62.4z"/>
</g>
<rect x="275" y="26.6" class="st1" width="22.7" height="61.4"/>
<rect x="279.2" y="30.9" class="st2" width="14.2" height="52.8"/>
<path class="st4" d="M288,40.9c0,1.2-1,2.1-2.1,2.1c-1.2,0-2.1-1-2.1-2.1c0-1.2,1-2.1,2.1-2.1C287,38.7,288,39.7,288,40.9z"/>
<path class="st3" d="M285.8,43.7c-1.6,0-2.9-1.3-2.9-2.9s1.3-2.9,2.9-2.9c1.6,0,2.9,1.3,2.9,2.9S287.4,43.7,285.8,43.7z M285.8,39.5
	c-0.8,0-1.4,0.6-1.4,1.4c0,0.8,0.6,1.4,1.4,1.4c0.8,0,1.4-0.6,1.4-1.4C287.2,40.1,286.6,39.5,285.8,39.5z"/>
<g>
	<path class="st4" d="M288,72.9c0,1.2-1,2.1-2.1,2.1c-1.2,0-2.1-1-2.1-2.1c0-1.2,1-2.1,2.1-2.1C287,70.7,288,71.7,288,72.9z"/>
	<path class="st5" d="M285.8,75.7c-1.6,0-2.9-1.3-2.9-2.9c0-1.6,1.3-2.9,2.9-2.9c1.6,0,2.9,1.3,2.9,2.9
		C288.7,74.4,287.4,75.7,285.8,75.7z M285.8,71.5c-0.8,0-1.4,0.6-1.4,1.4c0,0.8,0.6,1.4,1.4,1.4c0.8,0,1.4-0.6,1.4-1.4
		C287.2,72.1,286.6,71.5,285.8,71.5z"/>
</g>
<g>
	<path class="st3" d="M57,87.4h-1.5v-1.5H57V87.4z M57,84.5h-1.5V83H57V84.5z M57,81.5h-1.5v-1.5H57V81.5z M57,78.6h-1.5v-1.5H57
		V78.6z M57,75.7h-1.5v-1.5H57V75.7z M57,72.8h-1.5v-1.5H57V72.8z M57,69.8h-1.5v-1.5H57V69.8z M57,66.9h-1.5v-1.5H57V66.9z M57,64
		h-1.5v-1.5H57V64z M57,61.1h-1.5v-1.5H57V61.1z M57,58.1h-1.5v-1.5H57V58.1z M57,55.2h-1.5v-1.5H57V55.2z M57,52.3h-1.5v-1.5H57
		V52.3z M57,49.4h-1.5v-1.5H57V49.4z M57,46.5h-1.5V45H57V46.5z M57,43.5h-1.5v-1.5H57V43.5z M57,40.6h-1.5v-1.5H57V40.6z M57,37.7
		h-1.5v-1.5H57V37.7z M57,34.8h-1.5v-1.5H57V34.8z M57,31.8h-1.5v-1.5H57V31.8z M57,28.9h-1.5v-1.5H57V28.9z M57,26h-1.5v-1.5H57V26
		z M55.6,23.1L55.6,23.1L57,23L55.6,23.1z"/>
</g>
<g>
	<path class="st3" d="M143.5,101.3c-16.6,0-30.1-13.8-30.1-30.8s13.5-30.8,30.1-30.8c16.6,0,30.1,13.8,30.1,30.8
		S160.1,101.3,143.5,101.3z M143.5,41.2c-15.8,0-28.6,13.1-28.6,29.3c0,16.2,12.8,29.3,28.6,29.3c15.8,0,28.6-13.1,28.6-29.3
		C172.1,54.4,159.3,41.2,143.5,41.2z"/>
</g>
<ellipse class="st6" cx="143.5" cy="70.6" rx="24.6" ry="25.3"/>
<g>
	<rect x="142.7" y="45.3" class="st3" width="1.5" height="50.6"/>
</g>
<g>
	<path class="st3" d="M141.4,96.1c-8.7-15.9-8.9-35-0.5-51.1l1.3,0.7c-8.2,15.7-8,34.3,0.5,49.8L141.4,96.1z"/>
</g>
<g>
	<path class="st3" d="M145.6,96.1l-1.3-0.7c8.4-15.5,8.6-34.1,0.5-49.8l1.3-0.7C154.5,61.1,154.3,80.2,145.6,96.1z"/>
</g>
<g>
	<rect x="118.9" y="69.8" class="st3" width="49.2" height="1.5"/>
</g>
<g>
	<path class="st3" d="M143.5,66.5c-7.9,0-15.8-0.9-23.7-2.6l0.3-1.4c15.5,3.4,31.2,3.4,46.7,0l0.3,1.4
		C159.3,65.6,151.4,66.5,143.5,66.5z"/>
</g>
<g>
	<path class="st3" d="M166.8,78.9c-15.5-3.4-31.1-3.4-46.6,0l-0.3-1.4c15.7-3.4,31.5-3.4,47.2,0L166.8,78.9z"/>
</g>
<g>
	<path class="st3" d="M143.5,55.7c-5.4,0-10.8-1.5-15.6-4.4l0.8-1.3c9.2,5.5,20.6,5.5,29.7,0l0.8,1.3
		C154.3,54.2,148.9,55.7,143.5,55.7z"/>
</g>
<g>
	<path class="st3" d="M127.6,90.2l-0.8-1.2c10.1-6.7,23.2-6.7,33.3,0l-0.8,1.2C149.7,83.8,137.3,83.8,127.6,90.2z"/>
</g>
<g>
	<path class="st3" d="M138.2,95.9c-8.5-5.5-13.6-15-13.6-25.4s5.1-19.9,13.6-25.4l0.8,1.2c-8.1,5.3-12.9,14.3-12.9,24.2
		c0,9.9,4.8,18.9,12.9,24.2L138.2,95.9z"/>
</g>
<g>
	<path class="st3" d="M148.8,95.9l-0.8-1.2c8.1-5.3,12.9-14.3,12.9-24.3c0-9.9-4.9-18.9-13-24.2l0.8-1.2c8.6,5.5,13.7,15,13.7,25.4
		C162.4,80.9,157.3,90.4,148.8,95.9z"/>
</g>
<rect x="306.5" y="97" class="st1" width="67.5" height="58.8"/>
<rect x="356.9" y="97" class="st1" width="17.1" height="58.8"/>
<g>
	<line class="st3" x1="312.4" y1="104.7" x2="352.4" y2="104.7"/>
	<g>
		<g>
			<rect x="312.4" y="103.9" class="st3" width="0.7" height="1.5"/>
		</g>
		<g>
			<path class="st3" d="M350.9,105.4h-1.5v-1.5h1.5V105.4z M348.7,105.4h-1.5v-1.5h1.5V105.4z M346.5,105.4H345v-1.5h1.5V105.4z
				 M344.3,105.4h-1.5v-1.5h1.5V105.4z M342.1,105.4h-1.5v-1.5h1.5V105.4z M339.8,105.4h-1.5v-1.5h1.5V105.4z M337.6,105.4h-1.5
				v-1.5h1.5V105.4z M335.4,105.4h-1.5v-1.5h1.5V105.4z M333.2,105.4h-1.5v-1.5h1.5V105.4z M330.9,105.4h-1.5v-1.5h1.5V105.4z
				 M328.7,105.4h-1.5v-1.5h1.5V105.4z M326.5,105.4H325v-1.5h1.5V105.4z M324.3,105.4h-1.5v-1.5h1.5V105.4z M322.1,105.4h-1.5v-1.5
				h1.5V105.4z M319.8,105.4h-1.5v-1.5h1.5V105.4z M317.6,105.4h-1.5v-1.5h1.5V105.4z M315.4,105.4h-1.5v-1.5h1.5V105.4z"/>
		</g>
		<g>
			<rect x="351.7" y="103.9" class="st3" width="0.7" height="1.5"/>
		</g>
	</g>
</g>
<g>
	<line class="st3" x1="312.4" y1="148.1" x2="352.4" y2="148.1"/>
	<g>
		<g>
			<rect x="312.4" y="147.4" class="st3" width="0.7" height="1.5"/>
		</g>
		<g>
			<path class="st3" d="M350.9,148.8h-1.5v-1.5h1.5V148.8z M348.7,148.8h-1.5v-1.5h1.5V148.8z M346.5,148.8H345v-1.5h1.5V148.8z
				 M344.3,148.8h-1.5v-1.5h1.5V148.8z M342.1,148.8h-1.5v-1.5h1.5V148.8z M339.8,148.8h-1.5v-1.5h1.5V148.8z M337.6,148.8h-1.5
				v-1.5h1.5V148.8z M335.4,148.8h-1.5v-1.5h1.5V148.8z M333.2,148.8h-1.5v-1.5h1.5V148.8z M330.9,148.8h-1.5v-1.5h1.5V148.8z
				 M328.7,148.8h-1.5v-1.5h1.5V148.8z M326.5,148.8H325v-1.5h1.5V148.8z M324.3,148.8h-1.5v-1.5h1.5V148.8z M322.1,148.8h-1.5v-1.5
				h1.5V148.8z M319.8,148.8h-1.5v-1.5h1.5V148.8z M317.6,148.8h-1.5v-1.5h1.5V148.8z M315.4,148.8h-1.5v-1.5h1.5V148.8z"/>
		</g>
		<g>
			<rect x="351.7" y="147.4" class="st3" width="0.7" height="1.5"/>
		</g>
	</g>
</g>
<path class="st1" d="M382.3,132.9h-16.4c-2.1,0-3.8-1.7-3.8-3.8v-11.5h20.2c2.1,0,3.8,1.7,3.8,3.8v7.7
	C386.2,131.2,384.5,132.9,382.3,132.9z"/>
<path class="st2" d="M61.2,155.1H23.8c-1.5,0-2.6-1.2-2.6-2.6V89.7c0-1.5,1.2-2.6,2.6-2.6h37.4c1.5,0,2.6,1.2,2.6,2.6v62.7
	C63.8,153.9,62.6,155.1,61.2,155.1z"/>
<rect x="1.3" y="117.9" transform="matrix(6.123234e-17 -1 1 6.123234e-17 -86.5785 155.5804)" class="st1" width="66.5" height="6.3"/>
<g>
	<path class="st3" d="M43.8,149.7c0-8.1,0-16.1,0-24.2"/>
	<rect x="43.1" y="125.5" class="st3" width="1.5" height="24.2"/>
</g>
<g>
	<path class="st3" d="M43.8,121.9c0-8.1,0-16.1,0-24.2"/>
	<rect x="43.1" y="97.7" class="st3" width="1.5" height="24.2"/>
</g>
<g>
	<path class="st3" d="M51.9,135.1c0-8.1,0-16.1,0-24.2"/>
	<rect x="51.2" y="110.9" class="st3" width="1.5" height="24.2"/>
</g>
<polygon class="st2" points="266.1,58.6 266.1,155.8 339.6,155.8 339.6,63.1 331.1,58.6 "/>
<polygon class="st3" points="331.1,58.6 339.6,63.1 332.5,65.2 "/>
<rect x="275.1" y="107" class="st1" width="3.4" height="10.3"/>
<rect x="283.2" y="98.5" class="st1" width="3.4" height="18.9"/>
<rect x="291.2" y="91.7" class="st1" width="3.4" height="25.6"/>
<rect x="299.2" y="85.1" class="st1" width="3.4" height="32.3"/>
<rect x="307.3" y="80.5" class="st1" width="3.4" height="36.8"/>
<rect x="315.3" y="77.4" class="st1" width="3.4" height="40"/>
<rect x="323.4" y="70.7" class="st1" width="3.4" height="46.6"/>
<g>
	<line class="st3" x1="331.7" y1="122.6" x2="273.7" y2="122.6"/>
	<rect x="273.7" y="121.9" class="st3" width="58" height="1.5"/>
</g>
<rect x="328.8" y="147.4" class="st1" width="1.5" height="1.5"/>
<rect x="310.6" y="147.4" class="st1" width="16.8" height="1.5"/>
<rect x="307.6" y="147.4" class="st1" width="1.5" height="1.5"/>
<rect x="328.8" y="135" class="st1" width="1.5" height="1.5"/>
<rect x="310.6" y="135" class="st1" width="16.8" height="1.5"/>
<rect x="307.6" y="135" class="st1" width="1.5" height="1.5"/>
<rect x="328.8" y="140.8" class="st1" width="1.5" height="1.5"/>
<rect x="310.6" y="140.8" class="st1" width="16.8" height="1.5"/>
<rect x="307.6" y="140.8" class="st1" width="1.5" height="1.5"/>
<rect x="275.9" y="135.2" class="st1" width="14.3" height="13.1"/>
<rect x="135.1" y="70" class="st4" width="99.5" height="67.8"/>
<rect x="134.2" y="68.7" class="st1" width="101.5" height="70"/>
<rect x="134.2" y="68.7" class="st7" width="101.5" height="70"/>
<g>
	<rect x="138.7" y="79" class="st3" width="92.5" height="1.5"/>
</g>
<polygon class="st6" points="198.4,151.5 173.1,151.5 177.1,138.6 194.4,138.6 "/>
<rect x="168.6" y="151.5" class="st7" width="34.3" height="4.3"/>
<polygon class="st2" points="47.1,93 37.7,100 28.3,93 28.3,83.6 28.3,77.7 47.1,77.7 47.1,83.6 "/>
<g>
	<path class="st1" d="M37.7,92.3c-0.3,0-0.7-0.1-0.9-0.3l-3.2-2.8c-0.6-0.5-0.7-1.4-0.2-2.1c0.5-0.6,1.4-0.7,2.1-0.2l1.9,1.6
		l3.1-5.4c0.4-0.7,1.3-0.9,2-0.5c0.7,0.4,0.9,1.3,0.5,2l-4,6.9c-0.2,0.4-0.6,0.6-1,0.7C37.8,92.3,37.8,92.3,37.7,92.3z"/>
</g>
<rect x="64.3" y="118" class="st1" width="7.1" height="27.6"/>
<rect x="57.8" y="140.2" class="st2" width="17.1" height="5.5"/>
<rect x="83.8" y="117.3" class="st1" width="7.1" height="27.5"/>
<rect x="105.5" y="118" class="st1" width="7.1" height="26.7"/>
<rect x="53.8" y="145.5" class="st2" width="67.5" height="4.4"/>
<rect x="48.9" y="149.2" class="st2" width="75.8" height="5.9"/>
<rect x="55.3" y="112.2" class="st2" width="64.5" height="5.9"/>
<g>
	<path class="st5" d="M101.2,108.7c-0.2,0-0.3-0.1-0.5-0.2l-6.1-5.4c-0.3-0.3-0.3-0.7-0.1-1c0.3-0.3,0.7-0.3,1-0.1l6.1,5.4
		c0.3,0.3,0.3,0.7,0.1,1C101.6,108.6,101.4,108.7,101.2,108.7z"/>
</g>
<g>
	<path class="st5" d="M80.3,102.5c-0.2,0-0.4-0.1-0.6-0.3c-0.3-0.3-0.2-0.8,0.1-1l7.5-6.5l5.4,4.8c0.3,0.3,0.3,0.7,0.1,1
		c-0.3,0.3-0.7,0.3-1,0.1l-4.4-3.9l-6.5,5.7C80.7,102.4,80.5,102.5,80.3,102.5z"/>
</g>
<g>
	<path class="st5" d="M71.8,109.9c-0.2,0-0.4-0.1-0.6-0.3c-0.3-0.3-0.2-0.8,0.1-1l5.8-5c0.3-0.3,0.8-0.2,1,0.1
		c0.3,0.3,0.2,0.8-0.1,1l-5.8,5C72.1,109.9,71.9,109.9,71.8,109.9z"/>
</g>
<path class="st2" d="M71,88c5.3,0.5,7.8,0.4,10.3-4.1h12.6c2.5,4.4,5.8,4.6,10.4,4c3.1,19.7-3.5,30.7-16.6,39.7
	C74.3,118.7,67.5,106.9,71,88z"/>
<path class="st1" d="M87.5,120.8c-3.5-2.8-13.7-12.2-11.9-26.5c2.2-0.1,6.2-0.9,8.9-4.7h6.1c2.7,3.8,6.7,4.6,8.9,4.7
	C101.2,108.6,91,118.1,87.5,120.8z"/>
<g>
	<path class="st3" d="M86.5,112.4v-2c-2.4-0.4-3.6-1.8-3.6-3.8h2.7c0.2,1.2,0.9,1.9,2.2,1.9c1.4,0,1.9-0.7,1.9-1.7
		c0-1-0.5-1.6-2.5-2.3c-3.1-1.1-4.2-2.3-4.2-4.2c0-2.4,1.6-3.5,3.5-3.8v-1.6H89v1.6c2.1,0.4,3.2,1.7,3.3,3.6h-2.8
		c-0.1-0.8-0.5-1.8-1.9-1.8c-1.1,0-1.7,0.6-1.7,1.5c0,0.8,0.4,1.3,2.6,2.1c3.1,1.1,4.1,2.4,4.1,4.4c0,2.4-1.5,3.6-3.6,4v2H86.5z"/>
</g>
<path class="st6" d="M200.8,58.6h-4.5v-3.9c0-5.3-4.3-9.6-9.6-9.6h-1.9c-5.3,0-9.6,4.3-9.6,9.6v3.9h-4.5v-3.9
	c0-7.8,6.3-14.1,14.1-14.1h1.9c7.8,0,14.1,6.3,14.1,14.1V58.6z"/>
<path class="st7" d="M202.3,89.1h-33.2c-2.6,0-4.6-2.1-4.6-4.6v-22c0-2.6,2.1-4.6,4.6-4.6h33.2c2.6,0,4.6,2.1,4.6,4.6v22
	C206.9,87,204.9,89.1,202.3,89.1z"/>
<rect x="176.3" y="65.7" class="st1" width="18.6" height="4"/>
<g>
	<g>
		<rect x="176.3" y="73.4" class="st1" width="4.8" height="1.5"/>
	</g>
	<g>
		<rect x="183.3" y="73.4" class="st1" width="4.8" height="1.5"/>
	</g>
	<g>
		<rect x="190.4" y="73.4" class="st1" width="4.8" height="1.5"/>
	</g>
</g>
<g>
	<g>
		<rect x="176.3" y="77" class="st1" width="4.8" height="1.5"/>
	</g>
	<g>
		<rect x="183.3" y="77" class="st1" width="4.8" height="1.5"/>
	</g>
	<g>
		<rect x="190.4" y="77" class="st1" width="4.8" height="1.5"/>
	</g>
</g>
<g>
	<g>
		<rect x="176.3" y="80.5" class="st1" width="4.8" height="1.5"/>
	</g>
	<g>
		<rect x="183.3" y="80.5" class="st1" width="4.8" height="1.5"/>
	</g>
	<g>
		<rect x="190.4" y="80.5" class="st1" width="4.8" height="1.5"/>
	</g>
</g>
<path class="st2" d="M62.4,58.4H27.1c-1.4-4.2-5.3-7.3-10-7.3c-5.8,0-10.5,4.7-10.5,10.5c0,5.8,4.7,10.5,10.5,10.5
	c4.7,0,8.7-3.1,10-7.3h5.4v-2.4h3.2v2.4h1.6l1.6-2.4h3.2v2.4h5.7V69h3.2v-4.1h3.2v6.5h3.2v-6.5h4.9V58.4z"/>
<g>
	<path class="st3" d="M15,60c-1.5,0-2.8-1.2-2.8-2.8s1.2-2.8,2.8-2.8c1.5,0,2.8,1.2,2.8,2.8S16.6,60,15,60z M15,55.9
		c-0.7,0-1.3,0.6-1.3,1.3c0,0.7,0.6,1.3,1.3,1.3c0.7,0,1.3-0.6,1.3-1.3C16.3,56.5,15.8,55.9,15,55.9z"/>
</g>
<g>
	<rect x="12.4" y="143.3" class="st3" width="2" height="2"/>
	<rect x="12.4" y="139.5" class="st3" width="2" height="2"/>
	<rect x="12.4" y="135.8" class="st3" width="2" height="2"/>
</g>
<rect x="153.8" y="99.3" class="st1" width="63.8" height="8.1"/>
<rect x="153.8" y="114" class="st1" width="63.8" height="8.1"/>
<path class="st1" d="M14.6,38.3c3.8,0,6.8,2.7,6.8,6c0-3.3,3.1-6,6.8-6s6.8,2.7,6.8,6c0-3.3,3.1-6,6.8-6c3.8,0,6.8,2.7,6.8,6
	c0-3.3,3.1-6,6.8-6s6.8,2.7,6.8,6c0-3.3,3.1-6,6.8-6c3.8,0,6.8,2.7,6.8,6c0-3.3,3.1-6,6.8-6c3.8,0,6.8,2.7,6.8,6c0-3.3,3.1-6,6.8-6
	c2.7,0,5.1,1.4,6.2,3.5C99,22,79.5,6.8,56,6.8c-22.8,0-41.8,14.3-46.3,33.2C11,39,12.7,38.3,14.6,38.3z"/>
<g>
	<path class="st4" d="M20.7,25.9c-0.1,0-0.2,0-0.2-0.1c-0.2-0.1-0.2-0.4,0-0.5c5.8-6.9,14-12,23.2-14.4c0.2-0.1,0.4,0.1,0.4,0.3
		c0.1,0.2-0.1,0.4-0.3,0.4C34.7,14,26.6,19,21,25.8C20.9,25.9,20.8,25.9,20.7,25.9z"/>
</g>
<g>
	<path class="st3" d="M102.9,28.7c-0.3,0-0.5-0.1-0.6-0.4C93.5,12.8,75.8,3.2,56,3.2c-19.2,0-36.7,9.3-45.7,24.3
		c-0.2,0.3-0.7,0.5-1,0.3c-0.3-0.2-0.5-0.7-0.3-1C18.3,11.3,36.3,1.7,56,1.7c20.3,0,38.5,9.9,47.5,25.9c0.2,0.4,0.1,0.8-0.3,1
		C103.1,28.7,103,28.7,102.9,28.7z"/>
</g>
<g>
	<path class="st3" d="M169.5,36.2c-1.6,0-2.9-1.3-2.9-2.9c0-1.6,1.3-2.9,2.9-2.9c1.6,0,2.9,1.3,2.9,2.9
		C172.4,34.9,171.1,36.2,169.5,36.2z M169.5,31.8c-0.8,0-1.5,0.7-1.5,1.5s0.7,1.5,1.5,1.5c0.8,0,1.5-0.7,1.5-1.5
		S170.3,31.8,169.5,31.8z"/>
</g>
<g>
	<path class="st3" d="M215.5,47.2c-1.6,0-2.9-1.3-2.9-2.9s1.3-2.9,2.9-2.9c1.6,0,2.9,1.3,2.9,2.9S217.1,47.2,215.5,47.2z
		 M215.5,42.8c-0.8,0-1.5,0.7-1.5,1.5s0.7,1.5,1.5,1.5c0.8,0,1.5-0.7,1.5-1.5S216.3,42.8,215.5,42.8z"/>
</g>
<g>
	<path class="st3" d="M4,82.6c-2.2,0-4-1.8-4-4c0-2.2,1.8-4,4-4s4,1.8,4,4C8,80.8,6.2,82.6,4,82.6z M4,76c-1.4,0-2.6,1.1-2.6,2.6
		c0,1.4,1.1,2.6,2.6,2.6s2.6-1.1,2.6-2.6C6.5,77.2,5.4,76,4,76z"/>
</g>
<g>
	<path class="st3" d="M330,41.8c0-0.9,0.7-1.7,1.7-1.7c0.9,0,1.7,0.7,1.7,1.7c0,0.9-0.7,1.7-1.7,1.7C330.8,43.5,330,42.7,330,41.8z"
		/>
	<path class="st3" d="M330,34.2c0-0.9,0.7-1.7,1.7-1.7c0.9,0,1.7,0.7,1.7,1.7c0,0.9-0.7,1.7-1.7,1.7C330.8,35.9,330,35.1,330,34.2z"
		/>
	<path class="st3" d="M330,26.6c0-0.9,0.7-1.7,1.7-1.7c0.9,0,1.7,0.7,1.7,1.7c0,0.9-0.7,1.7-1.7,1.7C330.8,28.3,330,27.6,330,26.6z"
		/>
</g>
<g>
	<path class="st3" d="M85.4,61.9c-0.3-0.3-0.6-0.4-1-0.4c-0.5,0-0.7,0.2-0.7,0.7c0,1,2.3,0.8,2.3,2.5c0,0.8-0.5,1.4-1.3,1.5V67H84
		v-0.8c-0.5-0.1-1.1-0.3-1.5-0.6l0.4-0.7c0.4,0.3,0.8,0.5,1.3,0.5c0.5,0,0.8-0.3,0.8-0.7c0-1.1-2.3-1-2.3-2.5c0-0.8,0.5-1.3,1.3-1.5
		v-0.9h0.7v0.8c0.5,0.1,0.9,0.3,1.2,0.7L85.4,61.9z"/>
</g>
<g>
	<g>
		<polygon class="st3" points="338.1,54.3 336.9,53.3 344.7,43.8 350.3,48.9 358.2,39.1 363.6,43.6 370.9,33.2 372.1,34 363.9,45.7 
			358.4,41.2 350.5,51 344.9,45.9 		"/>
	</g>
	<g>
		<path class="st3" d="M374.1,30c-0.6,2.1-1,5-0.7,7.1l-2.1-3l-3.6-1C369.7,32.6,372.2,31.2,374.1,30z"/>
	</g>
</g>
<ellipse class="st2" cx="286.9" cy="55.5" rx="9.3" ry="7.7"/>
<g>
	<path class="st3" d="M284.3,53.6c-0.5,0.5-0.8,1-0.8,1.7c0,0.8,0.4,1.2,1.1,1.2c1.7,0,1.4-3.9,4.3-3.9c1.4,0,2.4,0.8,2.6,2.2h1.5
		v1.1h-1.4c-0.1,0.9-0.5,1.8-1.1,2.5l-1.1-0.7c0.5-0.7,0.9-1.3,0.9-2.1c0-0.9-0.5-1.4-1.2-1.4c-1.9,0-1.6,3.9-4.3,3.9
		c-1.3,0-2.3-0.8-2.5-2.1h-1.5v-1.1h1.4c0.1-0.9,0.6-1.5,1.1-2.1L284.3,53.6z"/>
</g>
<circle class="st1" cx="84.2" cy="63.4" r="6.2"/>
<rect x="79" y="140.2" class="st2" width="17.1" height="5.5"/>
<rect x="101.7" y="140.2" class="st2" width="17.1" height="5.5"/>
<path class="st8" d="M266,9.9h-36.5c-2,0-3.7,1.6-3.7,3.7v33.6c0,2,1.6,3.7,3.7,3.7h2.2v2.9h1.5v-2.9h10.2v2.9h1.5v-2.9H266
	c2,0,3.7-1.6,3.7-3.7V13.5C269.6,11.5,268,9.9,266,9.9z M237.5,18.6h-7.3v-2.9h7.3V18.6z M230.1,20.1h7.3v8H236v-2.9
	c0-1.2-1-2.2-2.2-2.2s-2.2,1-2.2,2.2v2.9h-1.5V20.1z M233.1,40.5V25.2c0-0.4,0.3-0.7,0.7-0.7s0.7,0.3,0.7,0.7v8v4.4h1.5v-4.4
	c0-0.4,0.3-0.7,0.7-0.7s0.7,0.3,0.7,0.7v4.4h1.5v-4.4c0-0.4,0.3-0.7,0.7-0.7c0.4,0,0.7,0.3,0.7,0.7v4.4h1.5v-4.4
	c0-0.4,0.3-0.7,0.7-0.7s0.7,0.3,0.7,0.7v13.2h-10.2v-0.7c0-0.2-0.1-0.4-0.2-0.5l-2.7-2.7v-3.8l1.5-1.5v3.4H233.1z M233.1,49.3v-1.5
	h10.2v1.5H233.1z M268.1,47.1c0,1.2-1,2.2-2.2,2.2h-21.2v-2.2V33.2c0-1.2-1-2.2-2.2-2.2c-0.6,0-1.1,0.2-1.5,0.6
	c-0.4-0.4-0.9-0.6-1.5-0.6c-0.6,0-1.1,0.2-1.5,0.6c-0.4-0.4-0.9-0.6-1.5-0.6c-0.3,0-0.5,0.1-0.7,0.1v-1.6h2.2c0.4,0,0.7-0.3,0.7-0.7
	v-9.5V15c0-0.4-0.3-0.7-0.7-0.7h-8.8c-0.4,0-0.7,0.3-0.7,0.7v4.4v9.5c0,0.4,0.3,0.7,0.7,0.7h2.2v5.5l-2.7,2.7
	c-0.1,0.1-0.2,0.3-0.2,0.5v4.4c0,0.2,0.1,0.4,0.2,0.5l2.7,2.7v1.2v2.2h-2.2c-1.2,0-2.2-1-2.2-2.2V13.5c0-1.2,1-2.2,2.2-2.2H266
	c1.2,0,2.2,1,2.2,2.2V47.1z"/>
<path class="st9" d="M266,12.8h-22.7c-0.4,0-0.7,0.3-0.7,0.7V23c0,0.4,0.3,0.7,0.7,0.7H266c0.4,0,0.7-0.3,0.7-0.7v-9.5
	C266.7,13.1,266.4,12.8,266,12.8z"/>
<path class="st10" d="M258.6,28.1h-4.4c-0.4,0-0.7,0.3-0.7,0.7v2.9c0,0.4,0.3,0.7,0.7,0.7h4.4c0.4,0,0.7-0.3,0.7-0.7v-2.9
	C259.4,28.5,259.1,28.1,258.6,28.1z"/>
<path class="st10" d="M266,28.1h-4.4c-0.4,0-0.7,0.3-0.7,0.7v2.9c0,0.4,0.3,0.7,0.7,0.7h4.4c0.4,0,0.7-0.3,0.7-0.7v-2.9
	C266.7,28.5,266.4,28.1,266,28.1z"/>
<path class="st10" d="M251.3,28.1H247c-0.4,0-0.7,0.3-0.7,0.7v2.9c0,0.4,0.3,0.7,0.7,0.7h4.4c0.4,0,0.7-0.3,0.7-0.7v-2.9
	C252.1,28.5,251.7,28.1,251.3,28.1z"/>
<path class="st10" d="M256.7,15.7h-4.2c-0.4,0-0.7,0.3-0.7,0.7v2.9c0,0.4,0.3,0.7,0.7,0.7h4.2c0.4,0,0.7-0.3,0.7-0.7v-2.9
	C257.4,16,257.1,15.7,256.7,15.7z"/>
<path class="st10" d="M263.8,15.7h-4.2c-0.4,0-0.7,0.3-0.7,0.7v2.9c0,0.4,0.3,0.7,0.7,0.7h4.2c0.4,0,0.7-0.3,0.7-0.7v-2.9
	C264.5,16,264.2,15.7,263.8,15.7z"/>
<path class="st10" d="M249.7,15.7h-4.2c-0.4,0-0.7,0.3-0.7,0.7v2.9c0,0.4,0.3,0.7,0.7,0.7h4.2c0.4,0,0.7-0.3,0.7-0.7v-2.9
	C250.4,16,250.1,15.7,249.7,15.7z"/>
<path class="st10" d="M258.6,34h-4.4c-0.4,0-0.7,0.3-0.7,0.7v2.9c0,0.4,0.3,0.7,0.7,0.7h4.4c0.4,0,0.7-0.3,0.7-0.7v-2.9
	C259.4,34.3,259.1,34,258.6,34z"/>
<path class="st10" d="M266,34h-4.4c-0.4,0-0.7,0.3-0.7,0.7v2.9c0,0.4,0.3,0.7,0.7,0.7h4.4c0.4,0,0.7-0.3,0.7-0.7v-2.9
	C266.7,34.3,266.4,34,266,34z"/>
<path class="st10" d="M251.3,34H247c-0.4,0-0.7,0.3-0.7,0.7v2.9c0,0.4,0.3,0.7,0.7,0.7h4.4c0.4,0,0.7-0.3,0.7-0.7v-2.9
	C252.1,34.3,251.7,34,251.3,34z"/>
<path class="st10" d="M258.6,39.8h-4.4c-0.4,0-0.7,0.3-0.7,0.7v2.9c0,0.4,0.3,0.7,0.7,0.7h4.4c0.4,0,0.7-0.3,0.7-0.7v-2.9
	C259.4,40.1,259.1,39.8,258.6,39.8z"/>
<path class="st10" d="M266,39.8h-4.4c-0.4,0-0.7,0.3-0.7,0.7v2.9c0,0.4,0.3,0.7,0.7,0.7h4.4c0.4,0,0.7-0.3,0.7-0.7v-2.9
	C266.7,40.1,266.4,39.8,266,39.8z"/>
<path class="st10" d="M251.3,39.8H247c-0.4,0-0.7,0.3-0.7,0.7v2.9c0,0.4,0.3,0.7,0.7,0.7h4.4c0.4,0,0.7-0.3,0.7-0.7v-2.9
	C252.1,40.1,251.7,39.8,251.3,39.8z"/>
</svg>
