<?xml version="1.0" encoding="utf-8"?>
<!-- Generator: Adobe Illustrator 23.0.2, SVG Export Plug-In . SVG Version: 6.00 Build 0)  -->
<svg version="1.1" id="Layer_3" xmlns="http://www.w3.org/2000/svg" xmlns:xlink="http://www.w3.org/1999/xlink" x="0px" y="0px"
	 viewBox="0 0 387 300" style="enable-background:new 0 0 387 300;" xml:space="preserve">
<style type="text/css">
	.st0{fill:none;stroke:#26292D;stroke-width:2;stroke-linecap:round;stroke-linejoin:round;stroke-miterlimit:10;}
	
		.st1{fill:none;stroke:#26292D;stroke-width:2;stroke-linecap:round;stroke-linejoin:round;stroke-miterlimit:10;stroke-dasharray:8;}
</style>
<path class="st0" d="M167.3,109.3c3.9,0.3,7.4,2.3,8.6,6.7c1.3,4.8-1.4,9.3-1.6,14.1c-0.2,4.6,2.6,8.6,2,13.2
	c-0.6,4.2-4.4,7.8-9,8.2c-19,1.9-19.8-29-10-38.8C159.7,110.4,163.6,109,167.3,109.3z"/>
<g>
	<polyline class="st0" points="327.2,124.9 333.9,117 332.2,115.6 335.5,111.6 332.6,109.2 329.3,113.1 327.6,111.7 308.5,134.5 	
		"/>
	<line class="st0" x1="314.7" y1="139.8" x2="317" y2="137.1"/>
	
		<rect x="331.7" y="107.8" transform="matrix(0.766 0.6428 -0.6428 0.766 148.6261 -189.7393)" class="st0" width="6.5" height="2.9"/>
	
		<rect x="304.9" y="137" transform="matrix(0.766 0.6428 -0.6428 0.766 161.8564 -166.8252)" class="st0" width="10.4" height="3.9"/>
	<g>
		<polyline class="st0" points="306.2,141.4 303.2,145.1 300.9,143.2 304,139.6 		"/>
		<polyline class="st0" points="310.5,145 305.9,150.5 303.7,148.7 308.3,143.2 		"/>
	</g>
	<circle class="st0" cx="323.1" cy="132.4" r="4.7"/>
	<path class="st0" d="M325.1,132.4c0,1.1-0.9,2-2,2c-1.1,0-2-0.9-2-2c0-1.1,0.9-2,2-2C324.2,130.4,325.1,131.3,325.1,132.4z"/>
	<path class="st0" d="M323.9,137.1c1.8,1.9,2.8,4.5,2.8,7.3c0,6.1-5.1,11.4-11.4,11.4h-16.4v5.7h37.6v-5.7h-9.6
		c3-2.9,4.9-7,4.9-11.4c0-4.1-1.6-7.8-4.1-10.6"/>
</g>
<g>
	<circle class="st0" cx="266.8" cy="233.6" r="13.9"/>
	<path class="st0" d="M258,238.3c-2-3-1.9-6.9,0.1-9.8"/>
	<path class="st0" d="M279.9,220.5c-7.3-7.3-19-7.3-26.3,0c-7.3,7.3-7.3,19,0,26.3c6.3,6.3,15.9,7.1,23.1,2.6l13.2,13.2
		c1.1,1.1,2.8,1.1,3.8,0l1.9-1.9c1.1-1.1,1.1-2.8,0-3.8l-13.2-13.2C287,236.4,286.1,226.8,279.9,220.5z"/>
	<line class="st0" x1="283.6" y1="255.1" x2="288.3" y2="250.5"/>
</g>
<g>
	<path class="st0" d="M181,30.7c-1.3,0.4-2.6,0.6-4.1,0.6c-7.9,0-14.3-6.4-14.3-14.3S169,2.6,176.9,2.6c6.2,0,11.4,3.9,13.4,9.3"/>
	<line class="st0" x1="176.9" y1="3.6" x2="176.9" y2="30.4"/>
	<g>
		<path class="st0" d="M207.6,38.4l-17.8-4.8c-4.9-1.3-7.8-6.3-6.5-11.2h0c1.3-4.9,6.3-7.8,11.2-6.5l17.8,4.8
			c4.9,1.3,7.8,6.3,6.5,11.2l0,0C217.5,36.8,212.5,39.7,207.6,38.4z"/>
		<line class="st0" x1="203.3" y1="19" x2="198.9" y2="35.3"/>
	</g>
</g>
<g>
	<path class="st0" d="M323,74.4c0-6-4.8-10.9-10.8-11c-1.1-3.4-4.3-5.9-8.1-5.9c-2.7,0-5.1,1.3-6.6,3.2c-1-0.7-2.2-1.1-3.5-1.1
		c-3.1,0-5.6,2.3-5.9,5.3c-4.3,1.5-7.4,5.6-7.4,10.4c0,1.3,0.2,2.6,0.7,3.8c-1.5,1.1-2.4,2.8-2.4,4.8c0,2.8,1.9,5.1,4.5,5.8
		c0.8,3.8,4.2,6.7,8.3,6.7c1.2,0,2.4-0.3,3.4-0.7c1.4,1.3,3.3,2.1,5.3,2.1c3.2,0,6-2,7.1-4.8c1.4,0.6,3,1,4.6,1c6.1,0,11-4.9,11-11
		c0-1.5-0.3-3-0.9-4.3C322.7,77.4,323,75.9,323,74.4z"/>
	<path class="st0" d="M302.9,69c0,1.4-1.1,2.5-2.5,2.5c-1.4,0-2.5-1.1-2.5-2.5c0-1.4,1.1-2.5,2.5-2.5
		C301.8,66.5,302.9,67.6,302.9,69z"/>
	<path class="st0" d="M312.6,78c0,1.4-1.1,2.5-2.5,2.5s-2.5-1.1-2.5-2.5c0-1.4,1.1-2.5,2.5-2.5S312.6,76.6,312.6,78z"/>
	<path class="st0" d="M316.9,87.2c0,1.4-1.1,2.5-2.5,2.5s-2.5-1.1-2.5-2.5c0-1.4,1.1-2.5,2.5-2.5S316.9,85.8,316.9,87.2z"/>
	<path class="st0" d="M292.1,74.9c0,1.4-1.1,2.5-2.5,2.5s-2.5-1.1-2.5-2.5c0-1.4,1.1-2.5,2.5-2.5S292.1,73.5,292.1,74.9z"/>
	<path class="st0" d="M302.4,79.2c0,1.4-1.1,2.5-2.5,2.5c-1.4,0-2.5-1.1-2.5-2.5c0-1.4,1.1-2.5,2.5-2.5
		C301.2,76.6,302.4,77.8,302.4,79.2z"/>
	<path class="st0" d="M294.1,87.2c0,1.4-1.1,2.5-2.5,2.5c-1.4,0-2.5-1.1-2.5-2.5c0-1.4,1.1-2.5,2.5-2.5
		C293,84.6,294.1,85.8,294.1,87.2z"/>
</g>
<g>
	<g>
		<path class="st0" d="M151.2,276.9c-1,0.9-1.8,0.1-2.9-0.1c-1-0.2-2,0-3,0.2c-1.9,0.4-3.7,0.7-5.6,0.9c-4.4,0.4-9,0.8-13.3-0.4
			c-8.3-2.2-14.3-9.3-15.7-17.6c-0.8-4.6-1.1-9.6,0.1-14.1c0.7-2.5,3.1-8.7,6.3-5.7c6,5.7,15.4,6,22.1,10.9c4,2.9,7.1,7,9.1,11.6
			c1.1,2.5,1.9,5.2,2.5,7.8C151.1,271.8,152.4,275.7,151.2,276.9C150.6,277.4,151.8,276.3,151.2,276.9z"/>
	</g>
	
		<ellipse transform="matrix(0.1611 -0.9869 0.9869 0.1611 -150.0864 338.1725)" class="st0" cx="123.9" cy="257.4" rx="7.2" ry="7.2"/>
	
		<ellipse transform="matrix(0.7071 -0.7071 0.7071 0.7071 -149.3631 177.2606)" class="st0" cx="139.3" cy="268.9" rx="4.1" ry="4.1"/>
</g>
<g>
	<path class="st0" d="M146.7,61.2c-3.7,0.6-7.9-5.2-9.4-12.7c-0.9-4.4-0.7-8.5,0.4-11.3c-1.6-2.5-2.6-6.6-2.6-11.1
		c0-7.7,3-14,6.7-14c3.7,0,6.7,6.2,6.7,14c0,4.1-0.9,7.9-2.2,10.4c1.9,2.3,3.5,5.9,4.3,10C152.1,54.1,150.4,60.7,146.7,61.2z"/>
	<ellipse class="st0" cx="141.5" cy="25" rx="2.5" ry="5.3"/>
</g>
<g>
	<g>
		<path class="st0" d="M307.6,182.7c8.5-2.6,18.2,1.7,21.4,9.8c4.1,10.7-4.5,23.1-15.8,25.1c-7.3,1.2-13.5-3.2-16.2-9.6
			C293,198.7,296.9,185.9,307.6,182.7"/>
		<line class="st0" x1="312.7" y1="181.1" x2="312.7" y2="172.7"/>
		<line class="st0" x1="321.4" y1="182.9" x2="324.9" y2="175.3"/>
		<line class="st0" x1="326.3" y1="186.9" x2="332.8" y2="181.6"/>
		<line class="st0" x1="329.7" y1="193.5" x2="337.7" y2="191.2"/>
		<line class="st0" x1="330.4" y1="200.8" x2="338.7" y2="201.7"/>
		<line class="st0" x1="328.3" y1="208" x2="336.1" y2="210.7"/>
		<line class="st0" x1="324.2" y1="212.8" x2="330.4" y2="218.4"/>
		<line class="st0" x1="319.3" y1="216.2" x2="322.4" y2="224"/>
		<line class="st0" x1="312.5" y1="218.6" x2="312.9" y2="226.9"/>
		<line class="st0" x1="304" y1="217" x2="301" y2="224.7"/>
		<line class="st0" x1="298.9" y1="212.8" x2="292.5" y2="218.1"/>
		<line class="st0" x1="295.5" y1="206" x2="287.8" y2="209.2"/>
		<line class="st0" x1="294.8" y1="199.2" x2="286.5" y2="198.6"/>
		<line class="st0" x1="296.7" y1="191.4" x2="288.6" y2="189.5"/>
		<line class="st0" x1="299.6" y1="186.6" x2="293.7" y2="180.8"/>
		<line class="st0" x1="305.5" y1="182.7" x2="302.7" y2="174.8"/>
	</g>
	<circle class="st0" cx="307" cy="192.7" r="1.8"/>
	<circle class="st0" cx="313.6" cy="201.7" r="1.8"/>
	<path class="st0" d="M317.1,189.4c0,1-0.8,1.8-1.8,1.8c-1,0-1.8-0.8-1.8-1.8c0-1,0.8-1.8,1.8-1.8
		C316.3,187.6,317.1,188.4,317.1,189.4z"/>
	<circle class="st0" cx="310.6" cy="212" r="1.8"/>
	<path class="st0" d="M322.3,205.1c0,1-0.8,1.8-1.8,1.8c-1,0-1.8-0.8-1.8-1.8c0-1,0.8-1.8,1.8-1.8
		C321.5,203.4,322.3,204.2,322.3,205.1z"/>
	<circle class="st0" cx="302.7" cy="202.4" r="1.8"/>
	<circle class="st0" cx="322.4" cy="196" r="1.8"/>
</g>
<g>
	
		<ellipse transform="matrix(0.1662 -0.9861 0.9861 0.1662 85.8913 296.7712)" class="st0" cx="218.4" cy="97.6" rx="11.8" ry="11.8"/>
	<g>
		<g>
			<g>
				
					<ellipse transform="matrix(0.6024 -0.7982 0.7982 0.6024 -3.9993 198.7322)" class="st0" cx="197.5" cy="103.4" rx="3.2" ry="3.2"/>
				<line class="st0" x1="201.3" y1="102.3" x2="206.6" y2="101"/>
			</g>
			<g>
				
					<ellipse transform="matrix(0.849 -0.5284 0.5284 0.849 -12.5833 140.3498)" class="st0" cx="239.3" cy="92.2" rx="3.2" ry="3.2"/>
				<line class="st0" x1="235.4" y1="93.2" x2="230.2" y2="94.6"/>
			</g>
		</g>
		<g>
			<g>
				<circle class="st0" cx="203.1" cy="82.5" r="3.2"/>
				<line class="st0" x1="205.9" y1="85.3" x2="209.7" y2="89.1"/>
			</g>
			<g>
				<circle class="st0" cx="233.7" cy="113.1" r="3.2"/>
				<line class="st0" x1="230.8" y1="110.3" x2="227" y2="106.4"/>
			</g>
		</g>
		<g>
			<g>
				<path class="st0" d="M227,77.7c-0.5,1.7-2.2,2.7-3.9,2.2c-1.7-0.5-2.7-2.2-2.2-3.9c0.5-1.7,2.2-2.7,3.9-2.2
					C226.5,74.3,227.5,76,227,77.7z"/>
				<line class="st0" x1="222.9" y1="80.8" x2="221.5" y2="86"/>
			</g>
			<g>
				<circle class="st0" cx="212.8" cy="118.7" r="3.2"/>
				<line class="st0" x1="213.8" y1="114.8" x2="215.2" y2="109.6"/>
			</g>
		</g>
	</g>
</g>
<g>
	<path class="st0" d="M101.1,203c11.8,5.8,8,35.6-15.1,37.7C62.9,242.8,74.6,189.9,101.1,203z"/>
	<ellipse transform="matrix(0.9049 -0.4257 0.4257 0.9049 -82.4936 59.7857)" class="st0" cx="92.5" cy="214.5" rx="3.5" ry="3.5"/>
	<circle class="st0" cx="82.1" cy="220.8" r="2.5"/>
	<circle class="st0" cx="93.1" cy="226.2" r="4.1"/>
</g>
<g>
	<path class="st0" d="M234.5,156.6c0-0.9,0.7-1.7,1.5-2.2c1.6-0.9,4.9-1.6,6.5-0.2c3,2.7-0.1,7.4,5.4,8.2c1.6,0.2,3.1,0.1,4.7,0.3
		c1.3,0.2,4.3,1.1,4.5,2.7c0.3,2.5-4.3,4.3-6.2,4.4c-2.5,0.1-5-1.1-6.9-2.8c-0.5-0.4-0.9-0.8-1.5-1c-1.2-0.3-2.4,0.6-2.8,1.7
		c-0.5,1.1-0.3,2.4-0.2,3.6"/>
	<path class="st0" d="M228.2,154.2c-1.5,4,1.5,5.1,4,7.4c3.9,3.5,1.1,5.9,1.2,9.9c0.1,3.6,5.4,3.6,5.5,7.8c0,2-1.5,4-3.5,4.2"/>
	<path class="st0" d="M244,179.5c-0.1-1.8,0.8-3.6,2.4-4.5c4-2.3,6.7,3.5,10.2,3.9c3.2,0.5,3.8-2.4,4-4.9c0.1-1.1-0.4-2.7,0-3.8
		c0.7-1.8,2.7-2.2,3.5-3.8"/>
</g>
<g>
	<path class="st0" d="M131.6,156.9c0.9,0,1.7,0.7,2.2,1.5c0.9,1.6,1.6,4.9,0.2,6.5c-2.7,3-7.4-0.1-8.2,5.4c-0.2,1.6-0.1,3.1-0.3,4.7
		c-0.2,1.3-1.1,4.3-2.7,4.5c-2.5,0.3-4.3-4.3-4.4-6.2c-0.1-2.5,1.1-5,2.8-6.9c0.4-0.5,0.8-0.9,1-1.5c0.3-1.2-0.6-2.4-1.7-2.8
		c-1.1-0.5-2.4-0.3-3.6-0.2"/>
	<path class="st0" d="M134,150.6c-4-1.5-5.1,1.5-7.4,4c-3.5,3.9-5.9,1.1-9.9,1.2c-3.6,0.1-3.6,5.4-7.8,5.5c-2,0-4-1.5-4.2-3.5"/>
	<path class="st0" d="M108.7,166.4c1.8-0.1,3.6,0.8,4.5,2.4c2.3,4-3.5,6.7-3.9,10.2c-0.5,3.2,2.4,3.8,4.9,4c1.1,0.1,2.7-0.4,3.8,0
		c1.8,0.7,2.2,2.7,3.8,3.5"/>
</g>
<path class="st0" d="M195.4,266.9c-0.1-1,0.3-2.1,1.5-2.5c1.2-0.5,2.5,0,3.8-0.1c1.2-0.1,2.2-1,3.4-1c1.1,0,2.2,0.9,2.5,2.1
	c1.2,5-7,6.3-9.9,4C196,268.8,195.5,267.8,195.4,266.9z"/>
<path class="st0" d="M192.9,273.2c1-0.3,2.1-0.2,2.8,0.8c0.8,1.1,0.6,2.5,1,3.6c0.4,1.2,1.5,1.9,1.8,3.1c0.3,1.1-0.3,2.4-1.4,3
	c-4.5,2.4-7.9-5.1-6.5-8.6C191.2,274.2,192,273.5,192.9,273.2z"/>
<path class="st0" d="M186.9,274.8c-0.4-1-1.1-1.8-1.8-2.2c0.4-0.6,0.8-1.3,0.9-2.2c0.2-1,0.1-2-0.3-2.7c0.6-0.1,1.2-0.3,1.8-0.6
	c1.2-0.7,2.1-1.7,2.3-2.6c1,0.1,2.4-0.5,3.4-1.7c1.3-1.6,1.6-3.6,0.6-4.4c-1-0.9-2.9-0.3-4.3,1.3c-0.7,0.8-1.1,1.8-1.2,2.6
	c-0.9-0.2-2,0-3.1,0.6c-1.8,0.9-2.7,2.6-2.2,3.8c-0.8,0.5-1.6,1.6-1.8,3c-0.3,1.6,0.2,3.1,1,3.8c-0.4,0.9-0.4,2.2,0.2,3.4
	c0.8,1.9,2.5,3,3.7,2.5C187.4,278.6,187.7,276.7,186.9,274.8z"/>
<circle class="st0" cx="197.4" cy="273.3" r="25.3"/>
<path class="st0" d="M204.7,286.5c1.1-1.3,2.2-2.9,2-4.6c-0.1-1-0.7-1.9-0.7-2.9c-0.1-2,1.8-3.4,2.9-5c0.8-1.3,1.2-2.9,1.1-4.4"/>
<path class="st0" d="M73.5,181.2c-2.2-0.6-4.3-0.5-5.9,0.1c-0.4-1.4-1.2-2.9-2.4-4.3c-1.4-1.6-3.1-2.6-4.7-3.1
	c0.6-1,1.1-2.3,1.3-3.6c0.5-2.8-0.1-5.5-1.4-7c1.5-1.5,2.2-4.4,1.6-7.5c-0.9-4.2-3.7-7.1-6.4-6.5c-2.7,0.6-4.2,4.4-3.3,8.5
	c0.5,2.2,1.5,4,2.7,5.2c-1.4,1.2-2.5,3.2-3,5.6c-0.7,4,0.8,7.6,3.3,8.3c-0.3,2,0.6,4.6,2.6,6.7c2.3,2.5,5.2,3.7,7.4,3.1
	c0.9,1.7,3,3.3,5.7,4c4.1,1.1,8-0.2,8.7-2.8C80.3,185.3,77.5,182.3,73.5,181.2z"/>
<ellipse transform="matrix(0.252 -0.9677 0.9677 0.252 17.7268 146.9615)" class="st0" cx="103.9" cy="62" rx="25.3" ry="25.3"/>
<path class="st0" d="M106.7,51.3c3.6,3.1,8.3-3.2,10.2,3.9c0.7,2.6-0.3,3.6,2.8,5"/>
<path class="st0" d="M87,58.2c-0.6,1.3,0,3,1.2,3.9c1.4,1,3.7,0,5,1c1.3,1,1,6.8,0.7,6.7"/>
<path class="st0" d="M100.2,52.2c-0.6,1.6,2.7,1.9,3.3,3c1,1.8-1.2,3.6-0.5,5.4c0.5,1.1,2,1.7,2.2,3c0.2,1.7-2,3.3-3.5,3.7"/>
<path class="st0" d="M100.7,75.7c2-0.1,2.8,2,4.9,1.1c1.8-0.8,4.2-0.5,5.6-1.9c0.8-0.8,1.2-2,2-2.8c0.8-0.9,1.8,0.2,2-1.7"/>
<path class="st0" d="M112.4,61.5c-1.3,0-2.4,1.1-2.4,2.4c0,1.3,1.1,2.4,2.4,2.4c1.3,0,2.4-1.1,2.4-2.4
	C114.7,62.6,113.7,61.5,112.4,61.5z"/>
<circle class="st0" cx="91.9" cy="53.8" r="2.4"/>
<path class="st0" d="M257,30.4c-0.3-1.3-1.8-1.8-2.5-2.9c-0.6-1,0.4-2-0.1-3.1c-0.1-0.3-0.4-0.7-0.6-1c-1.9-1.8-3.5,0.5-3.5,0.5
	c-0.6,0.7-1,0.4-1,0.4s-1.5-0.6-2.5,0.1c-1,0.7-0.8,3-0.8,3c-2.9,1.5-2.4,3-2.4,3c0.9,3,3,2.3,3.6,3.1c0.6,0.8,0.4,1.3,0.4,1.3
	s-0.5,2.1,1.1,2.8c1.6,0.7,3.5-1.9,3.5-1.9c1.1,0.9,3.6,0.9,3.5-1c0-0.5-0.4-0.9,0-1.3c0.5-0.5,1.1-0.5,1.3-1.3
	C257.2,31.6,257.1,31,257,30.4z"/>
<path class="st0" d="M267.9,34.6c-1,0.1-1.4,1.1-2.3,1.4c-0.8,0.3-1.4-0.5-2.2-0.2c-0.3,0.1-0.5,0.2-0.8,0.3c-1.5,1.2,0,2.5,0,2.5
	c0.4,0.5,0.2,0.7,0.2,0.7s-0.6,1-0.2,1.8c0.4,0.8,2,0.9,2,0.9c0.8,2.2,1.9,2,1.9,2c2.2-0.3,1.9-1.9,2.6-2.2s1-0.1,1-0.1
	s1.5,0.6,2.1-0.5c0.7-1-1-2.7-1-2.7c0.7-0.7,1-2.5-0.4-2.6c-0.4,0-0.6,0.2-0.9-0.2c-0.3-0.4-0.3-0.8-0.8-1.1
	C268.8,34.6,268.3,34.6,267.9,34.6z"/>
<path class="st0" d="M251.5,43.5c-1,0.1-1.4,1.1-2.3,1.4c-0.8,0.3-1.4-0.5-2.2-0.2c-0.3,0.1-0.5,0.2-0.8,0.3c-1.5,1.2,0,2.5,0,2.5
	c0.4,0.5,0.2,0.7,0.2,0.7s-0.6,1-0.2,1.8c0.4,0.8,2,0.9,2,0.9c0.8,2.2,1.9,2,1.9,2c2.2-0.3,1.9-1.9,2.6-2.2c0.6-0.3,1-0.1,1-0.1
	s1.5,0.6,2.1-0.5c0.7-1-1-2.7-1-2.7c0.7-0.7,1-2.5-0.4-2.6c-0.4,0-0.6,0.2-0.9-0.2c-0.3-0.4-0.3-0.8-0.8-1.1
	C252.4,43.5,251.9,43.4,251.5,43.5z"/>
<ellipse transform="matrix(0.8534 -0.5212 0.5212 0.8534 17.9309 139.1774)" class="st0" cx="256.4" cy="37.7" rx="25.3" ry="25.3"/>
<circle class="st0" cx="263.6" cy="27.9" r="2.4"/>
<path class="st0" d="M262.9,48.2c-1.3,0-2.4,1.1-2.4,2.4c0,1.3,1.1,2.4,2.4,2.4c1.3,0,2.4-1.1,2.4-2.4
	C265.3,49.3,264.2,48.2,262.9,48.2z"/>
<path class="st0" d="M125.5,114.6h-18.3c-2.5,0-4.6-2.1-4.6-4.6c0-2.5,2.1-4.6,4.6-4.6h5c2.5,0,4.6-2.1,4.6-4.6
	c0-2.5-2.1-4.6-4.6-4.6H62.6c-2.5,0-4.6,2.1-4.6,4.6c0,2.5,2.1,4.6,4.6,4.6h21.3c2.5,0,4.6,2.1,4.6,4.6c0,2.5-2.1,4.6-4.6,4.6h-7.9
	c-2.5,0-4.6,2.1-4.6,4.6c0,2.5,2.1,4.6,4.6,4.6h49.6c2.5,0,4.6-2.1,4.6-4.6C130.1,116.6,128,114.6,125.5,114.6z"/>
<path class="st1" d="M278.2,259h-22.7c-2.5,0-4.6,2.1-4.6,4.6c0,2.5,2.1,4.6,4.6,4.6h7.9c2.5,0,4.6,2.1,4.6,4.6
	c0,2.5-2.1,4.6-4.6,4.6h-31.1"/>
<g>
	<path class="st0" d="M161.6,179.4c1.1-0.3,2.3-0.3,3.4-0.2c3.5,0.4,4.7,4.3,8.1,4.3c3.8,0,7.1-3.1,10.9-2c1.6,0.4,3.2,1.3,4.3,2.5
		c1.5,1.7,0.7,3.2,1.3,5.2c0.5,1.6,1.8,1.3,3.2,1.9c5,2.4,1.3,8.8-2.4,10.3c0,0,3.8,8.6-0.2,11.6s-8.8-1.4-8.8-1.4s-1.1-1.2-3.9-0.9
		c-2.8,0.2-4.1,6.6-13,4.5c0,0-4.7-0.8-4.3-10.4c0,0-6-2.7-6.4-6.4c-0.4-3.7,3.4-6.5,3.4-6.5s1.4-0.5,0.5-3
		C157.8,188.8,154.2,181.5,161.6,179.4z"/>
	<line class="st1" x1="166.2" y1="191.8" x2="166.6" y2="191.8"/>
	<line class="st1" x1="174.4" y1="196.3" x2="174.8" y2="196.3"/>
	<line class="st1" x1="174.6" y1="188.2" x2="175" y2="188.2"/>
	<line class="st1" x1="161.6" y1="197.3" x2="162" y2="197.3"/>
	<line class="st1" x1="181.4" y1="191.8" x2="181.8" y2="191.8"/>
	<line class="st1" x1="182.8" y1="203.1" x2="183.2" y2="203.1"/>
	<line class="st1" x1="186.7" y1="196.3" x2="187.1" y2="196.3"/>
	<line class="st1" x1="172.2" y1="203.1" x2="172.6" y2="203.1"/>
	<line class="st1" x1="166.4" y1="208.3" x2="166.8" y2="208.3"/>
</g>
<path class="st1" d="M265.3,72.3v18.8c0,5.4-4.4,9.8-9.8,9.8h-14.2"/>
<path class="st1" d="M174.6,226.5v18.8c0,5.4-4.4,9.8-9.8,9.8h-14.2"/>
</svg>
