<?xml version="1.0" encoding="utf-8"?>
<!-- Generator: Adobe Illustrator 23.0.2, SVG Export Plug-In . SVG Version: 6.00 Build 0)  -->
<svg version="1.1" id="Layer_1" xmlns="http://www.w3.org/2000/svg" xmlns:xlink="http://www.w3.org/1999/xlink" x="0px" y="0px"
	 viewBox="0 0 60 60" style="enable-background:new 0 0 60 60;" xml:space="preserve">
<style type="text/css">
	.st0{fill:#868686;}
</style>
<path class="st0" d="M58,25.3H46.2c-1.6-5.6-6-9.9-11.5-11.5V2c0-0.5-0.4-1-1-1h-7.8c-0.5,0-0.9,0.4-1,0.9l-0.5,5.4
	c-2.3,0.6-4.5,1.5-6.5,2.7l-4.1-3.4c-0.4-0.3-1-0.3-1.3,0.1l-5.8,5.8c-0.4,0.4-0.4,0.9-0.1,1.3l3.4,4.1c-1.2,2-2.2,4.2-2.7,6.5
	l-5.4,0.5c-0.5,0-0.9,0.5-0.9,1v8.2c0,0.5,0.4,0.9,0.9,1l5.4,0.5c0.6,2.3,1.5,4.5,2.7,6.5l-3.4,4.1c-0.3,0.4-0.3,1,0.1,1.3l5.8,5.8
	c0.4,0.4,0.9,0.4,1.3,0.1l4.1-3.4c2,1.2,4.2,2.2,6.5,2.7l0.5,5.4c0,0.5,0.5,0.9,1,0.9h8.2c0.5,0,0.9-0.4,1-0.9l0.5-5.4
	c2.3-0.6,4.5-1.5,6.5-2.7l4.1,3.4c0.4,0.3,1,0.3,1.3-0.1l5.8-5.8c0.4-0.4,0.4-0.9,0.1-1.3L50,42.1c1.2-2,2.2-4.2,2.7-6.5l5.3-0.5
	c0.5,0,0.9-0.5,0.9-1v-7.8C59,25.7,58.5,25.3,58,25.3z M44.9,30c0,8.2-6.7,14.9-14.9,14.9c-8.2,0-14.9-6.7-14.9-14.9
	S21.8,15.1,30,15.1C38.2,15.1,44.9,21.8,44.9,30z M57,33.2l-5.1,0.5c-0.4,0-0.8,0.4-0.9,0.8c-0.6,2.5-1.6,5-3,7.1
	c-0.2,0.4-0.2,0.8,0.1,1.2l3.3,4l-4.5,4.5l-4-3.3c-0.3-0.3-0.8-0.3-1.2-0.1c-2.2,1.4-4.6,2.5-7.1,3c-0.4,0.1-0.7,0.5-0.8,0.9
	L33.2,57h-6.4l-0.5-5.2c0-0.4-0.4-0.8-0.8-0.9c-2.4-0.5-4.9-1.5-7.1-3c-0.4-0.2-0.8-0.2-1.2,0.1l-4,3.3l-4.5-4.5l3.3-4
	c0.3-0.3,0.3-0.8,0.1-1.2c-1.4-2.2-2.5-4.6-3-7.1c-0.1-0.4-0.5-0.7-0.9-0.8L3,33.2v-6.4l5.2-0.5c0.4,0,0.8-0.3,0.9-0.8
	c0.6-2.5,1.6-5,3-7.1c0.2-0.4,0.2-0.8-0.1-1.2l-3.3-4l4.5-4.5l4,3.3c0.3,0.3,0.8,0.3,1.2,0.1c2.2-1.4,4.6-2.5,7.1-3
	C26,9,26.3,8.6,26.3,8.2L26.8,3h5.9v10.4c-0.9-0.1-1.8-0.2-2.7-0.2c-9.3,0-16.9,7.6-16.9,16.9S20.7,46.9,30,46.9
	c9.3,0,16.9-7.6,16.9-16.9c0-0.9-0.1-1.8-0.2-2.7H57V33.2z"/>
<path class="st0" d="M28.3,23.8V31c0,0.5,0.5,0.9,1,0.9h5.5c0.5,0,1-0.4,1-1s-0.4-1-1-1h-4.6v-6.2c0-0.5-0.4-1-1-1
	S28.3,23.2,28.3,23.8z"/>
</svg>
