<?xml version="1.0" encoding="utf-8"?>
<!-- Generator: Adobe Illustrator 23.0.2, SVG Export Plug-In . SVG Version: 6.00 Build 0)  -->
<svg version="1.1" id="Layer_1" xmlns="http://www.w3.org/2000/svg" xmlns:xlink="http://www.w3.org/1999/xlink" x="0px" y="0px"
	 viewBox="0 0 60 60" style="enable-background:new 0 0 60 60;" xml:space="preserve">
<style type="text/css">
	.st0{fill:#868686;}
</style>
<g>
	<path class="st0" d="M11.7,59c5.9,0,10.6-4.7,10.6-10.6c0-2.5-0.9-4.9-2.5-6.8l2.2-2.2L20.6,38l-2.2,2.2C14,36.5,7.2,37,3.4,41.6
		S0.4,52.8,4.8,56.5C6.7,58.1,9.1,59,11.7,59z M11.7,39.6c4.8,0,8.7,3.9,8.7,8.7S16.5,57,11.7,57S3,53.2,3,48.3S6.8,39.6,11.7,39.6z
		"/>
	<path class="st0" d="M11.7,22.3c2.5,0,4.9-0.9,6.8-2.5l2.2,2.2l1.4-1.4l-2.2-2.2c3.8-4.5,3.1-11.2-1.4-15S7.2,0.3,3.4,4.9
		s-3.1,11.2,1.4,15C6.7,21.4,9.1,22.3,11.7,22.3z M11.7,2.9c4.8,0,8.7,3.9,8.7,8.7s-3.9,8.7-8.7,8.7S3,16.5,3,11.6S6.8,2.9,11.7,2.9
		z"/>
	<path class="st0" d="M40.6,30c0-5.9-4.7-10.6-10.6-10.6S19.4,24.1,19.4,30c0,5.5,4.3,10.1,9.7,10.6c0.3,0,0.6,0,1,0
		c0.3,0,0.6,0,1,0C36.4,40,40.6,35.5,40.6,30z M34.8,36.9c-1.2,1-2.6,1.5-4.2,1.6c-0.2,0-0.5,0-0.7,0s-0.5,0-0.7,0
		c-1.5-0.1-2.9-0.7-4.2-1.6v-0.1c0.6-1.7,1.5-3.3,2.8-4.5l0.6-0.6c0.4-0.4,0.4-1,0-1.4c-0.8-0.8-0.8-1.9,0-2.7
		c0.8-0.8,1.9-0.8,2.7,0c0.8,0.8,0.8,1.9,0,2.7l0,0c-0.4,0.4-0.4,1,0,1.4l0.6,0.6C33.3,33.7,34.3,35.2,34.8,36.9L34.8,36.9z
		 M33.4,31L33.4,31c1.1-1.8,0.5-4.3-1.4-5.3s-4.3-0.5-5.3,1.4c-0.7,1.3-0.7,2.7,0,4l0,0c-1.4,1.4-2.4,3-3.1,4.8
		c-3.2-3.6-2.9-9.1,0.6-12.3s9.1-2.9,12.3,0.6c3,3.3,3,8.3,0,11.7C35.8,34,34.7,32.4,33.4,31z"/>
	<path class="st0" d="M11.7,16.5c2.7,0,4.8-2.1,4.8-4.8s-2.1-4.8-4.8-4.8s-4.8,2.1-4.8,4.8S8.9,16.5,11.7,16.5z M11.7,8.7
		c1.6,0,2.9,1.3,2.9,2.9s-1.3,2.9-2.9,2.9s-2.9-1.3-2.9-2.9S10,8.7,11.7,8.7z"/>
	<path class="st0" d="M7.8,53.2h7.7c0.6,0,1-0.4,1-1v-7.7c0-0.6-0.4-1-1-1H7.8c-0.6,0-1,0.4-1,1v7.7C6.8,52.8,7.2,53.2,7.8,53.2z
		 M8.8,45.4h5.8v5.8H8.8V45.4z"/>
	<path class="st0" d="M49.2,7.3c-0.3-0.5-1-0.6-1.4-0.3c-0.1,0.1-0.2,0.2-0.3,0.3L43.7,14c-0.3,0.5-0.1,1.1,0.4,1.4
		c0.1,0.1,0.2,0.1,0.4,0.1h7.7c0.6,0,1-0.4,1-1c0-0.2,0-0.3-0.1-0.5L49.2,7.3z M46.1,13.6l2.2-3.9l2.2,3.9H46.1z"/>
	<path class="st0" d="M48.4,59C54.3,59,59,54.2,59,48.3s-4.7-10.6-10.6-10.6c-2.5,0-4.9,0.9-6.9,2.5L39.3,38l-1.4,1.4l2.2,2.2
		c-3.8,4.5-3.2,11.2,1.4,15C43.4,58.1,45.9,59,48.4,59z M48.4,39.6c4.8,0,8.7,3.9,8.7,8.7S53.2,57,48.4,57s-8.7-3.9-8.7-8.7
		S43.5,39.6,48.4,39.6z"/>
	<path class="st0" d="M47.8,53.9c0.4,0.3,0.8,0.3,1.2,0l3.9-2.9c0.3-0.2,0.4-0.5,0.4-0.8v-3.9c0-0.3-0.1-0.6-0.4-0.8L49,42.7
		c-0.4-0.3-0.8-0.3-1.2,0l-3.9,2.9c-0.3,0.2-0.4,0.5-0.4,0.8v3.9c0,0.3,0.1,0.6,0.4,0.8L47.8,53.9z M45.5,46.9l2.9-2.2l2.9,2.2v2.9
		L48.4,52l-2.9-2.2V46.9z"/>
	<rect x="8.8" y="25.2" class="st0" width="1.9" height="1.9"/>
	<rect x="8.8" y="29" class="st0" width="1.9" height="1.9"/>
	<rect x="8.8" y="32.9" class="st0" width="1.9" height="1.9"/>
	<rect x="52.2" y="25.2" class="st0" width="1.9" height="1.9"/>
	<rect x="52.2" y="29" class="st0" width="1.9" height="1.9"/>
	<rect x="52.2" y="32.9" class="st0" width="1.9" height="1.9"/>
	<rect x="25.2" y="5.8" class="st0" width="1.9" height="1.9"/>
	<rect x="29" y="5.8" class="st0" width="1.9" height="1.9"/>
	<rect x="32.9" y="5.8" class="st0" width="1.9" height="1.9"/>
	<rect x="25.2" y="52.2" class="st0" width="1.9" height="1.9"/>
	<rect x="29" y="52.2" class="st0" width="1.9" height="1.9"/>
	<rect x="32.9" y="52.2" class="st0" width="1.9" height="1.9"/>
	<path class="st0" d="M48.4,1c-5.9,0-10.6,4.7-10.6,10.6c0,1.9,0.6,3.9,1.5,5.6l-0.6,3.9c-0.1,0.5,0.3,1.1,0.8,1.1
		c0.1,0,0.1,0,0.2,0s0.1,0,0.2,0l4.2-0.9c1.4,0.6,2.8,1,4.3,1c5.9,0,10.6-4.7,10.6-10.6S54.3,1,48.4,1z M48.4,20.3
		c-1.4,0-2.6-0.3-3.8-0.9c-0.1-0.1-0.3-0.1-0.4-0.1c-0.1,0-0.1,0-0.2,0L40.9,20l0.5-2.9c0-0.2,0-0.5-0.2-0.7
		c-2.7-4-1.6-9.4,2.4-12.1s9.3-1.5,12,2.4s1.6,9.4-2.4,12.1C51.8,19.8,50.1,20.3,48.4,20.3z"/>
</g>
</svg>
