<?xml version="1.0" encoding="utf-8"?>
<!-- Generator: Adobe Illustrator 23.0.2, SVG Export Plug-In . SVG Version: 6.00 Build 0)  -->
<svg version="1.1" id="Layer_1" xmlns="http://www.w3.org/2000/svg" xmlns:xlink="http://www.w3.org/1999/xlink" x="0px" y="0px"
	 viewBox="0 0 315 52.5" style="enable-background:new 0 0 315 52.5;" xml:space="preserve">
<style type="text/css">
	.st0{fill:#2F83C5;}
	.st1{fill:#3C3C3B;}
</style>
<title>Asset 31</title>
<path class="st0" d="M128,14.2c4.9,0,9.6,2.1,12.8,5.8V2h7.8v49.9h-7.8v-5.6c-3,4.1-7.8,6.4-12.9,6.2c-9.8,0-17.5-7.9-17.5-19.4
	S118.2,14.2,128,14.2z M129.6,20.8c-5.7,0-11.3,4.3-11.3,12.3s5.5,12.7,11.3,12.7c5.7,0,11.3-4.5,11.3-12.5S135.4,20.8,129.6,20.8
	L129.6,20.8z"/>
<path class="st0" d="M158.7,2h7.7v49.9h-7.7V2z"/>
<path class="st0" d="M192.5,52.5c-10.6,0-18.5-7.5-18.5-19.2s7.6-19.1,18.5-19.1c10.6,0,18.1,7.4,18.1,18.3c0,1.3-0.1,2.5-0.3,3.8
	h-28.4c0.5,6.1,4.9,9.8,10.6,9.8c4.7,0,7.4-2.3,8.8-5.2h8.3C207.4,47.3,201.6,52.5,192.5,52.5z M182,30h20.6
	c-0.1-5.7-4.6-9.4-10.4-9.4C186.9,20.6,182.8,24.1,182,30z"/>
<path class="st0" d="M231.6,52.5c-8.9,0-15.2-5.3-15.5-12h8c0.3,3,3.2,5.5,7.4,5.5c4.4,0,6.8-1.9,6.8-4.5c0-7.3-21.6-3.1-21.6-16.7
	c0-5.9,5.5-10.7,14.3-10.7c8.4,0,14,4.5,14.4,11.9h-7.7c-0.3-3.2-2.8-5.5-6.9-5.5s-6.3,1.7-6.3,4.2c0,7.5,21,3.3,21.4,16.7
	C245.8,47.8,240.3,52.5,231.6,52.5z"/>
<path class="st1" d="M282.3,42.3h-19.6l-3.4,9.6h-8L268.1,5h8.9l16.8,46.9h-8.1L282.3,42.3z M272.6,14.3l-7.7,21.8h15.3L272.6,14.3z
	"/>
<path class="st1" d="M301.1,5.1h7.7v46.9h-7.7V5.1z"/>
<g>
	<g>
		<path class="st0" d="M71.1,34.6c0.4,0.4,0.8,0.7,1.2,1c3.4,2.9,7.9,4.7,12.8,4.7c8.8,0,16.2-5.7,18.8-13.4
			c-0.1,6.1-2.5,12.2-7.2,16.9c-9.6,9.6-25.2,9.6-34.7,0L36,18.3c-0.4-0.4-0.8-0.7-1.2-1c-3.4-2.9-7.9-4.7-12.8-4.7
			c-8.8,0-16.2,5.7-18.8,13.4c0.1-6.1,2.5-12.2,7.2-16.9c9.6-9.6,25.2-9.6,34.7,0L71.1,34.6z"/>
		<path class="st1" d="M100.3,14.1C99,11.4,97,8.9,94.6,7c-9.4-7.8-24.2-6.5-32.7,2l-6.5,6.5l9.2,9.1l6.4-6.4
			c4.5-4.5,11.9-4.5,16.4,0c4.5,4.5,4.5,11.9,0,16.4c-1.4,1.4-3.1,2.4-4.9,2.9c0.8,0.1,1.6,0.2,2.5,0.2c6.8,0,13.3-4.2,15.9-10.5
			C102.8,22.7,102.3,18.1,100.3,14.1z"/>
		<path class="st1" d="M42.4,28.4L36,34.8c-4.5,4.5-11.9,4.5-16.4,0c-4.5-4.5-4.5-11.9,0-16.4c1.4-1.4,3.1-2.4,4.9-2.9
			c-0.8-0.1-1.6-0.2-2.5-0.2c-9.4,0-17.1,7.5-17.1,16.6c0,6.4,4.5,12.1,9.7,15.5c9.5,6.1,22.6,4.6,30.5-3.4l6.6-6.5L42.4,28.4z"/>
	</g>
</g>
</svg>
