<svg xmlns="http://www.w3.org/2000/svg" xmlns:xlink="http://www.w3.org/1999/xlink" width="663.81" height="118" viewBox="0 0 663.81 118">
  <defs>
    <clipPath id="clip-path">
      <path id="Rectangle_35" data-name="Rectangle 35" d="M0,0H663.81V118H0Z" transform="translate(0 5586)" fill="#5c5c5c"/>
    </clipPath>
    <clipPath id="clip-path-2">
      <path id="Path_2707" data-name="Path 2707" d="M268.963,205.37a20.974,20.974,0,0,0,2.157,1.849,36.362,36.362,0,0,0,57.86-16.008,44.991,44.991,0,0,1-76.763,30.97l-47.545-46.637a21.944,21.944,0,0,0-2.149-1.849,36.362,36.362,0,0,0-23.517-8.58A36,36,0,0,0,144.671,189.7a44.991,44.991,0,0,1,76.763-30.97Z" transform="translate(-144.671 -145.587)" fill="none"/>
    </clipPath>
    <clipPath id="clip-path-3">
      <path id="Path_2710" data-name="Path 2710" d="M423.093,169.693A39.986,39.986,0,0,0,412.7,156.662c-17.224-14.289-44.269-11.921-59.847,3.6l-11.9,11.945,16.892,16.576,11.75-11.71a21.3,21.3,0,1,1,21.084,35.487,31.284,31.284,0,0,0,33.67-18.944C427.667,185.515,426.71,177.073,423.093,169.693Z" transform="translate(-340.961 -147.171)" fill="none"/>
    </clipPath>
    <clipPath id="clip-path-4">
      <path id="Path_2713" data-name="Path 2713" d="M219.4,221.418l-11.84,11.718a21.3,21.3,0,1,1-21.084-35.487,32.635,32.635,0,0,0-4.574-.357c-17.241,0-31.27,13.664-31.27,30.467,0,11.783,8.182,22.228,17.792,28.383,17.362,11.207,41.244,8.345,55.841-6.187l12.1-11.921Z" transform="translate(-150.633 -197.292)" fill="none"/>
    </clipPath>
  </defs>
  <g id="Mask_Group_1" data-name="Mask Group 1" transform="translate(0 -5586)" clip-path="url(#clip-path)">
    <g id="wholistic_logo_-_Updated" data-name="wholistic logo - Updated" transform="translate(0 5598.909)">
      <path id="Path_2674" data-name="Path 2674" d="M581.635,164.769a30.654,30.654,0,0,1,23.152,10.542V142.817h14.054v90.225H604.788v-10.1a27.758,27.758,0,0,1-23.266,11.191c-17.67,0-31.829-14.264-31.829-35.008S563.851,164.769,581.635,164.769Zm2.855,12.075c-10.323,0-20.419,7.793-20.419,22.285s9.877,22.933,20.419,22.933,20.411-8.109,20.411-22.706S594.91,176.844,584.49,176.844Z" transform="translate(-353.016 -142.817)" fill="#2f83c5"/>
      <path id="Path_2675" data-name="Path 2675" d="M729.784,142.817h13.94v90.225h-13.94Z" transform="translate(-445.655 -142.817)" fill="#2f83c5"/>
      <path id="Path_2676" data-name="Path 2676" d="M819.927,257.391c-19.316,0-33.581-13.721-33.581-34.789s13.608-34.578,33.581-34.578c19.1,0,32.714,13.283,32.714,33.038a45.763,45.763,0,0,1-.446,6.8H800.829a18.514,18.514,0,0,0,19.1,17.889h.114c8.563,0,13.283-4.168,15.911-9.326h15.043C846.931,247.952,836.389,257.391,819.927,257.391Zm-18.984-40.717h37.206c-.219-10.315-8.45-17.03-18.765-17.03C809.944,199.644,802.354,206.132,800.943,216.674Z" transform="translate(-474.751 -166.072)" fill="#2f83c5"/>
      <path id="Path_2677" data-name="Path 2677" d="M971.307,257.237c-16.138,0-27.442-9.545-28.1-21.733h14.378c.438,5.49,5.677,9.877,13.389,9.877,8.012,0,12.294-3.4,12.294-8.012,0-13.17-38.966-5.6-38.966-30.183,0-10.753,9.877-19.462,25.8-19.462,15.254,0,25.245,8.109,26.007,21.62h-13.94c-.543-5.814-5.044-9.877-12.618-9.877s-11.3,3.073-11.3,7.574c0,13.5,37.863,5.928,38.633,30.183C997.208,248.673,987.218,257.237,971.307,257.237Z" transform="translate(-555.442 -165.917)" fill="#2f83c5"/>
      <g id="Group_104" data-name="Group 104" transform="translate(478.243 0.097)">
        <path id="Path_2678" data-name="Path 2678" d="M1129.528,148.378h14.151V151.5h-5.141v16.17h-3.868V151.5h-5.142Z" transform="translate(-1129.528 -145.775)" fill="#5c5c5c"/>
        <path id="Path_2679" data-name="Path 2679" d="M1170.123,171.957c-4.452,0-7.679-3.1-7.679-7.907s3.146-7.907,7.679-7.907,7.55,3.009,7.55,7.574a8.415,8.415,0,0,1-.113,1.492h-11.191a3.576,3.576,0,0,0,3.674,3.536,3.163,3.163,0,0,0,3.073-1.849h4.168A7.112,7.112,0,0,1,1170.123,171.957Zm-3.69-9.391h7.3a3.406,3.406,0,0,0-3.649-3.244A3.552,3.552,0,0,0,1166.433,162.566Z" transform="translate(-1146.46 -149.77)" fill="#5c5c5c"/>
        <path id="Path_2680" data-name="Path 2680" d="M1205.138,156.06c3.819,0,6.39,1.987,7.217,5.417h-4.176a3.009,3.009,0,0,0-3.066-2.133c-2.157,0-3.592,1.622-3.592,4.622s1.435,4.59,3.592,4.59a2.92,2.92,0,0,0,3.066-2.1h4.176a6.987,6.987,0,0,1-7.217,5.417c-4.42,0-7.574-3.1-7.574-7.907S1200.718,156.06,1205.138,156.06Z" transform="translate(-1164.526 -149.727)" fill="#5c5c5c"/>
        <path id="Path_2681" data-name="Path 2681" d="M1233.886,145.973h3.876v7.055a5.855,5.855,0,0,1,4.752-2.133c3.454,0,5.968,2.327,5.968,6.552v8.985h-3.868v-8.458c0-2.433-1.354-3.787-3.4-3.787s-3.455,1.322-3.455,3.787v8.458h-3.876Z" transform="translate(-1183.21 -144.538)" fill="#5c5c5c"/>
        <path id="Path_2682" data-name="Path 2682" d="M1282.256,163.187c0-2.433-1.354-3.787-3.406-3.787s-3.455,1.322-3.455,3.787v8.458h-3.868V156.326h3.868v1.914a5.677,5.677,0,0,1,4.615-2.133c3.568,0,6.114,2.327,6.114,6.552v8.985h-3.868Z" transform="translate(-1202.573 -149.749)" fill="#5c5c5c"/>
        <path id="Path_2683" data-name="Path 2683" d="M1314.929,171.715a7.5,7.5,0,0,1-7.769-7.907,7.882,7.882,0,1,1,15.757,0A7.679,7.679,0,0,1,1314.929,171.715Zm0-3.374c2.043,0,4.006-1.492,4.006-4.533s-1.906-4.533-3.949-4.533-3.9,1.46-3.9,4.533,1.768,4.493,3.844,4.493Z" transform="translate(-1220.9 -149.527)" fill="#5c5c5c"/>
        <path id="Path_2684" data-name="Path 2684" d="M1345.49,145.973h3.868v20.46h-3.868Z" transform="translate(-1240.62 -144.538)" fill="#5c5c5c"/>
        <path id="Path_2685" data-name="Path 2685" d="M1367.083,171.715a7.5,7.5,0,0,1-7.769-7.907,7.882,7.882,0,1,1,15.756,0A7.7,7.7,0,0,1,1367.083,171.715Zm0-3.374c2.044,0,4.006-1.492,4.006-4.533s-1.906-4.533-3.949-4.533-3.9,1.46-3.9,4.533,1.776,4.493,3.844,4.493Z" transform="translate(-1247.729 -149.527)" fill="#5c5c5c"/>
        <path id="Path_2686" data-name="Path 2686" d="M1402.581,156.055a5.975,5.975,0,0,1,5.06,2.433V156.3h3.9v15.408c0,4.144-2.546,7.436-7.574,7.436-4.314,0-7.3-2.157-7.712-5.677h3.836c.389,1.379,1.824,2.295,3.763,2.295,2.133,0,3.786-1.216,3.786-4.055v-2.384a6.024,6.024,0,0,1-5.06,2.522c-3.893,0-6.991-3.179-6.991-7.963S1398.688,156.055,1402.581,156.055Zm1,3.4a4.1,4.1,0,0,0-4.055,4.452c0,2.9,1.963,4.557,4.055,4.557s4.055-1.622,4.055-4.5S1405.71,159.453,1403.578,159.453Z" transform="translate(-1266.392 -149.721)" fill="#5c5c5c"/>
        <path id="Path_2687" data-name="Path 2687" d="M1435.383,145.507a2.376,2.376,0,1,1,2.376,2.263,2.271,2.271,0,0,1-2.376-2.263Zm.414,4.055h3.868V164.88h-3.893Z" transform="translate(-1286.859 -143.017)" fill="#5c5c5c"/>
        <path id="Path_2688" data-name="Path 2688" d="M1457.7,171.957c-4.452,0-7.687-3.1-7.687-7.907s3.155-7.907,7.688-7.907,7.55,3.009,7.55,7.574a9.253,9.253,0,0,1-.113,1.492h-11.2a3.584,3.584,0,0,0,3.681,3.536,3.155,3.155,0,0,0,3.065-1.849h4.176A7.112,7.112,0,0,1,1457.7,171.957Zm-3.73-9.35h7.3a3.4,3.4,0,0,0-3.649-3.244,3.544,3.544,0,0,0-3.649,3.2Z" transform="translate(-1294.388 -149.77)" fill="#5c5c5c"/>
        <path id="Path_2689" data-name="Path 2689" d="M1492.176,171.914c-3.844,0-6.487-2.238-6.69-5.093h3.9a2.54,2.54,0,0,0,2.765,2.052c1.549,0,2.344-.7,2.344-1.622,0-2.733-8.653-.989-8.653-6.6,0-2.546,2.271-4.59,6.058-4.59s5.944,2.019,6.163,5.06h-3.706a2.276,2.276,0,0,0-2.57-1.995c-1.525,0-2.181.624-2.181,1.435,0,2.79,8.49,1.046,8.6,6.658C1498.2,169.879,1495.906,171.914,1492.176,171.914Z" transform="translate(-1312.634 -149.727)" fill="#5c5c5c"/>
      </g>
      <g id="Group_105" data-name="Group 105" transform="translate(479.264 35.123)">
        <path id="Path_2690" data-name="Path 2690" d="M1131.632,220h4.4l6.139,14.345L1148.305,220h4.363V239.3H1148.8V226.751l-5.166,12.545H1140.7l-5.2-12.545V239.3h-3.868Z" transform="translate(-1131.632 -217.645)" fill="#5c5c5c"/>
        <path id="Path_2691" data-name="Path 2691" d="M1187.762,227.682a6.066,6.066,0,0,1,5.06,2.433v-2.181h3.892v15.311h-3.892v-2.238a6.05,6.05,0,0,1-5.093,2.49c-3.868,0-6.966-3.179-6.966-7.963S1183.861,227.682,1187.762,227.682Zm1,3.4a4.1,4.1,0,0,0-4.055,4.452c0,2.9,1.962,4.566,4.055,4.566s4.054-1.622,4.054-4.509S1190.884,231.08,1188.76,231.08Z" transform="translate(-1156.905 -221.593)" fill="#5c5c5c"/>
        <path id="Path_2692" data-name="Path 2692" d="M1225.3,243.28h-3.868V227.97h3.868v2.376a5.312,5.312,0,0,1,4.7-2.595v4.055h-1.03c-2.3,0-3.674.884-3.674,3.836Z" transform="translate(-1177.823 -221.629)" fill="#5c5c5c"/>
        <path id="Path_2693" data-name="Path 2693" d="M1244.423,217.616h3.868v11.637l5.141-6.488h5.036l-6.747,7.68,6.8,7.631h-5.036l-5.2-6.487v6.487h-3.868Z" transform="translate(-1189.652 -216.416)" fill="#5c5c5c"/>
        <path id="Path_2694" data-name="Path 2694" d="M1283.306,243.5c-4.452,0-7.687-3.1-7.687-7.907s3.155-7.907,7.688-7.907a7.136,7.136,0,0,1,7.55,7.574,9.2,9.2,0,0,1-.114,1.492h-11.2a3.585,3.585,0,0,0,3.682,3.544,3.154,3.154,0,0,0,3.057-1.857h4.176A7.112,7.112,0,0,1,1283.306,243.5Zm-3.73-9.342h7.3a3.4,3.4,0,0,0-3.649-3.292,3.552,3.552,0,0,0-3.649,3.292Z" transform="translate(-1205.7 -221.597)" fill="#5c5c5c"/>
        <path id="Path_2695" data-name="Path 2695" d="M1312.129,227.388H1310.3v-3.179h1.825v-3.771h3.893v3.787h3.43V227.4h-3.43v7.4c0,1.03.414,1.468,1.622,1.468h1.8v3.244h-2.433c-2.928,0-4.866-1.241-4.866-4.752Z" transform="translate(-1223.542 -217.868)" fill="#5c5c5c"/>
        <path id="Path_2696" data-name="Path 2696" d="M1334.034,217.391a2.384,2.384,0,1,1,2.38,2.245A2.384,2.384,0,0,1,1334.034,217.391Zm.414,4.1h3.876V236.8h-3.876Z" transform="translate(-1235.749 -215.146)" fill="#5c5c5c"/>
        <path id="Path_2697" data-name="Path 2697" d="M1361.446,234.821c0-2.433-1.354-3.787-3.4-3.787s-3.455,1.33-3.455,3.787v8.458h-3.876V227.969h3.876v1.906a5.676,5.676,0,0,1,4.614-2.125c3.568,0,6.106,2.319,6.106,6.544v8.985h-3.868Z" transform="translate(-1244.331 -221.628)" fill="#5c5c5c"/>
        <path id="Path_2698" data-name="Path 2698" d="M1393.3,227.681a5.969,5.969,0,0,1,5.053,2.433v-2.181h3.9V243.34c0,4.144-2.547,7.436-7.574,7.436-4.314,0-7.3-2.157-7.712-5.677h3.844c.389,1.387,1.824,2.3,3.755,2.3,2.133,0,3.787-1.216,3.787-4.055v-2.376a6.043,6.043,0,0,1-5.053,2.514c-3.9,0-7-3.179-7-7.963S1389.443,227.681,1393.3,227.681Zm.989,3.4a4.1,4.1,0,0,0-4.054,4.452c0,2.9,1.962,4.566,4.054,4.566s4.055-1.622,4.055-4.509-1.922-4.509-4.038-4.509Z" transform="translate(-1262.637 -221.591)" fill="#5c5c5c"/>
      </g>
      <g id="Group_106" data-name="Group 106" transform="translate(478.77 69.157)">
        <path id="Path_2699" data-name="Path 2699" d="M1137.774,309.814c-4.055,0-7.1-2.1-7.161-5.75h4.144a2.652,2.652,0,0,0,2.927,2.571c1.825,0,2.9-.973,2.9-2.352,0-4.176-9.95-1.622-9.918-8.653,0-3.487,2.814-5.587,6.8-5.587s6.666,2.019,6.909,5.506h-4.257a2.538,2.538,0,0,0-2.757-2.3c-1.524-.057-2.659.689-2.659,2.263,0,3.876,9.9,1.719,9.9,8.515C1144.6,307.073,1142.169,309.814,1137.774,309.814Z" transform="translate(-1130.614 -287.708)" fill="#5c5c5c"/>
        <path id="Path_2700" data-name="Path 2700" d="M1165.621,297.978H1163.8V294.8h1.825v-3.787h3.941V294.8h3.43v3.179h-3.43v7.42c0,1.022.413,1.468,1.622,1.468h1.8v3.244h-2.433c-2.928,0-4.866-1.241-4.866-4.752Z" transform="translate(-1147.683 -288.206)" fill="#5c5c5c"/>
        <path id="Path_2701" data-name="Path 2701" d="M1202.708,314.129h-3.9v-1.938a5.627,5.627,0,0,1-4.557,2.133c-3.568,0-6.139-2.319-6.139-6.528V298.81h3.869v8.434c0,2.433,1.354,3.787,3.406,3.787s3.422-1.322,3.422-3.787V298.81h3.9Z" transform="translate(-1160.191 -292.218)" fill="#5c5c5c"/>
        <path id="Path_2702" data-name="Path 2702" d="M1231.005,293.1a6.292,6.292,0,0,1,5,2.376v-7.3h3.925v20.46h-3.925V306.37a5.782,5.782,0,0,1-5.028,2.522c-3.9,0-7-3.179-7-7.964S1227.08,293.1,1231.005,293.1Zm.965,3.4a4.1,4.1,0,0,0-4.055,4.452c0,2.9,1.963,4.557,4.055,4.557s4.055-1.622,4.055-4.5S1234.1,296.493,1231.97,296.493Z" transform="translate(-1178.643 -286.745)" fill="#5c5c5c"/>
        <path id="Path_2703" data-name="Path 2703" d="M1263.775,287.739a2.384,2.384,0,1,1,2.376,2.262,2.27,2.27,0,0,1-2.376-2.262Zm.414,4.055h3.876v15.319h-3.876Z" transform="translate(-1199.111 -285.233)" fill="#5c5c5c"/>
        <path id="Path_2704" data-name="Path 2704" d="M1286.239,313.881a7.5,7.5,0,0,1-7.769-7.907,7.882,7.882,0,1,1,15.756,0A7.651,7.651,0,0,1,1286.239,313.881Zm0-3.373c2.044,0,4.006-1.492,4.006-4.533s-1.906-4.533-3.949-4.533-3.9,1.46-3.9,4.533,1.768,4.557,3.844,4.557Z" transform="translate(-1206.67 -291.718)" fill="#5c5c5c"/>
      </g>
      <rect id="Rectangle_51" data-name="Rectangle 51" width="4.339" height="90.922" transform="translate(457.75 0.114)" fill="#5c5c5c"/>
      <path id="Path_2705" data-name="Path 2705" d="M268.963,205.37a20.974,20.974,0,0,0,2.157,1.849,36.362,36.362,0,0,0,57.86-16.008,44.991,44.991,0,0,1-76.763,30.97l-47.545-46.637a21.944,21.944,0,0,0-2.149-1.849,36.362,36.362,0,0,0-23.517-8.58A36,36,0,0,0,144.671,189.7a44.991,44.991,0,0,1,76.763-30.97Z" transform="translate(-144.671 -144.242)" fill="#2f82c4"/>
      <g id="Group_107" data-name="Group 107" transform="translate(0 1.345)" clip-path="url(#clip-path-2)">
        <path id="Path_2706" data-name="Path 2706" d="M144.635,183.8s1.622-34.546,39.006-40.733c25.139-3.244,38.114,15.408,60.269,37.49,28.35,28.269,32.178,32.251,50.019,32.251,30-1.622,36.492-27.572,36.079-38.22,0,0-10.7,26.493-18.011,28.383,0,0-22.041,10.761-35.406-2.514l-51.089-54.8-34.3-15.732S138.755,145.706,144.635,183.8Z" transform="translate(-144.416 -137.53)" fill="#353535" opacity="0.49"/>
      </g>
      <path id="Path_2708" data-name="Path 2708" d="M423.093,169.693A39.986,39.986,0,0,0,412.7,156.662c-17.224-14.289-44.269-11.921-59.847,3.6l-11.9,11.945,16.892,16.576,11.75-11.71a21.3,21.3,0,1,1,21.084,35.487,31.284,31.284,0,0,0,33.67-18.944C427.667,185.515,426.71,177.073,423.093,169.693Z" transform="translate(-245.643 -145.057)" fill="#077477"/>
      <g id="Group_108" data-name="Group 108" transform="translate(95.318 2.114)" clip-path="url(#clip-path-3)">
        <path id="Path_2709" data-name="Path 2709" d="M450.369,232.735s21.62.17,31.513-21.263,2.757,4.371,2.757,4.371l-13.218,17.792L459.4,241.85,451.213,243l-13.259-1.111Z" transform="translate(-390.854 -175.87)" fill="#353535" opacity="0.49"/>
      </g>
      <path id="Path_2711" data-name="Path 2711" d="M219.274,221.484l-11.84,11.726a21.295,21.295,0,1,1-30.087-30.144,20.979,20.979,0,0,1,8.978-5.343,31.33,31.33,0,0,0-4.566-.365c-17.249,0-31.278,13.664-31.278,30.467,0,11.783,8.182,22.228,17.792,28.383,17.427,11.2,41.309,8.336,55.906-6.2l12.107-11.921Z" transform="translate(-147.66 -170.874)" fill="#e86b0f"/>
      <g id="Group_109" data-name="Group 109" transform="translate(2.895 26.453)" clip-path="url(#clip-path-4)">
        <path id="Path_2712" data-name="Path 2712" d="M172.643,204.169s-21.612-.178-31.513,21.255-2.757-4.363-2.757-4.363l13.218-17.792,12.018-8.215,8.19-1.152,13.251,1.1Z" transform="translate(-143.044 -195.548)" fill="#353535" opacity="0.49"/>
      </g>
    </g>
  </g>
</svg>
