<?xml version="1.0" encoding="utf-8"?>
<!-- Generator: Adobe Illustrator 23.0.2, SVG Export Plug-In . SVG Version: 6.00 Build 0)  -->
<svg version="1.1" id="music" xmlns="http://www.w3.org/2000/svg" xmlns:xlink="http://www.w3.org/1999/xlink" x="0px" y="0px"
	 viewBox="0 0 387 200" style="enable-background:new 0 0 387 200;" xml:space="preserve">
<style type="text/css">
	.st0{fill:#26292D;}
	.st1{fill:#26292D;stroke:#FFFFFF;stroke-width:0.25;stroke-miterlimit:10;}
	.st2{fill:#26292D;stroke:#FFFFFF;stroke-width:0.5;stroke-miterlimit:10;}
	.st3{fill:#26292D;stroke:#FFFFFF;stroke-miterlimit:10;}
</style>
<g>
	<path class="st0" d="M99.9,129c-0.5,0-1-0.4-1-1v-9.9c0-0.5,0.4-1,1-1s1,0.4,1,1v9.9C100.9,128.6,100.4,129,99.9,129z"/>
	<path class="st0" d="M104.9,124.1h-9.9c-0.5,0-1-0.4-1-1c0-0.5,0.4-1,1-1h9.9c0.5,0,1,0.4,1,1C105.9,123.6,105.4,124.1,104.9,124.1
		z"/>
</g>
<g>
	<path class="st0" d="M112.1,79.7c-0.5,0-1-0.4-1-1v-9.9c0-0.5,0.4-1,1-1c0.5,0,1,0.4,1,1v9.9C113.1,79.3,112.7,79.7,112.1,79.7z"/>
	<path class="st0" d="M117.1,74.8h-9.9c-0.5,0-1-0.4-1-1c0-0.5,0.4-1,1-1h9.9c0.5,0,1,0.4,1,1C118.1,74.3,117.6,74.8,117.1,74.8z"/>
</g>
<g>
	<path class="st0" d="M57.9,40.2c-0.5,0-1-0.4-1-1v-9.9c0-0.5,0.4-1,1-1c0.5,0,1,0.4,1,1v9.9C58.9,39.7,58.5,40.2,57.9,40.2z"/>
	<path class="st0" d="M62.9,35.2H53c-0.5,0-1-0.4-1-1c0-0.5,0.4-1,1-1h9.9c0.5,0,1,0.4,1,1C63.9,34.7,63.5,35.2,62.9,35.2z"/>
</g>
<g>
	<path class="st0" d="M111.1,172c-0.5,0-1-0.4-1-1V161c0-0.5,0.4-1,1-1c0.5,0,1,0.4,1,1v9.9C112.1,171.5,111.7,172,111.1,172z"/>
	<path class="st0" d="M116.1,167h-9.9c-0.5,0-1-0.4-1-1c0-0.5,0.4-1,1-1h9.9c0.5,0,1,0.4,1,1C117.1,166.5,116.7,167,116.1,167z"/>
</g>
<g>
	<path class="st0" d="M218.2,142.5c-0.5,0-1-0.4-1-1v-9.9c0-0.5,0.4-1,1-1c0.5,0,1,0.4,1,1v9.9C219.2,142.1,218.7,142.5,218.2,142.5
		z"/>
	<path class="st0" d="M223.1,137.6h-9.9c-0.5,0-1-0.4-1-1s0.4-1,1-1h9.9c0.5,0,1,0.4,1,1S223.7,137.6,223.1,137.6z"/>
</g>
<g>
	<path class="st0" d="M167.6,111c-0.5,0-1-0.4-1-1V100c0-0.5,0.4-1,1-1s1,0.4,1,1v9.9C168.6,110.5,168.2,111,167.6,111z"/>
	<path class="st0" d="M172.6,106h-9.9c-0.5,0-1-0.4-1-1s0.4-1,1-1h9.9c0.5,0,1,0.4,1,1S173.1,106,172.6,106z"/>
</g>
<g>
	<path class="st0" d="M221.3,33.3c-0.5,0-1-0.4-1-1v-9.9c0-0.5,0.4-1,1-1c0.5,0,1,0.4,1,1v9.9C222.3,32.8,221.8,33.3,221.3,33.3z"/>
	<path class="st0" d="M226.2,28.3h-9.9c-0.5,0-1-0.4-1-1c0-0.5,0.4-1,1-1h9.9c0.5,0,1,0.4,1,1C227.2,27.9,226.8,28.3,226.2,28.3z"/>
</g>
<g>
	<path class="st0" d="M256.7,194.3c-0.5,0-1-0.4-1-1v-9.9c0-0.5,0.4-1,1-1c0.5,0,1,0.4,1,1v9.9C257.7,193.8,257.3,194.3,256.7,194.3
		z"/>
	<path class="st0" d="M261.7,189.3h-9.9c-0.5,0-1-0.4-1-1c0-0.5,0.4-1,1-1h9.9c0.5,0,1,0.4,1,1C262.7,188.9,262.2,189.3,261.7,189.3
		z"/>
</g>
<path class="st0" d="M135.1,100.3c-2.6,0-4.8-2.2-4.8-4.8c0-2.6,2.2-4.8,4.8-4.8s4.8,2.2,4.8,4.8
	C139.9,98.2,137.8,100.3,135.1,100.3z M135.1,92.7c-1.6,0-2.8,1.3-2.8,2.8c0,1.6,1.3,2.8,2.8,2.8c1.6,0,2.8-1.3,2.8-2.8
	C137.9,94,136.7,92.7,135.1,92.7z"/>
<path class="st0" d="M301.5,94.4c-2.6,0-4.8-2.2-4.8-4.8s2.2-4.8,4.8-4.8s4.8,2.2,4.8,4.8S304.1,94.4,301.5,94.4z M301.5,86.8
	c-1.6,0-2.8,1.3-2.8,2.8c0,1.6,1.3,2.8,2.8,2.8c1.6,0,2.8-1.3,2.8-2.8C304.3,88,303,86.8,301.5,86.8z"/>
<path class="st0" d="M143.4,43.6c-2.6,0-4.8-2.2-4.8-4.8c0-2.6,2.2-4.8,4.8-4.8s4.8,2.2,4.8,4.8C148.2,41.4,146.1,43.6,143.4,43.6z
	 M143.4,35.9c-1.6,0-2.8,1.3-2.8,2.8c0,1.6,1.3,2.8,2.8,2.8c1.6,0,2.8-1.3,2.8-2.8C146.2,37.2,145,35.9,143.4,35.9z"/>
<path class="st0" d="M90,77.6c-2.6,0-4.8-2.2-4.8-4.8S87.4,68,90,68c2.6,0,4.8,2.2,4.8,4.8S92.7,77.6,90,77.6z M90,69.9
	c-1.6,0-2.8,1.3-2.8,2.8c0,1.6,1.3,2.8,2.8,2.8c1.6,0,2.8-1.3,2.8-2.8C92.8,71.2,91.6,69.9,90,69.9z"/>
<g>
	<path class="st1" d="M135.6,179c-5.6,0-10.2-4.6-10.2-10.2v-5.5c0-5.6,4.6-10.2,10.2-10.2c5.6,0,10.2,4.6,10.2,10.2v5.5
		C145.8,174.4,141.2,179,135.6,179z M135.6,155c-4.6,0-8.3,3.7-8.3,8.3v5.5c0,4.6,3.7,8.3,8.3,8.3c4.6,0,8.3-3.7,8.3-8.3v-5.5
		C143.8,158.7,140.1,155,135.6,155z"/>
	<g>
		<path class="st1" d="M135.6,200.9c-19.5,0-21.1-6.3-21.2-7c-0.6-6.2,0.2-10.4,2.5-12.9c2.5-2.7,6.1-2.6,8.5-2.6c0.3,0,0.6,0,0.9,0
			c3,0,3.2-2,3.2-2.1c0-0.5,0.5-1,1.1-0.9c0.5,0.1,0.9,0.5,0.9,1.1c-0.1,1.3-1.4,3.9-5.2,3.9c-0.3,0-0.6,0-1,0c-2.1,0-5.1-0.1-7,1.9
			c-1.9,2-2.5,5.8-2,11.3v0c0,0,1.5,5.3,19.2,5.3c0.5,0,1,0.4,1,1C136.6,200.4,136.1,200.9,135.6,200.9z"/>
		<path class="st1" d="M135.6,200.9c-0.5,0-1-0.4-1-1c0-0.5,0.4-1,1-1c17.6,0,19.2-5.3,19.3-5.3c0.5-5.4-0.2-9.2-2-11.2
			c-1.9-2-4.8-2-7-1.9c-0.3,0-0.7,0-1,0c-3.8,0-5-2.5-5.2-3.9c-0.1-0.5,0.4-1,0.9-1.1c0.5,0,1,0.3,1.1,0.9c0,0.2,0.3,2.1,3.2,2.1
			c0.3,0,0.6,0,0.9,0c2.4,0,6-0.1,8.5,2.6c2.3,2.5,3.1,6.7,2.5,12.8C156.7,194.6,155.1,200.9,135.6,200.9z"/>
	</g>
	<path class="st1" d="M135.6,187.3c-3.9,0-7.1-3.7-7.1-8.2c0-0.5,0.4-1,1-1c0.5,0,1,0.4,1,1c0,3.4,2.3,6.2,5.1,6.2
		c2.8,0,5.1-2.8,5.1-6.2c0-0.5,0.4-1,1-1c0.5,0,1,0.4,1,1C142.7,183.6,139.5,187.3,135.6,187.3z"/>
	<path class="st1" d="M130.5,165.9c-0.3,0-0.6-0.1-0.7-0.3c-0.3-0.3-0.3-0.8-0.1-1.2l0.3-0.5l-3.4,1.3c-0.5,0.2-1.1,0-1.3-0.6
		c-0.2-0.5,0-1.1,0.6-1.3l6.2-2.5c0.4-0.2,0.9,0,1.1,0.3c0.3,0.3,0.3,0.8,0.1,1.2l-0.1,0.2l3.6-1.7c0.4-0.2,0.8-0.1,1.1,0.2
		c0.3,0.3,0.4,0.7,0.2,1.1l-0.1,0.2l2.3-1.4c0.3-0.2,0.8-0.2,1.1,0c0.3,0.2,0.5,0.6,0.4,1l-0.2,0.7l2.8-1.8c0.5-0.3,1.1-0.2,1.4,0.3
		c0.3,0.5,0.2,1.1-0.3,1.4l-4.8,3.1c-0.3,0.2-0.8,0.2-1.1,0c-0.3-0.2-0.5-0.6-0.4-1l0.2-0.8l-3,1.9c-0.4,0.2-0.8,0.2-1.2-0.1
		c-0.3-0.3-0.4-0.7-0.3-1.1l0.3-0.7l-4.3,2C130.7,165.9,130.6,165.9,130.5,165.9z"/>
	<g>
		<path class="st1" d="M146.5,171.5h-0.8c-1,0-1.8-0.8-1.8-1.8v-5.4c0-1,0.8-1.8,1.8-1.8h0.8c1,0,1.8,0.8,1.8,1.8v5.4
			C148.4,170.7,147.6,171.5,146.5,171.5z M145.9,169.5h0.5v-5.1h-0.5V169.5z"/>
		<path class="st1" d="M125.4,171.5h-0.8c-1,0-1.8-0.8-1.8-1.8v-5.4c0-1,0.8-1.8,1.8-1.8h0.8c1,0,1.8,0.8,1.8,1.8v5.4
			C127.2,170.7,126.4,171.5,125.4,171.5z M124.7,169.5h0.5v-5.1h-0.5V169.5z"/>
	</g>
	<path class="st1" d="M148.5,167.6c-0.5,0-1-0.4-1-1c0-7.7-5.4-14-12-14s-12,6.3-12,14c0,0.5-0.4,1-1,1c-0.5,0-1-0.4-1-1
		c0-8.8,6.3-16,14-16c7.7,0,14,7.2,14,16C149.5,167.2,149.1,167.6,148.5,167.6z"/>
</g>
<path class="st1" d="M264.4,131.6c-4.1,0-8.5-1.9-9.1-6.4c-0.2-1.7,0.4-4.3,1.9-5.9c1-1,2.2-1.5,3.5-1.3c2.1,0.3,3.6,1.7,3.6,3.7
	c0.1,1.9-1.2,4.1-3.7,4.6c-0.5,0.1-1.1-0.2-1.2-0.8c-0.1-0.5,0.2-1.1,0.8-1.2c1.4-0.3,2.2-1.5,2.1-2.6c0-0.5-0.2-1.6-1.9-1.8
	c-0.7-0.1-1.3,0.2-1.9,0.7c-1.1,1.1-1.5,3-1.4,4.2c0.5,3.5,4.3,4.9,7.8,4.7c3-0.2,5.2-1.3,6.7-3.5c2-2.8,2.5-6.9,2.4-10.9
	c-2.6,1.1-5.5,1-8.2-0.3c-3.3-1.6-5.6-4.8-6.1-8.3c-0.5-3.6,0.8-7.5,3.5-10.7c2.1-2.5,4.9-4.2,7.7-4.8c0-5.7,0.6-11.6,2.8-14.2
	c1-1.2,2.2-1.7,3.6-1.6c3.1,0.3,4.9,2.5,4.8,5.7c-0.2,4.9-4.6,11.4-9.3,11.8c0.1,3.1,0.4,6.1,0.7,8.4c0,0,0.1,0,0.1,0
	c3.1,0,5.7,1.8,6.5,4.5c0.8,2.9-0.8,6-4.4,8.4c0.2,4.4-0.2,9.5-2.7,13.1c-1.9,2.7-4.6,4.1-8.2,4.3
	C264.9,131.6,264.7,131.6,264.4,131.6z M271.2,93.2c-2.3,0.6-4.5,2-6.3,4c-2.3,2.7-3.4,6.1-3,9.1c0.4,2.9,2.3,5.5,5,6.8
	c2.4,1.2,5,1.1,7.2,0c-0.3-3.3-0.9-6.3-1.4-8c-0.1-0.4-0.2-0.9-0.3-1.4c-0.3,0.2-0.5,0.4-0.7,0.6c-1.1,1.4-0.8,4.2-0.5,5.2
	c0.1,0.5-0.2,1.1-0.7,1.2c-0.5,0.1-1.1-0.2-1.2-0.7c0-0.2-1-4.4,0.9-6.8c0.5-0.7,1.2-1.1,2-1.4C271.6,99.3,271.3,96.3,271.2,93.2z
	 M274.3,103.3c0.1,0.5,0.2,0.9,0.3,1.2c0,0.1,0.9,3.2,1.4,7.3c2.2-1.7,3.2-3.7,2.6-5.5C278.1,104.6,276.4,103.4,274.3,103.3z
	 M277.2,77.3c-0.6,0-1.2,0.3-1.7,0.9c-1.8,2.2-2.4,7.4-2.4,12.7c3.5-0.4,7.2-6,7.3-9.9c0.1-2.2-1-3.5-3-3.7
	C277.4,77.3,277.3,77.3,277.2,77.3z"/>
<g>
	<path class="st2" d="M203.2,61h-43.5c-0.5,0-1-0.4-1-1V29.6c0-0.5,0.4-1,1-1h43.5c0.5,0,1,0.4,1,1V60C204.2,60.6,203.7,61,203.2,61
		z M160.7,59h41.5V30.6h-41.5V59z"/>
	<g>
		<g>
			<path class="st2" d="M172.2,47.6c-2.5,0-4.6-2-4.6-4.6c0-2.5,2-4.6,4.6-4.6c2.5,0,4.6,2,4.6,4.6
				C176.7,45.5,174.7,47.6,172.2,47.6z M172.2,40.4c-1.4,0-2.6,1.2-2.6,2.6s1.2,2.6,2.6,2.6s2.6-1.2,2.6-2.6S173.6,40.4,172.2,40.4z
				"/>
			<path class="st2" d="M190.7,47.6c-2.5,0-4.6-2-4.6-4.6c0-2.5,2-4.6,4.6-4.6c2.5,0,4.6,2,4.6,4.6
				C195.2,45.5,193.2,47.6,190.7,47.6z M190.7,40.4c-1.4,0-2.6,1.2-2.6,2.6s1.2,2.6,2.6,2.6c1.4,0,2.6-1.2,2.6-2.6
				S192.1,40.4,190.7,40.4z"/>
		</g>
		<g>
			<path class="st2" d="M190.7,40.4h-18.5c-0.5,0-1-0.4-1-1c0-0.5,0.4-1,1-1h18.5c0.5,0,1,0.4,1,1C191.7,40,191.2,40.4,190.7,40.4z"
				/>
			<path class="st2" d="M190.7,47.6h-18.5c-0.5,0-1-0.4-1-1c0-0.5,0.4-1,1-1h18.5c0.5,0,1,0.4,1,1C191.7,47.1,191.2,47.6,190.7,47.6
				z"/>
		</g>
	</g>
	<path class="st2" d="M197.6,37.5h-32.4c-0.5,0-1-0.4-1-1V33c0-0.5,0.4-1,1-1h32.4c0.5,0,1,0.4,1,1v3.5
		C198.6,37.1,198.2,37.5,197.6,37.5z M166.2,35.5h30.4V34h-30.4V35.5z"/>
	<path class="st2" d="M203.2,50.1h-43.5c-0.5,0-1-0.4-1-1c0-0.5,0.4-1,1-1h43.5c0.5,0,1,0.4,1,1C204.2,49.6,203.7,50.1,203.2,50.1z"
		/>
	<path class="st2" d="M196.6,60.4c-0.4,0-0.8-0.3-1-0.7l-1.5-5.6h-25.4l-1.5,5.6c-0.1,0.5-0.7,0.8-1.2,0.7c-0.5-0.1-0.8-0.7-0.7-1.2
		l1.7-6.3c0.1-0.4,0.5-0.7,1-0.7h26.9c0.4,0,0.8,0.3,1,0.7l1.7,6.3c0.1,0.5-0.2,1.1-0.7,1.2C196.8,60.4,196.7,60.4,196.6,60.4z"/>
	<path class="st2" d="M181.4,57.6c-1.2,0-2.1-0.9-2.1-2.1c0-1.2,0.9-2.1,2.1-2.1s2.1,0.9,2.1,2.1C183.5,56.7,182.6,57.6,181.4,57.6z
		 M181.4,55.4c-0.1,0-0.1,0-0.1,0.1c0,0.1,0.2,0.1,0.2,0C181.5,55.5,181.5,55.4,181.4,55.4z"/>
	<g>
		<path class="st2" d="M170.6,59.4c-1.2,0-2.1-0.9-2.1-2.1c0-1.2,0.9-2.1,2.1-2.1c1.2,0,2.1,0.9,2.1,2.1
			C172.7,58.4,171.8,59.4,170.6,59.4z M170.6,57.2c-0.1,0-0.1,0-0.1,0.1c0,0.1,0.2,0.1,0.2,0C170.7,57.2,170.7,57.2,170.6,57.2z"/>
		<path class="st2" d="M192.2,59.4c-1.2,0-2.1-0.9-2.1-2.1c0-1.2,0.9-2.1,2.1-2.1s2.1,0.9,2.1,2.1C194.3,58.4,193.4,59.4,192.2,59.4
			z M192.2,57.2c-0.1,0-0.1,0-0.1,0.1c0,0.1,0.2,0.1,0.2,0C192.3,57.2,192.3,57.2,192.2,57.2z"/>
	</g>
</g>
<g>
	<path class="st1" d="M238.8,196.2h-46.2c-0.5,0-1-0.4-1-1v-28.9c0-0.5,0.4-1,1-1h46.2c0.5,0,1,0.4,1,1v28.9
		C239.8,195.8,239.3,196.2,238.8,196.2z M193.6,194.3h44.2v-26.9h-44.2V194.3z"/>
	<path class="st1" d="M236,177.7h-40.7v-9H236V177.7z M197.3,175.8H234v-5h-36.7V175.8z"/>
	<g>
		<rect x="200.5" y="171.2" class="st1" width="1.5" height="4.1"/>
		<rect x="203.7" y="172.4" class="st1" width="1.5" height="3"/>
		<rect x="206.9" y="171.2" class="st1" width="1.5" height="4.1"/>
		<rect x="210.1" y="172.4" class="st1" width="1.5" height="3"/>
		<rect x="213.3" y="171.2" class="st1" width="1.5" height="4.1"/>
		<rect x="216.6" y="172.4" class="st1" width="1.5" height="3"/>
		<rect x="219.8" y="171.2" class="st1" width="1.5" height="4.1"/>
		<rect x="223" y="172.4" class="st1" width="1.5" height="3"/>
		<rect x="226.2" y="171.2" class="st1" width="1.5" height="4.1"/>
		<rect x="229.4" y="172.4" class="st1" width="1.5" height="3"/>
	</g>
	<rect x="195.6" y="180.1" class="st1" width="15.5" height="2"/>
	<rect x="195.6" y="183.4" class="st1" width="15.5" height="2"/>
	<rect x="195.6" y="186.7" class="st1" width="15.5" height="2"/>
	<rect x="195.6" y="189.9" class="st1" width="15.5" height="2"/>
	<path class="st1" d="M231.8,193.1c-2.7,0-4.8-2.2-4.8-4.8s2.2-4.8,4.8-4.8s4.8,2.2,4.8,4.8S234.4,193.1,231.8,193.1z M231.8,185.5
		c-1.6,0-2.8,1.3-2.8,2.8s1.3,2.8,2.8,2.8s2.8-1.3,2.8-2.8S233.3,185.5,231.8,185.5z"/>
	<g>
		<path class="st1" d="M223,185.3c-1.6,0-2.8-1.3-2.8-2.8s1.3-2.8,2.8-2.8s2.8,1.3,2.8,2.8S224.6,185.3,223,185.3z M223,181.6
			c-0.5,0-0.8,0.4-0.8,0.8c0,0.5,0.4,0.8,0.8,0.8c0.5,0,0.8-0.4,0.8-0.8C223.8,182,223.5,181.6,223,181.6z"/>
		<path class="st1" d="M223,193.5c-1.6,0-2.8-1.3-2.8-2.8c0-1.6,1.3-2.8,2.8-2.8s2.8,1.3,2.8,2.8C225.8,192.2,224.6,193.5,223,193.5
			z M223,189.8c-0.5,0-0.8,0.4-0.8,0.8c0,0.5,0.4,0.8,0.8,0.8c0.5,0,0.8-0.4,0.8-0.8C223.8,190.2,223.5,189.8,223,189.8z"/>
	</g>
	
		<rect x="193.2" y="158.2" transform="matrix(0.9032 -0.4292 0.4292 0.9032 -47.9859 105.5236)" class="st1" width="33.6" height="2"/>
	<circle class="st1" cx="225" cy="152" r="1.7"/>
</g>
<g>
	<path class="st1" d="M286,44.4h-20.6c-1.2,0-2.2-1-2.2-2.2V8.8c0-1.2,1-2.2,2.2-2.2H286c1.2,0,2.2,1,2.2,2.2v33.3
		C288.2,43.4,287.2,44.4,286,44.4z M265.3,8.6c-0.1,0-0.2,0.1-0.2,0.2v33.3c0,0.1,0.1,0.2,0.2,0.2H286c0.1,0,0.2-0.1,0.2-0.2V8.8
		c0-0.1-0.1-0.2-0.2-0.2H265.3z"/>
	<path class="st1" d="M284,30h-16.7c-0.5,0-1-0.4-1-1V10.7c0-0.5,0.4-1,1-1H284c0.5,0,1,0.4,1,1V29C285,29.5,284.6,30,284,30z
		 M268.3,28H283V11.7h-14.7V28z"/>
	<path class="st1" d="M275.6,42.2c-3.3,0-5.9-2.7-5.9-5.9c0-3.3,2.7-5.9,5.9-5.9c3.3,0,5.9,2.7,5.9,5.9
		C281.6,39.5,278.9,42.2,275.6,42.2z M275.6,32.3c-2.2,0-3.9,1.8-3.9,3.9c0,2.2,1.8,3.9,3.9,3.9s3.9-1.8,3.9-3.9
		C279.6,34.1,277.8,32.3,275.6,32.3z"/>
	<path class="st1" d="M274,39.9c-0.2,0-0.3,0-0.5-0.1c-0.3-0.2-0.5-0.5-0.5-0.9v-5.4c0-0.4,0.2-0.7,0.5-0.9c0.3-0.2,0.7-0.2,1,0
		l4.7,2.7c0.3,0.2,0.5,0.5,0.5,0.9c0,0.4-0.2,0.7-0.5,0.9l-4.7,2.7C274.3,39.8,274.2,39.9,274,39.9z M275,35.2v1.9l1.7-1L275,35.2z"
		/>
	<path class="st1" d="M284,58c-5.4,0-9.7-4.4-9.7-9.7v-4.8c0-0.5,0.4-1,1-1c0.5,0,1,0.4,1,1v4.8c0,4.3,3.5,7.7,7.7,7.7
		c4.3,0,7.7-3.5,7.7-7.7V35.1c0-0.5,0.4-1,1-1c0.5,0,1,0.4,1,1v13.1C293.7,53.6,289.4,58,284,58z"/>
	<path class="st1" d="M292.7,39.9c-0.5,0-1-0.4-1-1V25.8c0-5.4,4.4-9.7,9.7-9.7s9.7,4.4,9.7,9.7v4.8c0,0.5-0.4,1-1,1
		c-0.5,0-1-0.4-1-1v-4.8c0-4.3-3.5-7.7-7.7-7.7s-7.7,3.5-7.7,7.7v13.1C293.7,39.4,293.3,39.9,292.7,39.9z"/>
	<g>
		<path class="st1" d="M314.7,40.2c-0.5,0-1-0.4-1-1v-4.6c0-1.4-1.6-2.6-3.6-2.6c-1.9,0-3.6,1.2-3.6,2.6v4.6c0,0.5-0.4,1-1,1
			c-0.5,0-1-0.4-1-1v-4.6c0-2.5,2.5-4.6,5.5-4.6c3.1,0,5.5,2.1,5.5,4.6v4.6C315.7,39.8,315.3,40.2,314.7,40.2z"/>
		<g>
			<path class="st1" d="M307,44.4c-1.3,0-2.4-1.1-2.4-2.4v-3.5c0-1.3,1.1-2.4,2.4-2.4c1.3,0,2.4,1.1,2.4,2.4V42
				C309.4,43.3,308.3,44.4,307,44.4z M307,38c-0.2,0-0.4,0.2-0.4,0.4V42c0,0.2,0.2,0.4,0.4,0.4s0.4-0.2,0.4-0.4v-3.5
				C307.4,38.2,307.2,38,307,38z"/>
			<path class="st1" d="M313.4,44.4c-1.3,0-2.4-1.1-2.4-2.4v-3.5c0-1.3,1.1-2.4,2.4-2.4c1.3,0,2.4,1.1,2.4,2.4V42
				C315.7,43.3,314.7,44.4,313.4,44.4z M313.4,38c-0.2,0-0.4,0.2-0.4,0.4V42c0,0.2,0.2,0.4,0.4,0.4c0.2,0,0.4-0.2,0.4-0.4v-3.5
				C313.8,38.2,313.6,38,313.4,38z"/>
		</g>
	</g>
</g>
<g>
	<g>
		<path class="st3" d="M329.8,74.5c-0.5,0-1-0.4-1-1V49.3c0-0.5,0.4-1,1-1s1,0.4,1,1v24.2C330.8,74,330.3,74.5,329.8,74.5z"/>
		<rect x="326.2" y="52.8" class="st3" width="7.2" height="2"/>
	</g>
	<path class="st3" d="M341.2,74.5c-0.5,0-1-0.4-1-1V49.3c0-0.5,0.4-1,1-1c0.5,0,1,0.4,1,1v24.2C342.2,74,341.7,74.5,341.2,74.5z"/>
	<rect x="337.6" y="56.6" class="st3" width="7.2" height="2"/>
	<path class="st3" d="M352.6,74.5c-0.5,0-1-0.4-1-1V49.3c0-0.5,0.4-1,1-1c0.5,0,1,0.4,1,1v24.2C353.6,74,353.1,74.5,352.6,74.5z"/>
	<rect x="349" y="60.5" class="st3" width="7.2" height="2"/>
	<path class="st3" d="M363.9,74.5c-0.5,0-1-0.4-1-1V49.3c0-0.5,0.4-1,1-1c0.5,0,1,0.4,1,1v24.2C364.9,74,364.5,74.5,363.9,74.5z"/>
	<rect x="360.4" y="54.2" class="st3" width="7.2" height="2"/>
</g>
<g>
	<path class="st1" d="M331,138c-1.7,0-3.4-0.2-5.1-0.7c-5.1-1.4-9.4-4.6-12-9.2c-2.6-4.6-3.3-9.9-2-15c1.4-5.1,4.6-9.4,9.2-12
		c9.4-5.4,21.5-2.2,27,7.2c0.3,0.5,0.1,1.1-0.4,1.4c-0.5,0.3-1.1,0.1-1.4-0.4c-4.9-8.5-15.8-11.4-24.3-6.5
		c-4.1,2.4-7.1,6.2-8.3,10.8c-1.2,4.6-0.6,9.4,1.8,13.5c2.4,4.1,6.2,7.1,10.8,8.3c4.6,1.2,9.4,0.6,13.5-1.8
		c4.9-2.8,8.2-7.9,8.8-13.6c0.1-0.5,0.6-0.9,1.1-0.9c0.5,0.1,0.9,0.5,0.9,1.1c-0.6,6.3-4.3,11.9-9.8,15.1
		C337.8,137.1,334.5,138,331,138z"/>
	<path class="st1" d="M331,126c-0.7,0-1.3-0.1-2-0.3c-2-0.5-3.7-1.8-4.7-3.6c-1-1.8-1.3-3.9-0.8-5.9c0.5-2,1.8-3.7,3.6-4.7
		c1.8-1,3.9-1.3,5.9-0.8c2,0.5,3.7,1.8,4.7,3.6c1,1.8,1.3,3.9,0.8,5.9c-0.5,2-1.8,3.7-3.6,4.7C333.7,125.6,332.4,126,331,126z
		 M331,112.5c-1,0-2,0.3-2.9,0.8c-1.3,0.8-2.3,2-2.7,3.5c-0.4,1.5-0.2,3,0.6,4.4c0.8,1.3,2,2.3,3.5,2.7c1.5,0.4,3,0.2,4.4-0.6
		c1.3-0.8,2.3-2,2.7-3.5c0.4-1.5,0.2-3-0.6-4.4l0,0c-0.8-1.3-2-2.3-3.5-2.7C332,112.6,331.5,112.5,331,112.5z"/>
	<path class="st1" d="M331,123.1c-0.4,0-0.8-0.1-1.3-0.2c-1.2-0.3-2.3-1.1-2.9-2.2c-0.6-1.1-0.8-2.4-0.5-3.6
		c0.3-1.2,1.1-2.3,2.2-2.9c2.3-1.3,5.2-0.5,6.6,1.8c0,0,0,0,0,0c1.3,2.3,0.5,5.2-1.8,6.6C332.7,122.8,331.8,123.1,331,123.1z
		 M331,115.4c-0.5,0-1,0.1-1.4,0.4c-0.7,0.4-1.1,1-1.3,1.7c-0.2,0.7-0.1,1.5,0.3,2.1c0.4,0.7,1,1.1,1.7,1.3c0.7,0.2,1.5,0.1,2.1-0.3
		c1.3-0.8,1.8-2.5,1-3.8C332.9,115.9,332,115.4,331,115.4z"/>
	<g>
		<path class="st1" d="M325,115.7c-0.3,0-0.6-0.1-0.8-0.4l-7.9-9.3c-0.4-0.4-0.3-1,0.1-1.4c0.4-0.4,1-0.3,1.4,0.1l7.9,9.3
			c0.4,0.4,0.3,1-0.1,1.4C325.5,115.7,325.3,115.7,325,115.7z"/>
		<path class="st1" d="M330.9,112.3c-0.4,0-0.8-0.3-0.9-0.7l-4.1-11.5c-0.2-0.5,0.1-1.1,0.6-1.3c0.5-0.2,1.1,0.1,1.3,0.6l4.1,11.5
			c0.2,0.5-0.1,1.1-0.6,1.3C331.2,112.3,331.1,112.3,330.9,112.3z"/>
	</g>
	<g>
		<path class="st1" d="M335.3,137.8c-0.4,0-0.8-0.3-0.9-0.7l-4.1-11.5c-0.2-0.5,0.1-1.1,0.6-1.3c0.5-0.2,1.1,0.1,1.3,0.6l4.1,11.5
			c0.2,0.5-0.1,1.1-0.6,1.3C335.5,137.8,335.4,137.8,335.3,137.8z"/>
		<path class="st1" d="M344.9,132.2c-0.3,0-0.6-0.1-0.8-0.4l-7.9-9.3c-0.4-0.4-0.3-1,0.1-1.4c0.4-0.4,1-0.3,1.4,0.1l7.9,9.3
			c0.4,0.4,0.3,1-0.1,1.4C345.4,132.1,345.2,132.2,344.9,132.2z"/>
	</g>
	<g>
		<path class="st1" d="M358.3,106.4h-7.2v-7.2h7.2V106.4z M353.1,104.5h3.2v-3.2h-3.2V104.5z"/>
		<polygon class="st1" points="345.5,117.8 344.4,116.1 353.7,110.4 353.7,105.5 355.7,105.5 355.7,111.5 		"/>
		<circle class="st1" cx="344.9" cy="117" r="1.8"/>
	</g>
</g>
<g>
	<g>
		<path class="st1" d="M68.3,125.5c-0.4,0-0.8,0-1.2-0.1c-2.5-0.6-4.1-2.9-3.5-5.2c0.5-2.3,3-3.6,5.5-3c2.5,0.6,4,2.9,3.5,5.2l0,0
			C72.2,124.2,70.4,125.5,68.3,125.5z M67.9,119c-1.1,0-2.1,0.6-2.4,1.6c-0.3,1.2,0.6,2.4,2,2.8c1.4,0.3,2.8-0.4,3.1-1.5
			c0.3-1.2-0.6-2.4-2-2.8C68.4,119.1,68.2,119,67.9,119z"/>
		<path class="st1" d="M71.7,123.1c-0.1,0-0.2,0-0.2,0c-0.5-0.1-0.9-0.7-0.7-1.2l5-21.1c0.1-0.5,0.7-0.9,1.2-0.7
			c0.5,0.1,0.9,0.7,0.7,1.2l-5,21.1C72.5,122.8,72.1,123.1,71.7,123.1z"/>
		<path class="st1" d="M78,108.9c-1.2,0-2.4-0.4-3.4-1.4c-0.2-0.2-0.3-0.6-0.2-0.9l1.4-6c0.1-0.4,0.4-0.7,0.8-0.8
			c0.4,0,0.8,0.2,1,0.5c1.3,2.4,3.1,2.5,5.3,2.5c2.3,0.1,5.1,0.1,7,3.6c0.2,0.4,0.1,1-0.3,1.3c-0.4,0.3-1,0.2-1.3-0.1
			c-1.3-1.4-3.1-0.8-5.8,0.2C81.1,108.3,79.5,108.9,78,108.9z M76.4,106.5c1.2,0.9,2.9,0.4,5.4-0.5c1-0.4,2-0.7,3-1
			c-0.6-0.1-1.3-0.1-2-0.1c-1.8,0-3.9-0.1-5.7-1.8L76.4,106.5z"/>
	</g>
	<path class="st1" d="M83.4,115.8h-2.3c-0.5,0-1-0.4-1-1c0-0.5,0.4-1,1-1h2.3c4.9,0,8.8-4,8.8-8.8c0-4.9-4-8.8-8.8-8.8
		c-0.8,0-1.5,0.1-2.2,0.3c-0.3,0.1-0.6,0-0.9-0.2c-0.2-0.2-0.4-0.5-0.4-0.8c0-6.1-5-11-11.1-11c-5,0-9.4,3.4-10.7,8.2
		c-0.1,0.5-0.6,0.8-1.1,0.7c-0.7-0.1-1.3-0.2-2-0.2c-5.7,0-10.3,4.6-10.3,10.3s4.6,10.3,10.3,10.3h11.2c0.5,0,1,0.4,1,1
		c0,0.5-0.4,1-1,1H55c-6.8,0-12.3-5.5-12.3-12.3c0-6.8,5.5-12.3,12.3-12.3c0.5,0,1,0,1.5,0.1c1.8-5.2,6.7-8.8,12.3-8.8
		c6.8,0,12.4,5.2,13,11.8c0.5-0.1,1-0.1,1.5-0.1c6,0,10.8,4.9,10.8,10.8C94.2,111,89.3,115.8,83.4,115.8z"/>
</g>
<g>
	<g>
		<path class="st1" d="M41.8,41.5h-8.7V36h8.7V41.5z M35.1,39.5h4.7V38h-4.7V39.5z"/>
		<path class="st1" d="M41.8,47.5h-8.7v-5.5h8.7V47.5z M35.1,45.5h4.7v-1.6h-4.7V45.5z"/>
		<path class="st1" d="M41.8,53.4h-8.7v-5.5h8.7V53.4z M35.1,51.4h4.7v-1.6h-4.7V51.4z"/>
		<path class="st1" d="M41.8,59.4h-8.7v-5.5h8.7V59.4z M35.1,57.4h4.7v-1.6h-4.7V57.4z"/>
		<path class="st1" d="M41.8,65.3h-8.7v-5.5h8.7V65.3z M35.1,63.3h4.7v-1.6h-4.7V63.3z"/>
	</g>
	<g>
		<path class="st1" d="M53.7,53.4H45v-5.5h8.7V53.4z M47,51.4h4.7v-1.6H47V51.4z"/>
		<path class="st1" d="M53.7,59.4H45v-5.5h8.7V59.4z M47,57.4h4.7v-1.6H47V57.4z"/>
		<path class="st1" d="M53.7,65.3H45v-5.5h8.7V65.3z M47,63.3h4.7v-1.6H47V63.3z"/>
	</g>
	<g>
		<path class="st1" d="M65.7,59.4h-8.7v-5.5h8.7V59.4z M58.9,57.4h4.7v-1.6h-4.7V57.4z"/>
		<path class="st1" d="M65.7,65.3h-8.7v-5.5h8.7V65.3z M58.9,63.3h4.7v-1.6h-4.7V63.3z"/>
	</g>
	<g>
		<path class="st1" d="M77.6,47.5h-8.7v-5.5h8.7V47.5z M70.9,45.5h4.7v-1.6h-4.7V45.5z"/>
		<path class="st1" d="M77.6,53.4h-8.7v-5.5h8.7V53.4z M70.9,51.4h4.7v-1.6h-4.7V51.4z"/>
		<path class="st1" d="M77.6,59.4h-8.7v-5.5h8.7V59.4z M70.9,57.4h4.7v-1.6h-4.7V57.4z"/>
		<path class="st1" d="M77.6,65.3h-8.7v-5.5h8.7V65.3z M70.9,63.3h4.7v-1.6h-4.7V63.3z"/>
	</g>
</g>
<g>
	<g>
		<path class="st2" d="M125.6,45.3h-29c-1.4,0-2.5-1.1-2.5-2.5V2.5c0-1.4,1.1-2.5,2.5-2.5h29c1.4,0,2.5,1.1,2.5,2.5v40.4
			C128.1,44.2,127,45.3,125.6,45.3z M96.7,2c-0.3,0-0.5,0.2-0.5,0.5v40.4c0,0.3,0.2,0.5,0.5,0.5h29c0.3,0,0.5-0.2,0.5-0.5V2.5
			c0-0.3-0.2-0.5-0.5-0.5H96.7z"/>
		<g>
			<path class="st2" d="M111.2,39.2c-4.4,0-8-3.6-8-8c0-4.4,3.6-8,8-8c4.4,0,8,3.6,8,8C119.2,35.6,115.6,39.2,111.2,39.2z
				 M111.2,25.1c-3.3,0-6.1,2.7-6.1,6.1s2.7,6.1,6.1,6.1c3.3,0,6.1-2.7,6.1-6.1S114.5,25.1,111.2,25.1z"/>
			<g>
				<path class="st2" d="M111.2,24.8c-0.5,0-1-0.4-1-1v-3.1c0-0.5,0.4-1,1-1c0.5,0,1,0.4,1,1v3.1C112.2,24.4,111.7,24.8,111.2,24.8z
					"/>
				<path class="st2" d="M111.2,42.6c-0.5,0-1-0.4-1-1v-3.1c0-0.5,0.4-1,1-1c0.5,0,1,0.4,1,1v3.1C112.2,42.1,111.7,42.6,111.2,42.6z
					"/>
			</g>
			<g>
				<path class="st2" d="M121.6,32.2h-3.1c-0.5,0-1-0.4-1-1c0-0.5,0.4-1,1-1h3.1c0.5,0,1,0.4,1,1C122.6,31.7,122.1,32.2,121.6,32.2z
					"/>
				<path class="st2" d="M103.8,32.2h-3.1c-0.5,0-1-0.4-1-1c0-0.5,0.4-1,1-1h3.1c0.5,0,1,0.4,1,1C104.8,31.7,104.4,32.2,103.8,32.2z
					"/>
			</g>
			<path class="st2" d="M111.2,36c-2.7,0-4.8-2.2-4.8-4.8c0-2.7,2.2-4.8,4.8-4.8c2.7,0,4.8,2.2,4.8,4.8C116,33.9,113.8,36,111.2,36z
				 M111.2,28.3c-1.6,0-2.9,1.3-2.9,2.9c0,1.6,1.3,2.9,2.9,2.9s2.9-1.3,2.9-2.9C114,29.6,112.7,28.3,111.2,28.3z"/>
		</g>
		<path class="st2" d="M111.2,16.6c-3.3,0-6-2.7-6-6s2.7-6,6-6s6,2.7,6,6S114.5,16.6,111.2,16.6z M111.2,6.6c-2.2,0-4,1.8-4,4
			c0,2.2,1.8,4,4,4c2.2,0,4-1.8,4-4C115.2,8.4,113.4,6.6,111.2,6.6z"/>
		<g>
			<path class="st2" d="M111.2,6.4c-0.5,0-1-0.4-1-1V3.3c0-0.5,0.4-1,1-1c0.5,0,1,0.4,1,1v2.2C112.2,6,111.7,6.4,111.2,6.4z"/>
			<path class="st2" d="M111.2,19c-0.5,0-1-0.4-1-1v-2.2c0-0.5,0.4-1,1-1c0.5,0,1,0.4,1,1V18C112.2,18.6,111.7,19,111.2,19z"/>
		</g>
		<g>
			<path class="st2" d="M118.5,11.6h-2.2c-0.5,0-1-0.4-1-1c0-0.5,0.4-1,1-1h2.2c0.5,0,1,0.4,1,1C119.5,11.2,119.1,11.6,118.5,11.6z"
				/>
			<path class="st2" d="M106,11.6h-2.2c-0.5,0-1-0.4-1-1c0-0.5,0.4-1,1-1h2.2c0.5,0,1,0.4,1,1C107,11.2,106.5,11.6,106,11.6z"/>
		</g>
		<path class="st2" d="M111.2,14.4c-2.1,0-3.7-1.7-3.7-3.7c0-2.1,1.7-3.7,3.7-3.7c2.1,0,3.7,1.7,3.7,3.7
			C114.9,12.7,113.2,14.4,111.2,14.4z M111.2,8.9c-1,0-1.7,0.8-1.7,1.7c0,1,0.8,1.7,1.7,1.7c1,0,1.7-0.8,1.7-1.7
			C112.9,9.7,112.1,8.9,111.2,8.9z"/>
	</g>
	<g>
		<g>
			<path class="st2" d="M99,7.7c-1.6,0-2.9-1.3-2.9-2.9C96.1,3.2,97.4,2,99,2c1.6,0,2.9,1.3,2.9,2.9C101.9,6.4,100.6,7.7,99,7.7z
				 M99,3.9c-0.5,0-0.9,0.4-0.9,0.9c0,0.5,0.4,0.9,0.9,0.9c0.5,0,0.9-0.4,0.9-0.9C99.9,4.3,99.5,3.9,99,3.9z"/>
			<path class="st2" d="M123.3,7.7c-1.6,0-2.9-1.3-2.9-2.9c0-1.6,1.3-2.9,2.9-2.9s2.9,1.3,2.9,2.9C126.2,6.4,124.9,7.7,123.3,7.7z
				 M123.3,3.9c-0.5,0-0.9,0.4-0.9,0.9c0,0.5,0.4,0.9,0.9,0.9c0.5,0,0.9-0.4,0.9-0.9C124.2,4.3,123.8,3.9,123.3,3.9z"/>
		</g>
		<g>
			<path class="st2" d="M99,43.4c-1.6,0-2.9-1.3-2.9-2.9c0-1.6,1.3-2.9,2.9-2.9c1.6,0,2.9,1.3,2.9,2.9
				C101.9,42.1,100.6,43.4,99,43.4z M99,39.6c-0.5,0-0.9,0.4-0.9,0.9c0,0.5,0.4,0.9,0.9,0.9c0.5,0,0.9-0.4,0.9-0.9
				C99.9,40,99.5,39.6,99,39.6z"/>
			<path class="st2" d="M123.3,43.4c-1.6,0-2.9-1.3-2.9-2.9c0-1.6,1.3-2.9,2.9-2.9s2.9,1.3,2.9,2.9
				C126.2,42.1,124.9,43.4,123.3,43.4z M123.3,39.6c-0.5,0-0.9,0.4-0.9,0.9c0,0.5,0.4,0.9,0.9,0.9c0.5,0,0.9-0.4,0.9-0.9
				C124.2,40,123.8,39.6,123.3,39.6z"/>
		</g>
	</g>
</g>
<g>
	<path class="st1" d="M304.5,191.8c-0.3,0-0.6-0.1-0.8-0.3l-9-6.2h-11.3c-0.5,0-1-0.4-1-1V172c0-0.5,0.4-1,1-1h11.3l9-6.2l0,0
		c0.5-0.3,1.1-0.4,1.5-0.1c0.5,0.3,0.8,0.8,0.8,1.3v24.3c0,0.6-0.3,1.1-0.8,1.3C305,191.7,304.7,191.8,304.5,191.8z M284.3,183.3
		h10.6c0.2,0,0.4,0.1,0.6,0.2l8.5,5.9v-22.4l-8.5,5.9c-0.2,0.1-0.4,0.2-0.6,0.2h-10.6V183.3z M304.8,166.4L304.8,166.4L304.8,166.4
		L304.8,166.4z"/>
	<g>
		<path class="st1" d="M318.1,194.3c-0.3,0-0.6-0.1-0.8-0.4c-0.3-0.4-0.2-1.1,0.2-1.4c4.4-3.2,7.1-8.6,7.1-14.3
			c0-5.7-2.6-11.1-7.1-14.3c-0.4-0.3-0.5-0.9-0.2-1.4c0.3-0.4,0.9-0.5,1.4-0.2c4.9,3.6,7.9,9.6,7.9,15.9c0,6.4-2.9,12.3-7.9,15.9
			C318.5,194.2,318.3,194.3,318.1,194.3z"/>
		<path class="st1" d="M314.1,188.5c-0.3,0-0.6-0.1-0.8-0.4c-0.3-0.4-0.2-1.1,0.2-1.4c2.6-1.9,4.2-5.1,4.2-8.5
			c0-3.4-1.6-6.6-4.2-8.5c-0.4-0.3-0.5-0.9-0.2-1.4c0.3-0.4,0.9-0.5,1.4-0.2c3.1,2.3,5,6.1,5,10.1c0,4-1.9,7.8-5,10.1
			C314.5,188.4,314.3,188.5,314.1,188.5z"/>
		<path class="st1" d="M309.1,185.5c-0.3,0-0.6-0.1-0.8-0.4c-0.3-0.4-0.2-1.1,0.2-1.4c1.7-1.2,2.7-3.3,2.7-5.5c0-2.2-1-4.3-2.7-5.5
			c-0.4-0.3-0.5-0.9-0.2-1.4c0.3-0.4,0.9-0.5,1.4-0.2c2.2,1.6,3.5,4.3,3.5,7.1c0,2.9-1.3,5.5-3.5,7.1
			C309.5,185.4,309.3,185.5,309.1,185.5z"/>
	</g>
</g>
<path class="st2" d="M182.8,175.5h-3c-0.5,0-1-0.4-1-1c0-0.5,0.4-1,1-1h3c0.5,0,1,0.4,1,1C183.8,175.1,183.3,175.5,182.8,175.5z
	 M176.8,175.5h-3c-0.5,0-1-0.4-1-1c0-0.5,0.4-1,1-1h3c0.5,0,1,0.4,1,1C177.8,175.1,177.4,175.5,176.8,175.5z M170.9,175.5h-3
	c-0.5,0-1-0.4-1-1c0-0.5,0.4-1,1-1h3c0.5,0,1,0.4,1,1C171.9,175.1,171.4,175.5,170.9,175.5z M164.9,175.5h-3c-0.5,0-1-0.4-1-1
	c0-0.5,0.4-1,1-1h3c0.5,0,1,0.4,1,1C165.9,175.1,165.5,175.5,164.9,175.5z M159,175.5h-3c-0.5,0-1-0.4-1-1c0-0.5,0.4-1,1-1h3
	c0.5,0,1,0.4,1,1C159.9,175.1,159.5,175.5,159,175.5z"/>
<path class="st2" d="M339.7,154.7h-3c-0.5,0-1-0.4-1-1c0-0.5,0.4-1,1-1h3c0.5,0,1,0.4,1,1C340.7,154.2,340.3,154.7,339.7,154.7z
	 M333.8,154.7h-3c-0.5,0-1-0.4-1-1c0-0.5,0.4-1,1-1h3c0.5,0,1,0.4,1,1C334.8,154.2,334.3,154.7,333.8,154.7z M327.8,154.7h-3
	c-0.5,0-1-0.4-1-1c0-0.5,0.4-1,1-1h3c0.5,0,1,0.4,1,1C328.8,154.2,328.4,154.7,327.8,154.7z M321.9,154.7h-3c-0.5,0-1-0.4-1-1
	c0-0.5,0.4-1,1-1h3c0.5,0,1,0.4,1,1C322.9,154.2,322.4,154.7,321.9,154.7z M315.9,154.7h-3c-0.5,0-1-0.4-1-1c0-0.5,0.4-1,1-1h3
	c0.5,0,1,0.4,1,1C316.9,154.2,316.5,154.7,315.9,154.7z"/>
<path class="st2" d="M247,44h-3c-0.5,0-1-0.4-1-1c0-0.5,0.4-1,1-1h3c0.5,0,1,0.4,1,1C248,43.6,247.5,44,247,44z M241,44h-3
	c-0.5,0-1-0.4-1-1c0-0.5,0.4-1,1-1h3c0.5,0,1,0.4,1,1C242,43.6,241.6,44,241,44z M235,44h-3c-0.5,0-1-0.4-1-1c0-0.5,0.4-1,1-1h3
	c0.5,0,1,0.4,1,1C236,43.6,235.6,44,235,44z M229.1,44h-3c-0.5,0-1-0.4-1-1c0-0.5,0.4-1,1-1h3c0.5,0,1,0.4,1,1
	C230.1,43.6,229.6,44,229.1,44z M223.1,44h-3c-0.5,0-1-0.4-1-1c0-0.5,0.4-1,1-1h3c0.5,0,1,0.4,1,1C224.1,43.6,223.7,44,223.1,44z
	 M217.2,44h-3c-0.5,0-1-0.4-1-1c0-0.5,0.4-1,1-1h3c0.5,0,1,0.4,1,1C218.2,43.6,217.7,44,217.2,44z"/>
<path class="st0" d="M73.8,21h-3c-0.5,0-1-0.4-1-1c0-0.5,0.4-1,1-1h3c0.5,0,1,0.4,1,1C74.8,20.5,74.4,21,73.8,21z M67.9,21h-3
	c-0.5,0-1-0.4-1-1c0-0.5,0.4-1,1-1h3c0.5,0,1,0.4,1,1C68.8,20.5,68.4,21,67.9,21z M61.9,21h-3c-0.5,0-1-0.4-1-1c0-0.5,0.4-1,1-1h3
	c0.5,0,1,0.4,1,1C62.9,20.5,62.4,21,61.9,21z M55.9,21h-3c-0.5,0-1-0.4-1-1c0-0.5,0.4-1,1-1h3c0.5,0,1,0.4,1,1
	C56.9,20.5,56.5,21,55.9,21z M50,21h-3c-0.5,0-1-0.4-1-1c0-0.5,0.4-1,1-1h3c0.5,0,1,0.4,1,1C51,20.5,50.5,21,50,21z M44,21h-3
	c-0.5,0-1-0.4-1-1c0-0.5,0.4-1,1-1h3c0.5,0,1,0.4,1,1C45,20.5,44.6,21,44,21z"/>
<path class="st2" d="M264.8,174.8h-0.8c-0.5,0-1-0.4-1-1c0-0.5,0.4-1,1-1h0.8c0.5,0,1.1-0.1,1.5-0.4c0.5-0.3,1.1-0.1,1.4,0.3
	c0.3,0.5,0.1,1.1-0.3,1.4C266.6,174.5,265.7,174.8,264.8,174.8z M261,174.8h-3c-0.5,0-1-0.4-1-1c0-0.5,0.4-1,1-1h3c0.5,0,1,0.4,1,1
	C262,174.3,261.5,174.8,261,174.8z M255,174.8h-3c-0.5,0-1-0.4-1-1c0-0.5,0.4-1,1-1h3c0.5,0,1,0.4,1,1
	C256,174.3,255.6,174.8,255,174.8z M249.1,174.8h-3c-0.5,0-1-0.4-1-1c0-0.5,0.4-1,1-1h3c0.5,0,1,0.4,1,1
	C250,174.3,249.6,174.8,249.1,174.8z M268.6,171.9c-0.1,0-0.2,0-0.3,0c-0.5-0.2-0.8-0.7-0.7-1.2c0.1-0.3,0.1-0.5,0.1-0.8
	c0-0.5-0.1-0.9-0.3-1.3c-0.3-0.5-0.1-1.1,0.4-1.3c0.5-0.3,1.1-0.1,1.3,0.4c0.4,0.7,0.5,1.5,0.5,2.3c0,0.5-0.1,0.9-0.2,1.4
	C269.4,171.6,269,171.9,268.6,171.9z M266.1,167.1c-0.1,0-0.2,0-0.3-0.1c-0.3-0.1-0.7-0.2-1-0.2h-1.6c-0.5,0-1-0.4-1-1
	c0-0.5,0.4-1,1-1h1.6c0.6,0,1.2,0.1,1.7,0.3c0.5,0.2,0.8,0.8,0.6,1.3C266.9,166.8,266.5,167.1,266.1,167.1z M260.2,166.8h-3
	c-0.5,0-1-0.4-1-1c0-0.5,0.4-1,1-1h3c0.5,0,1,0.4,1,1C261.2,166.4,260.8,166.8,260.2,166.8z M254.3,166.8h-3c-0.5,0-1-0.4-1-1
	c0-0.5,0.4-1,1-1h3c0.5,0,1,0.4,1,1C255.2,166.4,254.8,166.8,254.3,166.8z M248.4,166.4c-0.2,0-0.3,0-0.5-0.1
	c-1.1-0.6-2-1.6-2.4-2.7c-0.2-0.5,0.1-1.1,0.6-1.3c0.5-0.2,1.1,0.1,1.3,0.6c0.3,0.7,0.8,1.3,1.4,1.6c0.5,0.3,0.7,0.9,0.4,1.3
	C249.1,166.2,248.7,166.4,248.4,166.4z M246.5,161.3c-0.1,0-0.3,0-0.4-0.1c-0.5-0.2-0.7-0.8-0.5-1.3c0.5-1.2,1.4-2.1,2.6-2.6
	c0.5-0.2,1.1,0,1.3,0.5c0.2,0.5,0,1.1-0.5,1.3c-0.7,0.3-1.2,0.9-1.5,1.6C247.3,161,246.9,161.3,246.5,161.3z M278.3,158.9h-3
	c-0.5,0-1-0.4-1-1c0-0.5,0.4-1,1-1h3c0.5,0,1,0.4,1,1C279.3,158.4,278.9,158.9,278.3,158.9z M272.4,158.9h-3c-0.5,0-1-0.4-1-1
	c0-0.5,0.4-1,1-1h3c0.5,0,1,0.4,1,1C273.4,158.4,272.9,158.9,272.4,158.9z M266.4,158.9h-3c-0.5,0-1-0.4-1-1c0-0.5,0.4-1,1-1h3
	c0.5,0,1,0.4,1,1C267.4,158.4,267,158.9,266.4,158.9z M260.5,158.9h-3c-0.5,0-1-0.4-1-1c0-0.5,0.4-1,1-1h3c0.5,0,1,0.4,1,1
	C261.4,158.4,261,158.9,260.5,158.9z M254.5,158.9h-3c-0.5,0-1-0.4-1-1c0-0.5,0.4-1,1-1h3c0.5,0,1,0.4,1,1
	C255.5,158.4,255,158.9,254.5,158.9z"/>
<path class="st1" d="M85.8,173.7H46.5c-2.4,0-4.4-2-4.4-4.4c0-2.4,2-4.4,4.4-4.4h19.6c1.3,0,2.4-1.1,2.4-2.4c0-1.3-1.1-2.4-2.4-2.4
	h-5.5c-2.4,0-4.4-2-4.4-4.4c0-2.4,2-4.4,4.4-4.4H100c2.4,0,4.4,2,4.4,4.4c0,2.4-2,4.4-4.4,4.4H80.3c-1.3,0-2.4,1.1-2.4,2.4
	c0,1.3,1.1,2.4,2.4,2.4h5.5c2.4,0,4.4,2,4.4,4.4C90.2,171.8,88.3,173.7,85.8,173.7z M46.5,166.9c-1.3,0-2.4,1.1-2.4,2.4
	c0,1.3,1.1,2.4,2.4,2.4h39.3c1.3,0,2.4-1.1,2.4-2.4c0-1.3-1.1-2.4-2.4-2.4h-5.5c-2.4,0-4.4-2-4.4-4.4c0-2.4,2-4.4,4.4-4.4H100
	c1.3,0,2.4-1.1,2.4-2.4c0-1.3-1.1-2.4-2.4-2.4H60.7c-1.3,0-2.4,1.1-2.4,2.4c0,1.3,1.1,2.4,2.4,2.4h5.5c2.4,0,4.4,2,4.4,4.4
	c0,2.4-2,4.4-4.4,4.4H46.5z"/>
<path class="st0" d="M210.6,97.8h-22.6c-1.6,0-3-1.3-3-3c0-1.6,1.3-3,3-3h11.3c0.5,0,1-0.4,1-1c0-0.5-0.4-1-1-1h-3.2
	c-1.6,0-3-1.3-3-3c0-1.6,1.3-3,3-3h22.6c1.6,0,3,1.3,3,3c0,1.6-1.3,3-3,3h-11.3c-0.5,0-1,0.4-1,1c0,0.5,0.4,1,1,1h3.2
	c1.6,0,3,1.3,3,3C213.5,96.5,212.2,97.8,210.6,97.8z M187.9,93.9c-0.5,0-1,0.4-1,1c0,0.5,0.4,1,1,1h22.6c0.5,0,1-0.4,1-1
	c0-0.5-0.4-1-1-1h-3.2c-1.6,0-3-1.3-3-3c0-1.6,1.3-3,3-3h11.3c0.5,0,1-0.4,1-1c0-0.5-0.4-1-1-1h-22.6c-0.5,0-1,0.4-1,1
	c0,0.5,0.4,1,1,1h3.2c1.6,0,3,1.3,3,3c0,1.6-1.3,3-3,3H187.9z"/>
<g>
	<path class="st2" d="M150.6,68.3h-29.3c-0.5,0-1-0.4-1-1c0-0.5,0.4-1,1-1h29.3c0.5,0,1,0.4,1,1C151.6,67.8,151.2,68.3,150.6,68.3z"
		/>
	<path class="st2" d="M156.5,68.3h-1.8c-0.5,0-1-0.4-1-1c0-0.5,0.4-1,1-1h1.8c0.5,0,1,0.4,1,1C157.5,67.8,157.1,68.3,156.5,68.3z"/>
	<path class="st2" d="M162.2,68.3h-1.8c-0.5,0-1-0.4-1-1c0-0.5,0.4-1,1-1h1.8c0.5,0,1,0.4,1,1C163.2,67.8,162.7,68.3,162.2,68.3z"/>
	<path class="st2" d="M167.8,68.3H166c-0.5,0-1-0.4-1-1c0-0.5,0.4-1,1-1h1.8c0.5,0,1,0.4,1,1C168.8,67.8,168.4,68.3,167.8,68.3z"/>
	<path class="st2" d="M173.5,68.3h-1.8c-0.5,0-1-0.4-1-1c0-0.5,0.4-1,1-1h1.8c0.5,0,1,0.4,1,1C174.4,67.8,174,68.3,173.5,68.3z"/>
</g>
<g>
	<path class="st2" d="M83.1,140.7H53.8c-0.5,0-1-0.4-1-1c0-0.5,0.4-1,1-1h29.3c0.5,0,1,0.4,1,1C84.1,140.3,83.6,140.7,83.1,140.7z"
		/>
	<path class="st2" d="M89,140.7h-1.8c-0.5,0-1-0.4-1-1c0-0.5,0.4-1,1-1H89c0.5,0,1,0.4,1,1C90,140.3,89.6,140.7,89,140.7z"/>
	<path class="st2" d="M94.7,140.7h-1.8c-0.5,0-1-0.4-1-1c0-0.5,0.4-1,1-1h1.8c0.5,0,1,0.4,1,1C95.7,140.3,95.2,140.7,94.7,140.7z"/>
	<path class="st2" d="M100.3,140.7h-1.8c-0.5,0-1-0.4-1-1c0-0.5,0.4-1,1-1h1.8c0.5,0,1,0.4,1,1C101.3,140.3,100.9,140.7,100.3,140.7
		z"/>
	<path class="st2" d="M106,140.7h-1.8c-0.5,0-1-0.4-1-1c0-0.5,0.4-1,1-1h1.8c0.5,0,1,0.4,1,1C106.9,140.3,106.5,140.7,106,140.7z"/>
</g>
<g>
	<path class="st2" d="M165.4,75.5h-29.3c-0.5,0-1-0.4-1-1c0-0.5,0.4-1,1-1h29.3c0.5,0,1,0.4,1,1C166.4,75.1,165.9,75.5,165.4,75.5z"
		/>
	<path class="st2" d="M171.3,75.5h-1.8c-0.5,0-1-0.4-1-1c0-0.5,0.4-1,1-1h1.8c0.5,0,1,0.4,1,1C172.3,75.1,171.9,75.5,171.3,75.5z"/>
	<path class="st2" d="M177,75.5h-1.8c-0.5,0-1-0.4-1-1c0-0.5,0.4-1,1-1h1.8c0.5,0,1,0.4,1,1C178,75.1,177.5,75.5,177,75.5z"/>
	<path class="st2" d="M182.6,75.5h-1.8c-0.5,0-1-0.4-1-1c0-0.5,0.4-1,1-1h1.8c0.5,0,1,0.4,1,1C183.6,75.1,183.2,75.5,182.6,75.5z"/>
</g>
<g>
	<path class="st2" d="M179.3,144H150c-0.5,0-1-0.4-1-1c0-0.5,0.4-1,1-1h29.3c0.5,0,1,0.4,1,1C180.3,143.6,179.9,144,179.3,144z"/>
	<path class="st2" d="M185.2,144h-1.8c-0.5,0-1-0.4-1-1c0-0.5,0.4-1,1-1h1.8c0.5,0,1,0.4,1,1C186.2,143.6,185.8,144,185.2,144z"/>
	<path class="st2" d="M190.9,144H189c-0.5,0-1-0.4-1-1c0-0.5,0.4-1,1-1h1.8c0.5,0,1,0.4,1,1C191.9,143.6,191.4,144,190.9,144z"/>
	<path class="st2" d="M196.5,144h-1.8c-0.5,0-1-0.4-1-1c0-0.5,0.4-1,1-1h1.8c0.5,0,1,0.4,1,1C197.5,143.6,197.1,144,196.5,144z"/>
</g>
<path class="st2" d="M236.1,142.2c-0.5,0-1-0.4-1-1v-3c0-0.5,0.4-1,1-1c0.5,0,1,0.4,1,1v3C237.1,141.8,236.7,142.2,236.1,142.2z
	 M236.1,136.2c-0.5,0-1-0.4-1-1v-3c0-0.5,0.4-1,1-1c0.5,0,1,0.4,1,1v3C237.1,135.8,236.7,136.2,236.1,136.2z M236.1,130.3
	c-0.5,0-1-0.4-1-1v-3c0-0.5,0.4-1,1-1c0.5,0,1,0.4,1,1v3C237.1,129.8,236.7,130.3,236.1,130.3z M236.1,124.3c-0.5,0-1-0.4-1-1v-3
	c0-0.5,0.4-1,1-1c0.5,0,1,0.4,1,1v3C237.1,123.9,236.7,124.3,236.1,124.3z M236.1,118.4c-0.5,0-1-0.4-1-1v-3c0-0.5,0.4-1,1-1
	c0.5,0,1,0.4,1,1v3C237.1,117.9,236.7,118.4,236.1,118.4z M236.1,112.4c-0.5,0-1-0.4-1-1v-3c0-0.5,0.4-1,1-1c0.5,0,1,0.4,1,1v3
	C237.1,112,236.7,112.4,236.1,112.4z M236.1,106.5c-0.5,0-1-0.4-1-1v-3c0-0.5,0.4-1,1-1c0.5,0,1,0.4,1,1v3
	C237.1,106,236.7,106.5,236.1,106.5z M236.1,100.5c-0.5,0-1-0.4-1-1v-3c0-0.5,0.4-1,1-1c0.5,0,1,0.4,1,1v3
	C237.1,100.1,236.7,100.5,236.1,100.5z M236.1,94.5c-0.5,0-1-0.4-1-1v-3c0-0.5,0.4-1,1-1c0.5,0,1,0.4,1,1v3
	C237.1,94.1,236.7,94.5,236.1,94.5z M236.1,88.6c-0.5,0-1-0.4-1-1v-3c0-0.5,0.4-1,1-1c0.5,0,1,0.4,1,1v3
	C237.1,88.1,236.7,88.6,236.1,88.6z M236.1,82.6c-0.5,0-1-0.4-1-1v-3c0-0.5,0.4-1,1-1c0.5,0,1,0.4,1,1v3
	C237.1,82.2,236.7,82.6,236.1,82.6z"/>
</svg>
