<svg width="98" height="99" viewBox="0 0 98 99" fill="none" xmlns="http://www.w3.org/2000/svg">
<path fill-rule="evenodd" clip-rule="evenodd" d="M49.3126 91.7253C72.0316 91.7253 90.4496 72.6599 90.4496 49.1423C90.4496 25.6242 72.0316 6.55933 49.3126 6.55933C26.5932 6.55933 8.17529 25.6242 8.17529 49.1423C8.17529 72.6599 26.5932 91.7253 49.3126 91.7253Z" fill="white" stroke="#979797"/>
<path fill-rule="evenodd" clip-rule="evenodd" d="M49.057 89.943C70.6306 89.943 88.1199 71.8389 88.1199 49.5069C88.1199 27.1745 70.6306 9.0708 49.057 9.0708C27.483 9.0708 9.99365 27.1745 9.99365 49.5069C9.99365 71.8389 27.483 89.943 49.057 89.943Z" stroke="#4385F4" stroke-width="2" stroke-dasharray="3 3"/>
<mask id="mask0_208_692" style="mask-type:luminance" maskUnits="userSpaceOnUse" x="0" y="-1" width="98" height="101">
<path d="M6.92139 49.4619C6.92139 73.5717 25.8022 93.1162 49.0933 93.1162C72.3844 93.1162 91.2652 73.5717 91.2652 49.4619C91.2652 25.3521 72.3844 5.80713 49.0933 5.80713C25.8022 5.80713 6.92139 25.3521 6.92139 49.4619Z" stroke="#4385F4" stroke-width="12.399"/>
</mask>
<g mask="url(#mask0_208_692)">
<path d="M85.0666 49.4619C85.0666 70.3514 68.7613 86.9167 49.0942 86.9167C29.427 86.9167 13.1214 70.3513 13.1214 49.4619C13.1214 28.5723 29.4271 12.0066 49.0942 12.0066C68.7612 12.0066 85.0666 28.5722 85.0666 49.4619Z" stroke="#4385F4" stroke-width="12.399"/>
</g>
<path fill-rule="evenodd" clip-rule="evenodd" d="M52.1699 49.8724H47.3862L48.2017 48.0714L48.9084 46.3835H50.6482L51.3544 48.0714L52.1699 49.8724Z" fill="#FF7058"/>
<path fill-rule="evenodd" clip-rule="evenodd" d="M55.2152 49.8718H44.343C43.7452 49.8718 43.2559 50.378 43.2559 50.9968V54.6546H56.2484V50.9968C56.3024 50.378 55.8134 49.8718 55.2152 49.8718Z" fill="#FFD15C"/>
<path fill-rule="evenodd" clip-rule="evenodd" d="M51.3544 48.0711C50.9194 48.2964 50.4849 48.5214 50.0499 48.6904L49.7778 48.7467L49.5065 48.634C49.0712 48.465 48.6362 48.2401 48.2017 48.0148L48.9083 46.3269H50.5933L51.3544 48.0711Z" fill="#F1543F"/>
<path fill-rule="evenodd" clip-rule="evenodd" d="M60.6526 33.0466C60.6526 35.7472 59.7287 38.2238 58.1521 40.1933C56.141 42.669 53.1508 44.301 49.7804 44.301C46.4104 44.301 43.4202 42.7253 41.4091 40.1933C39.887 38.2801 38.9082 35.7472 38.9082 33.0466V32.9903H60.5982V33.0466H60.6526ZM36.7339 30.7395V33.0466C36.7339 38.674 40.1043 43.5132 44.8339 45.539C46.3556 46.2142 48.041 46.5518 49.7804 46.5518C51.5202 46.5518 53.2052 46.2142 54.7273 45.539C59.4566 43.5132 62.8273 38.674 62.8273 33.0466V30.7395H36.7339ZM58.2608 27.6443H41.3001C40.9195 27.6443 40.6478 27.9819 40.6478 28.3199C40.6478 28.7138 40.9195 29.0513 41.3001 29.0513H58.2608C58.6413 29.0513 58.9134 28.7138 58.9134 28.3758C58.9134 27.9819 58.6413 27.6443 58.2608 27.6443Z" fill="#F8B64C"/>
<path fill-rule="evenodd" clip-rule="evenodd" d="M58.2591 29.0513V35.1285C58.2591 40.7559 54.8887 45.8767 49.7786 47.9025C44.6688 45.8203 41.2988 40.7559 41.2988 35.0726V29.0513H58.2591Z" fill="#FFD15C"/>
<path fill-rule="evenodd" clip-rule="evenodd" d="M41.2988 29.8959H58.2055V29.0518H41.2988V29.8959Z" fill="#FFC952"/>
<path fill-rule="evenodd" clip-rule="evenodd" d="M54.0146 32.2485H47.7611C45.4998 32.8051 45.4517 34.7453 45.4517 34.7453V41.3005H47.8573V35.3321C47.8573 34.8245 48.3381 34.7349 48.3381 34.7349H54.0146V32.2485ZM49.0363 35.456C49.0363 35.456 48.5493 35.4062 48.5493 35.8523V37.8336H51.7625V38.4283C51.7625 38.4283 51.7721 38.7249 51.4705 38.7249H48.5493V41.3005H52.0545C52.0545 41.3005 54.1778 40.9644 54.1971 38.7249V35.456H49.0363Z" fill="white"/>
<g opacity="0.5">
<path fill-rule="evenodd" clip-rule="evenodd" d="M18.2707 34.7683C18.2735 34.7609 18.2751 34.7563 18.2751 34.7563C18.2739 34.7568 18.2727 34.7613 18.2707 34.7683ZM16.2847 40.1132C16.2862 40.1058 16.2874 40.1017 16.2874 40.1017C16.2862 40.1017 16.2855 40.1062 16.2847 40.1132ZM15.4914 45.0673C15.4926 45.0455 15.493 45.034 15.4918 45.036C15.4898 45.0364 15.4898 45.0471 15.4914 45.0673ZM14.6977 50.4003C14.6969 50.3867 14.6965 50.3797 14.6965 50.3813C14.6953 50.3817 14.6957 50.3883 14.6977 50.4003ZM15.094 56.1459C15.0932 56.1402 15.0932 56.1369 15.0936 56.1377C15.0928 56.1381 15.0928 56.141 15.094 56.1459ZM15.8877 61.4858C15.8877 61.4846 15.8873 61.4825 15.8881 61.483C15.8873 61.4834 15.8873 61.4842 15.8877 61.4858ZM21.0679 71.7854C21.0568 71.7702 21.0508 71.7623 21.0516 71.7623C21.0496 71.764 21.056 71.7722 21.0679 71.7854ZM25.0477 76.7195C25.0318 76.7047 25.0235 76.6965 25.0235 76.6965C25.0223 76.6989 25.0307 76.7068 25.0477 76.7195ZM29.4255 80.8296C29.4037 80.8161 29.3922 80.8083 29.393 80.8083C29.391 80.8111 29.4025 80.8185 29.4255 80.8296Z" fill="#4385F4"/>
<path fill-rule="evenodd" clip-rule="evenodd" d="M48.4591 82.3155C45.3696 82.4624 42.3744 82.058 39.5732 81.2218C40.6041 79.8408 38.8991 78.4682 37.2669 77.1452C35.5567 75.8282 33.8445 74.5108 33.8437 74.5065C33.8063 74.5377 35.8589 76.6494 35.6614 78.4891C35.5933 78.9615 35.612 79.3753 35.6949 79.7365C35.2274 79.5158 34.7667 79.2839 34.3152 79.0396C35.5157 77.8516 34.1555 76.1523 32.8506 74.5398C31.4697 72.9119 30.0765 71.3143 30.0757 71.3105C30.0359 71.3323 31.6075 73.7925 31.0938 75.6049C30.9465 76.0639 30.8908 76.4816 30.9051 76.8574C30.4994 76.5559 30.1032 76.2459 29.7181 75.9256C31.068 74.9425 30.0829 73.0024 29.1232 71.1828C28.0967 69.3328 27.0367 67.5379 27.0359 67.5345C26.9965 67.5469 28.0696 70.2352 27.2573 71.9643C27.034 72.4012 26.9073 72.8111 26.856 73.1903C26.5207 72.8235 26.1954 72.4494 25.8808 72.0685C27.325 71.3007 26.7616 69.2235 26.148 67.2608C25.4671 65.2639 24.7352 63.3879 24.7428 63.3597C24.705 63.364 25.2891 66.1684 24.2029 67.7634C23.9126 68.1619 23.7195 68.5492 23.6044 68.9173C23.344 68.5043 23.0931 68.0867 22.8526 67.6639C24.3908 67.1109 24.1933 64.9808 23.9205 62.966C23.5889 60.9067 23.1795 58.9688 23.1795 58.9466C23.1445 58.944 23.2663 61.7694 21.9392 63.1842C21.59 63.5357 21.3379 63.8892 21.1643 64.2356C21.0433 63.949 20.9262 63.6616 20.8139 63.3729C20.7267 63.1496 20.6431 62.9254 20.5611 62.7008C22.1092 62.4023 22.249 60.3853 22.2912 58.47C22.2852 56.5154 22.1797 54.6672 22.1709 54.6484C22.1415 54.6411 21.8591 57.2717 20.405 58.4107C20.0199 58.6951 19.7285 58.9961 19.5142 59.2998C19.3617 58.6946 19.2259 58.0878 19.1057 57.4784C20.6419 57.4348 21.0572 55.5763 21.3578 53.7964C21.6166 51.9908 21.7592 50.2664 21.7429 50.2472C21.719 50.2382 21.1177 52.6323 19.5959 53.4902C19.1833 53.7093 18.8616 53.9565 18.6163 54.2183C18.5435 53.5291 18.4901 52.839 18.4555 52.1493C19.9279 52.3321 20.5547 50.67 21.058 49.0549C21.5219 47.4214 21.8611 45.8345 21.8388 45.8123C21.8189 45.8029 20.9792 47.9471 19.4438 48.533C19.0221 48.6825 18.6856 48.8721 18.4208 49.0865C18.4371 48.472 18.4674 47.8592 18.5112 47.2493C18.5216 47.1054 18.5339 46.9619 18.5458 46.8189C19.873 47.2007 20.7004 45.7226 21.3347 44.301C21.9587 42.8601 22.417 41.3693 22.4174 41.3642C22.4011 41.3557 21.3889 43.2594 19.8889 43.5917C19.4876 43.6724 19.1571 43.8001 18.8883 43.9585C19.0129 43.1548 19.1606 42.3549 19.3319 41.5568C20.4989 42.0453 21.4203 40.8005 22.1482 39.5569C22.8801 38.2809 23.463 36.9028 23.4642 36.8973C23.4491 36.8909 22.3127 38.5816 20.8908 38.6875C20.5447 38.708 20.2481 38.7724 19.9968 38.8702C20.2294 38.0422 20.4862 37.2159 20.7681 36.3891C21.7572 36.9088 22.7097 35.8843 23.4905 34.8077C24.3004 33.6756 24.9972 32.3881 24.9996 32.3817C24.9857 32.3783 23.7513 33.893 22.4409 33.8059C22.1717 33.7833 21.9304 33.7973 21.7146 33.8401C22.0371 33.0376 22.3816 32.2344 22.7491 31.4289C22.769 31.3764 22.7905 31.3239 22.8112 31.2714C23.6331 31.7936 24.5819 30.9536 25.3986 30.0137C26.2718 28.9982 27.0877 27.7785 27.0921 27.7717C27.0762 27.7717 25.7494 29.1511 24.5748 28.9085C24.3004 28.8479 24.0519 28.838 23.8294 28.8667C24.6058 27.1589 25.5089 25.4251 26.5697 23.6545C25.4265 25.3884 24.4099 27.0897 23.51 28.7736C23.4204 28.5032 23.2791 28.218 23.0692 27.922C22.6917 27.4006 22.6854 26.5555 22.818 25.8363C22.9434 25.118 23.2074 24.5249 23.1994 24.5236C23.1986 24.5227 22.2123 26.1318 21.7552 27.7444C21.2901 29.3351 21.3029 30.846 22.3684 31.0326C21.9467 31.9171 21.5573 32.7993 21.1982 33.6803C21.068 33.4604 20.8951 33.2354 20.6682 33.0094C20.1824 32.5341 20.0502 31.6877 20.0801 30.9541C20.1027 30.2221 20.2879 29.6025 20.2803 29.6025C20.2799 29.6008 19.4812 31.3132 19.2216 33.0022C18.9612 34.6156 19.1563 36.1188 20.2397 36.2435C19.9642 37.051 19.7129 37.8603 19.4848 38.6729C19.3247 38.4889 19.1252 38.3065 18.8803 38.1306C17.714 37.3389 17.9454 34.9299 17.9884 34.7475C17.9374 34.9 17.3776 36.6449 17.3266 38.3339C17.2633 39.9959 17.6523 41.5098 18.7852 41.5226C18.7836 41.5282 18.7824 41.5346 18.7808 41.5406C18.6271 42.2824 18.4913 43.0288 18.3754 43.7792C18.1851 43.6173 17.9549 43.4631 17.6786 43.3222C16.3383 42.6748 16.2682 40.1629 16.2893 39.9737C16.2555 40.1334 15.8888 42.0039 16.0536 43.7719C16.2005 45.5087 16.811 47.0431 18.0103 46.8799C17.9541 47.5773 17.9143 48.2764 17.8928 48.9772C17.6671 48.8316 17.3983 48.7013 17.0801 48.5933C15.6228 48.1299 15.2031 45.6453 15.1804 45.3315C15.1673 45.6014 15.0303 47.5628 15.4297 49.318C15.7912 51.1116 16.7058 52.6908 17.9311 52.2949C17.9657 52.9376 18.0159 53.5799 18.0832 54.2222C17.816 54.0915 17.5014 53.9869 17.1319 53.9177C15.5149 53.644 14.7384 51.0116 14.6958 50.758C14.7073 50.983 14.832 53.1084 15.5097 54.9379C16.1508 56.8058 17.3597 58.3679 18.6092 57.683C18.727 58.2689 18.8596 58.8544 19.0073 59.4373C18.6936 59.3254 18.3268 59.2532 17.9012 59.234C16.1372 59.1853 14.9319 56.4189 14.8949 56.2494C14.9124 56.3963 15.3568 58.6801 16.3662 60.5574C17.3374 62.4697 18.8807 63.9682 20.0944 62.951C20.2835 63.466 20.4854 63.9776 20.7 64.485C20.3417 64.406 19.9303 64.3795 19.4613 64.4239C17.5838 64.6383 15.8732 61.8245 15.8545 61.7186C15.8537 61.7873 16.6879 64.1831 18.0784 66.0446C19.4199 67.9338 21.316 69.2884 22.4162 67.9633C22.6603 68.392 22.9143 68.8157 23.1791 69.2337C22.808 69.2073 22.3943 69.2397 21.9352 69.3508C20.0637 69.8423 17.8717 67.1856 17.9088 67.1626C17.8602 67.1485 19.0942 69.4772 20.8263 71.1576C22.4787 72.8414 24.6082 73.9052 25.4934 72.4289C25.8127 72.815 26.1428 73.1942 26.4841 73.5661C26.105 73.5952 25.6941 73.6891 25.2513 73.8664C23.5447 74.594 21.0811 72.5592 20.8577 72.3166C21.0285 72.551 22.5154 74.4941 24.4414 75.8184C26.4359 77.2409 28.7422 77.8955 29.388 76.3317C29.783 76.6605 30.1876 76.98 30.6029 77.2896C30.221 77.3792 29.8177 77.5377 29.3976 77.7824C27.7985 78.7663 24.9714 77.1679 24.6851 76.9505C24.91 77.1657 26.7413 78.8402 28.9229 79.8164C31.197 80.8849 33.6669 81.1172 34.0484 79.4953C34.5087 79.7459 34.9773 79.9851 35.454 80.211C35.0829 80.3656 34.7026 80.5881 34.3207 80.8956C32.8701 82.1289 29.7309 81.0604 29.3761 80.884C29.6592 81.0685 31.809 82.3911 34.2017 82.9492C36.7035 83.5868 39.2654 83.3451 39.3872 81.7274C42.2255 82.5811 45.2593 82.9932 48.3938 82.8373L48.4591 82.3155ZM80.6379 34.7683C80.6351 34.7609 80.6335 34.7563 80.6335 34.7563C80.6347 34.7568 80.6359 34.7613 80.6379 34.7683ZM82.2251 40.1132C82.2235 40.1058 82.2224 40.1013 82.2224 40.1017C82.2235 40.1017 82.2243 40.1062 82.2251 40.1132ZM83.4151 45.0673C83.4139 45.0455 83.4135 45.034 83.4147 45.036C83.4167 45.0364 83.4167 45.0471 83.4151 45.0673ZM83.8112 50.4003C83.812 50.3867 83.8124 50.3797 83.812 50.3813C83.8136 50.3817 83.8132 50.3883 83.8112 50.4003ZM83.8112 56.1459C83.812 56.1402 83.812 56.1369 83.8116 56.1377C83.8124 56.1381 83.8124 56.141 83.8112 56.1459ZM82.62 61.4858C82.62 61.4846 82.6204 61.4825 82.6196 61.483C82.6204 61.4834 82.6204 61.4842 82.62 61.4858ZM77.853 71.7854C77.8641 71.7702 77.8697 71.7623 77.8693 71.7623C77.8713 71.764 77.8649 71.7722 77.853 71.7854ZM73.8808 76.7195C73.8967 76.7047 73.9055 76.6965 73.9047 76.6965C73.9063 76.6989 73.8979 76.7068 73.8808 76.7195ZM69.5115 80.8296C69.5329 80.8161 69.5448 80.8083 69.544 80.8083C69.546 80.8111 69.5345 80.8185 69.5115 80.8296Z" fill="#4385F4"/>
<path fill-rule="evenodd" clip-rule="evenodd" d="M50.048 82.3155C53.1371 82.4624 56.1326 82.058 58.9339 81.2218C57.903 79.8408 59.608 78.4682 61.2402 77.1452C62.9504 75.8282 64.6626 74.5108 64.6634 74.5065C64.7008 74.5377 62.6481 76.6494 62.8456 78.4891C62.9137 78.9615 62.895 79.3753 62.8122 79.7365C63.2797 79.5158 63.7404 79.2839 64.1919 79.0396C62.9914 77.8516 64.3512 76.1523 65.6564 74.5398C67.0373 72.9119 68.4306 71.3143 68.4314 71.3105C68.4712 71.3323 66.8996 73.7925 67.4132 75.6049C67.5605 76.0639 67.6163 76.4816 67.602 76.8574C68.0073 76.5559 68.4039 76.2459 68.7889 75.9256C67.4391 74.9425 68.4242 73.0024 69.3838 71.1828C70.4103 69.3328 71.4703 67.5379 71.4711 67.5345C71.5105 67.5469 70.4374 70.2352 71.2497 71.9643C71.4731 72.4012 71.5997 72.8111 71.6511 73.1903C71.9864 72.8235 72.3117 72.4494 72.6262 72.0685C71.182 71.3007 71.7455 69.2235 72.3591 67.2608C73.04 65.2639 73.7718 63.3879 73.7643 63.3597C73.8021 63.364 73.2179 66.1684 74.3042 67.7634C74.5945 68.1619 74.7872 68.5492 74.9023 68.9173C75.1631 68.5043 75.4139 68.0867 75.6544 67.6639C74.1163 67.1109 74.3138 64.9808 74.5861 62.966C74.9182 60.9067 75.3275 58.9688 75.3275 58.9466C75.3626 58.944 75.2407 61.7694 76.5679 63.1842C76.9171 63.5357 77.1695 63.8892 77.3427 64.2356C77.4638 63.949 77.5809 63.6616 77.6931 63.3729C77.7803 63.1496 77.864 62.9254 77.946 62.7008C76.3978 62.4023 76.2581 60.3853 76.2159 58.47C76.2219 56.5154 76.3274 54.6672 76.3361 54.6484C76.3656 54.6411 76.6479 57.2717 78.1021 58.4107C78.4871 58.6951 78.7786 58.9961 78.9924 59.2998C79.1453 58.6946 79.2811 58.0878 79.4014 57.4784C77.8652 57.4348 77.4499 55.5763 77.1492 53.7964C76.8904 51.9908 76.7479 50.2664 76.7642 50.2472C76.7881 50.2382 77.3889 52.6323 78.9112 53.4902C79.3237 53.7093 79.6454 53.9565 79.8907 54.2183C79.9632 53.5291 80.0166 52.839 80.0516 52.1493C78.5791 52.3321 77.9524 50.67 77.4491 49.0549C76.9852 47.4214 76.6455 45.8345 76.6682 45.8123C76.6881 45.8029 77.5279 47.9471 79.0633 48.533C79.485 48.6825 79.8214 48.8721 80.0862 49.0865C80.0695 48.472 80.0396 47.8592 79.9958 47.2493C79.9855 47.1054 79.9731 46.9619 79.9612 46.8189C78.6341 47.2007 77.8066 45.7226 77.1723 44.301C76.5484 42.8601 76.0901 41.3693 76.0897 41.3642C76.106 41.3557 77.1182 43.2594 78.6181 43.5917C79.0195 43.6724 79.35 43.8001 79.6188 43.9585C79.4941 43.1548 79.3464 42.3549 79.1752 41.5568C78.0081 42.0453 77.0867 40.8005 76.3588 39.5569C75.627 38.2809 75.044 36.9028 75.0428 36.8973C75.058 36.8909 76.1944 38.5816 77.6163 38.6875C77.9623 38.708 78.259 38.7724 78.5102 38.8702C78.2777 38.0422 78.0209 37.2159 77.7389 36.3891C76.7498 36.9088 75.7974 35.8843 75.0165 34.8077C74.2066 33.6756 73.5098 32.3881 73.5074 32.3817C73.5214 32.3783 74.7557 33.893 76.0662 33.8059C76.3353 33.7833 76.5766 33.7973 76.7925 33.8401C76.4699 33.0376 76.1255 32.2344 75.758 31.4289C75.7377 31.3764 75.7166 31.3239 75.6959 31.2714C74.874 31.7936 73.9251 30.9536 73.1084 30.0137C72.2352 28.9982 71.4193 27.7785 71.415 27.7717C71.4309 27.7717 72.7576 29.1511 73.9323 28.9085C74.2062 28.8479 74.4551 28.838 74.6777 28.8667C73.9012 27.1589 72.9981 25.4251 71.9374 23.6545C73.0806 25.3884 74.0971 27.0897 74.997 28.7736C75.0862 28.5032 75.228 28.218 75.4378 27.922C75.8149 27.4006 75.8213 26.5555 75.6891 25.8363C75.5637 25.118 75.2997 24.5249 75.3076 24.5236C75.3084 24.5227 76.2947 26.1318 76.7518 27.7444C77.2165 29.3351 77.2042 30.846 76.1386 31.0326C76.5603 31.9171 76.9497 32.7993 77.3089 33.6803C77.4387 33.4604 77.6119 33.2354 77.8389 33.0094C78.3247 32.5341 78.4569 31.6877 78.427 30.9541C78.4043 30.2221 78.2191 29.6025 78.2267 29.6025C78.2271 29.6008 79.0259 31.3132 79.2855 33.0022C79.5459 34.6156 79.3508 36.1188 78.2673 36.2435C78.5429 37.051 78.7941 37.8603 79.0223 38.6729C79.182 38.4889 79.3818 38.3065 79.6263 38.1306C80.793 37.3389 80.5617 34.9299 80.5187 34.7475C80.5696 34.9 81.1295 36.6449 81.1804 38.3339C81.2438 39.9959 80.8547 41.5098 79.7219 41.5226C79.7235 41.5282 79.7247 41.5346 79.7263 41.5406C79.88 42.2824 80.0158 43.0288 80.1316 43.7792C80.322 43.6173 80.5521 43.4631 80.8285 43.3222C82.1687 42.6748 82.2388 40.1629 82.2177 39.9737C82.2516 40.1334 82.6183 42.0039 82.4534 43.7719C82.3065 45.5087 81.6961 47.0431 80.4968 46.8799C80.5529 47.5773 80.5927 48.2764 80.6142 48.9772C80.84 48.8316 81.1088 48.7013 81.4269 48.5933C82.8843 48.1299 83.3036 45.6453 83.3267 45.3315C83.3398 45.6014 83.4768 47.5628 83.0774 49.318C82.7158 51.1116 81.8012 52.6908 80.576 52.2949C80.5414 52.9376 80.4912 53.5799 80.4239 54.2222C80.6911 54.0915 81.0056 53.9869 81.3752 53.9177C82.9922 53.644 83.7686 51.0116 83.8112 50.758C83.7997 50.983 83.6751 53.1084 82.9974 54.9379C82.3563 56.8058 81.1474 58.3679 79.8979 57.683C79.78 58.2689 79.647 58.8544 79.4993 59.4373C79.8135 59.3254 80.1802 59.2532 80.6059 59.234C82.3698 59.1853 83.5751 56.4189 83.6122 56.2494C83.5946 56.3963 83.1503 58.6801 82.1409 60.5574C81.1697 62.4697 79.6259 63.9682 78.4127 62.951C78.2235 63.466 78.0216 63.9776 77.807 64.485C78.1654 64.406 78.5767 64.3795 79.0458 64.4239C80.9232 64.6383 82.6338 61.8245 82.6525 61.7186C82.6533 61.7873 81.8191 64.1831 80.4287 66.0446C79.0868 67.9338 77.191 69.2884 76.0908 67.9633C75.8468 68.392 75.5927 68.8157 75.3279 69.2337C75.699 69.2073 76.1127 69.2397 76.5719 69.3508C78.4433 69.8423 80.6353 67.1856 80.5979 67.1626C80.6469 67.1485 79.4129 69.4772 77.6808 71.1576C76.0283 72.8414 73.8988 73.9052 73.0137 72.4289C72.6939 72.815 72.3642 73.1942 72.023 73.5661C72.4021 73.5952 72.813 73.6891 73.2558 73.8664C74.9624 74.594 77.426 72.5592 77.6493 72.3166C77.4785 72.551 75.9913 74.4941 74.0657 75.8184C72.0712 77.2409 69.7649 77.8955 69.119 76.3317C68.724 76.6605 68.3195 76.98 67.9042 77.2896C68.286 77.3792 68.6894 77.5377 69.1095 77.7824C70.7082 78.7663 73.5357 77.1679 73.822 76.9505C73.597 77.1657 71.7658 78.8402 69.5841 79.8164C67.3101 80.8849 64.8401 81.1172 64.4587 79.4953C63.9984 79.7459 63.5297 79.9851 63.0531 80.211C63.4242 80.3656 63.8045 80.5881 64.1863 80.8956C65.6369 82.1289 68.7762 81.0604 69.131 80.884C68.8479 81.0685 66.6981 82.3911 64.305 82.9492C61.8036 83.5868 59.2417 83.3451 59.1198 81.7274C56.2816 82.5811 53.2478 82.9932 50.1133 82.8373L50.048 82.3155ZM18.0963 34.6484C18.0991 34.6408 18.1007 34.6361 18.1007 34.6361C18.0995 34.6365 18.0983 34.6412 18.0963 34.6484ZM16.4111 39.8585C16.4127 39.8509 16.4135 39.8462 16.4139 39.8466C16.4127 39.8466 16.4119 39.8513 16.4111 39.8585ZM15.3111 45.2001C15.3123 45.1775 15.3126 45.1656 15.3115 45.1677C15.3095 45.1681 15.3095 45.1792 15.3111 45.2001ZM14.8305 50.6102C14.8297 50.5962 14.8293 50.5889 14.8293 50.5906C14.8281 50.5911 14.8285 50.5979 14.8305 50.6102ZM15.028 56.0852C15.0272 56.0792 15.0272 56.0758 15.0276 56.0767C15.0268 56.0771 15.0268 56.0801 15.028 56.0852ZM15.9799 61.5378C15.9799 61.5365 15.9795 61.5343 15.9803 61.5348C15.9795 61.5352 15.9795 61.536 15.9799 61.5378ZM20.9425 72.104C20.9314 72.0882 20.9255 72.0801 20.9263 72.0801C20.9243 72.0818 20.9306 72.0904 20.9425 72.104ZM24.7391 76.7237C24.7233 76.7083 24.7146 76.6998 24.715 76.6998C24.7138 76.7024 24.7221 76.7105 24.7391 76.7237ZM29.3923 80.6458C29.3706 80.6317 29.3591 80.6236 29.3599 80.6236C29.358 80.6266 29.3694 80.6343 29.3923 80.6458Z" fill="#4385F4"/>
<path opacity="0.5" fill-rule="evenodd" clip-rule="evenodd" d="M48.3218 82.0725C45.2572 82.219 42.2863 81.8158 39.5076 80.9822C40.5302 79.6053 38.839 78.2369 37.22 76.9179C35.5236 75.6048 33.8252 74.2914 33.8244 74.2871C33.7873 74.3182 35.8234 76.4236 35.6274 78.2577C35.5599 78.7286 35.5785 79.1412 35.6606 79.5014C35.1969 79.2813 34.7399 79.0501 34.2921 78.8065C35.4829 77.6221 34.1337 75.928 32.8393 74.3203C31.4696 72.6973 30.0876 71.1046 30.0868 71.1007C30.0473 71.1224 31.6062 73.5752 31.0967 75.3822C30.9506 75.8399 30.8953 76.2562 30.9095 76.6309C30.507 76.3303 30.1141 76.0212 29.7321 75.7019C31.0711 74.7218 30.0939 72.7876 29.142 70.9734C28.1238 69.129 27.0724 67.3396 27.0716 67.3362C27.0325 67.3485 28.0969 70.0287 27.2912 71.7526C27.0696 72.1881 26.944 72.5968 26.8931 72.9749C26.5605 72.6092 26.2378 72.2362 25.9258 71.8565C27.3583 71.0909 26.7995 69.0201 26.1908 67.0633C25.5154 65.0724 24.7895 63.2021 24.797 63.174C24.7594 63.1782 25.3389 65.9742 24.2614 67.5644C23.9734 67.9616 23.7819 68.3478 23.6677 68.7148C23.4094 68.3031 23.1606 67.8867 22.922 67.4652C24.4478 66.9138 24.2519 64.7901 23.9813 62.7814C23.6523 60.7284 23.2463 58.7963 23.2463 58.7742C23.2115 58.7716 23.3324 61.5884 22.016 62.999C21.6696 63.3494 21.4196 63.7019 21.2474 64.0472C21.1273 63.7615 21.0112 63.475 20.8998 63.1872C20.8133 62.9645 20.7303 62.741 20.649 62.517C22.1846 62.2194 22.3233 60.2085 22.3651 58.299C22.3592 56.3503 22.2545 54.5076 22.2458 54.4889C22.2166 54.4817 21.9366 57.1043 20.4941 58.2398C20.1122 58.5234 19.8231 58.8236 19.6106 59.1263C19.4593 58.523 19.3246 57.918 19.2054 57.3104C20.7292 57.267 21.1411 55.4141 21.4393 53.6395C21.696 51.8394 21.8374 50.1202 21.8212 50.101C21.7975 50.0921 21.2011 52.4789 19.6916 53.3342C19.2824 53.5527 18.9632 53.7992 18.7199 54.0602C18.6477 53.373 18.5947 52.685 18.5604 51.9974C20.021 52.1796 20.6427 50.5225 21.1419 48.9123C21.602 47.2838 21.9386 45.7017 21.9164 45.6795C21.8967 45.6702 21.0637 47.8079 19.5407 48.392C19.1224 48.5411 18.7887 48.7301 18.526 48.9438C18.5422 48.3312 18.5722 47.7202 18.6157 47.1122C18.6259 46.9687 18.6382 46.8257 18.65 46.6831C19.9665 47.0637 20.7872 45.5901 21.4164 44.1728C22.0353 42.7363 22.4899 41.2499 22.4903 41.2448C22.4741 41.2363 21.4701 43.1343 19.9823 43.4656C19.5841 43.5461 19.2563 43.6734 18.9897 43.8313C19.1133 43.03 19.2599 42.2326 19.4297 41.4368C20.5874 41.9239 21.5013 40.6828 22.2233 39.443C22.9493 38.1709 23.5275 36.7969 23.5287 36.7914C23.5137 36.785 22.3864 38.4706 20.976 38.5762C20.6328 38.5966 20.3385 38.6609 20.0893 38.7584C20.32 37.9329 20.5747 37.109 20.8544 36.2847C21.8355 36.8029 22.7802 35.7815 23.5548 34.7082C24.3581 33.5795 25.0493 32.2958 25.0517 32.2894C25.0379 32.286 23.8135 33.7962 22.5136 33.7093C22.2466 33.6868 22.0073 33.7008 21.7932 33.7434C22.1131 32.9434 22.4548 32.1425 22.8193 31.3396C22.8391 31.2872 22.8604 31.2348 22.881 31.1825C23.6962 31.7032 24.6374 30.8657 25.4475 29.9286C26.3136 28.9161 27.1229 27.7002 27.1273 27.6934C27.1115 27.6934 25.7954 29.0686 24.6303 28.8267C24.3581 28.7663 24.1117 28.7565 23.8909 28.785C24.6611 27.0824 25.5569 25.3538 26.6091 23.5886C25.4751 25.3172 24.4668 27.0134 23.5741 28.6922C23.4853 28.4227 23.345 28.1383 23.1369 27.8432C22.7625 27.3234 22.7561 26.4808 22.8877 25.7638C23.0121 25.0477 23.2739 24.4563 23.266 24.455C23.2653 24.4542 22.2869 26.0584 21.8335 27.6661C21.3722 29.2521 21.3848 30.7584 22.4417 30.9445C22.0235 31.8262 21.6372 32.7058 21.2809 33.5842C21.1518 33.3649 20.9804 33.1405 20.7552 32.9153C20.2734 32.4414 20.1422 31.5976 20.1718 30.8661C20.1944 30.1364 20.378 29.5186 20.3705 29.5186C20.3701 29.5169 19.5778 31.2242 19.3203 32.9081C19.062 34.5166 19.2555 36.0152 20.3302 36.1396C20.0569 36.9447 19.8077 37.7515 19.5814 38.5617C19.4226 38.3782 19.2247 38.1964 18.9818 38.021C17.8249 37.2316 18.0544 34.8299 18.0971 34.6481C18.0465 34.8001 17.4912 36.5398 17.4406 38.2236C17.3778 39.8807 17.7637 41.39 18.8874 41.4028C18.8858 41.4083 18.8846 41.4147 18.8831 41.4207C18.7306 42.1602 18.5959 42.9044 18.481 43.6525C18.2922 43.4911 18.0639 43.3374 17.7898 43.1969C16.4603 42.5515 16.3908 40.0472 16.4117 39.8586C16.3782 40.0178 16.0144 41.8826 16.1779 43.6453C16.3236 45.3768 16.9291 46.9066 18.1188 46.7439C18.0631 47.4392 18.0236 48.1362 18.0023 48.8348C17.7783 48.6896 17.5117 48.5598 17.1961 48.4521C15.7505 47.9901 15.3342 45.5131 15.3117 45.2001C15.2987 45.4692 15.1628 47.4247 15.559 49.1746C15.9176 50.9628 16.8249 52.5372 18.0402 52.1425C18.0746 52.7833 18.1243 53.4237 18.1911 54.064C17.926 53.9337 17.614 53.8294 17.2475 53.7604C15.6435 53.4875 14.8733 50.8631 14.8311 50.6102C14.8425 50.8346 14.9661 52.9536 15.6384 54.7776C16.2743 56.6398 17.4734 58.1973 18.7128 57.5143C18.8297 58.0985 18.9613 58.6822 19.1078 59.2634C18.7966 59.1518 18.4328 59.0799 18.0106 59.0607C16.2608 59.0122 15.0653 56.2541 15.0285 56.0851C15.0459 56.2315 15.4867 58.5085 16.488 60.3801C17.4513 62.2867 18.9822 63.7807 20.1861 62.7665C20.3737 63.28 20.5739 63.79 20.7868 64.2958C20.4313 64.2171 20.0233 64.1907 19.5581 64.235C17.6958 64.4487 15.999 61.6434 15.9804 61.5378C15.9796 61.6063 16.8071 63.9948 18.1863 65.8507C19.517 67.7343 21.3978 69.0848 22.4891 67.7636C22.7313 68.1911 22.9832 68.6134 23.2459 69.0303C22.8778 69.0039 22.4674 69.0362 22.012 69.1469C20.1557 69.637 17.9813 66.9883 18.0181 66.9653C17.9699 66.9513 19.1939 69.2729 20.912 70.9483C22.5512 72.6271 24.6635 73.6876 25.5415 72.2158C25.8582 72.6007 26.1857 72.9788 26.5242 73.3496C26.1481 73.3785 25.7405 73.4722 25.3013 73.6489C23.6085 74.3744 21.1648 72.3456 20.9432 72.1038C21.1127 72.3376 22.5875 74.2748 24.498 75.595C26.4764 77.0132 28.764 77.6659 29.4047 76.1068C29.7965 76.4346 30.1978 76.7531 30.6097 77.0618C30.231 77.1512 29.8309 77.3091 29.4142 77.5531C27.828 78.534 25.0237 76.9404 24.7397 76.7237C24.9628 76.9383 26.7793 78.6077 28.9434 79.581C31.199 80.6462 33.649 80.8778 34.0274 79.2608C34.484 79.5107 34.9489 79.7492 35.4217 79.9744C35.0536 80.1285 34.6764 80.3503 34.2976 80.6569C32.8587 81.8865 29.7448 80.8212 29.3928 80.6454C29.6737 80.8293 31.8061 82.1479 34.1795 82.7044C36.6611 83.34 39.2023 83.099 39.3232 81.4863C42.1385 82.3373 45.1478 82.7482 48.257 82.5928L48.3218 82.0725Z" fill="#4385F4"/>
<path fill-rule="evenodd" clip-rule="evenodd" d="M80.6778 34.6486C80.6751 34.6409 80.6735 34.6362 80.6735 34.6362C80.6747 34.6367 80.6759 34.6413 80.6778 34.6486ZM82.363 39.8587C82.3614 39.851 82.3603 39.8468 82.3603 39.8468C82.3614 39.8468 82.3622 39.8515 82.363 39.8587ZM83.4631 45.2002C83.4619 45.1777 83.4615 45.1657 83.4627 45.1679C83.4647 45.1683 83.4647 45.1794 83.4631 45.2002ZM83.9437 50.6104C83.9445 50.5963 83.9449 50.5891 83.9445 50.5908C83.9461 50.5912 83.9457 50.598 83.9437 50.6104ZM83.7462 56.0854C83.747 56.0794 83.747 56.076 83.7466 56.0768C83.7474 56.0773 83.7474 56.0802 83.7462 56.0854ZM82.7942 61.5379C82.7942 61.5366 82.7946 61.5345 82.7939 61.5349C82.7946 61.5354 82.7946 61.5362 82.7942 61.5379ZM77.8316 72.1041C77.8427 72.0884 77.8478 72.0803 77.8478 72.0803C77.8498 72.082 77.8435 72.0905 77.8316 72.1041ZM74.0351 76.7238C74.0509 76.7085 74.0596 76.7 74.0588 76.7C74.0603 76.7025 74.052 76.7106 74.0351 76.7238ZM69.3818 80.6459C69.4032 80.6319 69.415 80.6238 69.4142 80.6238C69.4162 80.6268 69.4047 80.6344 69.3818 80.6459Z" fill="#4385F4"/>
<path opacity="0.5" fill-rule="evenodd" clip-rule="evenodd" d="M50.4526 82.0725C53.5168 82.219 56.4882 81.8158 59.2668 80.9822C58.2442 79.6053 59.9355 78.2369 61.5545 76.9179C63.2509 75.6048 64.9492 74.2914 64.95 74.2871C64.9872 74.3182 62.9511 76.4236 63.147 78.2577C63.2145 78.7286 63.196 79.1412 63.1138 79.5014C63.5775 79.2813 64.0345 79.0501 64.4824 78.8065C63.2916 77.6221 64.6404 75.928 65.9351 74.3203C67.3049 72.6973 68.6869 71.1046 68.6876 71.1007C68.7271 71.1224 67.1682 73.5752 67.6777 75.3822C67.8238 75.8399 67.8791 76.2562 67.8649 76.6309C68.267 76.3303 68.6604 76.0212 69.0423 75.7019C67.7034 74.7218 68.6805 72.7876 69.6324 70.9734C70.6507 69.129 71.7021 67.3396 71.7029 67.3362C71.742 67.3485 70.6775 70.0287 71.4832 71.7526C71.7048 72.1881 71.8304 72.5968 71.8814 72.9749C72.2139 72.6092 72.5366 72.2362 72.8487 71.8565C71.4161 71.0909 71.975 69.0201 72.5836 67.0633C73.259 65.0724 73.985 63.2021 73.9775 63.174C74.015 63.1782 73.4356 65.9742 74.5131 67.5644C74.801 67.9616 74.9922 68.3478 75.1063 68.7148C75.365 68.3031 75.6139 67.8867 75.8524 67.4652C74.3266 66.9138 74.5225 64.7901 74.7927 62.7814C75.1221 60.7284 75.5281 58.7963 75.5281 58.7742C75.5629 58.7716 75.442 61.5884 76.7585 62.999C77.1049 63.3494 77.3553 63.7019 77.5271 64.0472C77.6472 63.7615 77.7633 63.475 77.8747 63.1872C77.9612 62.9645 78.0441 62.741 78.1255 62.517C76.5898 62.2194 76.4512 60.2085 76.4093 58.299C76.4152 56.3503 76.5199 54.5076 76.5286 54.4889C76.5578 54.4817 76.8379 57.1043 78.2803 58.2398C78.6622 58.5234 78.9514 58.8236 79.1635 59.1263C79.3151 58.523 79.4498 57.918 79.5691 57.3104C78.0453 57.267 77.6333 55.4141 77.3351 53.6395C77.0784 51.8394 76.937 50.1202 76.9532 50.101C76.9769 50.0921 77.5729 52.4789 79.0829 53.3342C79.4921 53.5527 79.8112 53.7992 80.0545 54.0602C80.1264 53.373 80.1793 52.685 80.2141 51.9974C78.7535 52.1796 78.1318 50.5225 77.6325 48.9123C77.1724 47.2838 76.8355 45.7017 76.858 45.6795C76.8778 45.6702 77.7108 47.8079 79.2338 48.392C79.652 48.5411 79.9858 48.7301 80.2484 48.9438C80.2319 48.3312 80.2022 47.7202 80.1588 47.1122C80.1485 46.9687 80.1363 46.8257 80.1244 46.6831C78.808 47.0637 77.9872 45.5901 77.358 44.1728C76.7391 42.7363 76.2845 41.2499 76.2841 41.2448C76.3003 41.2363 77.3043 43.1343 78.7922 43.4656C79.1903 43.5461 79.5181 43.6734 79.7847 43.8313C79.6611 43.03 79.5146 42.2326 79.3447 41.4368C78.1871 41.9239 77.2731 40.6828 76.5511 39.443C75.8252 38.1709 75.2469 36.7969 75.2457 36.7914C75.2608 36.785 76.388 38.4706 77.7984 38.5762C78.1417 38.5966 78.4359 38.6609 78.6851 38.7584C78.4545 37.9329 78.1997 37.109 77.9201 36.2847C76.939 36.8029 75.9942 35.7815 75.2197 34.7082C74.4163 33.5795 73.7251 32.2958 73.7227 32.2894C73.7366 32.286 74.961 33.7962 76.2608 33.7093C76.5278 33.6868 76.7672 33.7008 76.9812 33.7434C76.6613 32.9434 76.3197 32.1425 75.9551 31.3396C75.935 31.2872 75.914 31.2348 75.8935 31.1825C75.0783 31.7032 74.1371 30.8657 73.327 29.9286C72.4608 28.9161 71.6515 27.7002 71.6472 27.6934C71.663 27.6934 72.979 29.0686 74.1442 28.8267C74.4159 28.7663 74.6628 28.7565 74.8836 28.785C74.1134 27.0824 73.2176 25.3538 72.1654 23.5886C73.2993 25.3172 74.3077 27.0134 75.2003 28.6922C75.2888 28.4227 75.4294 28.1383 75.6375 27.8432C76.0116 27.3234 76.0179 26.4808 75.8868 25.7638C75.7624 25.0477 75.5005 24.4563 75.5084 24.455C75.5092 24.4542 76.4875 26.0584 76.941 27.6661C77.4019 29.2521 77.3896 30.7584 76.3327 30.9445C76.751 31.8262 77.1373 32.7058 77.4935 33.5842C77.6223 33.3649 77.7941 33.1405 78.0192 32.9153C78.5011 32.4414 78.6322 31.5976 78.6026 30.8661C78.5801 30.1364 78.3964 29.5186 78.4039 29.5186C78.4043 29.5169 79.1966 31.2242 79.4542 32.9081C79.7125 34.5166 79.5189 36.0152 78.4442 36.1396C78.7175 36.9447 78.9668 37.7515 79.1931 38.5617C79.3515 38.3782 79.5497 38.1964 79.7923 38.021C80.9495 37.2316 80.72 34.8299 80.6774 34.6481C80.7279 34.8001 81.2833 36.5398 81.3338 38.2236C81.3966 39.8807 81.0107 41.39 79.887 41.4028C79.8886 41.4083 79.8898 41.4147 79.8914 41.4207C80.0438 42.1602 80.1785 42.9044 80.2935 43.6525C80.4823 43.4911 80.7106 43.3374 80.9847 43.1969C82.3141 42.5515 82.3836 40.0472 82.3627 39.8586C82.3963 40.0178 82.7601 41.8826 82.5965 43.6453C82.4508 45.3768 81.8453 46.9066 80.6557 46.7439C80.7113 47.4392 80.7508 48.1362 80.7722 48.8348C80.9961 48.6896 81.2627 48.5598 81.5783 48.4521C83.0239 47.9901 83.4398 45.5131 83.4627 45.2001C83.4757 45.4692 83.6116 47.4247 83.2155 49.1746C82.8568 50.9628 81.9496 52.5372 80.7343 52.1425C80.6999 52.7833 80.6501 53.4237 80.5834 54.064C80.8484 53.9337 81.1604 53.8294 81.527 53.7604C83.1309 53.4875 83.9011 50.8631 83.9434 50.6102C83.9319 50.8346 83.8083 52.9536 83.1361 54.7776C82.5002 56.6398 81.301 58.1973 80.0616 57.5143C79.9447 58.0985 79.8128 58.6822 79.6663 59.2634C79.9779 59.1518 80.3417 59.0799 80.7639 59.0607C82.5136 59.0122 83.7092 56.2541 83.7459 56.0851C83.7285 56.2315 83.2877 58.5085 82.2865 60.3801C81.3232 62.2867 79.7919 63.7807 78.5884 62.7665C78.4008 63.28 78.2005 63.79 77.9876 64.2958C78.3431 64.2171 78.7511 64.1907 79.2164 64.235C81.0787 64.4487 82.7755 61.6434 82.794 61.5378C82.7948 61.6063 81.9673 63.9948 80.5881 65.8507C79.2571 67.7343 77.3766 69.0848 76.2853 67.7636C76.0432 68.1911 75.7912 68.6134 75.5285 69.0303C75.8967 69.0039 76.307 69.0362 76.7624 69.1469C78.6188 69.637 80.7931 66.9883 80.756 66.9653C80.8046 66.9513 79.5805 69.2729 77.8624 70.9483C76.2233 72.6271 74.111 73.6876 73.233 72.2158C72.9158 72.6007 72.5888 72.9788 72.2503 73.3496C72.6263 73.3785 73.0339 73.4722 73.4731 73.6489C75.166 74.3744 77.6096 72.3456 77.8312 72.1038C77.6618 72.3376 76.1866 74.2748 74.2765 75.595C72.2981 77.0132 70.0104 77.6659 69.3698 76.1068C68.9779 76.4346 68.5767 76.7531 68.1647 77.0618C68.5435 77.1512 68.9436 77.3091 69.3603 77.5531C70.9461 78.534 73.7508 76.9404 74.0348 76.7237C73.8116 76.9383 71.9951 78.6077 69.8311 79.581C67.5754 80.6462 65.1254 80.8778 64.747 79.2608C64.2904 79.5107 63.8256 79.7492 63.3528 79.9744C63.7209 80.1285 64.0981 80.3503 64.4769 80.6569C65.9157 81.8865 69.0297 80.8212 69.3816 80.6454C69.1008 80.8293 66.9683 82.1479 64.5946 82.7044C62.1134 83.34 59.5721 83.099 59.4513 81.4863C56.6359 82.3373 53.6266 82.7482 50.5174 82.5928L50.4526 82.0725Z" fill="#4385F4"/>
</g>
<path fill-rule="evenodd" clip-rule="evenodd" d="M39.2581 75.8021C39.1248 75.728 39.0303 75.6432 38.9746 75.5478C38.9189 75.4524 38.891 75.3707 38.891 75.3029C38.891 75.2778 38.8995 75.2571 38.9165 75.2408C38.9334 75.2244 38.954 75.2163 38.9783 75.2163H39.3017C39.3235 75.2163 39.3422 75.2219 39.358 75.2332C39.3737 75.2445 39.3865 75.2652 39.3961 75.2954C39.4228 75.3607 39.4628 75.4166 39.5161 75.463C39.5694 75.5095 39.6517 75.5327 39.7632 75.5327C39.9085 75.5327 40.0151 75.4994 40.0829 75.4329C40.1508 75.3663 40.1847 75.2502 40.1847 75.0844V74.8282C40.0539 74.989 39.8685 75.0693 39.6287 75.0693C39.3768 75.0693 39.1872 74.9902 39.06 74.832C38.9328 74.6738 38.8644 74.4578 38.8547 74.184L38.8511 74.0823L38.8547 73.9806C38.8644 73.7119 38.9334 73.4959 39.0618 73.3326C39.1902 73.1694 39.3792 73.0878 39.6287 73.0878C39.7571 73.0878 39.8697 73.1129 39.9666 73.1631C40.0635 73.2133 40.1435 73.2811 40.2065 73.3665V73.2196C40.2065 73.192 40.2156 73.1694 40.2337 73.1518C40.2519 73.1342 40.2731 73.1254 40.2973 73.1254H40.5953C40.6195 73.1254 40.6401 73.1342 40.6571 73.1518C40.674 73.1694 40.6825 73.192 40.6825 73.2196L40.6861 75.0354C40.6861 75.3142 40.611 75.5302 40.4608 75.6834C40.3106 75.8366 40.0841 75.9132 39.7813 75.9132C39.5657 75.9132 39.3913 75.8762 39.2581 75.8021ZM40.072 74.5344C40.1399 74.444 40.1774 74.3335 40.1847 74.2029C40.1871 74.1828 40.1883 74.1426 40.1883 74.0823C40.1883 74.022 40.1871 73.9819 40.1847 73.9618C40.1774 73.8312 40.1399 73.7207 40.072 73.6302C40.0042 73.5398 39.9024 73.4946 39.7668 73.4946C39.5052 73.4946 39.3671 73.6604 39.3525 73.9919L39.3489 74.0823C39.3489 74.4741 39.4882 74.67 39.7668 74.67C39.9024 74.67 40.0042 74.6248 40.072 74.5344ZM41.3438 74.8961C41.1888 74.7454 41.1052 74.5369 41.0931 74.2707L41.0895 74.1049L41.0931 73.9392C41.1052 73.6755 41.19 73.4676 41.3475 73.3157C41.5049 73.1637 41.7242 73.0878 42.0052 73.0878C42.2838 73.0878 42.5018 73.1637 42.6593 73.3157C42.8167 73.4676 42.9015 73.6755 42.9136 73.9392C42.9161 73.9693 42.9173 74.0246 42.9173 74.1049C42.9173 74.1853 42.9161 74.2405 42.9136 74.2707C42.9015 74.5369 42.818 74.7454 42.6629 74.8961C42.5079 75.0467 42.2886 75.1221 42.0052 75.1221C41.7193 75.1221 41.4989 75.0467 41.3438 74.8961ZM42.3013 74.6173C42.3704 74.5344 42.4073 74.4126 42.4122 74.2518C42.4146 74.2267 42.4158 74.1778 42.4158 74.1049C42.4158 74.0321 42.4146 73.9831 42.4122 73.958C42.4073 73.7973 42.3698 73.6748 42.2995 73.5907C42.2293 73.5066 42.1312 73.4645 42.0052 73.4645C41.8768 73.4645 41.7775 73.5066 41.7072 73.5907C41.637 73.6748 41.5994 73.7973 41.5946 73.958L41.5909 74.1049L41.5946 74.2518C41.5994 74.4126 41.637 74.5344 41.7072 74.6173C41.7775 74.7002 41.8768 74.7416 42.0052 74.7416C42.1336 74.7416 42.2323 74.7002 42.3013 74.6173ZM43.4987 74.8961C43.3436 74.7454 43.2601 74.5369 43.248 74.2707L43.2443 74.1049L43.248 73.9392C43.2601 73.6755 43.3449 73.4676 43.5023 73.3157C43.6598 73.1637 43.879 73.0878 44.16 73.0878C44.4386 73.0878 44.6566 73.1637 44.8141 73.3157C44.9716 73.4676 45.0564 73.6755 45.0685 73.9392C45.0709 73.9693 45.0721 74.0246 45.0721 74.1049C45.0721 74.1853 45.0709 74.2405 45.0685 74.2707C45.0564 74.5369 44.9728 74.7454 44.8177 74.8961C44.6627 75.0467 44.4435 75.1221 44.16 75.1221C43.8742 75.1221 43.6537 75.0467 43.4987 74.8961ZM44.4562 74.6173C44.5252 74.5344 44.5622 74.4126 44.567 74.2518C44.5694 74.2267 44.5706 74.1778 44.5706 74.1049C44.5706 74.0321 44.5694 73.9831 44.567 73.958C44.5622 73.7973 44.5246 73.6748 44.4544 73.5907C44.3841 73.5066 44.286 73.4645 44.16 73.4645C44.0316 73.4645 43.9323 73.5066 43.8621 73.5907C43.7918 73.6748 43.7543 73.7973 43.7494 73.958L43.7458 74.1049L43.7494 74.2518C43.7543 74.4126 43.7918 74.5344 43.8621 74.6173C43.9323 74.7002 44.0316 74.7416 44.16 74.7416C44.2884 74.7416 44.3871 74.7002 44.4562 74.6173ZM45.6135 74.8791C45.4827 74.7171 45.4113 74.5005 45.3991 74.2292L45.3955 74.1049L45.3991 73.9806C45.4088 73.7144 45.4797 73.499 45.6117 73.3345C45.7438 73.17 45.9321 73.0878 46.1768 73.0878C46.4093 73.0878 46.5947 73.1706 46.7327 73.3364V72.5001C46.7327 72.4724 46.7412 72.4505 46.7582 72.4341C46.7751 72.4178 46.7957 72.4096 46.82 72.4096H47.1361C47.1627 72.4096 47.1839 72.4178 47.1997 72.4341C47.2154 72.4505 47.2233 72.4724 47.2233 72.5001V74.994C47.2233 75.0191 47.2154 75.0405 47.1997 75.058C47.1839 75.0756 47.1627 75.0844 47.1361 75.0844H46.8418C46.8175 75.0844 46.7969 75.0756 46.78 75.058C46.763 75.0405 46.7546 75.0191 46.7546 74.994V74.8546C46.6213 75.0329 46.4287 75.1221 46.1768 75.1221C45.9321 75.1221 45.7444 75.0411 45.6135 74.8791ZM46.6219 74.5777C46.6885 74.486 46.7255 74.3724 46.7327 74.2368C46.7352 74.2066 46.7364 74.1589 46.7364 74.0936C46.7364 74.0258 46.7352 73.9768 46.7327 73.9467C46.7279 73.8211 46.6904 73.7144 46.6201 73.6265C46.5498 73.5386 46.4481 73.4946 46.3149 73.4946C46.0556 73.4946 45.9176 73.6604 45.9006 73.9919L45.897 74.1049L45.9006 74.2179C45.9176 74.5495 46.0556 74.7152 46.3149 74.7152C46.4529 74.7152 46.5553 74.6694 46.6219 74.5777ZM47.9355 75.058C47.9186 75.0405 47.9101 75.0191 47.9101 74.994V73.5285H47.6158C47.5915 73.5285 47.5709 73.5197 47.554 73.5022C47.537 73.4846 47.5285 73.4632 47.5285 73.4381V73.2158C47.5285 73.1907 47.537 73.1694 47.554 73.1518C47.5709 73.1342 47.5915 73.1254 47.6158 73.1254H47.9101V72.9747C47.9101 72.7462 47.9694 72.576 48.0881 72.4643C48.2069 72.3525 48.3861 72.2966 48.6259 72.2966H49.3781C49.4048 72.2966 49.426 72.3048 49.4417 72.3211C49.4575 72.3374 49.4654 72.3594 49.4654 72.387V72.6093C49.4654 72.6344 49.4569 72.6558 49.4399 72.6734C49.423 72.6909 49.4024 72.6997 49.3781 72.6997H48.6441C48.5496 72.6997 48.483 72.7236 48.4443 72.7713C48.4055 72.819 48.3861 72.8931 48.3861 72.9936V73.1254H49.3781C49.4048 73.1254 49.426 73.1336 49.4417 73.1499C49.4575 73.1662 49.4654 73.1882 49.4654 73.2158V74.994C49.4654 75.0191 49.4575 75.0405 49.4417 75.058C49.426 75.0756 49.4048 75.0844 49.3781 75.0844H49.0765C49.0523 75.0844 49.0317 75.0756 49.0148 75.058C48.9978 75.0405 48.9893 75.0191 48.9893 74.994V73.5285H48.3861V74.994C48.3861 75.0191 48.3782 75.0405 48.3625 75.058C48.3468 75.0756 48.3256 75.0844 48.2989 75.0844H47.9973C47.9731 75.0844 47.9525 75.0756 47.9355 75.058ZM49.9704 75.058C49.9535 75.0405 49.945 75.0191 49.945 74.994V73.2196C49.945 73.192 49.9535 73.1694 49.9704 73.1518C49.9874 73.1342 50.008 73.1254 50.0322 73.1254H50.3302C50.3568 73.1254 50.3786 73.1342 50.3956 73.1518C50.4126 73.1694 50.421 73.192 50.421 73.2196V73.3741C50.5422 73.2083 50.7166 73.1254 50.9443 73.1254H51.0969C51.1236 73.1254 51.1448 73.1336 51.1605 73.1499C51.1763 73.1662 51.1841 73.1882 51.1841 73.2158V73.4909C51.1841 73.516 51.1763 73.5373 51.1605 73.5549C51.1448 73.5725 51.1236 73.5813 51.0969 73.5813H50.8099C50.696 73.5813 50.6064 73.6152 50.541 73.683C50.4755 73.7508 50.4428 73.8437 50.4428 73.9618V74.994C50.4428 75.0191 50.4344 75.0405 50.4174 75.058C50.4004 75.0756 50.3799 75.0844 50.3556 75.0844H50.0322C50.008 75.0844 49.9874 75.0756 49.9704 75.058ZM51.493 75.058C51.476 75.0405 51.4676 75.0191 51.4676 74.994V73.2158C51.4676 73.1882 51.476 73.1662 51.493 73.1499C51.51 73.1336 51.5305 73.1254 51.5548 73.1254H51.8418C51.8685 73.1254 51.8897 73.1336 51.9054 73.1499C51.9212 73.1662 51.9291 73.1882 51.9291 73.2158V73.3439C52.0599 73.1731 52.2355 73.0878 52.456 73.0878C52.7249 73.0878 52.9126 73.1995 53.0192 73.423C53.0773 73.3226 53.1597 73.2416 53.2663 73.1801C53.3729 73.1185 53.4879 73.0878 53.6115 73.0878C53.8101 73.0878 53.9725 73.1581 54.0984 73.2987C54.2244 73.4394 54.2874 73.6441 54.2874 73.9128V74.994C54.2874 75.0191 54.2795 75.0405 54.2638 75.058C54.248 75.0756 54.2268 75.0844 54.2002 75.0844H53.8986C53.8743 75.0844 53.8537 75.0756 53.8368 75.058C53.8198 75.0405 53.8114 75.0191 53.8114 74.994V73.9429C53.8114 73.7847 53.7793 73.6704 53.7151 73.6001C53.6509 73.5298 53.5667 73.4946 53.4625 73.4946C53.368 73.4946 53.2875 73.5304 53.2209 73.602C53.1542 73.6736 53.1209 73.7872 53.1209 73.9429V74.994C53.1209 75.0191 53.1131 75.0405 53.0973 75.058C53.0816 75.0756 53.0604 75.0844 53.0337 75.0844H52.7285C52.7043 75.0844 52.6837 75.0756 52.6667 75.058C52.6498 75.0405 52.6413 75.0191 52.6413 74.994V73.9429C52.6413 73.7872 52.6086 73.6736 52.5432 73.602C52.4778 73.5304 52.3942 73.4946 52.2924 73.4946C52.198 73.4946 52.1174 73.5304 52.0508 73.602C51.9842 73.6736 51.9509 73.7872 51.9509 73.9429V74.994C51.9509 75.0191 51.943 75.0405 51.9272 75.058C51.9115 75.0756 51.8903 75.0844 51.8636 75.0844H51.5548C51.5305 75.0844 51.51 75.0756 51.493 75.058ZM55.0069 75.0354C54.8833 74.9777 54.7919 74.9105 54.7325 74.8339C54.6732 74.7573 54.6435 74.6914 54.6435 74.6361C54.6435 74.611 54.6514 74.5909 54.6671 74.5758C54.6829 74.5608 54.7016 74.5532 54.7234 74.5532H55.0214C55.0408 74.5532 55.0577 74.5633 55.0723 74.5834C55.0844 74.5934 55.1116 74.6173 55.154 74.6549C55.1964 74.6926 55.2449 74.7221 55.2994 74.7435C55.3539 74.7648 55.4139 74.7755 55.4793 74.7755C55.5762 74.7755 55.6549 74.756 55.7155 74.7171C55.776 74.6782 55.8063 74.6223 55.8063 74.5495C55.8063 74.4992 55.7924 74.4584 55.7645 74.427C55.7367 74.3956 55.687 74.3668 55.6155 74.3404C55.5441 74.314 55.4369 74.2845 55.2939 74.2518C55.088 74.2066 54.936 74.1376 54.8379 74.0447C54.7398 73.9517 54.6907 73.8287 54.6907 73.6755C54.6907 73.575 54.7198 73.4802 54.7779 73.391C54.8361 73.3019 54.9227 73.229 55.0378 73.1725C55.1528 73.116 55.2903 73.0878 55.4502 73.0878C55.6149 73.0878 55.7566 73.1148 55.8753 73.1688C55.994 73.2228 56.0843 73.2874 56.1461 73.3628C56.2078 73.4381 56.2387 73.5047 56.2387 73.5624C56.2387 73.585 56.2308 73.6045 56.2151 73.6208C56.1994 73.6372 56.1806 73.6453 56.1588 73.6453H55.8862C55.8596 73.6453 55.839 73.6353 55.8245 73.6152C55.8075 73.6026 55.7803 73.5794 55.7427 73.5455C55.7052 73.5116 55.6634 73.4846 55.6173 73.4645C55.5713 73.4444 55.5156 73.4344 55.4502 73.4344C55.3606 73.4344 55.2915 73.4544 55.2431 73.4946C55.1946 73.5348 55.1704 73.5876 55.1704 73.6529C55.1704 73.6981 55.1819 73.7357 55.2049 73.7659C55.2279 73.796 55.2746 73.8243 55.3448 73.8506C55.4151 73.877 55.5204 73.904 55.6609 73.9316C56.097 74.0195 56.315 74.2167 56.315 74.5231C56.315 74.7014 56.2405 74.8458 56.0916 74.9563C55.9426 75.0668 55.7348 75.1221 55.4684 75.1221C55.2842 75.1221 55.1304 75.0932 55.0069 75.0354ZM56.6893 75.058C56.6724 75.0405 56.6639 75.0191 56.6639 74.994V74.6135C56.6639 74.5884 56.6724 74.567 56.6893 74.5495C56.7063 74.5319 56.7269 74.5231 56.7511 74.5231H57.1181C57.1423 74.5231 57.1629 74.5319 57.1799 74.5495C57.1968 74.567 57.2053 74.5884 57.2053 74.6135V74.994C57.2053 75.0191 57.1974 75.0405 57.1817 75.058C57.1659 75.0756 57.1447 75.0844 57.1181 75.0844H56.7511C56.7269 75.0844 56.7063 75.0756 56.6893 75.058ZM57.7996 74.8923C57.641 74.7391 57.5568 74.5269 57.5471 74.2556L57.5435 74.1049L57.5471 73.9542C57.5568 73.683 57.641 73.4708 57.7996 73.3176C57.9583 73.1644 58.1709 73.0878 58.4374 73.0878C58.6288 73.0878 58.7905 73.1229 58.9225 73.1932C59.0545 73.2636 59.1526 73.3496 59.2168 73.4513C59.281 73.553 59.3155 73.6503 59.3204 73.7433C59.3228 73.7684 59.3149 73.7897 59.2968 73.8073C59.2786 73.8249 59.2574 73.8337 59.2332 73.8337H58.9098C58.8831 73.8337 58.8637 73.828 58.8516 73.8167C58.8395 73.8054 58.8274 73.7847 58.8153 73.7546C58.779 73.6591 58.7311 73.5901 58.6718 73.5474C58.6124 73.5047 58.5367 73.4833 58.4446 73.4833C58.3211 73.4833 58.2248 73.5235 58.1558 73.6039C58.0867 73.6842 58.0498 73.8073 58.0449 73.9731L58.0413 74.1125L58.0449 74.2368C58.0595 74.5633 58.1927 74.7265 58.4446 74.7265C58.5391 74.7265 58.6154 74.7058 58.6736 74.6644C58.7317 74.6229 58.779 74.5532 58.8153 74.4553C58.825 74.4277 58.8365 74.4076 58.8498 74.395C58.8631 74.3824 58.8831 74.3762 58.9098 74.3762H59.2332C59.2574 74.3762 59.2786 74.385 59.2968 74.4025C59.3149 74.4201 59.3228 74.4415 59.3204 74.4666C59.3155 74.5545 59.2816 74.6493 59.2186 74.751C59.1557 74.8527 59.0588 74.94 58.9279 75.0128C58.7971 75.0857 58.6336 75.1221 58.4374 75.1221C58.1709 75.1221 57.9583 75.0455 57.7996 74.8923ZM59.8764 74.8961C59.7213 74.7454 59.6377 74.5369 59.6256 74.2707L59.622 74.1049L59.6256 73.9392C59.6377 73.6755 59.7225 73.4676 59.88 73.3157C60.0375 73.1637 60.2567 73.0878 60.5377 73.0878C60.8163 73.0878 61.0343 73.1637 61.1918 73.3157C61.3492 73.4676 61.434 73.6755 61.4461 73.9392C61.4486 73.9693 61.4498 74.0246 61.4498 74.1049C61.4498 74.1853 61.4486 74.2405 61.4461 74.2707C61.434 74.5369 61.3505 74.7454 61.1954 74.8961C61.0404 75.0467 60.8211 75.1221 60.5377 75.1221C60.2518 75.1221 60.0314 75.0467 59.8764 74.8961ZM60.8339 74.6173C60.9029 74.5344 60.9398 74.4126 60.9447 74.2518C60.9471 74.2267 60.9483 74.1778 60.9483 74.1049C60.9483 74.0321 60.9471 73.9831 60.9447 73.958C60.9398 73.7973 60.9023 73.6748 60.832 73.5907C60.7618 73.5066 60.6637 73.4645 60.5377 73.4645C60.4093 73.4645 60.31 73.5066 60.2397 73.5907C60.1695 73.6748 60.1319 73.7973 60.1271 73.958L60.1234 74.1049L60.1271 74.2518C60.1319 74.4126 60.1695 74.5344 60.2397 74.6173C60.31 74.7002 60.4093 74.7416 60.5377 74.7416C60.6661 74.7416 60.7648 74.7002 60.8339 74.6173Z" fill="black"/>
<path fill-rule="evenodd" clip-rule="evenodd" d="M67.2157 22.9479L67.8584 24.2966L69.2963 24.5128L68.256 25.5622L68.5015 27.0445L67.2157 26.345L65.9299 27.0445L66.1754 25.5622L65.1355 24.5128L66.573 24.2966L67.2157 22.9479ZM31.8698 22.9479L31.2271 24.2966L29.7896 24.5128L30.8295 25.5622L30.584 27.0445L31.8698 26.345L33.1555 27.0445L32.9101 25.5622L33.9504 24.5128L32.5125 24.2966L31.8698 22.9479ZM61.6873 16.1867L62.7589 18.4342L65.1549 18.7948L63.4211 20.5444L63.8306 23.0143L61.6873 21.8482L59.5443 23.0143L59.9538 20.5444L58.22 18.7948L60.616 18.4342L61.6873 16.1867ZM37.3982 16.1867L36.3265 18.4342L33.9305 18.7948L35.6644 20.5444L35.2548 23.0143L37.3982 21.8482L39.5412 23.0143L39.1316 20.5444L40.8655 18.7948L38.4695 18.4342L37.3982 16.1867ZM49.5427 11.1313L51.3286 14.8772L55.3222 15.4779L52.4321 18.3936L53.1145 22.5111L49.5427 20.5671L45.971 22.5111L46.6534 18.3936L43.7633 15.4779L47.7569 14.8772L49.5427 11.1313Z" fill="#F8B64C"/>
<path fill-rule="evenodd" clip-rule="evenodd" d="M49.5427 11.1313L51.3285 14.8772L55.3221 15.4779L52.432 18.3936L53.1144 22.5111L49.5427 20.5671L45.9709 22.5111L46.6533 18.3936L43.7632 15.4779L47.7568 14.8772L49.5427 11.1313Z" fill="#FFA829"/>
<path fill-rule="evenodd" clip-rule="evenodd" d="M61.688 16.1868L62.7597 18.4343L65.1557 18.7949L63.4218 20.5444L63.8314 23.0144L61.688 21.8483L59.545 23.0144L59.9545 20.5444L58.2207 18.7949L60.6167 18.4343L61.688 16.1868Z" fill="#F8B64C"/>
<path fill-rule="evenodd" clip-rule="evenodd" d="M67.2169 22.9482L67.8596 24.2969L69.2975 24.5132L68.2572 25.5625L68.5027 27.0448L67.2169 26.3454L65.9311 27.0448L66.1766 25.5625L65.1367 24.5132L66.5742 24.2969L67.2169 22.9482Z" fill="#FFD15C"/>
<path fill-rule="evenodd" clip-rule="evenodd" d="M37.3979 16.1868L36.3262 18.4343L33.9302 18.7949L35.664 20.5444L35.2545 23.0144L37.3979 21.8483L39.5408 23.0144L39.1313 20.5444L40.8651 18.7949L38.4692 18.4343L37.3979 16.1868Z" fill="#F8B64C"/>
<path fill-rule="evenodd" clip-rule="evenodd" d="M31.8698 22.9478L31.2271 24.2964L29.7896 24.5127L30.8295 25.562L30.584 27.0443L31.8698 26.3449L33.1556 27.0443L32.9101 25.562L33.9504 24.5127L32.5125 24.2964L31.8698 22.9478Z" fill="#FFD15C"/>
<path fill-rule="evenodd" clip-rule="evenodd" d="M0 57.717H11.0251V75.1761H0L3.53879 66.9776L0 57.717ZM98 57.717H86.9749V75.1761H98L94.4612 66.9776L98 57.717Z" fill="#2C72C6"/>
<path fill-rule="evenodd" clip-rule="evenodd" d="M5.56201 51.7275L11.148 57.9465V75.1741L5.56201 69.3921V51.7275ZM92.5521 51.7236L86.9753 57.6879V75.1469L92.5521 69.4051V51.7236Z" fill="#3D597A"/>
<path fill-rule="evenodd" clip-rule="evenodd" d="M5.45068 69.2979H92.4472L92.4377 51.6145H5.45068V69.2979Z" fill="#4385F4"/>
<path fill-rule="evenodd" clip-rule="evenodd" d="M30.4196 58.9876H29.6605V55.8761H28.5997V55.2273H31.4828V55.8761H30.4196V58.9876ZM33.539 55.1621C34.6123 55.1621 35.2884 55.91 35.2884 57.1088C35.2884 58.3049 34.6123 59.0528 33.539 59.0528C32.4631 59.0528 31.7895 58.3049 31.7895 57.1088C31.7895 55.91 32.4631 55.1621 33.539 55.1621ZM33.539 55.8188C32.9458 55.8188 32.5637 56.3191 32.5637 57.1088C32.5637 57.8957 32.9432 58.3935 33.539 58.3935C34.1322 58.3935 34.5117 57.8957 34.5117 57.1088C34.5117 56.3191 34.1322 55.8188 33.539 55.8188ZM35.7761 55.2273H37.2893C38.0333 55.2273 38.5461 55.7406 38.5461 56.5146C38.5461 57.286 38.0157 57.8019 37.2516 57.8019H36.5352V58.9876H35.7761V55.2273ZM36.5352 55.8501V57.1869H37.0857C37.5205 57.1869 37.7744 56.9472 37.7744 56.5172C37.7744 56.0898 37.523 55.8501 37.0882 55.8501H36.5352ZM43.9403 55.2273V58.9876H43.2641V56.4494H43.244L42.2587 58.9512H41.7811L40.7957 56.4494H40.7756V58.9876H40.0995V55.2273H40.9792L42.0098 57.8931H42.0299L43.0605 55.2273H43.9403ZM46.1799 55.1621C47.2532 55.1621 47.9293 55.91 47.9293 57.1088C47.9293 58.3049 47.2532 59.0528 46.1799 59.0528C45.104 59.0528 44.4304 58.3049 44.4304 57.1088C44.4304 55.91 45.104 55.1621 46.1799 55.1621ZM46.1799 55.8188C45.5867 55.8188 45.2046 56.3191 45.2046 57.1088C45.2046 57.8957 45.5841 58.3935 46.1799 58.3935C46.7731 58.3935 47.1526 57.8957 47.1526 57.1088C47.1526 56.3191 46.7731 55.8188 46.1799 55.8188ZM50.0458 58.9876H48.417V55.2273H50.0181C50.6993 55.2273 51.1266 55.5895 51.1266 56.1654C51.1266 56.5771 50.83 56.9211 50.4455 56.9811V57.0019C50.9381 57.041 51.3001 57.4136 51.3001 57.9114C51.3001 58.5733 50.82 58.9876 50.0458 58.9876ZM49.1761 55.8136V56.7908H49.7442C50.1488 56.7908 50.3801 56.6058 50.3801 56.2879C50.3801 55.9856 50.1765 55.8136 49.8221 55.8136H49.1761ZM49.1761 58.4013H49.8522C50.2896 58.4013 50.5259 58.2085 50.5259 57.8488C50.5259 57.497 50.2821 57.3094 49.8346 57.3094H49.1761V58.4013ZM52.4915 58.9876H51.7324V55.2273H52.4915V58.9876ZM55.44 58.3362V58.9876H53.0948V55.2273H53.8539V58.3362H55.44ZM58.2929 58.3362V58.9876H55.8899V55.2273H58.2929V55.8761H56.649V56.783H58.1999V57.3876H56.649V58.3362H58.2929ZM62.3222 58.9876L62.0457 58.0756H60.7713L60.4948 58.9876H59.7156L60.9749 55.2273H61.8673L63.1291 58.9876H62.3222ZM61.3997 55.9465L60.9347 57.4866H61.8823L61.4173 55.9465H61.3997ZM63.4986 55.2273H65.0118C65.7558 55.2273 66.2686 55.7406 66.2686 56.5146C66.2686 57.286 65.7382 57.8019 64.9741 57.8019H64.2577V58.9876H63.4986V55.2273ZM64.2577 55.8501V57.1869H64.8082C65.243 57.1869 65.4969 56.9472 65.4969 56.5172C65.4969 56.0898 65.2455 55.8501 64.8107 55.8501H64.2577ZM66.716 55.2273H68.2292C68.9732 55.2273 69.486 55.7406 69.486 56.5146C69.486 57.286 68.9556 57.8019 68.1915 57.8019H67.4751V58.9876H66.716V55.2273ZM67.4751 55.8501V57.1869H68.0256C68.4604 57.1869 68.7143 56.9472 68.7143 56.5172C68.7143 56.0898 68.4629 55.8501 68.0281 55.8501H67.4751ZM17.3325 61.5061H18.7301C19.8185 61.5061 20.4594 62.1784 20.4594 63.3719C20.4594 64.5654 19.8185 65.2664 18.7301 65.2664H17.3325V61.5061ZM18.0916 62.1549V64.6149H18.6396C19.3183 64.6149 19.6853 64.1876 19.6853 63.3745C19.6853 62.5875 19.3082 62.1549 18.6396 62.1549H18.0916ZM23.3501 64.6149V65.2664H20.9471V61.5061H23.3501V62.1549H21.7062V63.0618H23.2571V63.6664H21.7062V64.6149H23.3501ZM25.8008 65.2664H24.8859L23.6668 61.5061H24.5164L25.3459 64.456H25.3635L26.193 61.5061H27.0199L25.8008 65.2664ZM29.7924 64.6149V65.2664H27.3894V61.5061H29.7924V62.1549H28.1485V63.0618H29.6994V63.6664H28.1485V64.6149H29.7924ZM32.6856 64.6149V65.2664H30.3404V61.5061H31.0995V64.6149H32.6856ZM34.7719 61.4409C35.8452 61.4409 36.5214 62.1888 36.5214 63.3875C36.5214 64.5837 35.8452 65.3316 34.7719 65.3316C33.6961 65.3316 33.0224 64.5837 33.0224 63.3875C33.0224 62.1888 33.6961 61.4409 34.7719 61.4409ZM34.7719 62.0976C34.1787 62.0976 33.7966 62.5979 33.7966 63.3875C33.7966 64.1745 34.1762 64.6723 34.7719 64.6723C35.3651 64.6723 35.7447 64.1745 35.7447 63.3875C35.7447 62.5979 35.3651 62.0976 34.7719 62.0976ZM37.009 61.5061H38.5222C39.2662 61.5061 39.779 62.0194 39.779 62.7934C39.779 63.5648 39.2486 64.0807 38.4845 64.0807H37.7681V65.2664H37.009V61.5061ZM37.7681 62.1289V63.4657H38.3186C38.7534 63.4657 39.0073 63.226 39.0073 62.796C39.0073 62.3686 38.7559 62.1289 38.3211 62.1289H37.7681ZM44.0672 61.5061V65.2664H43.391V62.7282H43.3709L42.3856 65.23H41.908L40.9227 62.7282H40.9026V65.2664H40.2264V61.5061H41.1062L42.1367 64.1719H42.1569L43.1874 61.5061H44.0672ZM47.0735 64.6149V65.2664H44.6705V61.5061H47.0735V62.1549H45.4296V63.0618H46.9805V63.6664H45.4296V64.6149H47.0735ZM48.3479 65.2664H47.6214V61.5061H48.2548L49.949 63.9556H49.9691V61.5061H50.6956V65.2664H50.0672L48.3705 62.8038H48.3479V65.2664ZM52.9377 65.2664H52.1786V62.1549H51.1178V61.5061H54.0009V62.1549H52.9377V65.2664ZM57.1304 65.3316C56.0747 65.3316 55.4136 64.5993 55.4136 63.3849C55.4136 62.1732 56.0797 61.4409 57.1304 61.4409C58.0026 61.4409 58.6662 62.0142 58.724 62.8559H57.985C57.9146 62.3947 57.5728 62.0924 57.1304 62.0924C56.5573 62.0924 56.1878 62.5901 56.1878 63.3823C56.1878 64.185 56.5522 64.6801 57.1329 64.6801C57.5828 64.6801 57.9071 64.4065 57.9875 63.9609H58.7265C58.6411 64.8 58.0202 65.3316 57.1304 65.3316ZM60.8304 61.4409C61.9037 61.4409 62.5799 62.1888 62.5799 63.3875C62.5799 64.5837 61.9037 65.3316 60.8304 65.3316C59.7546 65.3316 59.0809 64.5837 59.0809 63.3875C59.0809 62.1888 59.7546 61.4409 60.8304 61.4409ZM60.8304 62.0976C60.2372 62.0976 59.8551 62.5979 59.8551 63.3875C59.8551 64.1745 60.2347 64.6723 60.8304 64.6723C61.4236 64.6723 61.8032 64.1745 61.8032 63.3875C61.8032 62.5979 61.4236 62.0976 60.8304 62.0976ZM66.9083 61.5061V65.2664H66.2321V62.7282H66.212L65.2267 65.23H64.7491L63.7638 62.7282H63.7437V65.2664H63.0675V61.5061H63.9473L64.9778 64.1719H64.9979L66.0285 61.5061H66.9083ZM67.5116 61.5061H69.0247C69.7688 61.5061 70.2815 62.0194 70.2815 62.7934C70.2815 63.5648 69.7512 64.0807 68.987 64.0807H68.2707V65.2664H67.5116V61.5061ZM68.2707 62.1289V63.4657H68.8211C69.256 63.4657 69.5099 63.226 69.5099 62.796C69.5099 62.3686 69.2585 62.1289 68.8237 62.1289H68.2707ZM73.1043 65.2664L72.8278 64.3544H71.5534L71.2769 65.2664H70.4977L71.757 61.5061H72.6494L73.9112 65.2664H73.1043ZM72.1818 62.2253L71.7168 63.7654H72.6644L72.1994 62.2253H72.1818ZM75.0071 65.2664H74.2807V61.5061H74.9141L76.6083 63.9556H76.6284V61.5061H77.3548V65.2664H76.7264L75.0297 62.8038H75.0071V65.2664ZM79.7478 65.2664H78.9887V63.8618L77.7268 61.5061H78.5538L79.3657 63.1113H79.3833L80.1977 61.5061H81.0121L79.7478 63.8618V65.2664Z" fill="white"/>
</svg>
