<?xml version="1.0" encoding="UTF-8"?> <svg xmlns="http://www.w3.org/2000/svg" viewBox="0 0 625.11 63.96"><title>Asset 33</title><g id="Layer_2" data-name="Layer 2"><g id="Layer_1-2" data-name="Layer 1"><path d="M77,37.16a18.64,18.64,0,0,1-12.07-4.4,10.84,10.84,0,0,1-1.1-.95L39.39,7.88A23.09,23.09,0,0,0,0,23.77a18.65,18.65,0,0,1,29.69-8.21,10.94,10.94,0,0,1,1.11,1L55.19,40.44A23.08,23.08,0,0,0,94.58,24.55,18.47,18.47,0,0,1,77,37.16Z" style="fill:#2f83c5"></path><path d="M30.8,32A10.93,10.93,0,0,1,15.36,16.52,10.85,10.85,0,0,1,20,13.78a16.55,16.55,0,0,0-2.35-.19,15.87,15.87,0,0,0-16,15.26c0,.13,0,.25,0,.37a15.2,15.2,0,0,0,1.55,6.66,22.84,22.84,0,0,0,3.63,4.7c.32.33.66.64,1,1a23,23,0,0,0,12.3,5.6,22,22,0,0,0,3,.21,23,23,0,0,0,16.31-6.73L45.6,34.5,36.87,26Z" style="fill:#3c3c3b"></path><path d="M91.55,12.46a23.42,23.42,0,0,0-3.62-4.7c-.33-.33-.67-.64-1-1a23,23,0,0,0-12.3-5.6,23.61,23.61,0,0,0-3-.21A23,23,0,0,0,55.28,7.73l-6.21,6.12,8.73,8.52,6.08-6a11.1,11.1,0,0,1,1-.91,10.92,10.92,0,1,1,9.79,19.12,16.3,16.3,0,0,0,2.34.18,15.86,15.86,0,0,0,16-15.26c0-.13,0-.25,0-.37A15.2,15.2,0,0,0,91.55,12.46Z" style="fill:#3c3c3b"></path><path d="M114.72,12.89a15.58,15.58,0,0,1,11.66,5.28V1.84h7.06V47.26h-7.06V42.17a14,14,0,0,1-11.72,5.65c-8.9,0-16-7.18-16-17.62S105.76,12.89,114.72,12.89ZM116.13,19c-5.22,0-10.25,3.93-10.25,11.23s5,11.54,10.25,11.54,10.25-4.11,10.25-11.42S121.41,19,116.13,19Z" style="fill:#2f83c5"></path><path d="M142.65,1.84h7V47.26h-7Z" style="fill:#2f83c5"></path><path d="M173.4,47.82c-9.7,0-16.88-6.88-16.88-17.5s6.87-17.43,16.88-17.43c9.64,0,16.45,6.69,16.45,16.63a22,22,0,0,1-.24,3.44H163.76a9.3,9.3,0,0,0,9.64,9c4.3,0,6.69-2.08,8-4.72h7.55C187,43.09,181.69,47.82,173.4,47.82Zm-9.58-20.5h18.73c-.13-5.22-4.24-8.54-9.46-8.54C168.37,18.78,164.56,22,163.82,27.32Z" style="fill:#2f83c5"></path><path d="M209,47.82c-8.1,0-13.81-4.79-14.12-10.93h7.25c.24,2.76,2.88,5,6.75,5,4.05,0,6.2-1.71,6.2-4.05,0-6.63-19.64-2.82-19.64-15.22,0-5.4,5-9.76,13-9.76,7.67,0,12.71,4.11,13.07,10.86h-7c-.25-2.94-2.52-5-6.33-5s-5.7,1.54-5.7,3.81c0,6.81,19.09,3,19.45,15.22C222,43.52,217,47.82,209,47.82Z" style="fill:#2f83c5"></path><path d="M223.75,4.6h29.78v5.71H242.17V47.26h-7V10.31H223.75Z" style="fill:#3c3c3b"></path><path d="M269.82,47.82c-9.7,0-16.88-6.88-16.88-17.5s6.88-17.43,16.88-17.43c9.64,0,16.45,6.69,16.45,16.63A22,22,0,0,1,286,33H260.18c.5,5.59,4.49,9,9.64,9,4.3,0,6.69-2.08,8-4.72h7.55C283.45,43.09,278.11,47.82,269.82,47.82Zm-9.57-20.5H279c-.13-5.22-4.24-8.54-9.45-8.54C264.79,18.78,261,22,260.25,27.32Z" style="fill:#3c3c3b"></path><path d="M307.39,12.89c8.28,0,13.69,4.11,15.59,11.23h-7.55c-1.17-3.25-3.87-5.34-8-5.34-5.65,0-9.39,4.18-9.39,11.54s3.74,11.6,9.39,11.6c4.17,0,6.75-1.84,8-5.34H323c-1.9,6.63-7.31,11.24-15.59,11.24-9.7,0-16.58-6.88-16.58-17.5S297.69,12.89,307.39,12.89Z" style="fill:#3c3c3b"></path><path d="M330,1.84h7V17.37a13.4,13.4,0,0,1,10.49-4.48c7.55,0,13.44,5,13.44,14.43V47.26H354V28.36c0-6.2-3.38-9.39-8.47-9.39S337,22.16,337,28.36v18.9h-7Z" style="fill:#3c3c3b"></path><path d="M393.82,28.36c0-6.2-3.38-9.39-8.47-9.39s-8.54,3.19-8.54,9.39v18.9h-7V13.44h7v3.87a13,13,0,0,1,10.07-4.42c7.92,0,13.87,5,13.87,14.43V47.26h-6.93Z" style="fill:#3c3c3b"></path><path d="M424.32,47.82c-9.63,0-16.94-6.88-16.94-17.5S415,12.89,424.63,12.89s17.25,6.81,17.25,17.43S434,47.82,424.32,47.82Zm0-6.08c5.22,0,10.38-3.74,10.38-11.42S429.72,19,424.51,19s-10,3.68-10,11.35S419,41.74,424.32,41.74Z" style="fill:#3c3c3b"></path><path d="M448.81,1.84h7V47.26h-7Z" style="fill:#3c3c3b"></path><path d="M479.69,47.82c-9.64,0-16.94-6.88-16.94-17.5S470.36,12.89,480,12.89s17.24,6.81,17.24,17.43S489.39,47.82,479.69,47.82Zm0-6.08c5.22,0,10.37-3.74,10.37-11.42S485.09,19,479.87,19s-10,3.68-10,11.35S474.41,41.74,479.69,41.74Z" style="fill:#3c3c3b"></path><path d="M517.81,12.89a14.33,14.33,0,0,1,11.72,5.46V13.44h7.06V47.82c0,9.2-6,16.14-16.51,16.14-9,0-15.71-4.48-16.57-12h6.93c1.05,3.5,4.79,5.89,9.64,5.89,5.4,0,9.45-3.31,9.45-10.06V42.17a14.54,14.54,0,0,1-11.72,5.65c-8.9,0-16-7.18-16-17.62S508.91,12.89,517.81,12.89ZM519.28,19C514.07,19,509,22.9,509,30.2s5,11.54,10.25,11.54,10.25-4.11,10.25-11.42S524.56,19,519.28,19Z" style="fill:#3c3c3b"></path><path d="M544.88,4.48a4.45,4.45,0,1,1,8.9,0,4.45,4.45,0,1,1-8.9,0Zm.92,9h7V47.26h-7Z" style="fill:#3c3c3b"></path><path d="M576.55,47.82c-9.7,0-16.88-6.88-16.88-17.5s6.88-17.43,16.88-17.43c9.64,0,16.45,6.69,16.45,16.63a22,22,0,0,1-.24,3.44H566.92c.49,5.59,4.48,9,9.63,9,4.3,0,6.69-2.08,8-4.72h7.55C590.18,43.09,584.84,47.82,576.55,47.82ZM567,27.32H585.7c-.12-5.22-4.24-8.54-9.45-8.54C571.52,18.78,567.71,22,567,27.32Z" style="fill:#3c3c3b"></path><path d="M612.15,47.82c-8.1,0-13.81-4.79-14.11-10.93h7.24c.25,2.76,2.89,5,6.75,5,4.05,0,6.2-1.71,6.2-4.05,0-6.63-19.64-2.82-19.64-15.22,0-5.4,5-9.76,13-9.76,7.68,0,12.71,4.11,13.08,10.86h-7c-.25-2.94-2.52-5-6.32-5s-5.71,1.54-5.71,3.81c0,6.81,19.09,3,19.46,15.22C625.11,43.52,620.13,47.82,612.15,47.82Z" style="fill:#3c3c3b"></path></g></g></svg> 