<?xml version="1.0" encoding="utf-8"?>
<!-- Generator: Adobe Illustrator 23.0.2, SVG Export Plug-In . SVG Version: 6.00 Build 0)  -->
<svg version="1.1" id="Capa_1" xmlns="http://www.w3.org/2000/svg" xmlns:xlink="http://www.w3.org/1999/xlink" x="0px" y="0px"
	 viewBox="0 0 60 60" style="enable-background:new 0 0 60 60;" xml:space="preserve">
<style type="text/css">
	.st0{fill:#868686;}
</style>
<g transform="translate(-1)">
	<g>
		<g>
			<path class="st0" d="M16.8,5.9c-0.5-0.5-1.3-0.5-1.9,0L11,9.4V8.9c0-0.5-0.4-1-1-1s-1,0.4-1,1v2.2l-1.6,1.4
				c-0.4,0.4-0.4,1-0.1,1.4c0.4,0.4,1,0.4,1.4,0.1l7.1-6.3L23,14c0.3,0.2,0.6,0.3,0.9,0.2c0.3-0.1,0.6-0.4,0.6-0.7
				c0.1-0.3,0-0.7-0.3-0.9L16.8,5.9z"/>
			<path class="st0" d="M21.7,15.2c-0.5,0-1,0.4-1,1v6.8H11v-6.8c0-0.5-0.4-1-1-1s-1,0.4-1,1v7.4c0,0.7,0.6,1.3,1.4,1.3h10.8
				c0.7,0,1.3-0.6,1.4-1.3v-7.4C22.6,15.6,22.2,15.2,21.7,15.2z"/>
			<path class="st0" d="M15.9,26.8c-3.7,0-6.8,3-6.8,6.8s3,6.8,6.8,6.8s6.8-3,6.8-6.8C22.6,29.8,19.6,26.8,15.9,26.8z M11,33.6
				c0-2.3,1.6-4.3,3.9-4.7V33l-3.6,2.1C11.2,34.6,11.1,34.1,11,33.6z M12.3,36.8l3.4-2l2.8,2.8C16.6,38.9,13.9,38.6,12.3,36.8z
				 M19.9,36.2l-3.1-3.1v-4.3c1.6,0.3,2.9,1.4,3.5,2.9C21,33.2,20.8,34.9,19.9,36.2z"/>
			<path class="st0" d="M54.5,19.1v-3.3c0-0.8-0.7-1.5-1.5-1.5h-2.8c-0.8,0-1.5,0.7-1.5,1.5v3.3h-1.9V13c0-0.9-0.7-1.7-1.7-1.7h-2.5
				c-0.9,0-1.7,0.7-1.7,1.7v6.1h-1.9V8.4c0-1.1-0.9-1.9-1.9-1.9h-1.9c-1.1,0-1.9,0.9-1.9,1.9v10.6h-1c-0.5,0-1-0.4-1-1V6.5
				c0-0.5-0.4-1-1-1c-0.5,0-1,0.4-1,1v11.6c0,1.6,1.3,2.9,2.9,2.9h22.2c0.5,0,1-0.4,1-1C55.5,19.5,55.1,19.1,54.5,19.1z M37.1,19.1
				h-1.9V8.4h1.9V19.1z M44.9,19.1h-1.9v-5.8h1.9V19.1z M52.6,19.1h-1.9v-2.9h1.9L52.6,19.1L52.6,19.1z"/>
			<path class="st0" d="M54.5,38.4H32.3c-0.5,0-1-0.4-1-1v-1.5l3.2-3.2c0.4-0.4,1-0.4,1.4,0l1.1,1.1c1.1,1.1,3,1.1,4.1,0l4-4
				c0.4-0.4,1-0.4,1.4,0l1.1,1.1c1.1,1.1,3,1.1,4.1,0l3.5-3.5c0.4-0.4,0.4-1,0-1.4c-0.4-0.4-1-0.4-1.4,0l-3.5,3.5
				c-0.4,0.4-1,0.4-1.4,0l-1.1-1.1c-1.1-1.1-3-1.1-4.1,0l-4,4c-0.4,0.4-1,0.4-1.4,0l-1.1-1.1c-1.1-1.1-3-1.1-4.1,0l-1.8,1.8v-7.3
				c0-0.5-0.4-1-1-1s-1,0.4-1,1v11.6c0,1.6,1.3,2.9,2.9,2.9h22.2c0.5,0,1-0.4,1-1C55.5,38.8,55.1,38.4,54.5,38.4z"/>
			<path class="st0" d="M60.3,46.6V7c0.1-2.8-2-5.2-4.8-5.4H7.2C4.4,1.8,2.2,4.2,2.3,7v39.5c-0.1,2.8,2,5.2,4.8,5.4h15.5v1.9h-3.9
				c-2.1,0-3.9,1.7-3.9,3.9v1c0,0.5,0.4,1,1,1h30.9c0.5,0,1-0.4,1-1v-1c0-2.1-1.7-3.9-3.9-3.9H40v-1.9h15.5
				C58.3,51.8,60.5,49.4,60.3,46.6z M43.9,55.8c1.1,0,1.9,0.9,1.9,1.9h-29c0-1.1,0.9-1.9,1.9-1.9H43.9z M24.6,53.9v-1.9h13.5v1.9
				H24.6z M55.5,50H7.2c-1.7-0.2-3-1.7-2.9-3.4v-2.4h54.1v2.4C58.5,48.3,57.2,49.8,55.5,50z M58.4,7v35.2H4.3V7
				C4.2,5.3,5.4,3.8,7.2,3.6h48.3C57.2,3.8,58.5,5.3,58.4,7z"/>
		</g>
	</g>
</g>
</svg>
