<?xml version="1.0" encoding="utf-8"?>
<!-- Generator: Adobe Illustrator 23.0.2, SVG Export Plug-In . SVG Version: 6.00 Build 0)  -->
<svg version="1.1" id="Layer_1" xmlns="http://www.w3.org/2000/svg" xmlns:xlink="http://www.w3.org/1999/xlink" x="0px" y="0px"
	 viewBox="0 0 60 60" style="enable-background:new 0 0 60 60;" xml:space="preserve">
<style type="text/css">
	.st0{display:none;}
	.st1{display:inline;}
	.st2{fill:#868686;}
</style>
<g class="st0">
	<rect x="-413" y="-183.6" class="st1" width="791.3" height="440"/>
</g>
<polygon class="st2" points="44.9,55 49.9,60 57.5,52.5 52.4,47.4 47.9,43.1 42.7,48.3 40.4,50.6 "/>
<path class="st2" d="M26.1,49c4.9,0,9.4-1.5,13.2-4l3.3,3.3l3.1-3.1l-3.1-3.1c4.3-4.3,6.9-10.1,6.9-16.7C49.7,12.5,39.2,2,26.1,2
	C13.2,2,2.7,12.5,2.7,25.4C2.7,38.5,13.2,49,26.1,49z M26.1,5.7c11,0,19.7,8.9,19.7,19.7c0,11-8.9,19.7-19.7,19.7
	c-11,0-19.7-8.9-19.7-19.7S15.3,5.7,26.1,5.7z"/>
<rect x="12.3" y="26.3" class="st2" width="3.7" height="7.5"/>
<rect x="18.2" y="22" class="st2" width="3.7" height="11.7"/>
<rect x="24.3" y="17.1" class="st2" width="3.7" height="16.5"/>
<rect x="30.4" y="12.4" class="st2" width="3.7" height="21.2"/>
<rect x="36.4" y="22" class="st2" width="3.7" height="11.7"/>
<g class="st0">
	<g class="st1">
		<g>
			<rect x="-2" y="-10" width="64" height="64"/>
		</g>
	</g>
	<rect x="16.9" y="16.5" class="st1" width="2.7" height="5.4"/>
	<rect x="21.2" y="13.4" class="st1" width="2.7" height="8.4"/>
	<polygon class="st1" points="40.4,37.2 44,40.8 49.5,35.4 45.8,31.7 42.6,28.6 38.8,32.4 37.2,34 	"/>
	<path class="st1" d="M26.9,32.9c3.5,0,6.8-1.1,9.5-2.9l2.4,2.4l2.2-2.2L38.8,28c3.1-3.1,5-7.3,5-12c0.1-9.4-7.5-17-16.9-17
		C17.6-1,10,6.6,10,15.9C10,25.3,17.6,32.9,26.9,32.9z M26.9,1.7c7.9,0,14.2,6.4,14.2,14.2c0,7.9-6.4,14.2-14.2,14.2
		c-7.9,0-14.2-6.4-14.2-14.2S19.1,1.7,26.9,1.7z"/>
	<rect x="25.6" y="9.9" class="st1" width="2.7" height="11.9"/>
	<rect x="30" y="6.5" class="st1" width="2.7" height="15.3"/>
	<rect x="34.3" y="13.4" class="st1" width="2.7" height="8.4"/>
</g>
<g class="st0">
	<polygon class="st1" points="40.4,37.2 44,40.8 49.5,35.4 45.8,31.7 42.6,28.6 38.8,32.4 37.2,34 	"/>
	<path class="st1" d="M26.9,32.9c3.5,0,6.8-1.1,9.5-2.9l2.4,2.4l2.2-2.2L38.8,28c3.1-3.1,5-7.3,5-12c0.1-9.4-7.5-17-16.9-17
		C17.6-1,10,6.6,10,15.9C10,25.3,17.6,32.9,26.9,32.9z M26.9,1.7c7.9,0,14.2,6.4,14.2,14.2c0,7.9-6.4,14.2-14.2,14.2
		c-7.9,0-14.2-6.4-14.2-14.2S19.1,1.7,26.9,1.7z"/>
	<rect x="16.9" y="16.5" class="st1" width="2.7" height="5.4"/>
	<rect x="21.2" y="13.4" class="st1" width="2.7" height="8.4"/>
	<rect x="25.6" y="9.9" class="st1" width="2.7" height="11.9"/>
	<rect x="30" y="6.5" class="st1" width="2.7" height="15.3"/>
	<rect x="34.3" y="13.4" class="st1" width="2.7" height="8.4"/>
	<path class="st1" d="M62-10H-2v64h64V-10z M58,50H2V-6h56V50z"/>
</g>
<g class="st0">
	<g class="st1">
		<path d="M26.9,33.4c3.5,0,6.7-1,9.4-2.8l2.2,2.2L37.2,34l3.1,3.1l3.7,3.7l5.4-5.4l-3.7-3.7l-3.1-3.1l-1.2,1.2L39.5,28
			c3-3.1,4.8-7.4,4.8-12c0-9.6-7.8-17.4-17.4-17.4S9.5,6.4,9.5,16S17.3,33.4,26.9,33.4z M48,35.4l-4,4l-2.3-2.3l4-4L48,35.4z
			 M44.4,31.7l-4,4L38.6,34l4-4L44.4,31.7z M38.8,31.7L37.1,30c0.6-0.4,1.1-0.9,1.7-1.4l1.5,1.5L38.8,31.7z M26.9-0.5
			c9.1,0,16.4,7.4,16.4,16.4S36,32.4,26.9,32.4S10.5,25,10.5,15.9S17.9-0.5,26.9-0.5z"/>
		<path d="M20,16h-3.7v6.4H20V16z M19,21.3h-1.7V17H19V21.3z"/>
		<path d="M25.9,9.4h-3.7v12.9h3.7V9.4z M24.9,21.3h-1.7V10.4h1.7V21.3z"/>
		<path d="M31.7,6H28v16.3h3.7V6z M30.7,21.3H29V7h1.7V21.3z"/>
		<path d="M37.5,12.9h-3.7v9.4h3.7V12.9z M36.5,21.3h-1.7v-7.4h1.7V21.3z"/>
		<path d="M62-10H-2v64h64V-10z M61,53H-1V-9h62V53z"/>
	</g>
</g>
</svg>
