<?xml version="1.0" encoding="utf-8"?>
<!-- Generator: Adobe Illustrator 23.0.2, SVG Export Plug-In . SVG Version: 6.00 Build 0)  -->
<svg version="1.1"
	 id="Layer_1" xmlns:cc="http://creativecommons.org/ns#" xmlns:dc="http://purl.org/dc/elements/1.1/" xmlns:inkscape="http://www.inkscape.org/namespaces/inkscape" xmlns:rdf="http://www.w3.org/1999/02/22-rdf-syntax-ns#" xmlns:sodipodi="http://sodipodi.sourceforge.net/DTD/sodipodi-0.dtd" xmlns:svg="http://www.w3.org/2000/svg"
	 xmlns="http://www.w3.org/2000/svg" xmlns:xlink="http://www.w3.org/1999/xlink" x="0px" y="0px" viewBox="0 0 60 60"
	 style="enable-background:new 0 0 60 60;" xml:space="preserve">
<style type="text/css">
	.st0{fill:#868686;}
</style>
<g transform="translate(0,-952.36216)">
	<path class="st0" d="M45.4,953.4c-5.2,0-9.5,4.3-9.5,9.5s4.3,9.5,9.5,9.5s9.5-4.3,9.5-9.5C54.8,957.6,50.6,953.4,45.4,953.4z
		 M45.4,954.7c4.5,0,8.1,3.6,8.1,8.1c0,4.5-3.6,8.1-8.1,8.1c-4.5,0-8.1-3.6-8.1-8.1C37.2,958.3,40.9,954.7,45.4,954.7z"/>
	<path class="st0" d="M42.4,958.9l-0.9,0.9l3,2.9l-3,3l0.9,0.9l3-3l3,3l0.9-0.9l-3-3l3-3l-0.9-0.9l-3,3L42.4,958.9z"/>
	<path class="st0" d="M4.7,962.2c0,16.4,0,32.8,0,49.2H46v-37.1h-1.3v35.8H6v-46.5h3.8v13.4c1.5-1.5,3.1-3.1,4.7-4.7l0,0
		c1.5,1.5,3.1,3.1,4.7,4.7v-13.4h14.7v-1.3H4.7z M11.2,963.5h6.7v10.2l-3.3-3.3l0,0l-3.3,3.3L11.2,963.5z"/>
	<path class="st0" d="M9.9,980.3v1.3h31v-1.3H9.9z"/>
	<path class="st0" d="M9.9,984.2v1.3h31v-1.3H9.9z"/>
	<path class="st0" d="M9.9,988.1v1.3h31v-1.3H9.9z"/>
	<path class="st0" d="M9.9,991.9v1.3h31v-1.3H9.9z"/>
	<path class="st0" d="M9.9,995.8v1.3h31v-1.3H9.9L9.9,995.8z"/>
	<path class="st0" d="M9.9,1000.3v1.3h15.5v-1.3H9.9z"/>
	<path class="st0" d="M34.9,1004.1v1.3h6v-1.3H34.9z"/>
</g>
</svg>
