<svg width="32" height="32" viewBox="0 0 32 32" fill="none" xmlns="http://www.w3.org/2000/svg">
<g clip-path="url(#clip0_208_651)">
<path fill-rule="evenodd" clip-rule="evenodd" d="M22.7445 21.9238C22.1854 22.72 21.3591 23.3525 20.2899 23.8024C19.2264 24.2447 17.9539 24.4706 16.5064 24.4706C14.7708 24.4706 13.3139 24.1638 12.1788 23.5558C11.3657 23.1153 10.6955 22.5148 10.1854 21.7751C9.67153 21.0297 9.41175 20.288 9.41175 19.5746C9.41175 19.1285 9.58118 18.7426 9.91812 18.4226C10.2475 18.1101 10.6711 17.9501 11.1774 17.9501C11.5934 17.9501 11.9529 18.0781 12.2447 18.3247C12.5214 18.5638 12.7605 18.9139 12.9544 19.3694C13.1671 19.8626 13.4005 20.2786 13.6471 20.6099C13.8861 20.9261 14.2287 21.1915 14.6635 21.4005C15.1021 21.6075 15.6913 21.7148 16.4198 21.7148C17.4193 21.7148 18.24 21.5002 18.8555 21.0767C19.4579 20.6607 19.7515 20.1638 19.7515 19.5558C19.7515 19.0739 19.5991 18.6974 19.2847 18.3981C18.9534 18.0894 18.5186 17.8466 17.9934 17.6828C17.4438 17.5115 16.6965 17.3252 15.7741 17.1294C14.5186 16.8584 13.4513 16.5365 12.6024 16.1732C11.7365 15.8024 11.0362 15.2885 10.5261 14.6409C10.0066 13.9859 9.74307 13.1652 9.74307 12.1995C9.74307 11.2791 10.0198 10.4508 10.5657 9.73553C11.1059 9.024 11.8946 8.47247 12.9111 8.09223C13.9162 7.7214 15.1097 7.5294 16.4612 7.5294C17.5398 7.5294 18.4922 7.65365 19.2847 7.904C20.0809 8.15435 20.7529 8.4913 21.2819 8.9073C21.8146 9.32518 22.2099 9.77318 22.4584 10.2381C22.7068 10.7087 22.8367 11.1774 22.8367 11.6273C22.8367 12.064 22.6673 12.4593 22.3398 12.8038C22.0085 13.1501 21.5906 13.3271 21.0974 13.3271C20.6513 13.3271 20.2993 13.2179 20.0546 12.9995C19.8287 12.7981 19.5934 12.4838 19.3337 12.032C19.0306 11.4541 18.6654 11.0005 18.2475 10.6786C17.8409 10.368 17.1633 10.2099 16.2297 10.2099C15.3619 10.2099 14.6579 10.3849 14.1346 10.7313C13.6283 11.0645 13.3835 11.4466 13.3835 11.8984C13.3835 12.1769 13.4626 12.4085 13.6264 12.608C13.7977 12.8207 14.0405 13.0052 14.3454 13.1577C14.6635 13.3214 14.9911 13.4475 15.3186 13.5398C15.6555 13.6339 16.2203 13.7713 16.992 13.952C17.9708 14.1647 18.8706 14.4 19.6668 14.6579C20.4725 14.9177 21.1708 15.2377 21.7374 15.6104C22.3134 15.9887 22.7746 16.4762 23.0984 17.0598C23.4259 17.6433 23.5915 18.3661 23.5915 19.2057C23.5915 20.2071 23.3073 21.1219 22.7445 21.9238ZM31.0795 19.3958C31.3092 18.3567 31.4334 17.2781 31.4334 16.1657C31.4334 7.85507 24.6005 1.11812 16.1694 1.11812C15.2809 1.11812 14.4075 1.19342 13.5605 1.33835C12.1958 0.489417 10.5826 0 8.85083 0C3.96423 0 0 3.90588 0 8.72658C0 10.3379 0.446117 11.8457 1.216 13.1426C1.01458 14.1195 0.909167 15.1304 0.909167 16.1657C0.909167 24.4781 7.74023 31.2169 16.1694 31.2169C17.1257 31.2169 18.0574 31.1285 18.9647 30.9647C20.2108 31.6235 21.6358 32 23.1511 32C28.0395 32 32 28.0941 32 23.2734C32 21.8805 31.6668 20.5647 31.0795 19.3958Z" fill="#378ACC"/>
</g>
<defs>
<clipPath id="clip0_208_651">
<rect width="32" height="32" fill="white"/>
</clipPath>
</defs>
</svg>
