<svg width="32" height="32" viewBox="0 0 32 32" fill="none" xmlns="http://www.w3.org/2000/svg">
<path d="M16 0C12.8356 0 9.74206 0.938379 7.11088 2.69648C4.4797 4.45458 2.42894 6.95343 1.21794 9.87705C0.00693905 12.8006 -0.309922 16.0178 0.307438 19.1214C0.924799 22.2252 2.44866 25.076 4.6863 27.3138C6.92394 29.5514 9.77486 31.0752 12.8786 31.6926C15.9822 32.31 19.1994 31.993 22.123 30.782C25.0466 29.571 27.5454 27.5204 29.3036 24.8892C31.0616 22.258 32 19.1646 32 16C32 11.7565 30.3142 7.68687 27.3138 4.6863C24.3132 1.6857 20.2434 0 16 0ZM23.86 10.96L21.24 23.34C21.04 24.22 20.52 24.42 19.78 24.02L15.78 21.06L13.78 22.92C13.6858 23.043 13.5648 23.143 13.4262 23.2124C13.2876 23.2816 13.135 23.3184 12.98 23.32L13.26 19.32L20.66 12.62C21 12.34 20.66 12.18 20.18 12.46L11.1 18.16L7.1 16.92C6.24 16.66 6.22 16.06 7.28 15.66L22.7 9.65999C23.46 9.43999 24.1 9.87999 23.86 10.96Z" fill="#378ACC"/>
</svg>
