<?xml version="1.0" encoding="utf-8"?>
<!-- Generator: Adobe Illustrator 23.0.1, SVG Export Plug-In . SVG Version: 6.00 Build 0)  -->
<svg version="1.1" id="Layer_1" xmlns="http://www.w3.org/2000/svg" xmlns:xlink="http://www.w3.org/1999/xlink" x="0px" y="0px"
	 viewBox="0 0 320 320" style="enable-background:new 0 0 320 320;" xml:space="preserve">
<style type="text/css">
	.st0{fill:#868686;}
	.st1{fill-rule:evenodd;clip-rule:evenodd;fill:#868686;}
</style>
<g>
	<polygon class="st0" points="111.8,211.5 310,17.9 101,275.7 39.8,136.2 	"/>
	<path class="st1" d="M135.8,51c30.6,0,59.2,11.2,80.7,29.4c7,5.8-0.4,13.7-7,8.3c-19.9-17-45.5-26.9-73.7-26.9
		c-63.7,0-115,51.3-115,114.6c0,63.7,51.3,115,115,115c63.3,0,114.6-51.3,114.6-115c0-12.4-2.1-24.8-5.8-36.4
		c-2.9-8.7,6.6-13.2,10.3-3.3c4.1,12.4,6.2,26.1,6.2,39.7c0,69.5-56.3,125.8-125.4,125.8C66.3,302.1,10,245.9,10,176.3
		C10,107.2,66.3,51,135.8,51z"/>
</g>
</svg>
