<?xml version="1.0" encoding="utf-8"?>
<!-- Generator: Adobe Illustrator 23.0.2, SVG Export Plug-In . SVG Version: 6.00 Build 0)  -->
<svg version="1.1" id="Layer_1" xmlns="http://www.w3.org/2000/svg" xmlns:xlink="http://www.w3.org/1999/xlink" x="0px" y="0px"
	 viewBox="0 0 387 250" style="enable-background:new 0 0 387 250;" xml:space="preserve">
<style type="text/css">
	.st0{fill:#26292D;}
</style>
<g>
	<path class="st0" d="M328.3,51.6c-0.3-0.1-0.6-0.2-0.9-0.3c-2.2-0.8-13.9-1-15.3-1l-33.9,0.1c0,0,0,0-0.1,0l-6.1,0.5c0,0,0,0,0,0
		l-6.5-2.9l-11.4-17.9c-0.1-0.2-0.4-0.3-0.7-0.3c0,0,0,0,0,0l-5.7,0c-0.3,0-0.5,0.1-0.6,0.3c-0.1,0.2-0.2,0.5-0.1,0.7l7.1,21.7
		l-2.8,0.2c-0.4,0-0.7,0.4-0.7,0.8l0,1.7c0,0.3,0.2,0.6,0.5,0.7l5.5,2.3l-8.8,0.2c-0.2,0-0.4,0.1-0.5,0.2l-2.9,2.4
		c-0.3,0.2-0.3,0.6-0.2,0.9c0.1,0.3,0.4,0.5,0.7,0.5l28.8,1.8c0,0.2-0.1,0.4-0.1,0.5c0,2.5,3.7,3.2,4.9,3.4c2.5,0.5,5.5,0.6,7.6,0.6
		c1.9,0,3.2-0.1,3.3-0.1c0.4,0,0.8-0.4,0.8-0.8l0-2.9l2.8,0c0.2,2.4,3.9,3.5,11.3,3.5c1.7,0,2.9-0.1,3-0.1c0.4,0,0.8-0.4,0.8-0.8
		l0-2.6l3,0c0.3,0,0.6-0.1,0.7-0.4l1.8-3.2l2.2,0c0.2,0,0.5,0,1,0.1c0.8,0,1.5,0,2.3,0c6.3,0,13.1-0.4,15.1-2.4
		c0.4-0.4,0.7-1,0.7-1.5C334.7,53.8,331.1,52.6,328.3,51.6z M332.5,55.7l-1.8,0.1l0-1.4C331.5,54.7,332.1,55.2,332.5,55.7z
		 M264.3,49c0.1,0.1,0.2,0.2,0.3,0.3l4.1,1.8l-9.8,0.9l-8.3-20.8l2.4,0L264.3,49z M248.9,31.3L248.9,31.3l8.4,20.9l-1.1,0.1l-0.4,0
		L248.9,31.3z M286.1,67.1c-7.5,0-10.8-1.2-10.8-2.4c0-0.1,0-0.3,0.3-0.6c1.1-1.1,5.2-1.8,10.9-1.8c0.9,0,1.6,0,2.1,0l0,4.7
		C288,67.1,287.1,67.1,286.1,67.1z M304.2,66.7c-6.7,0-9.7-1-9.7-2.1c0-0.1,0-0.3,0.2-0.5c1-1,4.7-1.6,9.8-1.6c0.7,0,1.4,0,1.8,0
		l0,4.1C305.8,66.7,305.1,66.7,304.2,66.7z M310.5,63.3l-2.5,0l0-1.5c0-0.4-0.3-0.8-0.8-0.8c0,0-1.1-0.1-2.7-0.1
		c-5.9,0-9.5,0.7-10.9,2.1c-0.1,0.1-0.1,0.1-0.2,0.2l-3.3,0l0-1.7c0-0.4-0.3-0.8-0.8-0.8c0,0-1.2-0.1-3-0.1c-6,0-9.8,0.7-11.6,2
		L247,60.9l1.1-0.9l10.9-0.3l52.6,0.3l0.8,0L310.5,63.3z M332.9,57.9c-1.4,1.4-6.8,2-16.2,1.9c-0.4,0-0.8,0-1,0l-1.4,0l0.1-0.1
		c0.1-0.2,0.1-0.5,0-0.8c-0.1-0.2-0.4-0.4-0.7-0.4l-2.1,0l-51-0.3l-8.5-3.5l0-0.4l4.2-0.3l21.9-1.9l33.9-0.1
		c5.1,0.1,13.3,0.4,14.8,1c0.3,0.1,0.6,0.2,0.9,0.3c0.5,0.2,0.9,0.3,1.4,0.5c0,0,0,0,0,0l0,2.9c0,0.2,0.1,0.4,0.2,0.5
		c0.1,0.1,0.4,0.1,0.6,0.1c0,0,0,0,0,0l3.1,0c0,0.1,0,0.1,0,0.2C333.1,57.6,333.1,57.7,332.9,57.9z"/>
	<path class="st0" d="M266.5,55.3C266.5,55.3,266.5,55.3,266.5,55.3l-2.7,0c-0.4,0-0.8,0.3-0.8,0.8c0,0.4,0.4,0.9,0.8,0.9
		c0,0,0,0,0,0l2.7,0c0.4,0,0.8-0.4,0.8-0.8C267.3,55.6,266.9,55.3,266.5,55.3z"/>
	<path class="st0" d="M271.2,55.3C271.2,55.3,271.2,55.3,271.2,55.3l-2.7,0c-0.4,0-0.8,0.3-0.8,0.8c0,0.4,0.4,0.9,0.8,0.9
		c0,0,0,0,0,0l2.7,0c0.4,0,0.8-0.4,0.8-0.8C272,55.6,271.7,55.3,271.2,55.3z"/>
	<path class="st0" d="M275.7,55.3C275.7,55.3,275.7,55.3,275.7,55.3l-2.7,0c-0.4,0-0.8,0.3-0.8,0.8c0,0.4,0.4,0.9,0.8,0.9
		c0,0,0,0,0,0l2.7,0c0.4,0,0.8-0.4,0.8-0.8C276.5,55.6,276.1,55.3,275.7,55.3z"/>
	<path class="st0" d="M281.3,55.3C281.3,55.3,281.3,55.3,281.3,55.3l-3,0c0,0-0.1,0-0.1,0l-0.5,0c-0.4,0-0.8,0.3-0.8,0.8
		c0,0.4,0.4,0.9,0.8,0.9c0,0,0,0,0,0l0.5,0c0,0,0.1,0,0.1,0c0,0,0,0,0,0l3-0.1c0.4,0,0.8-0.4,0.8-0.8
		C282.1,55.5,281.7,55.3,281.3,55.3z"/>
	<path class="st0" d="M285.8,54.9C285.8,54.9,285.8,54.9,285.8,54.9l-2.7,0.2c-0.4,0-0.8,0.5-0.8,0.9c0,0.4,0.4,0.9,0.8,0.9
		c0,0,0,0,0,0l2.7-0.2c0.4,0,0.8-0.5,0.8-0.9C286.6,55.3,286.2,54.9,285.8,54.9z"/>
	<path class="st0" d="M290.5,54.9C290.5,54.9,290.5,54.9,290.5,54.9l-2.7,0.1c-0.4,0-0.8,0.4-0.8,0.8c0,0.4,0.4,0.7,0.8,0.7
		c0,0,0,0,0,0l2.7,0c0.4,0,0.8-0.3,0.8-0.8C291.3,55.3,290.9,54.9,290.5,54.9z"/>
	<path class="st0" d="M294.9,54.9C294.9,54.9,294.9,54.9,294.9,54.9l-2.7,0c-0.4,0-0.8,0.4-0.8,0.8c0,0.4,0.4,0.7,0.8,0.7
		c0,0,0,0,0,0l2.7,0c0.4,0,0.8-0.3,0.8-0.8C295.7,55.3,295.4,54.9,294.9,54.9z"/>
	<path class="st0" d="M299.7,54.9C299.7,54.9,299.7,54.9,299.7,54.9l-2.7,0c-0.4,0-0.8,0.4-0.8,0.8c0,0.4,0.4,0.7,0.8,0.7
		c0,0,0,0,0,0l2.7,0c0.4,0,0.8-0.3,0.8-0.8C300.5,55.3,300.1,54.9,299.7,54.9z"/>
	<path class="st0" d="M304.1,54.9C304.1,54.9,304.1,54.9,304.1,54.9l-2.7,0c-0.4,0-0.8,0.4-0.8,0.8c0,0.4,0.4,0.7,0.8,0.7
		c0,0,0,0,0,0l2.7,0c0.4,0,0.8-0.3,0.8-0.8C304.9,55.3,304.6,54.9,304.1,54.9z"/>
	<path class="st0" d="M308.9,54.9C308.9,54.9,308.9,54.9,308.9,54.9l-2.7,0c-0.4,0-0.8,0.4-0.8,0.8c0,0.4,0.4,0.7,0.8,0.7
		c0,0,0,0,0,0l2.7,0c0.4,0,0.8-0.3,0.8-0.8C309.7,55.3,309.3,54.9,308.9,54.9z"/>
	<path class="st0" d="M314.2,54.9C314.2,54.9,314.2,54.9,314.2,54.9l-0.8,0c0,0-0.1,0-0.1,0c0,0,0,0,0,0l-2.7,0
		c-0.4,0-0.8,0.4-0.8,0.8c0,0.4,0.4,0.7,0.8,0.7c0,0,0,0,0,0l2.7,0c0,0,0.1,0,0.1,0l0.8,0c0.4,0,0.8-0.3,0.8-0.8
		C315,55.3,314.7,54.9,314.2,54.9z"/>
	<path class="st0" d="M261.4,48.7c0.2,0.2,0.4,0.4,0.7,0.4c0.1,0,0.3,0,0.4-0.1c0.4-0.2,0.5-0.7,0.3-1.1l-1.4-2.3
		c-0.2-0.4-0.7-0.5-1.1-0.3c-0.4,0.2-0.5,0.7-0.3,1.1L261.4,48.7z"/>
	<path class="st0" d="M323.1,54.9C323.1,54.9,323.1,54.9,323.1,54.9l-2.7,0c-0.3,0-0.6,0.2-0.7,0.5c-0.1-0.3-0.4-0.6-0.7-0.6
		c0,0,0,0,0,0l-2.7,0c-0.4,0-0.8,0.4-0.8,0.8c0,0.4,0.4,0.7,0.8,0.7c0,0,0,0,0,0l2.7,0c0.3,0,0.6-0.2,0.7-0.5
		c0.1,0.3,0.4,0.5,0.7,0.5c0,0,0,0,0,0l2.7,0c0.4,0,0.8-0.3,0.8-0.8C323.9,55.3,323.6,54.9,323.1,54.9z"/>
	<path class="st0" d="M327.6,54.9C327.6,54.9,327.6,54.9,327.6,54.9l-2.7,0c-0.4,0-0.8,0.4-0.8,0.8c0,0.4,0.4,0.7,0.8,0.7
		c0,0,0,0,0,0l2.7,0c0.4,0,0.8-0.3,0.8-0.8C328.4,55.3,328,54.9,327.6,54.9z"/>
</g>
<g>
	<path class="st0" d="M247.9,66.9c-0.4,0-0.8-0.4-0.8-0.8c0-0.4,0.4-0.8,0.8-0.8l12.1,0c0,0,0,0,0,0c0.4,0,0.8,0.4,0.8,0.8
		c0,0.4-0.4,0.8-0.8,0.8L247.9,66.9C247.9,66.9,247.9,66.9,247.9,66.9z"/>
</g>
<g>
	<path class="st0" d="M236.2,62.8c-0.4,0-0.8-0.4-0.8-0.8c0-0.4,0.4-0.8,0.8-0.8l5.5,0c0,0,0,0,0,0c0.4,0,0.8,0.4,0.8,0.8
		c0,0.4-0.4,0.8-0.8,0.8L236.2,62.8C236.2,62.8,236.2,62.8,236.2,62.8z"/>
</g>
<g>
	<path class="st0" d="M239.4,67c-0.4,0-0.8-0.4-0.8-0.8c0-0.4,0.4-0.8,0.8-0.8l5,0c0,0,0,0,0,0c0.4,0,0.8,0.4,0.8,0.8
		c0,0.4-0.4,0.8-0.8,0.8L239.4,67C239.5,67,239.4,67,239.4,67z"/>
</g>
<g>
	<path class="st0" d="M247.7,71.9c-0.4,0-0.8-0.4-0.8-0.8c0-0.4,0.4-0.8,0.8-0.8l5,0c0,0,0,0,0,0c0.4,0,0.8,0.4,0.8,0.8
		c0,0.4-0.4,0.8-0.8,0.8L247.7,71.9C247.7,71.9,247.7,71.9,247.7,71.9z"/>
</g>
<g>
	<path class="st0" d="M257.5,71.5c-0.4,0-0.8-0.4-0.8-0.8c0-0.4,0.3-0.8,0.8-0.8l12.9-0.1c0,0,0,0,0,0c0.4,0,0.8,0.4,0.8,0.8
		c0,0.4-0.3,0.8-0.8,0.8L257.5,71.5C257.5,71.5,257.5,71.5,257.5,71.5z"/>
</g>
<g>
	<path class="st0" d="M111,115.1h-4.4c-0.4,0-0.8,0.4-0.8,0.8s0.4,0.8,0.8,0.8h4.4c0.4,0,0.8-0.4,0.8-0.8S111.4,115.1,111,115.1z"/>
	<path class="st0" d="M118,113.8c-4.9-7-19.2-10.6-19.8-10.7c-0.1,0-0.1,0-0.2,0c-0.5,0-12-0.3-16.1,0c-4.1,0.3-10.3,7.3-11.5,8.8
		l-16,5.8c-0.3,0.1-0.5,0.4-0.5,0.7v7.9c0,0.4,0.4,0.8,0.8,0.8h7.5c0.4,2.6,2.6,4.6,5.3,4.6c2.7,0,4.9-2,5.3-4.6h29.3
		c0.4,2.6,2.6,4.6,5.3,4.6c2.7,0,4.9-2,5.3-4.6h4.6c0.4,0,0.8-0.4,0.8-0.8v-12C118.2,114.1,118.1,114,118,113.8z M116.6,121.1h-0.9
		l-0.9-4.3l1.8-1V121.1z M59.9,117.4v1l-1.3,2.8h-3.1V119L59.9,117.4z M63.8,126c0.2-1.9,1.8-3.4,3.8-3.4c2.1,0,3.8,1.7,3.8,3.8
		c0,2.1-1.7,3.8-3.8,3.8c-2,0-3.6-1.5-3.8-3.4C63.9,126.6,63.9,126.1,63.8,126z M77.5,112.8h-1.3c1.8-3.2,4.8-4.5,5.4-4.8h3.8
		l-1,4.8H77.5z M89.3,112.8L90,108H98c0.7,0.1,8,1.5,11.4,4.8H89.3z M103.7,125.9c0.2-1.9,1.8-3.4,3.7-3.4c2.1,0,3.8,1.7,3.8,3.8
		c0,2.1-1.7,3.8-3.8,3.8c-1.9,0-3.5-1.5-3.7-3.3C103.8,126.6,103.8,126,103.7,125.9z M112.7,125.5c-0.4-2.6-2.6-4.6-5.3-4.6
		c-2.7,0-4.9,2-5.3,4.6H89.5v-11.2h21.6c0.3,0,0.6-0.2,0.7-0.4c0.1-0.3,0.1-0.6,0-0.8c-3.1-5-13.1-6.7-13.5-6.8c0,0-0.1,0-0.1,0
		h-8.8c-0.4,0-0.7,0.3-0.8,0.7l-0.9,6.4c0,0.2,0,0.5,0.2,0.6c0,0,0.1,0.1,0.1,0.1v11.4h-2v-12c0-0.1,0-0.1,0-0.2l1.3-6.1
		c0-0.2,0-0.5-0.2-0.7c-0.2-0.2-0.4-0.3-0.6-0.3h-4.9c-0.1,0-0.2,0-0.3,0c-0.2,0.1-4.8,1.8-7,6.8c-0.1,0.2-0.1,0.5,0.1,0.8
		c0.1,0.2,0.4,0.4,0.7,0.4h0.6h2h6.8v11.2H72.9c-0.4-2.6-2.6-4.6-5.3-4.6c-2.7,0-4.9,2-5.3,4.6h-6.7v-2.8h3.6c0.3,0,0.6-0.2,0.7-0.5
		l1.6-3.4c0.1-0.1,0.1-0.2,0.1-0.3v-1.8l9.6-3.5c0.1,0,0.2-0.1,0.3-0.2c1.9-2.3,7.4-8.1,10.5-8.3c3.8-0.3,14.8,0,15.9,0
		c1.1,0.3,13.5,3.6,18.3,9.5l-2.8,1.6c-0.3,0.2-0.5,0.5-0.4,0.9l1.1,5.5c0.1,0.4,0.4,0.6,0.8,0.6h1.6v2.8H112.7z"/>
	<path class="st0" d="M77.9,116.7h4.8c0.4,0,0.8-0.4,0.8-0.8s-0.4-0.8-0.8-0.8h-4.8c-0.4,0-0.8,0.4-0.8,0.8S77.4,116.7,77.9,116.7z"
		/>
	<path class="st0" d="M67.6,123.5c-1.6,0-2.9,1.3-2.9,2.9c0,1.6,1.3,2.9,2.9,2.9c1.6,0,2.9-1.3,2.9-2.9
		C70.4,124.8,69.2,123.5,67.6,123.5z M67.6,127.6c-0.7,0-1.3-0.6-1.3-1.3s0.6-1.3,1.3-1.3s1.3,0.6,1.3,1.3S68.3,127.6,67.6,127.6z"
		/>
	<path class="st0" d="M107.3,123.5c-1.6,0-2.9,1.3-2.9,2.9c0,1.6,1.3,2.9,2.9,2.9c1.6,0,2.9-1.3,2.9-2.9
		C110.2,124.8,108.9,123.5,107.3,123.5z M107.3,127.6c-0.7,0-1.3-0.6-1.3-1.3s0.6-1.3,1.3-1.3c0.7,0,1.3,0.6,1.3,1.3
		S108,127.6,107.3,127.6z"/>
</g>
<g>
	<path class="st0" d="M120.3,133.5h-7.5c-0.4,0-0.8-0.4-0.8-0.8c0-0.4,0.4-0.8,0.8-0.8h7.5c0.4,0,0.8,0.4,0.8,0.8
		C121.1,133.1,120.8,133.5,120.3,133.5z"/>
</g>
<g>
	<path class="st0" d="M133.6,133.5h-7.4c-0.4,0-0.8-0.4-0.8-0.8c0-0.4,0.4-0.8,0.8-0.8h7.4c0.4,0,0.8,0.4,0.8,0.8
		C134.4,133.1,134.1,133.5,133.6,133.5z"/>
</g>
<g>
	<path class="st0" d="M126,123.9h-4.2c-0.4,0-0.8-0.4-0.8-0.8c0-0.4,0.4-0.8,0.8-0.8h4.2c0.4,0,0.8,0.4,0.8,0.8
		C126.8,123.5,126.5,123.9,126,123.9z"/>
</g>
<g>
	<path class="st0" d="M124.6,128.7h-4.2c-0.4,0-0.8-0.4-0.8-0.8c0-0.4,0.4-0.8,0.8-0.8h4.2c0.4,0,0.8,0.4,0.8,0.8
		C125.4,128.3,125.1,128.7,124.6,128.7z"/>
</g>
<path class="st0" d="M178.4,164.4l1.1-1.1c0.3-0.3,0.3-0.8,0-1.1c-0.3-0.3-0.8-0.3-1.1,0l-1.1,1.1l-1.2-1.2c-0.3-0.3-0.8-0.3-1.1,0
	c-0.3,0.3-0.3,0.8,0,1.1l1.2,1.1l-1.2,1.2c-0.3,0.3-0.3,0.8,0,1.1c0.2,0.2,0.4,0.2,0.6,0.2c0.2,0,0.4-0.1,0.6-0.2l1.2-1.2l1.1,1.1
	c0.2,0.2,0.4,0.2,0.6,0.2c0.2,0,0.4-0.1,0.6-0.2c0.3-0.3,0.3-0.8,0-1.1L178.4,164.4z"/>
<g>
	<path class="st0" d="M89.7,203.1c-1.5,0-2.7-1.2-2.7-2.7c0-1.5,1.2-2.7,2.7-2.7c1.5,0,2.7,1.2,2.7,2.7
		C92.4,201.9,91.2,203.1,89.7,203.1z M89.7,199.3c-0.6,0-1.1,0.5-1.1,1.1c0,0.6,0.5,1.1,1.1,1.1c0.6,0,1.1-0.5,1.1-1.1
		C90.8,199.8,90.3,199.3,89.7,199.3z"/>
</g>
<g>
	<path class="st0" d="M31.7,56.3c-1.5,0-2.7-1.2-2.7-2.7c0-1.5,1.2-2.7,2.7-2.7c1.5,0,2.7,1.2,2.7,2.7
		C34.4,55.1,33.2,56.3,31.7,56.3z M31.7,52.5c-0.6,0-1.1,0.5-1.1,1.1c0,0.6,0.5,1.1,1.1,1.1c0.6,0,1.1-0.5,1.1-1.1
		C32.8,53,32.3,52.5,31.7,52.5z"/>
</g>
<g>
	<path class="st0" d="M183.9,15.6c-1.5,0-2.7-1.2-2.7-2.7c0-1.5,1.2-2.7,2.7-2.7c1.5,0,2.7,1.2,2.7,2.7
		C186.6,14.4,185.4,15.6,183.9,15.6z M183.9,11.8c-0.6,0-1.1,0.5-1.1,1.1c0,0.6,0.5,1.1,1.1,1.1c0.6,0,1.1-0.5,1.1-1.1
		C185,12.3,184.5,11.8,183.9,11.8z"/>
</g>
<g>
	<path class="st0" d="M319.1,24.1c-1.5,0-2.7-1.2-2.7-2.7c0-1.5,1.2-2.7,2.7-2.7c1.5,0,2.7,1.2,2.7,2.7
		C321.8,22.9,320.6,24.1,319.1,24.1z M319.1,20.3c-0.6,0-1.1,0.5-1.1,1.1c0,0.6,0.5,1.1,1.1,1.1c0.6,0,1.1-0.5,1.1-1.1
		C320.2,20.8,319.7,20.3,319.1,20.3z"/>
</g>
<g>
	<path class="st0" d="M303.8,214.8c-1.5,0-2.7-1.2-2.7-2.7c0-1.5,1.2-2.7,2.7-2.7c1.5,0,2.7,1.2,2.7,2.7
		C306.5,213.6,305.3,214.8,303.8,214.8z M303.8,211c-0.6,0-1.1,0.5-1.1,1.1c0,0.6,0.5,1.1,1.1,1.1c0.6,0,1.1-0.5,1.1-1.1
		C304.9,211.5,304.4,211,303.8,211z"/>
</g>
<g>
	<path class="st0" d="M83.9,143c0.4,0.1,0.7,0.5,0.6,0.9c-0.1,0.4-0.5,0.7-0.9,0.6c0,0-0.6-0.1-1.4-0.1c-0.9,0-2.1,0.2-3,0.8
		c-0.6,0.5-0.9,1.3-0.9,2.4c0,0.4-0.4,0.8-0.8,0.8c-0.4,0-0.8-0.4-0.8-0.8c0-1.6,0.5-2.8,1.5-3.6C80.3,142.3,83.7,143,83.9,143z"/>
</g>
<g>
	<path class="st0" d="M207.8,15.9c0.4,0.1,0.7,0.5,0.6,0.9c-0.1,0.4-0.5,0.7-0.9,0.6c0,0-0.6-0.1-1.4-0.1c-0.9,0-2.1,0.2-3,0.8
		c-0.6,0.5-0.9,1.3-0.9,2.4c0,0.4-0.4,0.8-0.8,0.8c-0.4,0-0.8-0.4-0.8-0.8c0-1.6,0.5-2.8,1.5-3.6C204.2,15.2,207.6,15.9,207.8,15.9z
		"/>
</g>
<g>
	<path class="st0" d="M314,156.8c0.4,0.1,0.7,0.5,0.6,0.9c-0.1,0.4-0.5,0.7-0.9,0.6c0,0-0.6-0.1-1.4-0.1c-0.9,0-2.1,0.2-3,0.8
		c-0.6,0.5-0.9,1.3-0.9,2.4c0,0.4-0.4,0.8-0.8,0.8c-0.4,0-0.8-0.4-0.8-0.8c0-1.6,0.5-2.8,1.5-3.6C310.4,156.1,313.9,156.8,314,156.8
		z"/>
</g>
<g>
	<path class="st0" d="M74,23.6c0.4,0.1,0.7,0.5,0.6,0.9c-0.1,0.4-0.5,0.7-0.9,0.6c0,0-0.6-0.1-1.4-0.1c-0.9,0-2.1,0.2-3,0.8
		c-0.6,0.5-0.9,1.3-0.9,2.4c0,0.4-0.4,0.8-0.8,0.8c-0.4,0-0.8-0.4-0.8-0.8c0-1.6,0.5-2.8,1.5-3.6C70.4,22.9,73.9,23.5,74,23.6z"/>
</g>
<g>
	<path class="st0" d="M36.3,153.4v5.2c0,0.4-0.4,0.8-0.8,0.8c-0.4,0-0.8-0.4-0.8-0.8v-5.2c0-0.4,0.4-0.8,0.8-0.8
		C36,152.6,36.3,153,36.3,153.4z"/>
</g>
<g>
	<path class="st0" d="M117.6,39.4v5.2c0,0.4-0.4,0.8-0.8,0.8c-0.4,0-0.8-0.4-0.8-0.8v-5.2c0-0.4,0.4-0.8,0.8-0.8
		C117.3,38.6,117.6,38.9,117.6,39.4z"/>
</g>
<g>
	<path class="st0" d="M153.6,24.6v5.2c0,0.4-0.4,0.8-0.8,0.8c-0.4,0-0.8-0.4-0.8-0.8v-5.2c0-0.4,0.4-0.8,0.8-0.8
		C153.2,23.8,153.6,24.2,153.6,24.6z"/>
</g>
<g>
	<path class="st0" d="M352.5,133.6v5.2c0,0.4-0.4,0.8-0.8,0.8c-0.4,0-0.8-0.4-0.8-0.8v-5.2c0-0.4,0.4-0.8,0.8-0.8
		C352.2,132.8,352.5,133.2,352.5,133.6z"/>
</g>
<g>
	<path class="st0" d="M352.5,142.8v5.2c0,0.4-0.4,0.8-0.8,0.8c-0.4,0-0.8-0.4-0.8-0.8v-5.2c0-0.4,0.4-0.8,0.8-0.8
		C352.2,142,352.5,142.3,352.5,142.8z"/>
</g>
<g>
	<path class="st0" d="M299.7,159.3v5.2c0,0.4-0.4,0.8-0.8,0.8c-0.4,0-0.8-0.4-0.8-0.8v-5.2c0-0.4,0.4-0.8,0.8-0.8
		C299.3,158.5,299.7,158.8,299.7,159.3z"/>
</g>
<g>
	<path class="st0" d="M308.4,165.6v5.2c0,0.4-0.4,0.8-0.8,0.8c-0.4,0-0.8-0.4-0.8-0.8v-5.2c0-0.4,0.4-0.8,0.8-0.8
		C308,164.8,308.4,165.1,308.4,165.6z"/>
</g>
<g>
	<path class="st0" d="M316.6,42.9v5.2c0,0.4-0.4,0.8-0.8,0.8c-0.4,0-0.8-0.4-0.8-0.8v-5.2c0-0.4,0.4-0.8,0.8-0.8
		C316.3,42.1,316.6,42.5,316.6,42.9z"/>
</g>
<g>
	<path class="st0" d="M49.3,166.9c0.4,0,0.8,0.4,0.8,0.8c0,0.4-0.4,0.8-0.8,0.8h-5.2c-0.4,0-0.8-0.4-0.8-0.8c0-0.4,0.4-0.8,0.8-0.8
		H49.3z"/>
</g>
<g>
	<path class="st0" d="M103,143c0.4,0,0.8,0.4,0.8,0.8c0,0.4-0.4,0.8-0.8,0.8h-5.2c-0.4,0-0.8-0.4-0.8-0.8c0-0.4,0.4-0.8,0.8-0.8H103
		z"/>
</g>
<g>
	<path class="st0" d="M93.1,143c0.4,0,0.8,0.4,0.8,0.8c0,0.4-0.4,0.8-0.8,0.8h-5.2c-0.4,0-0.8-0.4-0.8-0.8c0-0.4,0.4-0.8,0.8-0.8
		H93.1z"/>
</g>
<g>
	<path class="st0" d="M289.1,151c0.4,0,0.8,0.4,0.8,0.8c0,0.4-0.4,0.8-0.8,0.8h-5.2c-0.4,0-0.8-0.4-0.8-0.8c0-0.4,0.4-0.8,0.8-0.8
		H289.1z"/>
</g>
<g>
	<path class="st0" d="M322.5,156.5c0.4,0,0.8,0.4,0.8,0.8c0,0.4-0.4,0.8-0.8,0.8h-5.2c-0.4,0-0.8-0.4-0.8-0.8c0-0.4,0.4-0.8,0.8-0.8
		H322.5z"/>
</g>
<g>
	<path class="st0" d="M326.6,85c0.4,0,0.8,0.4,0.8,0.8c0,0.4-0.4,0.8-0.8,0.8h-5.2c-0.4,0-0.8-0.4-0.8-0.8c0-0.4,0.4-0.8,0.8-0.8
		H326.6z"/>
</g>
<g>
	<path class="st0" d="M316.6,85c0.4,0,0.8,0.4,0.8,0.8c0,0.4-0.4,0.8-0.8,0.8h-5.2c-0.4,0-0.8-0.4-0.8-0.8c0-0.4,0.4-0.8,0.8-0.8
		H316.6z"/>
</g>
<g>
	<path class="st0" d="M307,34.2c0.4,0,0.8,0.4,0.8,0.8c0,0.4-0.4,0.8-0.8,0.8h-5.2c-0.4,0-0.8-0.4-0.8-0.8c0-0.4,0.4-0.8,0.8-0.8
		H307z"/>
</g>
<g>
	<path class="st0" d="M228.2,16c0.4,0,0.8,0.4,0.8,0.8c0,0.4-0.4,0.8-0.8,0.8h-5.2c-0.4,0-0.8-0.4-0.8-0.8c0-0.4,0.4-0.8,0.8-0.8
		H228.2z"/>
</g>
<g>
	<path class="st0" d="M218.3,16c0.4,0,0.8,0.4,0.8,0.8c0,0.4-0.4,0.8-0.8,0.8H213c-0.4,0-0.8-0.4-0.8-0.8c0-0.4,0.4-0.8,0.8-0.8
		H218.3z"/>
</g>
<g>
	<path class="st0" d="M143.2,14.7c0.4,0,0.8,0.4,0.8,0.8c0,0.4-0.4,0.8-0.8,0.8H138c-0.4,0-0.8-0.4-0.8-0.8c0-0.4,0.4-0.8,0.8-0.8
		H143.2z"/>
</g>
<g>
	<path class="st0" d="M134,14.7c0.4,0,0.8,0.4,0.8,0.8c0,0.4-0.4,0.8-0.8,0.8h-5.2c-0.4,0-0.8-0.4-0.8-0.8c0-0.4,0.4-0.8,0.8-0.8
		H134z"/>
</g>
<g>
	<path class="st0" d="M49.8,107.2c0.4,0,0.8,0.4,0.8,0.8c0,0.4-0.4,0.8-0.8,0.8h-5.2c-0.4,0-0.8-0.4-0.8-0.8c0-0.4,0.4-0.8,0.8-0.8
		H49.8z"/>
</g>
<g>
	<path class="st0" d="M39.8,107.2c0.4,0,0.8,0.4,0.8,0.8c0,0.4-0.4,0.8-0.8,0.8h-5.2c-0.4,0-0.8-0.4-0.8-0.8c0-0.4,0.4-0.8,0.8-0.8
		H39.8z"/>
</g>
<g>
	<path class="st0" d="M83.7,23.5c0.4,0,0.8,0.4,0.8,0.8c0,0.4-0.4,0.8-0.8,0.8h-5.2c-0.4,0-0.8-0.4-0.8-0.8c0-0.4,0.4-0.8,0.8-0.8
		H83.7z"/>
</g>
<g>
	<path class="st0" d="M100.8,95.5c0.4,0,0.8,0.4,0.8,0.8c0,0.4-0.4,0.8-0.8,0.8h-5.2c-0.4,0-0.8-0.4-0.8-0.8c0-0.4,0.4-0.8,0.8-0.8
		H100.8z"/>
</g>
<g>
	<path class="st0" d="M109.1,52.3c0.4,0,0.8,0.4,0.8,0.8c0,0.4-0.4,0.8-0.8,0.8h-5.2c-0.4,0-0.8-0.4-0.8-0.8c0-0.4,0.4-0.8,0.8-0.8
		H109.1z"/>
</g>
<g>
	<path class="st0" d="M40.2,166.7c0.4,0,0.8,0.4,0.8,0.8c0,0.4-0.4,0.8-0.8,0.8c-2,0-3.5-0.6-4.5-1.8c-1.6-1.9-1-4.6-1-4.8
		c0.1-0.4,0.5-0.7,0.9-0.6c0.4,0.1,0.7,0.5,0.6,0.9c0,0-0.1,0.4-0.1,0.9c0,0.7,0.1,1.8,0.8,2.5C37.6,166.3,38.7,166.7,40.2,166.7z"
		/>
</g>
<g>
	<path class="st0" d="M298.7,114.3c0.4,0,0.8,0.4,0.8,0.8c0,0.4-0.4,0.8-0.8,0.8c-2,0-3.5-0.6-4.5-1.8c-1.6-1.9-1-4.6-1-4.8
		c0.1-0.4,0.5-0.7,0.9-0.6c0.4,0.1,0.7,0.5,0.6,0.9c0,0-0.1,0.4-0.1,0.9c0,0.7,0.1,1.8,0.8,2.5C296.1,113.9,297.2,114.3,298.7,114.3
		z"/>
</g>
<g>
	<path class="st0" d="M30.8,106.9c0.4,0,0.8,0.4,0.8,0.8c0,0.4-0.4,0.8-0.8,0.8c-2,0-3.5-0.6-4.5-1.8c-1.6-1.9-1-4.6-1-4.8
		c0.1-0.4,0.5-0.7,0.9-0.6s0.7,0.5,0.6,0.9c0,0-0.1,0.4-0.1,0.9c0,0.7,0.1,1.8,0.8,2.5C28.2,106.5,29.3,106.9,30.8,106.9z"/>
</g>
<g>
	<path class="st0" d="M92.1,95.5c0.4,0,0.8,0.4,0.8,0.8c0,0.4-0.4,0.8-0.8,0.8c-2,0-3.5-0.6-4.5-1.8c-1.6-1.9-1-4.6-1-4.8
		c0.1-0.4,0.5-0.7,0.9-0.6c0.4,0.1,0.7,0.5,0.6,0.9c0,0-0.1,0.4-0.1,0.9c0,0.7,0.1,1.8,0.8,2.5C89.5,95.1,90.6,95.5,92.1,95.5z"/>
</g>
<g>
	<path class="st0" d="M57.8,112.8c0,0.4,0.4,0.8,0.8,0.8c0.4,0,0.8-0.4,0.8-0.8c0-2-0.6-3.5-1.8-4.5c-1.9-1.6-4.6-1-4.8-1
		c-0.4,0.1-0.7,0.5-0.6,0.9c0.1,0.4,0.5,0.7,0.9,0.6c0,0,0.4-0.1,0.9-0.1c0.7,0,1.8,0.1,2.5,0.8C57.4,110.2,57.8,111.3,57.8,112.8z"
		/>
</g>
<g>
	<path class="st0" d="M297.8,156.5c0,0.4,0.4,0.8,0.8,0.8c0.4,0,0.8-0.4,0.8-0.8c0-2-0.6-3.5-1.8-4.5c-1.9-1.6-4.6-1-4.8-1
		c-0.4,0.1-0.7,0.5-0.6,0.9c0.1,0.4,0.5,0.7,0.9,0.6c0,0,0.4-0.1,0.9-0.1c0.7,0,1.8,0.1,2.5,0.8C297.4,153.8,297.8,155,297.8,156.5z
		"/>
</g>
<g>
	<path class="st0" d="M315.2,39.6c0,0.4,0.4,0.8,0.8,0.8c0.4,0,0.8-0.4,0.8-0.8c0-2-0.6-3.5-1.8-4.5c-1.9-1.6-4.6-1-4.8-1
		c-0.4,0.1-0.7,0.5-0.6,0.9c0.1,0.4,0.5,0.7,0.9,0.6c0,0,0.4-0.1,0.9-0.1c0.7,0,1.8,0.1,2.5,0.8C314.8,37,315.2,38.1,315.2,39.6z"/>
</g>
<g>
	<path class="st0" d="M292.9,105.8c0,0.4,0.4,0.8,0.8,0.8c0.4,0,0.8-0.4,0.8-0.8c0-2-0.6-3.5-1.8-4.5c-1.9-1.6-4.6-1-4.8-1
		c-0.4,0.1-0.7,0.5-0.6,0.9c0.1,0.4,0.5,0.7,0.9,0.6c0,0,0.4-0.1,0.9-0.1c0.7,0,1.8,0.1,2.5,0.8
		C292.5,103.1,292.9,104.2,292.9,105.8z"/>
</g>
<g>
	<path class="st0" d="M152.1,20.5c0,0.4,0.4,0.8,0.8,0.8c0.4,0,0.8-0.4,0.8-0.8c0-2-0.6-3.5-1.8-4.5c-1.9-1.6-4.6-1-4.8-1
		c-0.4,0.1-0.7,0.5-0.6,0.9c0.1,0.4,0.5,0.7,0.9,0.6c0,0,0.4-0.1,0.9-0.1c0.7,0,1.8,0.1,2.5,0.8C151.7,17.9,152.1,19,152.1,20.5z"/>
</g>
<g>
	<path class="st0" d="M117.7,47.3c0,0.1,0.6,2.8-1,4.8c-1,1.2-2.5,1.8-4.5,1.8c-0.4,0-0.8-0.4-0.8-0.8c0-0.4,0.4-0.8,0.8-0.8
		c1.5,0,2.6-0.4,3.3-1.2c1.1-1.3,0.7-3.4,0.7-3.4c-0.1-0.4,0.2-0.9,0.6-0.9C117.2,46.6,117.6,46.9,117.7,47.3z"/>
</g>
<path class="st0" d="M65.9,143.6c0-0.4-0.4-0.8-0.8-0.8h-7.2l1.5-1.7c0.3-0.3,0.3-0.8-0.1-1.1c-0.3-0.3-0.8-0.3-1.1,0.1l-2.7,3.1
	c-0.1,0.1-0.2,0.3-0.2,0.5c0,0,0,0,0,0.1c0,0,0,0,0,0.1c0,0.2,0.1,0.4,0.2,0.5l2.7,3.1c0.2,0.2,0.4,0.3,0.6,0.3
	c0.2,0,0.4-0.1,0.5-0.2c0.3-0.3,0.4-0.8,0.1-1.1l-1.5-1.7h7.2C65.6,144.5,65.9,144.2,65.9,143.6C65.9,143.7,65.9,143.7,65.9,143.6
	C65.9,143.7,65.9,143.7,65.9,143.6z"/>
<path class="st0" d="M144,22.7h-9.4c-0.3,0-0.6,0.2-0.7,0.4c-0.1,0.3-0.1,0.6,0,0.8l2.1,3.3l-2,3c-0.2,0.2-0.2,0.6,0,0.8
	c0.1,0.3,0.4,0.4,0.7,0.4h8.6v11.7c0,0.4,0.4,0.8,0.8,0.8c0.4,0,0.8-0.4,0.8-0.8V23.5C144.8,23.1,144.5,22.7,144,22.7z M143.2,29.9
	h-7.1l1.5-2.2c0.2-0.3,0.2-0.6,0-0.9l-1.6-2.5h7.1V29.9z"/>
<g>
	<path class="st0" d="M364.3,174.4c-0.1-0.1-0.3-0.2-0.5-0.3c0-0.2,0-0.4,0-0.6l0-0.9c0-2.5,0.1-3.9-0.3-5.8c-0.2-0.9-0.6-2-0.9-2.9
		c-0.4-1.2-0.9-2.5-1-3.6c0-0.1,0-0.1,0-0.2c0,0,0,0,0,0c-0.2-2.1-0.6-5.2-0.6-5.2c0-0.3-0.3-0.6-0.6-0.7c0,0-0.2,0-0.3,0
		c-0.3-0.4-0.9-0.9-1.8-1c-0.1,0-0.2,0-0.3,0c-1-0.1-2.8-0.2-4.2-1.1c-1.8-1.1-5.6-0.8-6.5-0.7c-0.8-0.8-1.9-1.7-2.6-1.5
		c-0.3,0.1-0.6,0.4-0.7,0.9c0,0.8-0.1,6.3-0.2,8.3c-0.2,0.2-0.3,0.4-0.3,0.6c0,0.2,0.1,0.4,0.2,0.6c-0.2,0.1-0.4,0.3-0.4,0.6
		c-0.1,0.3,0,0.5,0.2,0.7c-0.2,0.1-0.4,0.3-0.4,0.6c0,0,0,0,0,0.1c-0.1,0-0.3,0.1-0.4,0.2c-0.2,0.2-0.4,0.3-0.3,0.8
		c-0.3,0-0.6,0.2-0.7,0.5c0,0.1,0,0.1-0.1,0.2c-0.2,0-0.3,0-0.5,0.1c-0.3,0.2-0.4,0.4-0.4,0.9c-0.3,0-0.6,0.2-0.7,0.5
		c-0.1,0.1-0.1,0.3-0.1,0.4c0,0,0,0-0.1,0c-0.2,0-0.4,0.1-0.6,0.3c-0.1,0.1-0.2,0.3-0.2,1c-0.3-0.1-0.5-0.2-0.5-0.2
		c-0.4-0.2-0.9,0.1-1,0.5c-0.1,0.1-0.1,0.3,0,0.4c-0.2-0.1-0.5,0-0.7,0.1c-0.2,0.2-0.4,0.3-0.4,1.2c-0.4-0.1-0.6-0.2-0.6-0.2
		c0,0,0,0-0.1,0c0,0-0.1,0-0.1,0c0,0,0,0-0.1,0c0,0-0.1,0-0.1,0c0,0,0,0-0.1,0c0,0-0.1,0-0.1,0c0,0,0,0-0.1,0c0,0-0.1,0-0.1,0
		c0,0,0,0-0.1,0c0,0,0,0-0.1,0c-1.2,0.9-3.1,2.2-3.8,2.4c-0.3,0.1-0.8,0.2-1.4,0.3c-0.8,0.1-1.6,0.3-2.3,0.4c0,0,0,0,0,0
		c-1.3,0.3-2.3,0.6-2.9,1.1c-1.1,0.9-1.4,2.8-1.5,4c0,0.1-0.1,0.1-0.1,0.2c-0.1,0.2-0.8,1.9-0.5,3.1c0.2,1.3,2.8,2.3,4.8,2.9
		c0.2,0.1,0.4,0,0.6-0.1c0,0,0,0,0,0c0.2,0.5,0.6,0.7,2,0.9c0.3,0,0.5-0.1,0.7-0.2c0.1-0.1,0.1-0.1,0.1-0.1c0,0.1,0,0.1,0,0.2
		c0,0.2,0.2,0.4,0.4,0.6c0.1,0.1,0.4,0.3,1.9,0.4c0.3,0,0.6-0.1,0.7-0.4c0,0,0,0.1,0,0.1c0,0.1,0.1,0.2,0.1,0.2
		c0.1,0.2,0.5,0.7,2.4,0.4c0.2,0,0.3-0.1,0.4-0.2c0.1,0.2,0.4,0.4,0.6,0.4c0,0,0.1,0,0.1,0c0.4,0,1.2-0.2,1.8-0.3
		c0.2,0,0.3-0.1,0.5-0.3c0.2,0.2,0.5,0.4,0.8,0.3l1.3-0.3c0.3-0.1,0.5-0.3,0.6-0.6c0.1,0.2,0.4,0.4,0.7,0.4c0.1,0,0.5,0,1.8-0.7
		c0.1-0.1,0.3-0.2,0.3-0.4c0.1,0.1,0.3,0.2,0.4,0.2c0.2,0,0.7,0.1,2.2-0.9c0.2-0.1,0.3-0.3,0.3-0.5c0.2-0.6,1.1-1,3-1.1
		c0.7,0,0.7,0.1,0.9,0.6c0.1,0.3,0.1,0.6,0.3,0.8c0.7,1,2.3,0.4,2.6,0.3c0.2-0.1,0.4-0.3,0.4-0.5c0-0.1,0.1-0.2,0.1-0.3
		c0.1,0,0.3,0.2,0.5,0.3c0,0,0.1,0.1,0.1,0.1c0.7,0.4,1.8,0.1,2.6-0.2c0.2-0.1,0.4-0.3,0.5-0.6c0-0.1,0-0.1,0-0.2c0,0,0,0,0,0
		c0.2,0.2,0.4,0.3,0.7,0.3c3.8-0.4,4.5-2.5,4.6-2.7c0-0.1,0-0.2,0-0.2v-3.5C364.9,175,364.6,174.6,364.3,174.4z M359.2,155.9
		c0.1-0.1,0.2-0.1,0.3-0.2c0.1,0.8,0.2,2.2,0.4,3.4c-0.9,0.1-1.9,0.4-2.8,0.8c-0.8,0.4-1.8,0.3-2.2,0.3c-0.6-0.3-3-1.9-2.5-4.3
		c0.5,0,1,0,1.4,0.2C356.1,157.2,358.3,156.8,359.2,155.9z M349.5,167.4c0.1,0,0.2,0,0.3,0c0.4-0.1,0.7-0.3,1-0.7
		c0.2-0.4,0.3-0.8,0.1-1.2c-0.1-0.4-0.4-0.7-0.6-0.9c0.3,0.1,0.5,0.1,0.8,0.1c0.1,0,0.3,0,0.4-0.1c0.1,0.9,1.2,1.5,2,1.9
		c0.6,0.3,1.4,0.7,1.5,1c0.1,0.2,0,0.4-0.1,0.7c-0.4,1-1.6,2-2.4,2.3c-0.5,0.1-2.6-1.2-4.4-2.8c-0.1-0.1-0.3-0.2-0.4-0.2
		c0-0.1-0.1-0.2-0.2-0.2l0.4-0.5C348.4,167.1,348.9,167.4,349.5,167.4z M348.6,163.5c0,0,0.1,0,0.1,0c0.1,0,0.2,0,0.3,0
		c0,0.1,0.1,0.3,0.2,0.4c0,0,0,0,0,0.1c-0.1,0-0.1,0-0.2,0C348.9,163.8,348.7,163.7,348.6,163.5z M352.4,162.5
		c-0.4-0.8-1.4-1.1-1.5-1.2c-0.2-0.1-0.5,0-0.7,0.1c-0.3-0.2-0.6-0.3-1.1-0.5c0.1-0.6,0.3-1.8,0.5-4.1c0.3-0.1,0.7-0.4,1.3-0.5
		c-0.1,2.2,1.4,4,2.7,4.9C353.2,161.6,352.7,162,352.4,162.5C352.4,162.5,352.4,162.5,352.4,162.5z M352.9,153.4
		c1.7,1.1,3.8,1.2,4.9,1.3l0.3,0c0,0,0,0,0,0c0,0-0.1,0.1-0.1,0.1c-0.3,0.3-1.7,0.7-3.4-0.1c-0.9-0.4-1.8-0.5-2.8-0.3
		c-0.7-1-1.9-1.3-2.7-1.5C350.5,152.8,352.2,152.9,352.9,153.4z M345.6,152c0.6,0.5,1.3,1.3,1.6,1.6c0.3,0.4,0.8,0.5,1.5,0.7
		c0.5,0.1,1,0.3,1.4,0.5c-1,0.4-1.7,0.8-1.7,0.8c-0.2,0.1-0.3,0.4-0.4,0.6c-0.1,1.5-0.3,3.2-0.4,4.1c-0.7-0.3-1.6-0.6-2.1-0.8
		C345.5,158.3,345.5,154.1,345.6,152z M346.8,161.8c-0.1,0-0.1,0-0.2,0c0,0-0.1-0.1-0.1-0.1C346.6,161.7,346.7,161.8,346.8,161.8z
		 M346,163.3c0.6,0.5,1.3,1.1,1.9,1.7l-0.1,0.1c-0.1,0-0.2,0-0.3,0c-0.8-0.3-2-0.8-2.9-1.2c-0.2-0.4-0.3-0.7-0.4-0.9
		C344.8,163.2,345.4,163.3,346,163.3z M346.2,166.4L346.2,166.4c-0.1,0-0.2,0-0.3,0.1c-0.1-0.1-0.1-0.2-0.2-0.3
		C345.9,166.3,346.1,166.3,346.2,166.4z M344.4,168.2l-0.2,0.2c-0.1,0-0.2,0-0.3,0c-0.1-0.2-0.2-0.5-0.3-0.7
		C343.8,167.9,344.1,168.1,344.4,168.2z M342.5,164.9c0.2,0.1,0.5,0.2,0.8,0.4c0.2,0.3,0.3,0.6,0.5,1c-0.4-0.2-0.8-0.4-1.2-0.6
		C342.6,165.3,342.5,165.1,342.5,164.9C342.5,164.9,342.5,164.9,342.5,164.9z M342.1,169.9c0,0.1,0,0.1,0,0.2l-0.4,0.3
		c-0.2-0.1-0.3-0.1-0.5,0c0-0.3-0.1-0.6-0.1-0.9C341.4,169.6,341.7,169.8,342.1,169.9z M340.8,167c0.1-0.1,0.1-0.3,0.1-0.4
		c0.1,0.1,0.3,0.1,0.5,0.2c0.1,0.2,0.2,0.5,0.3,0.8c0.1,0.2,0.1,0.4,0.2,0.6c-0.4-0.1-0.7-0.3-1.1-0.4
		C340.8,167.4,340.8,167.1,340.8,167z M340.1,173.3c0.3,0.3,0.7,0.5,1.1,0.5c0,0,0.1,0,0.1,0c0.4,0,0.7-0.1,1-0.4
		c0.3-0.3,0.5-0.7,0.4-1.1c0-0.2-0.1-0.4-0.1-0.6l0.3-0.2c0.3,0.2,0.7,0.5,1.1,0.5c0,0,0.1,0,0.1,0c0.4,0,0.7-0.1,1-0.4
		c0.3-0.3,0.5-0.7,0.4-1.1c0-0.3-0.1-0.6-0.2-0.8l0.1-0.1c0.3,0.2,0.8,0.4,1.2,0.4c0.1,0,0.1,0,0.2,0c0.3,0,0.6-0.2,0.8-0.5
		c1.3,1.1,3.4,2.8,4.9,2.8c0.2,0,0.4,0,0.6-0.1c1.1-0.4,2.7-1.8,3.3-3.2c0.3-0.7,0.3-1.4,0.1-1.9c-0.4-0.9-1.4-1.4-2.3-1.9
		c-0.4-0.2-0.9-0.5-1.1-0.7c0.4-0.8,1.4-1.9,2-2.6c0.1,0,0.1,0,0.2,0c0.6,0,1.6-0.1,2.5-0.5c1-0.4,1.9-0.7,2.3-0.7
		c0.2,1.2,0.6,2.4,1,3.6c0.3,0.7,0.5,1.5,0.7,2.1c0,0,0,0,0,0.1c0,0-1.5,3.4-7.4,6.1c-4.3,1.9-10.4,2.7-15.4,2.9
		c0.3-0.2,0.5-0.6,0.6-1c0-0.3,0-0.6-0.1-0.8L340.1,173.3z M338.7,172.3c-0.1,0-0.2,0-0.3,0c0-0.3-0.1-0.5-0.1-0.8
		c0.3,0.1,0.6,0.3,0.9,0.4c0,0,0,0,0,0L338.7,172.3z M338.2,168.9c0.1-0.1,0.1-0.3,0.1-0.5c0.1,0,0.6,0.2,1.1,0.4
		c0,0.4,0.1,0.8,0.2,1.4c-0.4-0.2-0.9-0.4-1.3-0.6C338.1,169.3,338.1,169,338.2,168.9z M335.8,170.6c0.2,0.1,0.5,0.2,0.8,0.3
		c0.1,0.6,0.1,1.2,0.2,2.1l-0.1,0.1c0,0-0.1,0-0.1,0.1c-1.1-0.6-1.5-1.4-1.7-1.8C335.3,171,335.6,170.7,335.8,170.6z M330.2,173.3
		c0.7-0.1,1.3-0.2,1.6-0.3c0.4-0.1,1-0.5,1.7-0.9c0.4,0.7,1.2,1.8,2.9,2.6c0.1,0,0.2,0.1,0.3,0.1c0.2,0.2,0.4,0.5,0.7,0.7
		c-1.4,0-2.6,0-3.6-0.1c-2.6-0.1-4-1.2-4.7-1.9C329.5,173.4,329.9,173.4,330.2,173.3z M327.5,181.7c-1.6-0.5-3-1.2-3.3-1.5
		c0-0.1,0-0.2,0-0.2c0.8,0.6,2.1,1.2,4,1.6C327.9,181.5,327.7,181.6,327.5,181.7z M324.8,178.3C324.8,178.3,324.8,178.3,324.8,178.3
		c0-0.1,0-0.2,0-0.2c0-0.9,0.1-3,0.9-3.6c0.3-0.3,1-0.5,1.7-0.7c0.7,1,2.4,3,6.4,3.2c0.8,0,1.7,0.1,2.7,0.1c5.4,0,13.4-0.6,18.7-3.1
		c3.9-1.8,6-3.9,7.1-5.3c0.1,1.1,0.1,2.2,0.1,3.8l0,0.9c0,2-0.5,2.1-2.5,2.6c-0.3,0.1-0.5,0.1-0.8,0.2c-1.1,0.3-2.6,0.5-4.2,0.8
		c-2.2,0.4-4.8,0.9-7,1.4c-0.4,0.1-0.7,0.2-1.2,0.3c-3.7,1-9.3,2.4-15.6,1.7C325.6,179.7,324.9,178.5,324.8,178.3z M363.3,179.1
		c-0.1,0.3-0.8,1.2-2.8,1.5c-0.3-0.3-0.8-0.5-1.3-0.4c-0.5,0.1-0.8,0.5-1.1,1.1c-0.3,0.1-0.6,0.2-0.8,0.2c-0.3-0.3-1-0.8-1.8-0.6
		c-0.3,0.1-0.8,0.3-1.1,0.9c-0.2,0-0.3,0.1-0.4,0.1c0-0.1,0-0.2-0.1-0.2c-0.2-0.6-0.5-1.9-2.5-1.8c-1.7,0.1-3.8,0.4-4.4,1.9
		c-0.2,0.1-0.4,0.3-0.6,0.3c-0.3-0.3-0.7-0.5-1.2-0.5c-0.5,0.1-0.9,0.4-1.1,1.1c-0.2,0.1-0.3,0.2-0.5,0.2c-0.3-0.3-0.8-0.7-1.3-0.6
		c-0.6,0.1-0.9,0.7-1.1,1.1l-0.3,0.1c-0.2-0.3-0.5-0.5-0.8-0.6c-0.3-0.1-1-0.1-1.4,0.8c-0.2,0-0.5,0.1-0.7,0.1
		c-0.2-0.3-0.5-0.6-1-0.6c-0.3,0-0.8,0.1-1.2,0.6c-0.2,0-0.4,0-0.6,0c-0.2-0.4-0.6-1-1.3-1c-0.3,0-0.8,0.1-1.2,0.5
		c-0.2,0-0.4,0-0.5-0.1c-0.1-0.4-0.4-0.9-1-1.1c-0.5-0.2-1,0-1.5,0.4c-0.2,0-0.3-0.1-0.4-0.1c-0.1-0.3-0.4-0.7-0.8-0.9
		c0.7,0.1,1.4,0.2,2.2,0.3c1.3,0.2,2.6,0.2,3.9,0.2c5,0,9.3-1.1,12.4-1.9c0.4-0.1,0.8-0.2,1.1-0.3c2.1-0.5,4.6-1,6.9-1.4
		c1.7-0.3,3.2-0.6,4.3-0.9c0.3-0.1,0.5-0.1,0.8-0.2c1.3-0.3,2.4-0.5,3.1-1.6V179.1z"/>
</g>
<g>
	<path class="st0" d="M35.7,121.6v-1.7c1-0.8,1.6-2,1.6-3.3c0-2.3-1.9-4.2-4.2-4.2c-2.3,0-4.2,1.9-4.2,4.2c0,1.4,0.6,2.6,1.6,3.3
		v1.8c-6.7,1.4-11.8,7.3-11.8,14.5c0,8.1,6.6,14.8,14.8,14.8c8.1,0,14.8-6.6,14.8-14.8C48.2,128.8,42.8,122.7,35.7,121.6z M33.1,114
		c1.5,0,2.6,1.2,2.6,2.6c0,0.4-0.1,0.8-0.3,1.2c-0.1-0.1-0.3-0.2-0.5-0.2h-3.6c-0.2,0-0.4,0.1-0.6,0.2c-0.2-0.4-0.3-0.8-0.3-1.2
		C30.5,115.2,31.6,114,33.1,114z M32.1,119.2h2v2.3c-0.2,0-0.4,0-0.7,0c-0.5,0-0.9,0-1.4,0.1V119.2z M33.4,149.4
		c-7.3,0-13.2-5.9-13.2-13.2S26.2,123,33.4,123c7.3,0,13.2,5.9,13.2,13.2S40.7,149.4,33.4,149.4z"/>
	<path class="st0" d="M33.2,124.6c-6.4,0-11.6,5.2-11.6,11.6c0,6.4,5.2,11.6,11.6,11.6c6.4,0,11.6-5.2,11.6-11.6
		C44.8,129.8,39.6,124.6,33.2,124.6z M33.1,137.1c-0.5,0-0.9-0.4-0.9-0.9c0-0.5,0.4-0.9,0.9-0.9c0.5,0,0.9,0.4,0.9,0.9
		C34,136.7,33.6,137.1,33.1,137.1z M31,137.5c0.3,0.5,0.7,0.9,1.3,1.1l-2.7,2L31,137.5z M35.2,135c-0.3-0.6-0.9-1-1.5-1.1l3.1-2.3
		L35.2,135z M33.2,146.2c-5.5,0-10-4.5-10-10c0-5.5,4.5-10,10-10c2.3,0,4.3,0.8,6,2c0,0,0,0,0,0c0,0,0,0,0,0c0,0-0.1,0-0.1,0
		c0,0-0.1,0-0.1,0c0,0,0,0-0.1,0c0,0-0.1,0-0.1,0c0,0,0,0-0.1,0c0,0-0.1,0-0.1,0c0,0,0,0-0.1,0c0,0-0.1,0-0.1,0c0,0,0,0-0.1,0
		c0,0-0.1,0-0.1,0.1c0,0,0,0,0,0l-4.5,3.4V129c0-0.4-0.4-0.8-0.8-0.8s-0.8,0.4-0.8,0.8v3.9l-0.8,0.6l-2.7-3.1
		c-0.3-0.3-0.8-0.4-1.1-0.1c-0.3,0.3-0.4,0.8-0.1,1.1l2.9,3.3c0,0,0,0,0,0l-0.4,0.8c0,0,0,0,0,0h-4.3c-0.4,0-0.8,0.4-0.8,0.8
		c0,0.4,0.4,0.8,0.8,0.8h3.6l-2.6,5.7c0,0,0,0,0,0c0,0,0,0.1,0,0.1c0,0,0,0,0,0.1c0,0,0,0,0,0.1c0,0,0,0.1,0,0.1c0,0,0,0,0,0.1
		c0,0,0,0.1,0,0.1c0,0,0,0,0,0.1c0,0,0,0,0,0.1c0,0,0,0,0,0.1c0,0,0,0,0,0.1c0,0,0,0,0,0c0,0,0,0,0,0c0,0,0.1,0.1,0.1,0.1
		c0,0,0,0,0,0c0,0,0.1,0,0.1,0.1c0,0,0,0,0.1,0c0,0,0,0,0,0c0,0,0.1,0,0.1,0c0,0,0,0,0.1,0c0.1,0,0.1,0,0.2,0c0,0,0,0,0,0
		c0,0,0,0,0,0c0,0,0,0,0,0c0.1,0,0.2,0,0.2,0c0,0,0,0,0.1,0c0.1,0,0.1,0,0.2-0.1c0,0,0,0,0,0l4.3-3.2v3.2c0,0.4,0.4,0.8,0.8,0.8
		s0.8-0.4,0.8-0.8v-4.3c0,0,0,0,0,0l0.3-0.3l2.8,3.2c0.2,0.2,0.4,0.3,0.6,0.3c0.2,0,0.4-0.1,0.5-0.2c0.3-0.3,0.4-0.8,0.1-1.1
		l-2.8-3.1c0,0,0,0,0.1-0.1c0,0,0,0,0,0c0-0.1,0.1-0.1,0.1-0.2c0,0,0,0,0,0l0.3-0.7h4.1c0.4,0,0.8-0.4,0.8-0.8
		c0-0.4-0.4-0.8-0.8-0.8h-3.4l2.8-6.2c0,0,0,0,0,0c0,0,0-0.1,0-0.1c0,0,0,0,0-0.1c0,0,0-0.1,0-0.1c0,0,0-0.1,0-0.1c0,0,0,0,0-0.1
		c0,0,0-0.1,0-0.1s0,0,0-0.1c0,0,0,0,0-0.1c0,0,0,0,0-0.1c0,0,0,0,0-0.1c0,0,0,0,0,0c0,0,0,0,0,0c0,0,0,0,0,0
		c2.3,1.8,3.7,4.6,3.7,7.8C43.2,141.7,38.7,146.2,33.2,146.2z"/>
</g>
<g>
	<path class="st0" d="M183.5,147.6c0.1-3.1-2.4-5.7-5.5-5.8c-1.5,0-3,0.5-4.1,1.6c-1.1,1-1.7,2.4-1.8,4c0,0.4,0,0.9,0.1,1.3
		c0,0,0,0,0,0c0,0,0,0,0,0.1c0,0,0,0,0,0.1c0,0,0,0,0,0l4.4,12.5c0.1,0.3,0.4,0.5,0.8,0.5c0,0,0,0,0,0c0,0,0,0,0,0
		c0.3,0,0.6-0.2,0.7-0.5l5-12.4c0,0,0,0,0,0c0-0.1,0.1-0.1,0.1-0.2C183.4,148.3,183.5,148,183.5,147.6z M177.5,158.9l-3.7-10.6
		c-0.1-0.3-0.1-0.7-0.1-1c0-1.1,0.5-2.1,1.3-2.8c0.8-0.7,1.8-1.1,2.9-1.1c2.2,0.1,4,1.9,4,4.2c0,0.2,0,0.5-0.1,0.7c0,0,0,0,0,0.1
		L177.5,158.9z"/>
	<path class="st0" d="M177.9,144.6L177.9,144.6c-1.5,0-2.7,1.1-2.7,2.6c0,0.7,0.2,1.4,0.7,1.9c0.5,0.5,1.1,0.8,1.8,0.8l0.1,0
		c1.4,0,2.6-1.1,2.6-2.6c0-0.7-0.2-1.4-0.7-1.9C179.2,144.9,178.6,144.6,177.9,144.6z M177.8,148.3L177.8,148.3
		c-0.3,0-0.6-0.1-0.8-0.3c-0.2-0.2-0.3-0.4-0.3-0.7c0-0.6,0.5-1,1.1-1c0,0,0,0,0,0c0.3,0,0.5,0.1,0.7,0.3c0.2,0.2,0.3,0.4,0.3,0.7
		C178.8,147.8,178.3,148.3,177.8,148.3z"/>
</g>
<g>
	<path class="st0" d="M287.3,23.5c-0.1-0.2-0.3-0.3-0.5-0.3L273,21c-0.4-0.1-0.8,0.2-0.9,0.6l-1.6,9.9c0,0.2,0,0.4,0.1,0.6
		c0.1,0.1,0.2,0.2,0.3,0.3c0.1,0,0.1,0,0.2,0l13.8,2.2c0.4,0.1,0.8-0.2,0.9-0.6l1.6-9.9C287.5,23.9,287.4,23.6,287.3,23.5z
		 M284.5,33L272.2,31l1.3-8.4l12.3,1.9L284.5,33z"/>
	<path class="st0" d="M304.9,21.7l-17.2-8.8c-0.2-0.1-0.4-0.1-0.6,0c-0.2,0.1-0.4,0.2-0.4,0.4l-3.4,6.6l-12.5-2
		c-0.2,0-0.4,0-0.6,0.1c-0.2,0.1-0.3,0.3-0.3,0.5l-3,19.1c-0.1,0.4,0.1,0.7,0.5,0.8c0.1,0,0.1,0,0.2,0l19.1,3c0.2,0,0.4,0,0.6-0.1
		c0.2-0.1,0.3-0.3,0.3-0.5l0.7-4.3l7.2,3.7c0,0,0,0,0.1,0c0.2,0.1,0.3,0.1,0.5,0c0.2-0.1,0.4-0.2,0.4-0.4l8.8-17.2
		C305.4,22.4,305.3,21.9,304.9,21.7z M286.1,39.9l-17.6-2.8l2.8-17.6l17.6,2.8L286.1,39.9z M289.9,20.9l-2.2-0.4l1.2-2.3l11.1,5.6
		l-3.9,7.6l-6.5-3.3l1-6.4C290.6,21.4,290.3,21,289.9,20.9z M295.4,38.6l-7-3.6l0.8-5.3l6.7,3.4c0,0,0,0,0.1,0
		c0.2,0.1,0.3,0.1,0.5,0c0.2-0.1,0.4-0.2,0.4-0.4l4.6-8.9c0.1-0.2,0.1-0.4,0-0.6c-0.1-0.2-0.2-0.4-0.4-0.4l-12.4-6.3
		c-0.4-0.2-0.8,0-1,0.3l-1.8,3.4l-1.2-0.2l2.8-5.5l15.9,8.1L295.4,38.6z"/>
</g>
<g>
	<path class="st0" d="M125.9,19.3c0-1.3-1.2-2-2.4-2.2v-3.4c0-0.4-0.4-0.8-0.8-0.8h-21.1c-0.4,0-0.8,0.4-0.8,0.8V15h-4.8v-1.6
		c0-0.4-0.4-0.8-0.8-0.8h-6.6c-0.4,0-0.8,0.4-0.8,0.8V15h-0.2c-0.4,0-0.8,0.4-0.8,0.8v1.4c-1.2,0.1-2.3,0.8-2.3,2.1
		c0,0.5,0.2,1,0.6,1.4c0.5,0.5,1.2,0.6,1.7,0.6v13.8c0,0.4,0.4,0.8,0.8,0.8h35c0.4,0,0.8-0.4,0.8-0.8V21.4c0.5,0,1.2-0.1,1.8-0.7
		C125.7,20.4,125.9,19.9,125.9,19.3z M101.7,16.6c0.4,0,0.8-0.4,0.8-0.8v-1.2H122v5.9h-7.8c-0.1,0-0.2,0-0.2,0
		c-1.4-1.1-3.3-1.8-5.3-1.8c-1.8,0-3.5,0.6-4.9,1.6v-1.2c0-0.4-0.4-0.8-0.8-0.8H88.5v-1.7H101.7z M108.7,20.3c3.8,0,6.9,3.1,6.9,6.9
		s-3.1,6.9-6.9,6.9s-6.9-3.1-6.9-6.9S104.9,20.3,108.7,20.3z M89.5,14.2h5V15h-5V14.2z M86.3,19.5c0,0-0.1-0.1-0.1-0.2
		c0-0.3,0.4-0.5,0.7-0.5v0.9C86.7,19.7,86.4,19.7,86.3,19.5z M88.5,19.9h13.6v1.4c0,0.1,0,0.3,0.1,0.4c-1.3,1.5-2.1,3.4-2.1,5.5
		c0,3,1.6,5.7,4,7.2H88.5V19.9z M113.2,34.4c2.4-1.5,4-4.2,4-7.2c0-1.9-0.6-3.7-1.7-5.1h6.5v12.3H113.2z M124.3,19.5
		c-0.1,0.1-0.4,0.2-0.7,0.2v-1c0.3,0.1,0.8,0.2,0.8,0.5C124.3,19.5,124.3,19.5,124.3,19.5z"/>
	<path class="st0" d="M114.8,19.9h4.6c0.4,0,0.8-0.4,0.8-0.8v-3.3c0-0.4-0.4-0.8-0.8-0.8h-4.6c-0.4,0-0.8,0.4-0.8,0.8v3.3
		C114.1,19.5,114.4,19.9,114.8,19.9z M115.6,16.6h3v1.7h-3V16.6z"/>
	<path class="st0" d="M108.7,33.1c3.3,0,6-2.7,6-6s-2.7-6-6-6c-3.3,0-6,2.7-6,6S105.4,33.1,108.7,33.1z M108.7,22.7
		c2.4,0,4.4,2,4.4,4.4s-2,4.4-4.4,4.4s-4.4-2-4.4-4.4S106.3,22.7,108.7,22.7z"/>
</g>
<g>
	<path class="st0" d="M359.6,42.1C359.6,42.1,359.6,42.1,359.6,42.1h-37.1c-0.4,0-0.7-0.3-0.8-0.7c-0.3-2.9,0.4-8.5,5.3-9.4
		c1-0.2,2-0.3,2.8-0.3c0.5,0,0.9,0,1.2,0.1c0.6-2.8,2.9-6.9,8-6.9c5,0,7.1,3.9,7.8,7.1c1.1-1.3,2.9-2.8,5.7-2.6
		c7.5,0.3,7.9,10.5,7.9,11.8c0,0,0,0.1,0,0.1C360.4,41.8,360.1,42.1,359.6,42.1z M323.3,40.5h35.5c-0.2-2.4-1.1-9.3-6.3-9.5
		c-0.1,0-0.2,0-0.2,0c-3.5,0-5.2,3.6-5.2,3.6c-0.2,0.3-0.5,0.5-0.9,0.5c-0.4-0.1-0.6-0.4-0.6-0.8c0-0.3-0.2-7.8-6.4-7.8
		c-5.7,0-6.5,6.1-6.6,6.3c0,0.2-0.2,0.4-0.4,0.6c-0.2,0.1-0.4,0.2-0.7,0.1l0,0c0,0-0.5-0.2-1.6-0.2c-0.8,0-1.6,0.1-2.5,0.2
		C323.6,34.3,323.3,38.8,323.3,40.5z"/>
</g>
<g>
	<path class="st0" d="M369.7,47.2h-8.8c-0.4,0-0.8-0.4-0.8-0.8c0-0.4,0.4-0.8,0.8-0.8h8.8c0.4,0,0.8,0.4,0.8,0.8
		C370.5,46.9,370.1,47.2,369.7,47.2z"/>
</g>
<g>
	<path class="st0" d="M355.1,47.2h-9.8c-0.4,0-0.8-0.4-0.8-0.8c0-0.4,0.4-0.8,0.8-0.8h9.8c0.4,0,0.8,0.4,0.8,0.8
		C355.9,46.9,355.5,47.2,355.1,47.2z"/>
</g>
<g>
	<path class="st0" d="M365.2,52.4h-23.3c-0.4,0-0.8-0.4-0.8-0.8s0.4-0.8,0.8-0.8h23.3c0.4,0,0.8,0.4,0.8,0.8S365.6,52.4,365.2,52.4z
		"/>
</g>
<g>
	<g>
		<path class="st0" d="M44.8,30.5C44.8,30.5,44.8,30.5,44.8,30.5H7.7c-0.4,0-0.7-0.3-0.8-0.7c-0.3-2.9,0.4-8.5,5.3-9.4
			c1-0.2,2-0.3,2.8-0.3c0.5,0,0.9,0,1.2,0.1c0.6-2.8,2.9-6.9,8-6.9c5,0,7.1,3.9,7.8,7.1c1.1-1.3,3-2.8,5.7-2.6
			c7.4,0.3,7.9,10.5,7.9,11.8c0,0,0,0.1,0,0.1C45.6,30.2,45.2,30.5,44.8,30.5z M8.5,28.9h35.5c-0.2-2.4-1.1-9.3-6.3-9.5
			c-3.7-0.2-5.4,3.6-5.4,3.6c-0.2,0.3-0.5,0.5-0.9,0.5c-0.4-0.1-0.6-0.4-0.6-0.8c0-0.3-0.2-7.8-6.4-7.8c-5.7,0-6.5,6.1-6.6,6.3
			c0,0.2-0.2,0.4-0.4,0.6c-0.2,0.1-0.4,0.2-0.7,0.1h0c0,0-0.5-0.2-1.6-0.2c-0.8,0-1.6,0.1-2.5,0.2C8.7,22.7,8.4,27.2,8.5,28.9z"/>
	</g>
	<g>
		<path class="st0" d="M11.1,35.7H2.3c-0.4,0-0.8-0.4-0.8-0.8s0.4-0.8,0.8-0.8h8.8c0.4,0,0.8,0.4,0.8,0.8S11.6,35.7,11.1,35.7z"/>
	</g>
	<g>
		<path class="st0" d="M26.6,35.7h-9.8c-0.4,0-0.8-0.4-0.8-0.8s0.4-0.8,0.8-0.8h9.8c0.4,0,0.8,0.4,0.8,0.8S27.1,35.7,26.6,35.7z"/>
	</g>
	<g>
		<path class="st0" d="M30,40.8H6.8C6.3,40.8,6,40.5,6,40c0-0.4,0.4-0.8,0.8-0.8H30c0.4,0,0.8,0.4,0.8,0.8
			C30.8,40.5,30.5,40.8,30,40.8z"/>
	</g>
</g>
<g>
	<path class="st0" d="M44.5,190.6C44.5,190.6,44.5,190.6,44.5,190.6L1.6,190c-0.4,0-0.7-0.4-0.8-0.8c-0.3-3.2,0.5-9.6,6.2-10.6
		c1-0.2,2-0.3,2.9-0.3c0.8,0,1.3,0,1.8,0.1c0.6-2.2,2.7-7.9,9.1-7.9H21c5.8,0,8.1,4.8,8.8,8.5c1.2-1.6,3.4-3.4,6.7-3.2
		c7.1,0.4,8.9,9.2,8.9,13.8C45.3,190.1,45,190.6,44.5,190.6z M2.4,188.4l41.3,0.4c-0.1-2.6-1.1-10.9-7.3-11.3
		c-4.4-0.2-6.4,4.3-6.4,4.3c-0.2,0.3-0.5,0.5-0.9,0.5c-0.4-0.1-0.6-0.4-0.6-0.8c0-0.4-0.2-9.3-7.5-9.3h-0.1c-6.6,0-7.7,7-7.7,7.3
		c0,0.2-0.2,0.5-0.4,0.6c-0.2,0.1-0.5,0.2-0.7,0.1l0,0c0,0-0.7-0.2-2.1-0.2c-0.8,0-1.7,0.1-2.7,0.2C2.6,181,2.3,186.4,2.4,188.4z"/>
</g>
<g>
	<path class="st0" d="M35.3,197.3H25c-0.4,0-0.8-0.4-0.8-0.8c0-0.4,0.4-0.8,0.8-0.8h10.2c0.4,0,0.8,0.4,0.8,0.8
		C36.1,197,35.7,197.3,35.3,197.3z"/>
</g>
<g>
	<path class="st0" d="M53.2,197.3H41.9c-0.4,0-0.8-0.4-0.8-0.8c0-0.4,0.4-0.8,0.8-0.8h11.3c0.4,0,0.8,0.4,0.8,0.8
		C54,197,53.7,197.3,53.2,197.3z"/>
</g>
<g>
	<path class="st0" d="M57.2,203.3h-27c-0.4,0-0.8-0.4-0.8-0.8c0-0.4,0.4-0.8,0.8-0.8h27c0.4,0,0.8,0.4,0.8,0.8
		C58,202.9,57.6,203.3,57.2,203.3z"/>
</g>
<g>
	<path class="st0" d="M346,196.1c-2.3-0.1-4,1.1-5,2.2c-0.6-2.8-2.5-6.2-6.8-6.2h-0.1c-4.4,0-6.5,3.5-7.1,5.9
		c-0.3,0-0.7-0.1-1.2-0.1c-0.7,0-1.5,0.1-2.3,0.2c-4.5,0.8-5.1,5.7-4.9,8.3c0,0.4,0.4,0.7,0.8,0.7l32.6,0.3c0,0,0,0,0,0
		c0.4,0,0.8-0.3,0.8-0.7C352.9,206.2,352.9,196.5,346,196.1z M320.2,205.5c0-1.6,0.3-5.3,3.6-5.8c0.7-0.1,1.4-0.2,2-0.2
		c1,0,1.5,0.2,1.5,0.2c0.2,0.1,0.5,0.1,0.7,0c0.2-0.1,0.3-0.3,0.4-0.5c0-0.2,0.8-5.3,5.7-5.3h0.1c5.4,0,5.5,6.5,5.5,6.8
		c0,0.4,0.3,0.6,0.6,0.7c0.4,0.1,0.7-0.1,0.9-0.5c0.1-0.1,1.6-3.3,4.7-3.2c4.4,0.2,5.2,6,5.4,8.2L320.2,205.5z"/>
	<path class="st0" d="M341.3,212.3h-9.1c-0.4,0-0.8,0.4-0.8,0.8c0,0.4,0.4,0.8,0.8,0.8h9.1c0.4,0,0.8-0.4,0.8-0.8
		C342.1,212.6,341.7,212.3,341.3,212.3z"/>
	<path class="st0" d="M316.3,213.9h10c0.4,0,0.8-0.4,0.8-0.8c0-0.4-0.4-0.8-0.8-0.8h-10c-0.4,0-0.8,0.4-0.8,0.8
		C315.5,213.5,315.8,213.9,316.3,213.9z"/>
	<path class="st0" d="M336.7,217.6h-23.9c-0.4,0-0.8,0.4-0.8,0.8c0,0.4,0.4,0.8,0.8,0.8h23.9c0.4,0,0.8-0.4,0.8-0.8
		C337.5,217.9,337.1,217.6,336.7,217.6z"/>
</g>
<g>
	<path class="st0" d="M271.7,67.1c8.1,13.3,12.7,29.5,13.1,45.6c0,0.4,0.4,0.8,0.8,0.8c0,0,0,0,0,0c0.4,0,0.8-0.4,0.8-0.8
		c-0.4-16.4-5.1-32.8-13.4-46.4c-0.1-0.1-1.7-2.7-2.6-3.6c-0.3-0.3-0.8-0.3-1.1,0c-0.3,0.3-0.3,0.8,0,1.1
		C269.9,64.5,271.2,66.5,271.7,67.1z"/>
	<path class="st0" d="M281.9,112.8C281.9,112.8,281.9,112.8,281.9,112.8c0.4,0,0.8-0.3,0.8-0.8c0-1.4,0-2.7-0.2-4
		c-1.1-10.6-2.2-11.6-3.2-11.8c-0.7-0.1-1.3,0.3-1.8,1.3c-0.5,1-1.1,4.3-1.9,9.5c-0.4,2.2-0.7,4.4-1.1,6.4c-0.1,0.4,0.2,0.9,0.6,0.9
		c0,0,0.1,0,0.1,0c0.4,0,0.7-0.3,0.8-0.7c0.4-2,0.7-4.2,1.1-6.4c0.6-3.8,1.4-8.2,1.8-9c0-0.1,0.1-0.2,0.1-0.2
		c0.3,0.7,1.1,2.9,1.8,10.2c0.1,1.2,0.2,2.5,0.2,3.8C281.1,112.5,281.5,112.8,281.9,112.8z"/>
	<path class="st0" d="M230.5,164.6c0.9-2.3,1.2-3.5,1.4-4.4c0.3-1,0.4-1.4,1-2.3c0.4-0.6,1.2-1,2.2-1.4c1.5-0.7,3.4-1.7,4.3-3.9
		c0.6-1.5,0.6-3.8,0.5-6.4c-0.1-3.3-0.1-7,1.3-9.3c0.5-0.8,1.3-2,2.3-3.3c4.3-6,10.7-15.1,9.8-20.9c-0.3-1.7-0.6-2.5-1.3-2.9
		c-0.8-0.4-1.5-0.1-2.3,0.2c-1.5,0.7-3.7,1.6-7.2-3.7c-5.9-8.8-9.3-16.7-9.8-19.3c1.2,1.6,3.4,5.5,5.3,8.8c4.3,7.6,7,12.3,8.8,13
		c1.6,0.6,4.3-0.1,6.7-1.8c3.5-2.5,5.5-6.4,5.3-10.3c-0.2-4.6-3.7-7.3-6.4-9.5c-1.8-1.4-3.4-2.7-3.2-3.9c0-0.2,0.1-0.3,0.1-0.4
		c0.4,0.2,1.4,1.1,2.1,1.7c1.7,1.6,3.9,3.6,6.4,4.1c2.9,0.6,4.8-0.1,6.1-0.5c1.2-0.4,1.3-0.4,1.6-0.1c0.3,0.3,7,8.6,6.2,18
		c-0.3,3.7-0.4,7.4-0.3,9.7c0,0.4,0.4,0.8,0.8,0.8c0.4,0,0.8-0.4,0.8-0.8c-0.1-2.2,0-5.9,0.3-9.5c0.9-10.1-6.3-18.8-6.6-19.2
		c-1-1.2-2.2-0.7-3.3-0.3c-1.3,0.4-2.8,1-5.2,0.5c-2.1-0.5-4.1-2.3-5.7-3.7c-1.6-1.5-2.7-2.5-3.8-2.1c-0.9,0.3-1.1,1.3-1.1,1.7
		c-0.4,2.2,1.6,3.7,3.8,5.4c2.6,2.1,5.6,4.4,5.8,8.3c0.2,3.3-1.6,6.7-4.6,8.9c-2.2,1.6-4.2,2-5.2,1.6c-1.3-0.5-5.3-7.6-7.9-12.3
		c-4.8-8.5-6-10.5-7.3-10.2c-0.4,0.1-0.7,0.4-0.9,0.8c-1,2.5,4.4,13.4,10,21.6c3.9,5.9,6.8,5.3,9.1,4.2c0.3-0.1,0.7-0.3,0.9-0.3
		c0,0,0.3,0.2,0.5,1.7c0.8,5.1-5.7,14.3-9.5,19.7c-1,1.4-1.8,2.6-2.3,3.4c-1.7,2.7-1.6,6.7-1.5,10.2c0,2.3,0.1,4.5-0.4,5.8
		c-0.7,1.7-2.1,2.4-3.5,3.1c-1.1,0.5-2.1,1-2.8,1.9c-0.8,1.1-1,1.8-1.2,2.8c-0.2,0.9-0.5,2.1-1.4,4.3c-1.4,3.5-7.6,10.8-13,11.8
		c-2,0.4-3.6-0.1-5-1.5c-3.8-4.1-3-14.3-2.3-22.5c0.4-4.5,0.7-8.3,0.1-10.4c-0.5-1.7-0.9-3.3-1.3-4.6c-0.9-3-1.6-5.4-1.7-8.1
		c-0.1-1.5-0.5-2.7-1.5-3.6c-2.1-1.9-6.4-2.4-14.9-1.8c-11.1,0.7-17.7-11-18.6-17.1c0-0.3-0.2-0.5-0.4-0.6c0,0,0,0,0,0
		c0-0.1-2-8.5,3.3-15c2.4-2.9,4.4-5.9,6.2-8.6c2.5-3.6,4.6-6.7,6.4-8c3.2-2.3,14.9-2.8,16.1-1.5c0.1,0.1,9.1,8.8,13,7.8
		c0.8-0.2,1.5-0.5,2-0.7c1.6-0.6,2.5-0.9,4.4-0.2c2.1,0.9,7.1,1.3,9.4-0.8c0.7-0.7,1.5-2,0.7-4.2c-1.5-4.3-3.4-4.3-6-3.9
		c-0.6,0.1-1.3,0.2-2.1,0.3c-0.6,0-1.1-0.2-1.5-0.7c-1.1-1.4-1.2-4.1-1.1-5c1.2-0.8,8.1-1.7,9.9-1.2c0.9,0.3,1.8-0.2,2-1.1
		c0.6-1.9-1.2-5.7-4.4-6.7c-0.5-0.2-0.9-0.3-1.3-0.4c-1.8-0.6-2.4-0.8-3-0.4c-0.5,0.3-0.6,0.8-0.7,1.4l0,0.2
		c-0.1,0.6-0.4,1.9-0.7,2.1c-0.1,0.1-0.3,0-0.6-0.2c-0.4-0.2-0.7-0.4-1.1-0.7c-1.2-0.8-2.2-1.4-3.2-1.1c-0.5,0.2-0.9,0.6-1.2,1.3
		c-0.1,0.3-0.3,0.6-0.4,1c-0.8,1.9-1.9,4.4-0.3,7.2c1,1.6,0.5,3.2-0.1,3.7c-0.2,0.1-0.3,0.2-0.7-0.1c-0.4-0.4-1.3-1.8-2.3-3.3
		c-3.2-4.8-6-8.8-8.3-9.3c-0.6-0.1-1.1,0-1.6,0.3c-0.6,0.4-0.8,0.9-0.8,1.3c-0.1,1.5,1.7,3.1,3.7,4.9c1.3,1.2,3.3,3,3.3,3.8
		c0,0,0,0.1-0.1,0.1c-0.7,0.6-3-1.6-4.6-3.1c-2.6-2.5-5.3-5.2-7.7-4c-2,1-3.5,3.1-4.7,4.9c-1,1.4-2,2.9-2.8,3
		c-0.8,0.1-1.6,0.3-2.3,0.5c-1.8,0.5-3,0.8-3.8-0.2c-0.7-0.9-0.6-1.8-0.2-3.3c0.2-0.8,0.4-1.6,0.4-2.5c-0.1-1,0-1.6,0.2-1.8
		c0.2-0.2,0.6-0.3,1.1-0.3c0.3,0,0.8,0,1.3,0.1c1.8,0.1,4.1,0.3,5.1-0.9c0.3-0.3,0.7-0.9,0.5-1.9c-0.3-1.8-1.3-2.6-2-3.2
		c-0.6-0.5-0.8-0.7-0.8-1c0.1-0.5,1.5-1.2,2.5-1.7c1.5-0.8,3.3-1.6,4.3-3c0.4-0.5,0.7-0.9,1-1.2c1-1.4,1.1-1.4,2.4-1.5
		c0.4,0,0.9,0,1.4,0c2.5,0.1,5.8,0.1,7.1-1.8c1-1.4,1.1-2.7,1.3-3.9c0.1-0.6,0.1-1.2,0.3-1.8c0-0.2,0.1-0.3,0.1-0.5
		c0.6-2,0.3-2.5-1.9-3.4c-0.8-0.3-1-0.9-1.3-1.9c-0.3-0.8-0.6-1.7-1.4-2.1c-0.6-0.2-1.4-0.2-2,0.8c-0.8,1.2-1.1,3.6,0.3,5
		c0.5,0.5,0.8,1,0.8,1.4c0,0.2-0.2,0.4-0.3,0.4c-1,0.6-0.6,1.8-0.4,2.6c0.1,0.2,0.1,0.5,0.1,0.6c-0.1,0.1-0.2,0.3-0.4,0.4
		c-0.1-0.2-0.3-0.6-0.5-0.8c-0.8-1.5-1.7-3.3-3.2-2.8l-0.3,0.1c-0.7,0.2-1.7,0.6-1.8,0.3c-0.3-0.6-1-3.4,2-6.1
		c2.1-2,2.2-3.9,2.2-5.1c0-0.2,0-0.3,0-0.5c0.7,0.1,2,0.8,3.1,1.3c1.6,0.8,3.3,1.6,4.7,1.9c2.4,0.4,3.6,0.5,4.4-1.6
		c0.4-1,0.3-2.1,0.1-2.9c13.8,3,27,9.1,37.5,17.4c0.3,0.3,0.8,0.2,1.1-0.1c0.3-0.3,0.2-0.8-0.1-1.1c-15.8-12.5-37.6-20-58.3-20
		c-1.4,0-2.9,0-4.3,0.1c0,0-0.1,0-0.1,0c-2.7,0.1-5.5,0.4-8.2,0.8c-0.2,0-0.3,0-0.5,0.1c0,0,0,0,0,0c-8.3,1.2-16.5,3.6-24.1,7.1
		c-0.2,0-0.3,0.1-0.4,0.2c-8.7,4-16.8,9.3-24,16C115.7,62.2,105,83,102.4,105.4c-0.1,0.4,0.3,0.8,0.7,0.9c0,0,0.1,0,0.1,0
		c0.4,0,0.7-0.3,0.8-0.7c0.6-5.3,1.7-10.4,3.1-15.4c-0.2,0.8-0.3,1.7-0.5,2.6c-0.1,0.7-0.2,1.3-0.3,1.5c-0.4,1.2,0.6,1.8,1.1,2.1
		c0.7,0.4,1,0.6,1,1.5c-0.1,1.2-0.4,2.5-0.7,3.9c-0.3,1.3-0.6,2.7-0.7,3.9c-0.1,1.1,0.4,1.9,1.3,2.1c1.3,0.4,3.3-0.7,4.2-2.3
		c0.4-0.7,0.6-0.9,0.7-1c0.2,0.1,0.7,0.6,1.1,1l0.2,0.2c0.3,0.3,0.5,0.5,0.7,0.7c1,1.1,2.1,2.2,3.7,0.7c0.3-0.2,0.4-0.3,0.4-0.3
		c0.6,0.3,1.8,3.6,2.2,4.8c1.4,4,2.7,4.7,4.5,5.8c0.7,0.4,1.4,0.8,2.3,1.5c1.9,1.5,1.5,4.4,1.1,6.8c-0.2,1-0.3,2-0.3,2.8
		c0,0.8,0.2,1.7,0.9,2.3c1,0.9,2.6,0.7,6.5,0.2c3.1-0.4,8.3,4.8,10.7,9.4c1.2,2.3,1.5,4.2,0.7,5c-3,3.3-2.4,7.1-1.5,12.4
		c0.1,0.9,0.3,1.8,0.5,2.8c0.6,4,0.1,4.3-0.7,4.9c-0.6,0.4-1.5,0.9-2.2,2.3c-1.2,2.1-0.6,5.7-0.2,8.8c0.2,1.4,0.5,3.2,0.4,3.8
		c-0.6,0.1-0.9,0.4-1,0.6c-0.6,0.9,0,2.4,0.9,4.5c0.5,1.1,1,2.3,1.3,3.3c0.5,1.6,3,4,5.8,6.2c-0.8-0.4-1.6-0.9-2.4-1.4
		c-1.8-1.5-12.4-10.4-15.6-17.1c-0.6-1.3-1.3-2.8-2.1-4.5c-3.8-8.3-9.1-19.6-12.8-22.6c-3.9-3.2-8.6-13.8-8.1-18.3
		c0-0.4-0.3-0.8-0.7-0.9c-0.4-0.1-0.8,0.3-0.9,0.7c-0.6,5.1,4.3,16.2,8.7,19.8c3.4,2.7,8.8,14.3,12.3,22c0.8,1.6,1.5,3.2,2.1,4.5
		c1.6,3.3,4.9,7.1,8.1,10.4c-18.5-14.1-31.6-35-35.2-58.2c-0.1-0.4-0.5-0.7-0.9-0.7c-0.4,0.1-0.7,0.5-0.7,0.9
		c1.2,7.8,3.5,15.3,6.7,22.5c-0.5-0.1-1.1-0.1-1.6,0.1c-2.9,1-3.2,8-3.2,15.1c0,0.9,0,1.6,0,2.1c-0.1,1.6-0.9,4-1.7,6.2
		c-0.6,1.7-1.2,3.3-1.3,4.5c-0.3,2.2-0.1,4,0.1,6c0.2,1.3,0.3,2.7,0.4,4.3c0.1,2.3,0.2,4.5,0.4,6.7c0.2,2,0.3,4,0.4,6.4
		c0.2,4.8-3.9,10.7-3.9,10.7c0,0-0.1,0.1-0.1,0.2c-1.7-0.5-2.9-0.7-3.3-0.7c-0.7,0.1-1.8,0.2-11.4,16.3c-4.7,7.8-9.1,15.6-9.2,15.7
		c-0.2,0.4-0.1,0.9,0.3,1.1c0.4,0.2,0.9,0.1,1.1-0.3c8.1-14.3,17.7-30,19.5-31.2c2.4,0.1,26.6,8.7,29.7,10.3
		c0,1.9-2.2,11.7-4.2,20.3c-0.1,0.4,0.2,0.9,0.6,1c0.1,0,0.1,0,0.2,0c0.4,0,0.7-0.2,0.8-0.6c0-0.1,1.2-5.1,2.4-10.3
		c2.4-10.8,2-11.1,1.6-11.5c-0.1-0.1-1-0.5-2.4-1.1c0.2-0.3,0.3-0.5,0.4-0.7c0.3-0.6,0.6-1.3,1.8-2.9c4.6-6.1,9.8-10.2,12.5-12
		c5-3.5,7.7-8.7,9.5-12.4c4.8,2.7,9.9,5.1,15.1,6.9c0.1,0,0.2,0,0.3,0c0.3,0,0.6-0.2,0.8-0.5c0.1-0.4-0.1-0.9-0.5-1
		c-1.7-0.6-3.4-1.3-5.1-2c0,0,0,0-0.1,0c-4.5-2.9-11.9-8.4-12.5-10.6c-0.3-1.2-0.9-2.4-1.4-3.5c-0.4-1-1-2.3-1.1-2.9
		c0.3,0,0.7-0.2,0.9-0.4c0.7-0.8,0.5-2.3,0-5.2c-0.4-2.8-1-6.2,0-7.8c0.6-1,1.2-1.4,1.7-1.8c1.5-1,2.1-1.9,1.4-6.5
		c-0.2-1-0.3-1.9-0.5-2.8c-0.9-5.2-1.4-8.4,1.1-11.1c1.2-1.4,1.1-3.8-0.5-6.8c-2.3-4.5-8-10.7-12.3-10.2c-2.9,0.4-4.8,0.6-5.3,0.2
		c-0.2-0.1-0.3-0.5-0.3-1.2c0-0.6,0.1-1.5,0.3-2.5c0.4-2.6,1-6.2-1.6-8.4c-1-0.8-1.8-1.2-2.5-1.6c-1.6-0.9-2.6-1.5-3.8-4.9
		c-1.5-4.3-2.2-5.5-3.3-5.8c-0.8-0.2-1.4,0.3-1.8,0.6c-0.5,0.5-0.5,0.5-1.5-0.6c-0.2-0.2-0.4-0.5-0.7-0.7l-0.2-0.2
		c-0.9-0.9-1.6-1.6-2.4-1.4c-0.8,0.1-1.3,0.8-1.9,1.8c-0.7,1.2-1.9,1.7-2.4,1.6c-0.1,0-0.2-0.3-0.1-0.5c0.1-1,0.3-2.3,0.6-3.6
		c0.3-1.4,0.6-2.8,0.7-4.1c0.1-1.8-1.1-2.5-1.8-2.9c-0.1-0.1-0.3-0.2-0.4-0.3c0.1-0.4,0.2-0.9,0.3-1.7c0.3-1.7,0.9-6.1,2.2-6.4
		c0.6-0.1,1-0.3,1.3-0.5c0.1,0,0.2-0.1,0.3-0.1c0.3,0.6,0.7,2.9,0.8,3.7c0.3,1.6,0.6,3.1,1.8,3c1.7-0.1,2.2-5.2,2.2-5.2
		c0,0,0-0.1,0-0.2c0.4-3.2-0.5-5.7-2.7-7.4c-2-1.6-2.5-1.9-2.6-2c0.9-2.1,2-4.2,3.1-6.2c0.8-0.3,1.7-0.3,1.8-0.2c0,0,0,0.1-0.1,0.5
		c-0.9,2.7-0.6,6.5,0.4,7.3c0.1,0.1,0.4,0.2,0.6,0.2c0.1,0,0.1,0,0.2,0c0.6-0.1,0.7-0.5,1.6-2.7c2-4.7,6.6-15.9,14.1-18.6
		c7.8-2.8,8.7-3.8,9.5-4.8c0.2-0.3,0.4-0.5,0.9-0.8c1.4-1,1.1-2.1,0.9-2.8c-0.2-0.7-0.3-1.1,0.4-2c1.1-1.2,2.6-1.6,4.2-2.1
		c1.2-0.3,2.5-0.7,3.5-1.4c1.4-1,1.7-1.9,1.9-2.8c0.2-0.7,0.3-1.3,1-2c1.2-1.2,1.3-2,0.4-2.9c-0.2-0.3-0.3-0.3-0.2-0.6
		c0.2-0.5,0.9-1.1,1.5-1.5c0.9-0.6,2-1.5,1.5-2.7c0-0.1-0.1-0.2-0.2-0.4c5.7-2.5,11.6-4.4,17.8-5.6c-3.4,1.8-7.6,4.2-9,5.7
		c-0.6,0.7-1.2,1.2-1.7,1.7c-1.4,1.3-2.5,2.3-1.7,3.8c0.1,0.3,0.4,0.5,0.7,0.6c0.1,0,0.2,0,0.4,0c1.1,0,2.7-1,6.2-3.3
		c2-1.3,4.5-3,5.5-3.2c0.5-0.1,1.1-0.2,1.8-0.3c4-0.6,7.4-1.1,8.6-2.2c0.5-0.5,1.1-0.9,1.6-1.2c0.9-0.6,1.7-1.1,1.9-2.1
		c0.1-0.5,0.1-0.9,0.1-1.3c1.1,0,2.3-0.1,3.5-0.1c6,0,12.1,0.6,18.1,1.8c0.2,0.7,0.4,1.9,0.1,2.7c-0.4,1-0.4,1-2.7,0.6
		c-1.1-0.2-2.8-1-4.3-1.7c-1.6-0.8-3-1.5-3.9-1.5c0,0,0,0-0.1,0c-1.4,0-1.4,1.3-1.5,2c0,1.1-0.1,2.5-1.7,4c-3.4,3.2-3,6.8-2.3,8.1
		c0.8,1.4,2.5,0.8,3.7,0.4l0.2-0.1c0.4,0.2,1,1.5,1.3,2c0.5,1,0.7,1.4,1.1,1.6c0.4,0.2,0.9,0.2,1.4,0c0.6-0.3,1.1-0.8,1.3-1.4
		c0.1-0.4,0-0.9-0.1-1.5c-0.1-0.3-0.2-0.7-0.2-0.9c0.5-0.4,0.9-0.9,0.9-1.5c0.1-0.6-0.1-1.6-1.2-2.7c-0.5-0.5-0.5-1.3-0.4-2
		c0.1-0.6,0.3-1,0.5-1.1c0.2,0.1,0.3,0.6,0.5,1.1c0.3,1,0.8,2.3,2.2,2.9c0.7,0.3,1.1,0.5,1.2,0.6c0,0.1-0.1,0.5-0.2,0.9
		c0,0.1-0.1,0.3-0.1,0.5c-0.2,0.7-0.3,1.4-0.4,2c-0.1,1.1-0.2,2.1-1,3.2c-0.8,1.2-3.8,1.1-5.8,1.1c-0.6,0-1.1,0-1.5,0
		c-2,0.1-2.5,0.6-3.6,2.1c-0.3,0.3-0.6,0.7-0.9,1.2c-0.9,1.1-2.4,1.8-3.8,2.5c-1.7,0.9-3.3,1.6-3.4,2.9c-0.1,1.3,0.7,1.9,1.3,2.4
		c0.7,0.5,1.3,1,1.5,2.2c0.1,0.4-0.1,0.6-0.1,0.6c-0.5,0.6-2.6,0.4-3.8,0.3c-0.5,0-1-0.1-1.4-0.1c-1.1,0-1.8,0.3-2.3,0.8
		c-0.7,0.8-0.7,2-0.6,3c0.1,0.6-0.1,1.2-0.3,1.9c-0.4,1.4-0.8,3.1,0.5,4.7c1.5,1.8,3.6,1.2,5.5,0.7c0.7-0.2,1.4-0.4,2.1-0.5
		c1.6-0.2,2.7-1.8,4-3.6c1.1-1.7,2.4-3.5,4.1-4.3c1.4-0.7,3.9,1.8,5.9,3.7c2.5,2.4,4.8,4.7,6.7,3.2c0.4-0.4,0.7-0.8,0.7-1.3
		c0-1.5-1.7-3.1-3.8-5c-1.3-1.2-3.2-2.9-3.2-3.6c0,0,0.1-0.1,0.1-0.1c0.1,0,0.2-0.1,0.4-0.1c1.9,0.4,5.2,5.5,7.3,8.6
		c1.2,1.7,2,3,2.5,3.5c0.8,0.8,1.9,0.9,2.8,0.2c1.3-1,1.8-3.5,0.5-5.7c-1.2-2.1-0.4-4,0.4-5.7c0.2-0.4,0.3-0.7,0.4-1.1
		c0.1-0.3,0.2-0.3,0.2-0.3c0.3-0.1,1.3,0.6,1.9,0.9c0.4,0.2,0.7,0.5,1.1,0.7c0.8,0.4,1.5,0.5,2.1,0.2c1.1-0.5,1.4-2.1,1.6-3.2l0-0.2
		c0-0.1,0-0.2,0.1-0.3c0.3,0.1,1,0.3,1.7,0.5c0.4,0.1,0.8,0.3,1.3,0.4c1.7,0.5,2.8,2.1,3.2,3.3c0.2,0.7,0.2,1.2,0.2,1.4
		c0,0,0,0-0.1,0c-2.3-0.7-9.4,0.3-11.2,1.3c-0.4,0.2-0.7,0.5-0.7,0.8c-0.2,0.9-0.2,4.5,1.4,6.5c0.7,0.9,1.7,1.3,2.8,1.3
		c0.8,0,1.6-0.2,2.3-0.3c2.1-0.4,3.1-0.5,4.3,2.8c0.4,1.1,0.3,1.9-0.3,2.5c-1.5,1.5-5.7,1.3-7.7,0.5c-2.5-1-3.8-0.5-5.5,0.1
		c-0.6,0.2-1.2,0.4-1.9,0.6c-2.1,0.6-8.7-4.6-11.5-7.4c-2-2-14.8-1.1-18.2,1.4c-2,1.5-4.1,4.5-6.8,8.4c-1.8,2.6-3.8,5.6-6.1,8.5
		c-5.8,7.1-3.7,16-3.6,16.4c0.1,0.2,0.2,0.4,0.4,0.5c1,6.9,8,19.3,20.3,18.5c7.8-0.5,12.1-0.1,13.7,1.4c0.6,0.6,1,1.4,1,2.5
		c0.1,3,0.8,5.4,1.8,8.5c0.4,1.3,0.9,2.9,1.3,4.6c0.5,1.8,0.2,5.5-0.2,9.9c-0.7,8.5-1.6,19.1,2.8,23.7c1.3,1.4,3,2.2,4.9,2.2
		c0.5,0,1-0.1,1.5-0.2C222.4,176.2,229.1,168.3,230.5,164.6z M120.7,170.8c-2.4,2.6-5.3,4.2-6.3,4.5c-0.1-0.7,0.1-2.4,0.2-3.8
		c0.2-3,0.5-6.7,0-9.5c0-0.2-0.1-0.3-0.1-0.5C116.3,164.7,118.4,167.8,120.7,170.8z M138.4,206.5c-2.8,1.9-8.1,6.1-12.8,12.4
		c-1.3,1.7-1.6,2.4-2,3.1c-0.1,0.3-0.3,0.5-0.4,0.8c-5.7-2.2-16.2-6-22.5-8c0.9-1.3,4.3-6.7,4-11.4c-0.1-2.4-0.3-4.5-0.4-6.5
		c-0.2-2.3-0.3-4.4-0.4-6.7c0-1.7-0.2-3.2-0.4-4.5c-0.2-1.9-0.4-3.6-0.1-5.6c0.1-1,0.7-2.5,1.3-4.2c0.8-2.4,1.7-4.8,1.8-6.6
		c0-0.5,0-1.2,0-2.1c0-3.2,0-12.9,2.1-13.6c0.4-0.2,0.8-0.1,1.2,0.1c0.9,0.5,2.2,2.5,3.2,8.5c0.4,2.6,0.2,6.2,0,9.1
		c-0.2,3.3-0.3,4.5,0.2,5.1c0.1,0.2,0.4,0.4,0.9,0.4c0,0,0,0,0,0c1.6,0,5.1-2.3,7.6-4.8c0.6,0.8,1.3,1.6,2,2.4
		c6.8,8,14.9,14.9,23.8,20.2C145.7,198.2,143.1,203.2,138.4,206.5z M111,79.6l2.2,1.7c2.6,2,2.2,5,2.1,5.9c0,0.2,0,0.3,0,0.3
		c0,0.4-0.3,1.9-0.6,2.9c-0.1-0.2-0.1-0.5-0.2-0.9c-0.6-3.6-0.9-4.5-1.7-4.9c-0.6-0.3-1.2-0.1-1.7,0.2c-0.3,0.1-0.6,0.3-1,0.4
		c-0.8,0.2-1.4,0.8-1.9,1.8C108.9,84.4,109.9,82,111,79.6C110.9,79.6,111,79.6,111,79.6z M157,32.3c0,0.1,0.1,0.2,0.2,0.3
		c-0.1,0.2-0.6,0.6-1,0.8c-0.8,0.6-1.7,1.3-2.1,2.3c-0.3,1.2,0.3,1.8,0.6,2.1c0,0,0.1,0.1,0.1,0.1c0,0.1-0.2,0.3-0.5,0.6
		c-1,1-1.3,2-1.5,2.7c-0.2,0.7-0.3,1.2-1.2,1.9c-0.8,0.6-1.9,0.9-3,1.2c-1.7,0.5-3.6,1-5,2.5c-1.4,1.5-1,2.7-0.8,3.5
		c0.2,0.6,0.2,0.7-0.3,1c-0.6,0.4-0.9,0.8-1.2,1.1c-0.7,0.8-1.4,1.6-8.8,4.3c-8.2,3-13,14.5-15,19.5c-0.1,0.1-0.1,0.3-0.2,0.4
		c-0.1-1.1,0-2.7,0.4-4.1c0.4-1.1,0.1-1.8-0.3-2.1c-0.5-0.5-1.2-0.6-1.9-0.5C125.2,53.4,139.7,40.2,157,32.3
		C157,32.3,157,32.3,157,32.3z M189,25.3c-0.1,0.3-0.7,0.7-1.2,1c-0.6,0.4-1.2,0.8-1.8,1.4c-0.9,0.9-5.4,1.5-7.8,1.8
		c-0.7,0.1-1.4,0.2-1.9,0.3c-1.3,0.2-3.6,1.8-6.1,3.4c-1.6,1.1-4,2.6-5,3c0-0.3,0.4-0.7,1.4-1.6c0.5-0.5,1.1-1,1.8-1.7
		c1.8-1.9,9.3-5.8,13.2-7.7c2.5-0.3,5-0.6,7.5-0.7C189.1,24.6,189.1,24.9,189,25.3z"/>
	<path class="st0" d="M239.3,165.8c0.3,0.3,0.6,0.4,1,0.4c1.4,0,3.1-2.2,5.6-5.8l0.4-0.5c2.1-3,3.5-9.4,2.7-11
		c-0.3-0.6-1-0.8-1.6-0.4c-0.9,0.7-1.9,1.7-3.3,3.4c-0.7,0.8-1.5,1.8-2.6,2.9c-3,3.3-2.9,7.9-2.9,8.4
		C238.7,164.5,238.9,165.3,239.3,165.8z M242.7,155.8c1-1.1,1.9-2.1,2.6-2.9c0.9-1.1,1.7-1.9,2.3-2.5c-0.1,1.8-0.9,6.1-2.7,8.6
		l-0.4,0.5c-1.1,1.5-3.2,4.6-4.2,5.1c-0.1-0.2-0.1-0.6-0.1-1.4c0,0,0,0,0-0.1C240.3,163,240.1,158.7,242.7,155.8z"/>
	<path class="st0" d="M151.7,46.6c-0.1,0-3.2,0-3.9,2.1c-0.1,0.4-0.3,0.7-0.5,0.9c-0.2,0.3-0.5,0.8-0.3,1.3c0.3,0.6,1,0.8,2.2,0.9
		c0.4,0.1,0.8,0.1,1.2,0.1c0,0,0,0,0,0c1.2,0,2.3-0.3,3.2-0.7c1-0.5,1.6-1.2,1.6-2c0-1.5-2.3-2.3-3.2-2.6
		C151.8,46.6,151.8,46.6,151.7,46.6z M153.5,49.2c-0.1,0.3-1.3,1.1-3.2,1.1c-0.3,0-0.6,0-0.9-0.1c-0.3,0-0.5-0.1-0.6-0.1
		c0.2-0.3,0.3-0.6,0.5-1c0.3-0.8,1.7-1,2.3-1.1C152.5,48.5,153.4,49,153.5,49.2z"/>
	<path class="st0" d="M310.5,245.7c0-0.1-3.6-7-7.4-13.9c-7.9-14.2-9-14.4-9.6-14.5c-0.4-0.1-1.7,0.2-3.5,0.7
		c-0.4-0.6-0.8-1.4-1.4-2.3c-2.3-3.7-6-10-7.2-13.3c-1.1-3.1,0-11.1,0.7-16c0.3-1.8,0.4-3.2,0.5-3.9c0-0.7,0-1.4,0-2.2
		c0-2.4,0-5.6,0.6-10.4c0.6-4.3,0.2-6-0.1-7.4c-0.1-0.7-0.3-1.3-0.2-2.1c0.3-6.9-0.8-8.1-1.2-8.5c-0.3-0.4-0.8-0.6-1.2-0.6
		c-0.6,0-1.1,0.1-1.6,0.4c1.9-4.4,3.5-9,4.8-13.7c0.1-0.4-0.1-0.9-0.6-1c-0.4-0.1-0.9,0.1-1,0.6c-7.8,30.1-31.1,54.5-60.8,63.7
		c-0.4,0.1-0.7,0.6-0.5,1c0.1,0.3,0.4,0.6,0.8,0.6c0.1,0,0.2,0,0.2,0c6.7-2.1,13-4.9,19.1-8.4c1.2,3.3,2.7,6.3,3.7,8.1
		c0.2,0.3,0.3,0.6,0.4,0.8c2.8,5.6,10.2,13.6,14.9,16.1c3.8,2,5,6.2,5.2,7c-2.2,0.9-3.6,1.5-3.8,1.7c-0.4,0.4-0.7,0.7,0.9,9.5
		c0.8,4.2,1.7,8.3,1.7,8.3c0.1,0.4,0.4,0.6,0.8,0.6c0.1,0,0.1,0,0.2,0c0.4-0.1,0.7-0.5,0.6-0.9c-1.5-7-2.9-14.8-2.9-16.4
		c2.5-1.3,19.9-7.4,27.5-9.7c0,0,0,0,0,0c1.7-0.5,2.9-0.8,3.4-0.8c1.7,1.1,9.4,14.9,15.9,27.5c0.2,0.4,0.7,0.5,1.1,0.3
		C310.6,246.6,310.7,246.1,310.5,245.7z M273.3,162.4c-0.4,2-0.7,3.9-0.8,4.8c-0.1,1.3-0.9,6.1-1.3,8.1c-0.6-0.3-1.6-1.1-2.8-3
		c-0.1-0.2-0.2-0.4-0.3-0.5c-0.2-0.4-0.3-0.6-0.6-0.9C269.7,168.1,271.6,165.3,273.3,162.4z M260.4,218.4
		c-4.4-2.4-11.6-10.2-14.3-15.4c-0.1-0.2-0.3-0.5-0.4-0.8c-1-1.9-2.6-5-3.7-8.2c6.9-4.2,13.2-9.3,18.8-15.1c2-2.1,4-4.3,5.8-6.6
		c0.1,0.1,0.1,0.2,0.2,0.4c0.1,0.1,0.2,0.3,0.3,0.5c2.3,4,4.6,4,4.8,4c0.4,0,0.7-0.3,0.8-0.7c0.1-0.3,1.3-7.4,1.4-9.1
		c0.1-1.5,1.1-7,2.3-9.8c0.9-1.9,2.2-4.2,3.8-4.2c0,0,0,0,0.1,0c0,0,0,0,0.1,0.1c0.2,0.3,1,1.6,0.8,7.3c0,1,0.1,1.7,0.3,2.5
		c0.3,1.3,0.6,2.9,0.1,6.9c-0.6,4.9-0.6,8.2-0.6,10.6c0,0.8,0,1.5,0,2.1c0,0.6-0.2,2-0.4,3.7c-0.7,5.3-1.8,13.3-0.6,16.7
		c1.2,3.4,4.9,9.5,7.4,13.5c0.5,0.8,0.9,1.4,1.2,2c-6.1,1.8-16,5.3-22.1,7.6C266,224.9,264.5,220.6,260.4,218.4z"/>
</g>
<g>
	<g>
		<path class="st0" d="M19.6,72.3v-0.4c0-0.5-0.2-1.2-1.2-1.2l-1.2,0v4h0.8v-1.2h0.3C19.3,73.6,19.6,73.2,19.6,72.3z M18.1,71.6
			l0.3,0c0.4,0,0.4,0,0.4,0.4v0.4c0,0.4-0.1,0.4-0.4,0.4h-0.3V71.6z"/>
		<path class="st0" d="M20.6,70.8h-0.3l-1.1,4h0.9l0.2-0.7H21l0.2,0.7h0.9l-0.2-0.7c0.2,0.4,0.6,0.7,1.2,0.7h0.1
			c0.8,0,1.2-0.4,1.2-1.3c0-0.7-0.4-1.1-1-1.2l-0.1,0c-0.5,0-0.6-0.1-0.6-0.3c0-0.3,0-0.4,0.4-0.4c0.3,0,0.4,0.1,0.4,0.3l0,0.2h0.9
			l0-0.2c0-0.7-0.5-1.1-1.2-1.1c-0.8,0-1.3,0.4-1.3,1.2c0,0.7,0.4,1.1,1.1,1.1l0,0c0.5,0,0.6,0.1,0.6,0.4c0,0.4-0.1,0.4-0.4,0.4
			h-0.1c-0.3,0-0.4-0.1-0.4-0.4l0-0.2h-0.9l0,0.2c0,0.1,0,0.1,0,0.2l-0.8-3H20.6L20.6,70.8z M20.5,73.3l0.2-0.7l0.2,0.7H20.5z"/>
		<path class="st0" d="M26.1,72.3l-0.1,0c-0.5,0-0.6-0.1-0.6-0.3c0-0.3,0-0.4,0.4-0.4c0.3,0,0.4,0.1,0.4,0.3l0,0.2H27l0-0.2
			c0-0.7-0.5-1.1-1.2-1.1c-0.8,0-1.3,0.4-1.3,1.2c0,0.7,0.4,1.1,1.1,1.1l0,0c0.5,0,0.6,0.1,0.6,0.4c0,0.4-0.1,0.4-0.4,0.4h-0.1
			c-0.3,0-0.4-0.1-0.4-0.4l0-0.2h-0.9l0,0.2c0,0.7,0.5,1.2,1.3,1.2h0.1c0.8,0,1.2-0.4,1.2-1.3C27.1,72.7,26.7,72.3,26.1,72.3z"/>
		<path class="st0" d="M28.4,70.8l-1.2,0v4h0.8v-1.2h0.3c0.8,0,1.2-0.4,1.2-1.2v-0.4C29.6,71.4,29.4,70.8,28.4,70.8z M28.1,71.6
			l0.3,0c0.4,0,0.4,0,0.4,0.4v0.4c0,0.4-0.1,0.4-0.4,0.4h-0.3V71.6z"/>
		<path class="st0" d="M31,70.7c-1.1,0-1.4,0.6-1.4,1.4v1.3c0,0.8,0.2,1.4,1.4,1.4c1.1,0,1.4-0.6,1.4-1.4v-1.3
			C32.4,71.3,32.2,70.7,31,70.7z M31.6,73.4c0,0.5,0,0.6-0.5,0.6c-0.5,0-0.5-0.1-0.5-0.6v-1.3c0-0.5,0-0.6,0.5-0.6
			c0.5,0,0.5,0.1,0.5,0.6V73.4z"/>
		<path class="st0" d="M34.8,70.8v0.4c-0.2-0.2-0.5-0.4-1-0.4l-1.2,0v4h0.8v-1.3h0.1l0.7,1.3h1l-0.8-1.4c0.5-0.2,0.6-0.7,0.6-1.1
			v-0.3c0-0.1,0-0.2,0-0.3h0.6v3.2h0.8v-3.2h0.7v-0.8H34.8z M33.5,71.6l0.3,0c0.4,0,0.4,0,0.4,0.4v0.3c0,0.4-0.1,0.4-0.4,0.4h-0.3
			V71.6z"/>
	</g>
	<path class="st0" d="M38.6,65.8H15.1c-0.4,0-0.8,0.4-0.8,0.8v31c0,0.4,0.4,0.8,0.8,0.8h23.5c0.4,0,0.8-0.4,0.8-0.8v-31
		C39.4,66.1,39,65.8,38.6,65.8z M37.8,96.8H15.9V67.4h21.9V96.8z"/>
	<path class="st0" d="M26.8,77.1c-2.3,0-4.4,0.9-5.9,2.3c0,0-0.1,0.1-0.1,0.1c-1.6,1.6-2.7,3.8-2.7,6.3c0,4.8,3.9,8.7,8.7,8.7
		c0,0,0,0,0,0l0,0h0c4.8,0,8.7-3.9,8.7-8.7S31.6,77.1,26.8,77.1z M32.3,90.5c-0.3-0.2-0.6-0.4-1-0.6c0.6-1,1.1-2.1,1.2-3.3h1.5
		C33.8,88.1,33.2,89.4,32.3,90.5z M19.8,86.6h1.3c0.2,1.2,0.6,2.3,1.2,3.3c-0.4,0.2-0.7,0.4-0.9,0.5C20.5,89.4,19.9,88.1,19.8,86.6z
		 M21.5,81.1c0.2,0.1,0.5,0.3,0.9,0.5c-0.6,1-1.1,2.2-1.3,3.4h-1.3C19.9,83.6,20.6,82.2,21.5,81.1z M26,79.8V81
		c-0.4,0-0.7-0.1-1-0.2C25.4,80.5,25.7,80.1,26,79.8z M26,82.6V85h-3.3c0.2-1,0.6-2,1.2-2.8C24.5,82.4,25.3,82.6,26,82.6z M26,86.6
		v2.3c-0.8,0.1-1.6,0.2-2.2,0.4c-0.5-0.8-0.9-1.7-1.1-2.7H26z M26,90.5V92c-0.4-0.4-0.8-0.8-1.2-1.3C25.2,90.6,25.6,90.6,26,90.5z
		 M27.6,91.7v-1.2c0.4,0,0.7,0.1,1,0.2C28.3,91.1,28,91.4,27.6,91.7z M27.6,88.9v-2.3h3.2c-0.2,1-0.6,1.9-1.1,2.7
		C29.1,89.1,28.4,89,27.6,88.9z M27.6,85v-2.4c0.7-0.1,1.4-0.2,2-0.4c0.5,0.8,1,1.8,1.2,2.8H27.6z M27.6,81v-1.1
		c0.3,0.3,0.6,0.6,1,1C28.3,80.9,28,81,27.6,81z M29.2,79.1c0.6,0.2,1.2,0.5,1.8,0.9c-0.2,0.1-0.4,0.2-0.7,0.3
		C29.9,79.9,29.5,79.5,29.2,79.1z M23.4,80.3c-0.2-0.1-0.4-0.2-0.6-0.3c0.5-0.4,1.1-0.6,1.7-0.9C24.1,79.5,23.7,79.9,23.4,80.3z
		 M23.2,91.3c0.3,0.4,0.7,0.8,1,1.2c-0.6-0.2-1.1-0.5-1.6-0.9C22.8,91.5,23,91.4,23.2,91.3z M30.3,91.2c0.3,0.1,0.5,0.3,0.7,0.4
		c-0.6,0.5-1.3,0.8-2,1C29.4,92.2,29.8,91.8,30.3,91.2z M32.4,85c-0.2-1.2-0.6-2.4-1.2-3.4c0.4-0.2,0.7-0.4,1-0.5
		c0.9,1.1,1.6,2.4,1.8,3.9H32.4z"/>
</g>
<g>
	<path class="st0" d="M302.9,144.4l-9.8-9.6c-0.1-0.1-0.3-0.2-0.4-0.2l-1.4-0.2l-0.5-0.5c2.1-2.3,3.4-5.4,3.4-8.7
		c0-3.6-1.3-7-3.8-9.5c-2.5-2.6-5.9-4-9.4-4l-0.2,0c-7.3,0-13.3,5.9-13.4,13.2c-0.1,7.4,5.8,13.5,13.2,13.6l0.2,0
		c2.6,0,5.1-0.8,7.1-2.1l0.8,0.8l0,1.3c0,0.2,0.1,0.4,0.2,0.5l8.8,10.3c0.1,0.2,0.3,0.3,0.6,0.3c0,0,0,0,0,0c0.2,0,0.4-0.1,0.5-0.2
		l4.1-3.7c0.2-0.1,0.3-0.4,0.3-0.6C303.2,144.7,303.1,144.5,302.9,144.4z M280.6,136.8c-6.5-0.1-11.8-5.5-11.7-12
		c0.1-6.4,5.4-11.7,11.8-11.7l0.2,0c3.2,0,6.1,1.3,8.3,3.6c2.2,2.3,3.4,5.2,3.4,8.4c-0.1,6.4-5.4,11.7-11.8,11.7L280.6,136.8z
		 M298.4,147.5l-8.1-9.4l0-1.3c0-0.2-0.1-0.4-0.2-0.6l-0.8-0.8c0.1-0.1,0.3-0.2,0.4-0.4l0.7,0.7c0.1,0.1,0.3,0.2,0.4,0.2l1.4,0.2
		l9,8.8L298.4,147.5z"/>
	<path class="st0" d="M280.9,114l-0.1,0c-6,0-10.9,4.9-11,10.8c0,2.9,1.1,5.7,3.1,7.8c2,2.1,4.8,3.3,7.7,3.3l0.1,0
		c6,0,10.9-4.9,11-10.8C291.8,119.1,287,114.1,280.9,114z M280.8,134.3l-0.1,0c-2.5,0-4.8-1-6.6-2.8c-1.7-1.8-2.7-4.2-2.7-6.7
		c0.1-5.1,4.3-9.2,9.4-9.2l0.1,0c5.2,0.1,9.3,4.3,9.2,9.5C290.1,130.2,285.9,134.3,280.8,134.3z"/>
	<path class="st0" d="M273.8,123.5c0-0.4-0.3-0.8-0.8-0.8c-0.4,0-0.8,0.3-0.8,0.8c-0.2,2.6,0.6,5.2,2.1,7.4c0.2,0.2,0.4,0.3,0.7,0.3
		c0.2,0,0.3,0,0.5-0.1c0.4-0.3,0.4-0.8,0.2-1.1C274.4,128,273.7,125.7,273.8,123.5z"/>
</g>
<g>
	<path class="st0" d="M154.5,177.1c-2.3,0-4.2-0.4-4.3-0.5c-0.4-0.1-0.7-0.5-0.6-1c0.1-0.4,0.5-0.7,1-0.6c0,0,2.4,0.5,4.9,0.4
		c0.4,0,0.8,0.3,0.8,0.7c0,0.4-0.3,0.8-0.7,0.8C155.2,177.1,154.9,177.1,154.5,177.1z"/>
</g>
<g>
	<path class="st0" d="M160,176.5c-0.4,0-0.7-0.3-0.8-0.6c-0.1-0.4,0.2-0.9,0.6-0.9c0,0,4.5-0.9,6.5-1.8c0.4-0.2,0.9,0,1.1,0.4
		c0.2,0.4,0,0.9-0.4,1.1c-2.2,1-6.7,1.9-6.9,1.9C160.1,176.5,160.1,176.5,160,176.5z"/>
</g>
<g>
	<path class="st0" d="M170.8,173.3c-0.3,0-0.6-0.2-0.7-0.5c-0.2-0.4,0-0.9,0.4-1.1c0,0,3.8-1.8,5.2-3.4c0.3-0.3,0.8-0.4,1.1-0.1
		c0.3,0.3,0.4,0.8,0.1,1.1c-1.7,1.8-5.6,3.7-5.7,3.8C171,173.2,170.9,173.3,170.8,173.3z"/>
</g>
<g>
	<path class="st0" d="M175.6,222.9c0.2,0.4,0.6,0.8,1.1,1.1c0.1,0.1,0.3,0.2,0.6,0.2c0.1,0,0.1,0,0.2,0c0.1,0,0.1,0,0.2,0
		c0.2,0,0.4-0.1,0.6-0.2c0.6-0.3,0.9-0.8,1.1-1.1c0.3-0.5,0.5-0.7,0.9-0.7c0,0,0,0,0.1,0c0,0,0,0,0.1,0c0.5,0,0.6,0.2,0.9,0.7
		c0.4,0.5,0.9,1.3,2.1,1.3c0,0,0,0,0.1,0c0,0,0,0,0.1,0c1.2,0,1.8-0.8,2.1-1.3c0.3-0.5,0.5-0.7,0.9-0.7c0,0,0,0,0.1,0c0,0,0,0,0.1,0
		c0.5,0,0.6,0.2,0.9,0.7c0.4,0.5,0.9,1.3,2.1,1.3c0.4,0,0.8-0.4,0.8-0.8c0-0.4-0.4-0.8-0.8-0.8c-0.3,0-0.4-0.1-0.8-0.6
		c-0.4-0.6-0.9-1.4-2.3-1.4c0,0,0,0-0.1,0c0,0,0,0-0.1,0c-1.3,0-1.9,0.8-2.3,1.4c-0.3,0.5-0.4,0.6-0.8,0.6c0,0,0,0-0.1,0
		c0,0,0,0-0.1,0c-0.3,0-0.4-0.1-0.8-0.6c-0.4-0.6-0.9-1.4-2.3-1.4c0,0,0,0-0.1,0c0,0,0,0-0.1,0c-1.3,0-1.9,0.8-2.3,1.4
		c-0.2,0.4-0.4,0.5-0.6,0.6c-0.2-0.1-0.3-0.2-0.6-0.6c-0.4-0.6-0.9-1.4-2.3-1.4c0,0,0,0-0.1,0c0,0,0,0-0.1,0c-1.3,0-1.9,0.8-2.3,1.4
		c-0.3,0.5-0.4,0.6-0.8,0.6c0,0,0,0,0,0c0,0,0,0,0,0c-0.3,0-0.4-0.1-0.8-0.6c-0.4-0.6-0.9-1.4-2.3-1.4c0,0,0,0-0.1,0c0,0,0,0-0.1,0
		c-1.3,0-1.9,0.8-2.3,1.4c-0.3,0.5-0.4,0.6-0.8,0.6c0,0,0,0-0.1,0c0,0,0,0-0.1,0c-0.3,0-0.4-0.1-0.8-0.6c-0.4-0.6-0.9-1.4-2.3-1.4
		c0,0,0,0-0.1,0c0,0,0,0-0.1,0c-1.3,0-1.9,0.8-2.3,1.4c-0.2,0.4-0.4,0.5-0.6,0.6c-0.2-0.1-0.3-0.2-0.6-0.6c-0.4-0.6-0.9-1.4-2.3-1.4
		c0,0,0,0-0.1,0c0,0,0,0-0.1,0c-1.3,0-1.9,0.8-2.3,1.4c-0.3,0.5-0.4,0.6-0.8,0.6c-0.4,0-0.8,0.4-0.8,0.8c0,0.4,0.4,0.8,0.8,0.8
		c1.2,0,1.8-0.8,2.1-1.3c0.3-0.5,0.5-0.7,0.9-0.7c0,0,0,0,0.1,0c0,0,0,0,0.1,0c0.5,0,0.6,0.2,0.9,0.7c0.2,0.4,0.6,0.8,1.1,1.1
		c0.1,0.1,0.3,0.2,0.6,0.2c0.1,0,0.1,0,0.2,0c0.1,0,0.1,0,0.2,0c0.2,0,0.4-0.1,0.6-0.2c0.6-0.3,0.9-0.8,1.1-1.1
		c0.3-0.5,0.5-0.7,0.9-0.7c0,0,0,0,0.1,0c0,0,0,0,0.1,0c0.5,0,0.6,0.2,0.9,0.7c0.4,0.5,0.9,1.3,2.1,1.3c0,0,0,0,0.1,0c0,0,0,0,0.1,0
		c1.2,0,1.8-0.8,2.1-1.3c0.3-0.5,0.5-0.7,0.9-0.7c0,0,0,0,0.1,0c0,0,0,0,0.1,0c0.5,0,0.6,0.2,0.9,0.7c0.4,0.5,0.9,1.3,2.1,1.3
		c0,0,0,0,0,0c0,0,0,0,0,0c1.2,0,1.8-0.8,2.1-1.3c0.3-0.5,0.5-0.7,0.9-0.7c0,0,0,0,0.1,0c0,0,0,0,0.1,0
		C175.1,222.2,175.2,222.4,175.6,222.9z"/>
	<path class="st0" d="M200.8,227.5c-0.3,0-0.4-0.1-0.8-0.6c-0.4-0.6-0.9-1.4-2.3-1.4c0,0,0,0-0.1,0c0,0,0,0-0.1,0
		c-1.3,0-1.9,0.8-2.3,1.4c-0.3,0.5-0.4,0.6-0.8,0.6c-0.3,0-0.4-0.1-0.8-0.6c-0.4-0.6-0.9-1.4-2.3-1.4c0,0,0,0-0.1,0c0,0,0,0-0.1,0
		c-1.3,0-1.9,0.8-2.3,1.4c-0.3,0.5-0.4,0.6-0.8,0.6c0,0-0.1,0-0.1,0c0,0-0.1,0-0.1,0c-0.3,0-0.4-0.1-0.8-0.6
		c-0.4-0.6-0.9-1.4-2.3-1.4c0,0,0,0-0.1,0c0,0,0,0-0.1,0c-1.3,0-1.9,0.8-2.3,1.4c-0.3,0.5-0.4,0.6-0.8,0.6c-0.3,0-0.4-0.1-0.8-0.6
		c-0.4-0.6-0.9-1.4-2.3-1.4c0,0,0,0-0.1,0c0,0,0,0-0.1,0c-1.3,0-1.9,0.8-2.3,1.4c-0.3,0.5-0.4,0.6-0.8,0.6c-0.4,0-0.8,0.4-0.8,0.8
		c0,0.4,0.4,0.8,0.8,0.8c1.2,0,1.8-0.8,2.1-1.3c0.3-0.5,0.5-0.7,0.9-0.7c0,0,0,0,0.1,0c0,0,0,0,0.1,0c0.5,0,0.6,0.2,0.9,0.7
		c0.3,0.5,0.9,1.3,2.1,1.3c0,0,0,0,0,0c0,0,0,0,0,0c0,0,0,0,0,0c0,0,0,0,0,0c1.2,0,1.7-0.8,2.1-1.3c0.3-0.5,0.5-0.7,0.9-0.7
		c0,0,0,0,0.1,0c0,0,0,0,0.1,0c0.5,0,0.6,0.2,0.9,0.7c0.4,0.5,0.9,1.3,2.1,1.3c0,0,0.1,0,0.1,0c0,0,0.1,0,0.1,0
		c1.2,0,1.8-0.8,2.1-1.3c0.3-0.5,0.5-0.7,0.9-0.7c0,0,0,0,0.1,0c0,0,0,0,0.1,0c0.5,0,0.6,0.2,0.9,0.7c0.3,0.5,0.9,1.3,2.1,1.3
		c0,0,0,0,0,0c0,0,0,0,0,0c0,0,0,0,0,0c0,0,0,0,0,0c1.2,0,1.7-0.8,2.1-1.3c0.3-0.5,0.5-0.7,0.9-0.7c0,0,0,0,0.1,0c0,0,0,0,0.1,0
		c0.5,0,0.6,0.2,0.9,0.7c0.4,0.5,0.9,1.3,2.1,1.3c0.4,0,0.8-0.4,0.8-0.8C201.6,227.9,201.3,227.5,200.8,227.5z"/>
	<path class="st0" d="M152.5,219.6C152.5,219.6,152.5,219.6,152.5,219.6C152.5,219.6,152.5,219.6,152.5,219.6
		C152.5,219.6,152.5,219.6,152.5,219.6c1.2,0,1.8-0.8,2.1-1.3c0.3-0.5,0.5-0.7,0.9-0.7c0,0,0,0,0.1,0c0,0,0,0,0.1,0
		c0.5,0,0.6,0.2,0.9,0.7c0.4,0.5,0.9,1.3,2.1,1.3c0.4,0,0.8-0.4,0.8-0.8c0-0.4-0.4-0.8-0.8-0.8c-0.3,0-0.4-0.1-0.8-0.6
		c-0.4-0.6-0.9-1.4-2.3-1.4c0,0,0,0-0.1,0c0,0,0,0-0.1,0c-1.3,0-1.9,0.8-2.3,1.4c-0.3,0.5-0.4,0.6-0.8,0.6c-0.3,0-0.4-0.1-0.8-0.6
		c-0.4-0.6-0.9-1.4-2.3-1.4c0,0,0,0-0.1,0c0,0,0,0-0.1,0c-1.3,0-1.9,0.8-2.3,1.4c-0.3,0.5-0.4,0.6-0.8,0.6c-0.4,0-0.8,0.4-0.8,0.8
		c0,0.4,0.4,0.8,0.8,0.8c1.2,0,1.8-0.8,2.1-1.3c0.3-0.5,0.5-0.7,0.9-0.7c0,0,0,0,0.1,0c0,0,0,0,0.1,0c0.5,0,0.6,0.2,0.9,0.7
		C150.7,218.8,151.3,219.6,152.5,219.6C152.5,219.6,152.5,219.6,152.5,219.6z"/>
</g>
<g>
	<path class="st0" d="M186.8,203.7h8c0.4,0,0.8-0.4,0.8-0.8v-4.8c0-0.4-0.4-0.8-0.8-0.8h-8c-0.4,0-0.8,0.4-0.8,0.8v4.8
		C186,203.4,186.4,203.7,186.8,203.7z M187.6,199h6.4v3.2h-6.4V199z"/>
	<path class="st0" d="M207.2,202.9h4c0.4,0,0.8-0.4,0.8-0.8V199c0-0.4-0.4-0.8-0.8-0.8h-4c-0.4,0-0.8,0.4-0.8,0.8v3.2
		C206.4,202.6,206.7,202.9,207.2,202.9z M208,199.8h2.4v1.6H208V199.8z"/>
	<path class="st0" d="M214,202.9h3.6c0.4,0,0.8-0.4,0.8-0.8V199c0-0.4-0.4-0.8-0.8-0.8H214c-0.4,0-0.8,0.4-0.8,0.8v3.2
		C213.2,202.6,213.5,202.9,214,202.9z M214.8,199.8h2v1.6h-2V199.8z"/>
	<path class="st0" d="M213.2,205.3h4c0.4,0,0.8-0.4,0.8-0.8c0-0.4-0.4-0.8-0.8-0.8h-4c-0.4,0-0.8,0.4-0.8,0.8
		C212.4,205,212.7,205.3,213.2,205.3z"/>
	<path class="st0" d="M226.7,207.3c0-0.4-0.4-0.8-0.8-0.8h-4.4V195c0-0.4-0.4-0.8-0.8-0.8h-10.9l-2.6-6.3c-0.1-0.3-0.4-0.5-0.7-0.5
		h-2.1v-1.6c0-0.4-0.4-0.8-0.8-0.8h-2.4c-0.4,0-0.8,0.4-0.8,0.8v1.6h-4c-0.2,0-0.4,0.1-0.6,0.2l-6.5,6.5c0,0,0,0-0.1,0.1h-17.2
		c-0.4,0-0.8,0.4-0.8,0.8v5.9l-10.8,0c0,0,0,0,0,0c-0.2,0-0.4,0-0.6,0.1c-0.2,0.2-0.2,0.3-0.2,0.5v5h-2.3c-0.3,0-0.5,0.1-0.7,0.3
		c-0.1,0.2-0.2,0.5-0.1,0.7l3.7,10c0.1,0.3,0.4,0.5,0.7,0.5h61.1c0.3,0,0.6-0.2,0.8-0.5l3.4-9.6
		C226.6,207.8,226.7,207.6,226.7,207.3z M202,186.6h0.8v0.8H202V186.6z M196.7,189h9.2l2.1,5.2h-16.6L196.7,189z M172.9,195.8H220
		v10.8h-12.6c-0.7-1.4-2.2-2.3-3.8-2.3c-1.6,0-3.1,0.9-3.8,2.3h-22.4v-2.8h6.8c0.4,0,0.8-0.4,0.8-0.8v-4.8c0-0.4-0.4-0.8-0.8-0.8
		h-10c-0.4,0-0.8,0.4-0.8,0.8v2.7l-0.4,0V195.8z M203.5,205.9c1.5,0,2.7,1.2,2.7,2.7c0,1.5-1.2,2.7-2.7,2.7c-1.5,0-2.7-1.2-2.7-2.7
		C200.8,207.1,202,205.9,203.5,205.9z M176.5,200.9l-1.6,0V199h8.4v3.2h-6v-0.5C177.3,201.2,176.9,200.9,176.5,200.9z M161.3,202.4
		l10.3,0c0.1,0.1,0.3,0.2,0.5,0.2c0.2,0,0.3-0.1,0.5-0.2l3.1,0v4.1h-14.4V202.4z M221.7,216.5h-60l-3.1-8.4h40.6c0,0.2,0,0.3,0,0.5
		c0,2.4,1.9,4.3,4.3,4.3c2.4,0,4.3-1.9,4.3-4.3c0-0.2,0-0.3,0-0.5h16.9L221.7,216.5z"/>
	<path class="st0" d="M166.9,203.7h-3.6c-0.4,0-0.8,0.4-0.8,0.8c0,0.4,0.4,0.8,0.8,0.8h3.6c0.4,0,0.8-0.4,0.8-0.8
		C167.7,204.1,167.3,203.7,166.9,203.7z"/>
</g>
<g>
	<path class="st0" d="M297.9,84c-0.3-0.2-0.3-0.2-0.3-0.2c0,0,0,0,0,0c0-0.1,0-0.1,0.1-0.1c0.1-0.1,0.2-0.1,0.3-0.1
		c0.2,0,0.3,0.1,0.3,0.2c0,0,0,0,0,0l1.6-0.3c-0.1-0.4-0.4-1-1.1-1.3l0-0.8c0-0.4-0.4-0.8-0.8-0.8c-0.4,0-0.8,0.4-0.8,0.8l0,0.8
		c-0.2,0.1-0.4,0.2-0.6,0.3c-0.4,0.3-0.6,0.8-0.6,1.3c0,0.9,0.6,1.4,1.1,1.7c0.5,0.3,1.1,0.7,1.2,0.8c0.1,0.1,0.2,0.3,0.1,0.4
		c0,0,0,0.1-0.2,0.2c-0.3,0.2-0.7-0.2-0.7-0.2c-0.1-0.1-0.1-0.2-0.2-0.3c0-0.1-0.1-0.2-0.1-0.3c-0.2-0.4-0.7-0.5-1.1-0.3
		c-0.3,0.2-0.5,0.7-0.3,1c0,0,0,0,0,0c0.1,0.2,0.2,0.6,0.7,1c0.2,0.1,0.3,0.3,0.6,0.3l0,0.8c0,0.4,0.4,0.8,0.8,0.8c0,0,0,0,0,0
		c0.4,0,0.8-0.4,0.8-0.8l0-0.7c0.1,0,0.2-0.1,0.3-0.1c0.7-0.4,0.9-0.9,1-1.3c0.1-0.7-0.2-1.4-0.5-1.8
		C299.3,84.8,298.8,84.5,297.9,84z"/>
	<path class="st0" d="M298.1,75.2c-5.4,0-9.8,4.4-9.8,9.8c0,5.4,4.4,9.8,9.8,9.8c5.4,0,9.8-4.4,9.8-9.8
		C307.9,79.7,303.5,75.2,298.1,75.2z M298.1,93.3c-4.5,0-8.2-3.7-8.2-8.2c0-4.5,3.7-8.2,8.2-8.2c4.5,0,8.2,3.7,8.2,8.2
		C306.3,89.6,302.6,93.3,298.1,93.3z"/>
	<path class="st0" d="M298.1,78.1c-3.9,0-7,3.1-7,7c0,3.9,3.1,7,7,7c3.9,0,7-3.1,7-7C305.1,81.2,301.9,78.1,298.1,78.1z M298.1,90.5
		c-3,0-5.4-2.4-5.4-5.4c0-3,2.4-5.4,5.4-5.4c3,0,5.4,2.4,5.4,5.4C303.5,88.1,301.1,90.5,298.1,90.5z"/>
</g>
<g>
	<path class="st0" d="M42.9,42.1h4.4c0.4,0,0.8-0.4,0.8-0.8s-0.4-0.8-0.8-0.8h-4.4c-0.4,0-0.8,0.4-0.8,0.8S42.4,42.1,42.9,42.1z"/>
	<path class="st0" d="M51.3,44.2h-8.5c-0.4,0-0.8,0.4-0.8,0.8s0.4,0.8,0.8,0.8h8.5c0.4,0,0.8-0.4,0.8-0.8S51.8,44.2,51.3,44.2z"/>
	<path class="st0" d="M56.6,44.2h-3.2c-0.4,0-0.8,0.4-0.8,0.8s0.4,0.8,0.8,0.8h3.2c0.4,0,0.8-0.4,0.8-0.8S57,44.2,56.6,44.2z"/>
	<path class="st0" d="M77.6,32.3c-0.8-0.8-1.9-1.3-3.3-1.3H68h-0.6H54.9c0,0-3.3,0.1-3.3,5.1v1.7h-8.4c-1.1,0-2.1,0.4-2.7,1
		c-1.2,1.2-1.2,2.9-1.2,3v7.7c0,3.1,2,3.5,2.1,3.5c0,0,0.1,0,0.1,0H45l0.4,1.8c0.1,0.3,0.3,0.5,0.6,0.6c0.1,0,0.1,0,0.2,0
		c0.2,0,0.5-0.1,0.6-0.3l1.8-2.2h9.5c0.9,0,1.7-0.3,2.2-0.9c0.8-0.8,1-1.9,1-2.4h6.2l2.3,2.9c0.2,0.2,0.4,0.3,0.6,0.3
		c0.1,0,0.1,0,0.2,0c0.3-0.1,0.5-0.3,0.6-0.6l0.5-2.4h4.7c0,0,0.1,0,0.1,0c0.1,0,2.4-0.4,2.4-4.2v-9.7C79,35.8,79,33.7,77.6,32.3z
		 M59.8,49.3c0,0,0,1.1-0.6,1.6c-0.3,0.3-0.6,0.4-1.1,0.4h-9.9c-0.2,0-0.5,0.1-0.6,0.3l-1,1.2L46.4,52c-0.1-0.4-0.4-0.6-0.8-0.6
		h-4.1c-0.2-0.1-0.7-0.4-0.7-1.9v-7.7c0,0,0-1.1,0.7-1.8c0.4-0.4,0.9-0.6,1.6-0.6h5.5c0,0,0,0,0,0l3.7,0c0,0,0,0,0,0c0,0,0,0,0,0
		l6.2,0c0.5,0,1.2,0.6,1.2,2.6V49.3z M77.5,45.5c0,2.1-0.9,2.5-1.1,2.6h-5.2c-0.4,0-0.7,0.3-0.8,0.6l-0.3,1.4l-1.5-1.9
		C68.5,48.1,68.2,48,68,48h-6.6v-5.3H72c0.4,0,0.8-0.4,0.8-0.8s-0.4-0.8-0.8-0.8H61.4c-0.4-3.2-2.7-3.3-2.7-3.3h-5.5v-1.7
		c0-3.4,1.7-3.5,1.7-3.5h12.5H68h6.4c3,0,3.1,2.9,3.1,3.2V45.5z"/>
	<path class="st0" d="M62.5,35.2c0-0.4-0.4-0.8-0.8-0.8h-5.6c-0.4,0-0.8,0.4-0.8,0.8s0.4,0.8,0.8,0.8h5.6
		C62.1,36,62.5,35.7,62.5,35.2z"/>
	<path class="st0" d="M67.7,37.8h-5.6c-0.4,0-0.8,0.4-0.8,0.8s0.4,0.8,0.8,0.8h5.6c0.4,0,0.8-0.4,0.8-0.8S68.1,37.8,67.7,37.8z"/>
</g>
<path class="st0" d="M96.8,182.1l0-18.4c0-0.1,0.1-2.8-1.6-4.6c-1-1.1-2.5-1.6-4.2-1.6c-2.3,0-5.5,0-8.5,0c0-0.2,0-2.5-1.9-4.4
	c-1.3-1.3-3.2-2.1-5.7-2.1c0,0-0.1,0-0.1,0c0,0-0.1,0-0.1,0c0,0-0.1,0-0.1,0c0,0-0.1,0-0.1,0c-2.5,0.1-4.4,0.8-5.8,2.2
	c-1.8,1.9-1.8,4.2-1.8,4.4h-8.9c0,0-0.1,0-0.1,0c-2.3,0-5,1.5-5,5.8v19.8c0,0.3,0,2.2,1.3,3.6c1.1,1.2,2.7,1.8,4.9,1.8h32.1
	c2.1,0,5.9-1.3,5.9-6V182.1C96.8,182.1,96.8,182.1,96.8,182.1C96.8,182.1,96.8,182.1,96.8,182.1z M89.7,186.9h-4v-27.9
	c1.4,0,2.8,0,4,0c0.4,3.8,3.4,5.2,5.5,5.5v1.9l-3.8-0.8c-0.4-0.1-0.9,0.2-1,0.6c0,0,0,0.1,0,0.1c0,0,0,0.1,0,0.1l-0.8,3.6
	c0,0.2,0,0.4,0.1,0.6c0.1,0.2,0.3,0.3,0.5,0.4l4.7,1c0.1,0,0.1,0,0.2,0c0,0,0.1,0,0.1,0v9.3C93.1,181.7,90.1,183.1,89.7,186.9z
	 M54.2,181.4v-7.1l0.6,1.1c0.1,0.2,0.3,0.3,0.5,0.4c0.1,0,0.1,0,0.2,0c0.1,0,0.3,0,0.4-0.1l4.2-2.4c0.4-0.2,0.5-0.7,0.3-1.1
	l-1.9-3.4c-0.1-0.2-0.3-0.3-0.5-0.4c-0.2-0.1-0.4,0-0.6,0.1l-3.2,1.8v-5.7c2.1-0.3,5.1-1.7,5.5-5.5h4.3v27.9h-4.3
	C59.4,183.1,56.4,181.7,54.2,181.4z M54.7,171.9l2.8-1.6l1.1,2l-2.8,1.6L54.7,171.9z M65.7,159.1h2.2v27.9h-2.2V159.1z M74.6,155.2
	c2.7,0,3.3,1.5,3.5,2.3c-1.9,0-3.1,0-3.1,0h-3.8c0.1-0.4,0.3-0.9,0.7-1.4C72.4,155.5,73.4,155.2,74.6,155.2z M69.4,159.1h5.5
	c0,0,2.4,0,5.4,0v16.8l-6.2-3.3c-0.4-0.2-0.9-0.1-1.1,0.3c0,0,0,0.1,0,0.1c0,0,0,0.1-0.1,0.1l-1.7,3.2c-0.2,0.4-0.1,0.9,0.3,1.1
	l6.9,3.7c0.1,0.1,0.2,0.1,0.4,0.1c0.1,0,0.2,0,0.2,0c0.2-0.1,0.4-0.2,0.5-0.4l0.8-1.4v7.6H69.4V159.1z M79.7,177.3l-1.1,2l-5.5-3
	l1.1-2L79.7,177.3z M82,159.1c0.7,0,1.4,0,2.2,0v27.9H82V159.1z M95,168.1l-0.5,2.2l-3.1-0.7l0.5-2.2L95,168.1z M95.2,163
	c-1.3-0.3-3.5-1.1-3.9-3.9c1.1,0.1,2,0.4,2.7,1.1C94.9,161,95.1,162.2,95.2,163z M68.3,157.5c0,0,0-1.9,1.4-3.2
	c1.1-1.1,2.7-1.6,4.9-1.7c2.1,0,3.7,0.6,4.8,1.6c1.4,1.4,1.4,3.2,1.4,3.3c0,0,0,0,0,0c-0.4,0-0.8,0-1.1,0c-0.1-0.6-0.4-1.6-1.2-2.5
	c-0.9-0.9-2.1-1.4-3.7-1.4c0,0-0.1,0-0.1,0c0,0-0.1,0-0.1,0c0,0-0.1,0-0.1,0c0,0-0.1,0-0.1,0c-1.6,0-2.8,0.5-3.7,1.4
	c-0.9,0.9-1.1,1.9-1.2,2.5L68.3,157.5C68.3,157.5,68.3,157.5,68.3,157.5z M57.7,159.1L57.7,159.1c0.1,0,0.1,0,0.1,0h0.4
	c-0.4,2.8-2.6,3.7-3.9,3.9C54.4,159.4,56.9,159.1,57.7,159.1z M54.2,183.2C54.2,183.2,54.2,183.2,54.2,183.2l0-0.2
	c1.3,0.2,3.5,1.1,3.9,3.9c-1.3-0.1-2.3-0.5-3-1.2C54.2,184.6,54.2,183.2,54.2,183.2z M91.3,186.9c0.4-2.8,2.6-3.6,3.9-3.9
	C95,186.1,92.4,186.8,91.3,186.9z"/>
<g>
	<path class="st0" d="M93.7,55.1L93.7,55.1c1.7,0,3-1.3,3.1-2.9c0-0.8-0.3-1.6-0.8-2.1c-0.6-0.6-1.3-0.9-2.1-0.9l-0.1,0
		c-1.6,0-3,1.3-3,2.9c0,0.8,0.3,1.6,0.8,2.1C92.2,54.7,92.9,55.1,93.7,55.1z M93.8,50.5C93.8,50.5,93.8,50.5,93.8,50.5
		c0.4,0,0.7,0.3,1,0.5c0.3,0.3,0.4,0.7,0.4,1.1c0,0.8-0.6,1.4-1.4,1.4l0,0c-0.4,0-0.7-0.2-1-0.5c-0.3-0.3-0.4-0.7-0.4-1
		C92.4,51.2,93.1,50.5,93.8,50.5z"/>
	<path class="st0" d="M102.5,60.2c-0.2-0.2-0.4-0.2-0.7-0.2L97.4,61l2.8-6.9c0,0,0,0,0-0.1c0-0.1,0.1-0.2,0.1-0.2
		c0.1-0.4,0.1-0.8,0.2-1.3c0.1-3.7-2.8-6.7-6.5-6.8c-1.8,0-3.5,0.6-4.8,1.8c-1.3,1.2-2,2.9-2.1,4.6c0,0.6,0,1.1,0.2,1.6
		c0,0,0,0,0,0.1c0,0,0,0,0,0l2.2,6.3l-5.1,0.7l-6.2-0.8c-0.2,0-0.5,0-0.6,0.2c-0.2,0.2-0.3,0.4-0.3,0.6v25c0,0.4,0.3,0.8,0.7,0.8
		l6.3,0.6c0,0,0.1,0,0.1,0c0.1,0,0.2,0,0.2,0c0,0,0,0,0,0l5.7-1.9l5.6,1.9c0,0,0,0,0,0c0,0,0.1,0,0.1,0c0,0,0,0,0.1,0c0,0,0,0,0,0
		c0.1,0,0.1,0,0.2,0l5.7-1.2c0.4-0.1,0.6-0.4,0.6-0.8V60.9C102.8,60.6,102.7,60.4,102.5,60.2z M95.5,85.4l-4.3-1.5V65l1.4,3.9
		c0.1,0.3,0.4,0.5,0.8,0.5c0,0,0,0,0,0c0,0,0,0,0.1,0c0.3,0,0.6-0.2,0.7-0.5l1.3-3.3V85.4z M85.3,62.4l4.4-0.6v22.2l-4.4,1.5V62.4z
		 M90.4,48.7c1-0.9,2.3-1.4,3.6-1.4c2.8,0.1,5,2.4,4.9,5.2c0,0.3,0,0.6-0.1,0.9c0,0,0,0.1,0,0.1l-5.2,13l-4.6-13.1
		c-0.1-0.4-0.1-0.8-0.1-1.2C88.8,50.9,89.4,49.6,90.4,48.7z M79,61.8l4.7,0.6v23.3L79,85.1V61.8z M101.2,84.7l-4.1,0.8V62.7l4.1-0.8
		V84.7z"/>
</g>
<g>
	<path class="st0" d="M256.2,7h-22.3c-1.3,0-2.4,1.1-2.4,2.4v12.9c0,1.3,1.1,2.4,2.4,2.4h22.3c1.3,0,2.4-1.1,2.4-2.4V9.4
		C258.6,8,257.5,7,256.2,7z M233.9,8.6h22.3c0.4,0,0.8,0.4,0.8,0.8v2.4h-23.9V9.4C233.1,8.9,233.5,8.6,233.9,8.6z M256.2,23.1h-22.3
		c-0.4,0-0.8-0.4-0.8-0.8v-8.9H257v8.9C257,22.7,256.7,23.1,256.2,23.1z"/>
	<path class="st0" d="M255.2,15.7h-4.1c-0.4,0-0.8,0.4-0.8,0.8c0,0.4,0.4,0.8,0.8,0.8h4.1c0.4,0,0.8-0.4,0.8-0.8
		C256,16,255.7,15.7,255.2,15.7z"/>
	<path class="st0" d="M245.5,17.3h3c0.4,0,0.8-0.4,0.8-0.8c0-0.4-0.4-0.8-0.8-0.8h-3c-0.4,0-0.8,0.4-0.8,0.8
		C244.7,16.9,245,17.3,245.5,17.3z"/>
	<path class="st0" d="M255.2,19.1h-11.6c-0.4,0-0.8,0.4-0.8,0.8c0,0.4,0.4,0.8,0.8,0.8h11.6c0.4,0,0.8-0.4,0.8-0.8
		C256,19.5,255.7,19.1,255.2,19.1z"/>
	<path class="st0" d="M240.2,14.9h-4.7c-0.4,0-0.8,0.4-0.8,0.8v4c0,0.4,0.4,0.8,0.8,0.8h4.7c0.4,0,0.8-0.4,0.8-0.8v-4
		C241,15.3,240.6,14.9,240.2,14.9z M239.4,18.9h-3.1v-2.4h3.1V18.9z"/>
</g>
<g>
	<path class="st0" d="M67.2,59.1c-0.1,0-0.2-0.1-0.3-0.1H51.2c-1.5,0-2.2,1.6-2.4,2.5c0,0.1,0,0.1,0,0.2v37.3c0,0.3,0,0.9,0.4,1.5
		c0.5,0.6,1.3,0.9,2.4,0.9h15.6c1.4,0,2-1.3,2.1-2.2c0,0,0,0,0-0.1v-37C69.2,60.1,67.3,59.2,67.2,59.1z M50.3,65.7h17.3v28.7H50.3
		V65.7z M51.2,60.8h15.5c0.3,0.2,1,0.7,1,1.4V64H50.3v-2.2C50.4,61.6,50.7,60.8,51.2,60.8z M67.2,99.8H51.6c-0.8,0-1.1-0.2-1.2-0.3
		c-0.1-0.1-0.1-0.2-0.1-0.2c0,0,0,0,0,0c0-0.1,0-0.1,0-0.2v-3h17.3v3C67.6,99.3,67.5,99.8,67.2,99.8z"/>
	<path class="st0" d="M52.8,88h3.5c0.4,0,0.8-0.4,0.8-0.8s-0.4-0.8-0.8-0.8h-3.5c-0.4,0-0.8,0.4-0.8,0.8S52.4,88,52.8,88z"/>
	<path class="st0" d="M59,90.1h-6.2c-0.4,0-0.8,0.4-0.8,0.8s0.4,0.8,0.8,0.8H59c0.4,0,0.8-0.4,0.8-0.8S59.4,90.1,59,90.1z"/>
	<path class="st0" d="M59,69.8h-6.2c-0.4,0-0.8,0.4-0.8,0.8s0.4,0.8,0.8,0.8H59c0.4,0,0.8-0.4,0.8-0.8S59.4,69.8,59,69.8z"/>
	<path class="st0" d="M60.4,74H53c-0.5,0-1,0.4-1,0.8c0,0.4,0.4,0.8,1,0.8h7.4c0.5,0,1-0.4,1-0.8C61.3,74.3,60.9,74,60.4,74z"/>
</g>
<path class="st0" d="M368.4,139.9h-1.6v-2.1c0-0.4-0.4-0.8-0.8-0.8c-0.4,0-0.8,0.4-0.8,0.8v2.1h-1.6c-0.4,0-0.8,0.4-0.8,0.8
	c0,0.4,0.4,0.8,0.8,0.8h1.6v2.1c0,0.4,0.4,0.8,0.8,0.8c0.4,0,0.8-0.4,0.8-0.8v-2.1h1.6c0.4,0,0.8-0.4,0.8-0.8
	C369.2,140.3,368.8,139.9,368.4,139.9z"/>
<path class="st0" d="M19.2,112.6h-1.6v-2.1c0-0.4-0.4-0.8-0.8-0.8c-0.4,0-0.8,0.4-0.8,0.8v2.1h-1.6c-0.4,0-0.8,0.4-0.8,0.8
	s0.4,0.8,0.8,0.8h1.6v2.1c0,0.4,0.4,0.8,0.8,0.8c0.4,0,0.8-0.4,0.8-0.8v-2.1h1.6c0.4,0,0.8-0.4,0.8-0.8S19.7,112.6,19.2,112.6z"/>
<g>
	<path class="st0" d="M164.4,16.9c0,0-0.1,0-0.1-0.1c0,0,0,0-0.1,0c0,0,0,0-0.1,0c0,0-0.1,0-0.1,0c-2.2-1-4,0-4.7,0.7
		c-0.3,0.3-0.3,0.8,0,1.1c0.2,0.2,0.4,0.2,0.6,0.2c0.2,0,0.4-0.1,0.6-0.2c0,0,1.2-1.2,3-0.3c1.7,0.9,1.5,2.4,1.5,2.6
		c-0.1,0.4,0.2,0.8,0.6,0.9c0,0,0.1,0,0.1,0c0.4,0,0.7-0.3,0.8-0.7C166.7,20.1,166.5,18.1,164.4,16.9z"/>
	<path class="st0" d="M165.9,13.5C165.9,13.5,165.9,13.5,165.9,13.5C165.9,13.5,165.9,13.5,165.9,13.5
		C165.9,13.5,165.9,13.5,165.9,13.5C165.9,13.5,165.9,13.5,165.9,13.5c-3.4-1.7-6.2-0.2-7.2,0.8c-0.3,0.3-0.3,0.8,0,1.1
		c0.2,0.2,0.4,0.2,0.6,0.2c0.2,0,0.4-0.1,0.6-0.2c0.1-0.1,2.2-2.2,5.3-0.5c3.1,1.6,2.6,4.5,2.6,4.7c-0.1,0.4,0.2,0.8,0.6,0.9
		c0,0,0.1,0,0.1,0c0.4,0,0.7-0.3,0.8-0.7C169.6,18.4,169.3,15.3,165.9,13.5z"/>
	<path class="st0" d="M167.5,10.3C167.5,10.3,167.5,10.3,167.5,10.3C167.5,10.3,167.5,10.3,167.5,10.3
		C167.5,10.3,167.5,10.3,167.5,10.3C167.5,10.3,167.5,10.3,167.5,10.3c-5.6-2.9-9.6,1.1-9.6,1.1c-0.3,0.3-0.3,0.8,0,1.1
		c0.2,0.2,0.4,0.2,0.6,0.2c0.2,0,0.4-0.1,0.6-0.2c0,0,3.2-3.2,7.7-0.8c4.5,2.3,3.8,6.6,3.8,6.8c-0.1,0.4,0.2,0.8,0.6,0.9
		c0,0,0.1,0,0.1,0c0.4,0,0.7-0.3,0.8-0.7C172.1,18.7,173.1,13.2,167.5,10.3z"/>
	<path class="st0" d="M161.9,19.8c-0.6,0-1.1,0.5-1.1,1.1c0,0.6,0.5,1.1,1.1,1.1c0.6,0,1.1-0.5,1.1-1.1
		C163,20.3,162.5,19.8,161.9,19.8z"/>
</g>
<path class="st0" d="M344.4,139.3l-3.5-5c-0.2-0.3-0.5-0.4-0.8-0.3c0,0-0.1,0-0.1,0h-11.3V130c0-0.4-0.4-0.8-0.8-0.8
	s-0.8,0.4-0.8,0.8v3.9h-14.4c-0.3,0-0.5,0.1-0.7,0.4c-0.1,0.2-0.2,0.5,0,0.8l2.2,4.6l-2.2,4.6c-0.1,0.2-0.1,0.5,0,0.8
	c0.1,0.2,0.4,0.4,0.7,0.4h14.4v12.8c0,0.4,0.4,0.8,0.8,0.8s0.8-0.4,0.8-0.8v-12.8h11.5c0.3,0,0.5-0.1,0.6-0.3l3.5-4.8
	C344.6,139.9,344.6,139.5,344.4,139.3z M339.9,143.7H314l1.8-3.8c0.1-0.2,0.1-0.5,0-0.7l-1.8-3.8h25.9l2.9,4.2L339.9,143.7z"/>
<g>
	<path class="st0" d="M324.3,115.4c-0.4-2.2-2.5-2.7-4.1-2.7v-0.1c0.4-0.4,0.6-0.8,0.6-1.3c0-2.2-4.4-3.3-8.6-3.3
		c-4.1,0-8.6,1-8.6,3.3c0,0.4,0.1,0.8,0.4,1.1l0,10.4c0,1.4,1,4,4.3,4h3.1h1.2h3.1c3.3,0,4.3-2.6,4.3-4v-1.9c0.4,0,0.9,0,1.4-0.1
		c0.6-0.1,1.3-0.5,1.8-1.2C324.2,118.4,324.6,116.9,324.3,115.4z M312.2,109.6c4.4,0,6.9,1.2,7,1.7c0,0.5-2.5,1.7-7,1.7
		c-3.7,0-6-0.8-6.7-1.3c-0.1-0.1-0.1-0.2-0.2-0.2c0,0,0-0.1,0-0.1C305.3,110.8,307.8,109.6,312.2,109.6z M315.9,125.1h-3.1h-1.2
		h-3.1c-2.6,0-2.7-2.2-2.7-2.4v-9.3c1.7,0.7,4.2,1.1,6.6,1.1c2.3,0,4.7-0.3,6.4-1l0,9.2C318.6,122.9,318.4,125.1,315.9,125.1z
		 M322.1,118.6c-0.3,0.4-0.6,0.5-0.7,0.5c-0.4,0-0.9,0.1-1.2,0.1v-5c0.8,0,2.3,0.2,2.5,1.4C322.9,116.7,322.7,117.9,322.1,118.6z"/>
	<path class="st0" d="M308.8,122.2c-0.3,0-0.5-0.1-0.5-0.2c-0.3-0.4-0.4-1.1-0.4-1.3c0,0,0,0,0,0v-5.1c0-0.4-0.4-0.8-0.8-0.8
		c-0.4,0-0.8,0.4-0.8,0.8v5.1c0,0.3,0,1.6,0.8,2.5c0.4,0.5,1,0.7,1.7,0.7c0.4,0,0.8-0.4,0.8-0.8S309.2,122.2,308.8,122.2z"/>
	<path class="st0" d="M312.7,102.9c-0.4,0.3-1.1,0.7-1.1,1.7c0,0.4,0.4,0.8,0.8,0.8s0.8-0.4,0.8-0.8c0-0.1,0-0.2,0.4-0.4
		c0.4-0.3,1.1-0.7,1.1-1.8c0,0,0,0,0-0.1c0,0,0,0,0-0.1c0-1.1-0.7-1.6-1.1-1.8c-0.4-0.2-0.4-0.3-0.4-0.4c0,0,0,0,0-0.1
		c0,0,0,0,0-0.1c0-0.1,0-0.2,0.4-0.4c0.4-0.3,1.1-0.7,1.1-1.8c0,0,0,0,0-0.1c0,0,0,0,0-0.1c0-1.1-0.7-1.6-1.1-1.8
		c-0.2-0.1-0.3-0.2-0.3-0.2c0-0.1,0.1-0.1,0.3-0.2c0.4-0.3,1.1-0.7,1.1-1.8c0,0,0,0,0-0.1c0,0,0,0,0-0.1c0-1.1-0.7-1.6-1.1-1.8
		c-0.4-0.2-0.4-0.3-0.4-0.4c0-0.4-0.4-0.8-0.8-0.8s-0.8,0.4-0.8,0.8c0,1,0.7,1.5,1.1,1.7c0.4,0.2,0.4,0.3,0.4,0.5c0,0,0,0,0,0.1
		c0,0,0,0,0,0.1c0,0.2,0,0.3-0.4,0.5c-0.3,0.2-0.7,0.4-0.9,0.9c-0.1,0.1-0.2,0.3-0.2,0.5c0,0.1,0,0.1,0,0.2c0,0.1,0,0.1,0,0.2
		c0,0.2,0.1,0.4,0.2,0.5c0.2,0.5,0.6,0.7,0.9,0.9c0.4,0.2,0.4,0.3,0.4,0.5c0,0,0,0,0,0.1c0,0,0,0,0,0.1c0,0.2,0,0.3-0.4,0.5
		c-0.4,0.3-1.1,0.7-1.1,1.7c0,0,0,0,0,0.1c0,0,0,0,0,0.1c0,1,0.7,1.5,1.1,1.7c0.4,0.2,0.4,0.3,0.4,0.5c0,0,0,0,0,0.1c0,0,0,0,0,0.1
		C313.1,102.6,313.1,102.6,312.7,102.9z"/>
	<path class="st0" d="M307.7,105.5c-0.4,0.3-1.1,0.7-1.1,1.7c0,0.4,0.4,0.8,0.8,0.8c0.4,0,0.8-0.4,0.8-0.8c0-0.1,0-0.2,0.4-0.4
		c0.4-0.3,1.1-0.7,1.1-1.8c0,0,0,0,0-0.1c0,0,0,0,0-0.1c0-1.1-0.7-1.6-1.1-1.8c-0.4-0.2-0.4-0.3-0.4-0.4c0-0.1,0-0.2,0.4-0.4
		c0.4-0.3,1.1-0.7,1.1-1.8c0,0,0,0,0-0.1c0,0,0,0,0-0.1c0-1.1-0.7-1.6-1.1-1.8c-0.4-0.2-0.4-0.3-0.4-0.4c0-0.4-0.4-0.8-0.8-0.8
		c-0.4,0-0.8,0.4-0.8,0.8c0,1,0.7,1.5,1.1,1.7c0.4,0.2,0.4,0.3,0.4,0.5c0,0,0,0,0,0.1c0,0,0,0,0,0.1c0,0.2,0,0.3-0.4,0.5
		c-0.4,0.3-1.1,0.7-1.1,1.7c0,0,0,0,0,0c0,0,0,0,0,0c0,0,0,0,0,0c0,0,0,0,0,0c0,1,0.7,1.4,1.1,1.7c0.4,0.2,0.4,0.3,0.4,0.5
		c0,0,0,0,0,0.1c0,0,0,0,0,0.1C308.1,105.2,308.1,105.2,307.7,105.5z"/>
	<path class="st0" d="M317.6,105.5c-0.4,0.3-1.1,0.7-1.1,1.7c0,0.4,0.4,0.8,0.8,0.8c0.4,0,0.8-0.4,0.8-0.8c0-0.1,0-0.2,0.4-0.4
		c0.4-0.3,1.1-0.7,1.1-1.8c0,0,0,0,0-0.1c0,0,0,0,0-0.1c0-1.1-0.7-1.6-1.1-1.8c-0.4-0.2-0.4-0.3-0.4-0.4c0-0.1,0-0.2,0.4-0.4
		c0.4-0.3,1.1-0.7,1.1-1.8c0,0,0,0,0-0.1c0,0,0,0,0-0.1c0-1.1-0.7-1.6-1.1-1.8c-0.4-0.2-0.4-0.3-0.4-0.4c0-0.4-0.4-0.8-0.8-0.8
		c-0.4,0-0.8,0.4-0.8,0.8c0,1,0.7,1.5,1.1,1.7c0.4,0.2,0.4,0.3,0.4,0.5c0,0,0,0,0,0.1c0,0,0,0,0,0.1c0,0.2,0,0.3-0.4,0.5
		c-0.4,0.3-1.1,0.7-1.1,1.7c0,0,0,0,0,0c0,0,0,0,0,0s0,0,0,0c0,0,0,0,0,0c0,1,0.7,1.4,1.1,1.7c0.4,0.2,0.4,0.3,0.4,0.5
		c0,0,0,0,0,0.1c0,0,0,0,0,0.1C318,105.2,318,105.3,317.6,105.5z"/>
</g>
<g>
	<g>
		<path class="st0" d="M316.3,70.4c-0.3-0.3-0.8-0.4-1.1-0.1c-0.3,0.3-0.4,0.8-0.1,1.1l1.9,2.3l-1.9,2.3c-0.3,0.3-0.2,0.8,0.1,1.1
			c0.2,0.1,0.3,0.2,0.5,0.2c0.2,0,0.5-0.1,0.6-0.3l2.4-2.8c0.3-0.3,0.3-0.7,0-1L316.3,70.4z"/>
	</g>
	<g>
		<path class="st0" d="M322.9,73.2l-2.4-2.8c-0.3-0.3-0.8-0.4-1.1-0.1c-0.3,0.3-0.4,0.8-0.1,1.1l1.9,2.3l-1.9,2.3
			c-0.3,0.3-0.2,0.8,0.1,1.1c0.2,0.1,0.3,0.2,0.5,0.2c0.2,0,0.5-0.1,0.6-0.3l2.4-2.8C323.1,73.9,323.1,73.5,322.9,73.2z"/>
	</g>
</g>
<g>
	<path class="st0" d="M310.5,177.8c0,0-0.6-4.6-6.3-4.8c-0.5-2.4-1.8-5.4-4.9-5.4c-3.1,0-4.6,2.7-5.3,5c-0.1,0-0.1,0-0.2,0
		c-3.6,0-6.6,3-6.6,6.6c0,2.4,1.3,4.5,3.2,5.6v3c0,0.3,0.1,0.5,0.3,0.7l1,0.7v0.9l-1.2,3.3c-0.1,0.3,0,0.5,0.1,0.8l1.4,1.7l-1.1,2.2
		c-0.1,0.3-0.1,0.6,0.1,0.9l2.5,2.9c0.2,0.2,0.4,0.3,0.6,0.3c0,0,0,0,0,0c0.2,0,0.5-0.1,0.6-0.3l2.1-3.1c0.1-0.1,0.1-0.3,0.1-0.5
		V185c0.3-0.1,0.5-0.3,0.8-0.5v16c0,0.4,0.4,0.8,0.8,0.8h11.1c0.4,0,0.8-0.4,0.8-0.8L310.5,177.8
		C310.5,177.8,310.5,177.8,310.5,177.8z M303.8,177.4c0.3,0,0.5,0.2,0.5,0.5c0,0.3-0.2,0.5-0.5,0.5s-0.5-0.2-0.5-0.5
		C303.2,177.6,303.5,177.4,303.8,177.4z M294.3,177.1c0,0.3-0.2,0.5-0.5,0.5c-0.3,0-0.5-0.2-0.5-0.5c0-0.3,0.2-0.5,0.5-0.5
		C294.1,176.6,294.3,176.8,294.3,177.1z M295.5,198.1l-1.4,2l-1.5-1.7l1.1-2.2c0.1-0.3,0.1-0.6-0.1-0.8l-1.4-1.8l1.1-3.1
		c0-0.1,0-0.2,0-0.3v-1.5c0-0.3-0.1-0.5-0.3-0.7l-1-0.7v-1.9c0.6,0.2,1.2,0.3,1.9,0.3c0.6,0,1.1-0.1,1.7-0.2V198.1z M293.8,184.2
		c-2.8,0-5-2.2-5-5c0-2.7,2.2-4.9,4.8-5c-0.1,0.3-0.1,0.6-0.1,0.8c-1,0.2-1.8,1-1.8,2.1c0,1.2,1,2.1,2.1,2.1c1.2,0,2.1-1,2.1-2.1
		c0-0.7-0.3-1.3-0.9-1.7c0-0.2,0.1-0.6,0.2-1c2.1,0.6,3.6,2.5,3.6,4.8C298.8,182,296.6,184.2,293.8,184.2z M298.9,175
		c-0.8-1-2-1.8-3.3-2.1c0.6-1.8,1.7-3.7,3.7-3.7c1.9,0,2.8,2.1,3.2,3.9C301.1,173.3,299.8,174,298.9,175z M308.9,199.6h-9.5v-16.9
		c0.6-1,1-2.2,1-3.5c0-1-0.2-2-0.6-2.8c0.4-0.5,1.3-1.5,3.1-1.8c0.1,0.7,0.1,1.1,0.1,1.2c0,0,0,0.1,0,0.1c-0.8,0.3-1.3,1.1-1.3,2
		c0,1.2,1,2.1,2.1,2.1s2.1-1,2.1-2.1c0-0.9-0.6-1.7-1.3-2c0-0.1,0-0.1,0-0.2c0-0.1,0-0.5-0.1-1.2c3.8,0.3,4.4,3,4.4,3.3V199.6z"/>
	<path class="st0" d="M304.9,183.1c-0.4,0-0.8,0.4-0.8,0.8v10.5c0,0.4,0.4,0.8,0.8,0.8c0.4,0,0.8-0.4,0.8-0.8v-10.5
		C305.7,183.4,305.3,183.1,304.9,183.1z"/>
</g>
<g>
	<path class="st0" d="M355.2,96.4C355.2,96.4,355.2,96.4,355.2,96.4C355.2,96.3,355.2,96.3,355.2,96.4c0-0.1,0-0.1,0-0.2
		c0,0,0,0,0,0c0,0,0-0.1,0-0.1c0,0,0,0,0-0.1c0,0,0-0.1,0-0.1c0,0,0,0,0-0.1c0,0,0,0,0-0.1c0,0,0,0-0.1-0.1c0,0,0,0,0,0
		c0,0-0.1,0-0.1,0c0,0,0,0,0,0c0,0-0.1,0-0.1,0c0,0,0,0,0,0c0,0-0.1,0-0.1,0c0,0,0,0,0,0l-16.2-1c0,0,0,0-0.1,0c0,0,0,0,0,0
		c0,0-0.1,0-0.1,0c0,0,0,0,0,0c0,0-0.1,0-0.1,0c0,0,0,0,0,0c0,0-0.1,0-0.1,0.1c0,0,0,0,0,0c0,0,0,0,0,0c0,0,0,0,0,0c0,0,0,0,0,0
		c0,0,0,0-0.1,0.1c0,0,0,0,0,0.1c0,0,0,0,0,0.1c0,0,0,0,0,0.1c0,0,0,0.1,0,0.1c0,0,0,0,0,0c0,0.2-0.3,1.8-0.2,3.8
		c-0.4,8-0.9,18.3-0.3,19.3c0.2,0.4,0.6,1,6.8,1.6c3.2,0.3,6.9,0.6,9.1,0.6c0,0,0,0,0,0c1.7,0,2.2-0.1,2.5-0.6
		C355.4,119.8,355.7,119.2,355.2,96.4C355.2,96.4,355.2,96.4,355.2,96.4z M348,106.5c-0.1-0.2-0.3-0.3-0.6-0.3l-0.4,0
		c0.2-3.4,0.3-6.3,0.3-6.3c0-0.4-0.3-0.8-0.7-0.8l-2.1-0.1c-0.4,0-0.8,0.3-0.8,0.7c0,0-0.2,2.9-0.4,6.2l-0.3,0
		c-0.2,0-0.4,0.1-0.6,0.2c-0.1,0.1-0.1,0.1-0.2,0.2c-2.7-1.3-3.4-4.7-3.5-7.4c0-0.9,0.1-1.8,0.2-2.7l14.7,0.9
		C353.6,100,352.9,105.2,348,106.5z M346.4,109.8l-2.8-0.2l0.1-2.1l2.8,0.2L346.4,109.8z M345.5,106.1l-0.6,0
		c0.1-2.3,0.3-4.4,0.3-5.4l0.5,0C345.7,101.7,345.6,103.8,345.5,106.1z M344.5,111.2l0.7,0c-0.2,3.3-0.3,4.6-0.3,5.1
		c-0.2,0-0.4-0.1-0.6-0.1C344.3,115.6,344.4,114.3,344.5,111.2z M353.9,119c-0.2,0-0.6,0-1.1,0h0c-4.3,0-13.1-0.9-14.6-1.5
		c-0.2-1.2-0.1-6.5,0.2-12.8c0.7,1.4,1.9,2.6,3.6,3.2l-0.1,2.3c0,0.4,0.3,0.8,0.7,0.8l0.3,0c-0.3,5.7-0.3,5.8-0.1,6.1
		c0.3,0.4,1.4,0.7,2.1,0.7c0.1,0,0.2,0,0.2,0c0.7-0.1,1-0.5,1.1-0.7c0.1-0.2,0.2-0.4,0.5-5.8l0.3,0c0,0,0,0,0.1,0
		c0.2,0,0.4-0.1,0.5-0.2c0.2-0.1,0.2-0.3,0.3-0.5l0.1-2.5c2.6-0.6,4.5-2.2,5.7-4.5C353.9,110.3,354,117.1,353.9,119z"/>
	<path class="st0" d="M376,95.3C376,95.3,376,95.3,376,95.3c0-0.1,0-0.1,0-0.1c0,0,0,0,0-0.1c0,0,0,0,0-0.1c0,0,0,0,0-0.1
		c0,0,0,0,0-0.1c0,0,0,0-0.1-0.1c0,0,0,0,0,0c0,0,0,0,0,0c0,0,0,0-0.1,0c0,0,0,0-0.1,0c0,0,0,0-0.1,0c0,0,0,0-0.1,0c0,0,0,0-0.1,0
		c0,0-0.1,0-0.1,0c0,0-0.1,0-0.1,0c0,0,0,0,0,0l-16.2,1c0,0,0,0,0,0c-0.3,0-0.5,0.2-0.6,0.5c0,0,0,0,0,0c0,0,0,0.1,0,0.1
		c0,0,0,0.1,0,0.1c0,0,0,0,0,0.1c0,0,0,0,0,0c0,0,0,0,0,0c-0.5,22.8-0.3,23.4-0.2,23.6c0.2,0.6,0.8,0.6,2.5,0.6
		c2.2,0,5.9-0.2,9.1-0.6c6.2-0.7,6.6-1.2,6.8-1.6c0.6-1,0.2-11.3-0.3-19.4C376.3,97.1,376,95.5,376,95.3z M369.3,116
		c-0.2,0-0.4,0-0.6,0c-0.1-0.6-0.2-1.9-0.4-5l0.7-0.1C369.2,114.2,369.2,115.5,369.3,116z M367.4,100.4l0.5-0.1
		c0.1,1.1,0.3,3.1,0.5,5.4l-0.6,0.1C367.6,103.5,367.5,101.4,367.4,100.4z M367,109.5l-0.2-2l2.8-0.3l0.2,2L367,109.5z M371.2,106.3
		c0-0.2-0.1-0.4-0.3-0.5c-0.2-0.1-0.4-0.2-0.6-0.2l-0.3,0c-0.3-3.4-0.6-6.2-0.6-6.2c0-0.2-0.1-0.4-0.3-0.5c-0.2-0.1-0.4-0.2-0.6-0.2
		l-2.1,0.2c-0.4,0-0.7,0.4-0.7,0.8c0,0,0.2,2.9,0.5,6.2l-0.3,0c-0.3,0-0.5,0.2-0.7,0.5c-4.7-1.4-5.5-6.5-5.5-9.4l14.7-0.9
		c0.1,0.9,0.1,1.9,0.2,2.8C374.6,101.7,373.9,105.1,371.2,106.3L371.2,106.3z M375.1,117.6c-1.4,0.7-10.3,1.5-14.6,1.5
		c-0.5,0-0.8,0-1.1,0c-0.1-1.9,0-8.7,0.1-15.4c1.2,2.3,3.1,3.8,5.7,4.4l0.2,2.3c0,0.2,0.1,0.4,0.3,0.5c0.1,0.1,0.3,0.2,0.5,0.2
		c0,0,0.1,0,0.1,0l0.3,0c0.5,5.7,0.5,5.7,0.8,6c0.3,0.3,1,0.4,1.6,0.4c0.3,0,0.6,0,0.8-0.1c0.7-0.2,0.9-0.6,1-0.9
		c0.1-0.2,0.1-0.4-0.4-5.8l0.3,0c0.4,0,0.7-0.4,0.7-0.8l-0.2-1.9c1.7-0.6,2.9-1.8,3.6-3.2C375.2,111.1,375.3,116.4,375.1,117.6z"/>
	<path class="st0" d="M381,89c0.1-4.5-3-7.9-3.1-8.1c-0.2-0.2-0.6-0.3-0.9-0.2l-0.7,0.3c-1.1-3.4-5.5-16.8-7.1-18.6c0,0,0,0,0,0
		c0,0,0,0,0,0c0-0.1-0.1-0.1-0.1-0.1c0,0,0,0,0,0c-0.1,0-0.1-0.1-0.2-0.1c0,0,0,0,0,0c-0.1,0-0.1,0-0.2,0c0,0,0,0,0,0c0,0,0,0,0,0
		l-8.3,0.1c-0.5-3.1-2.5-4.9-5.3-4.8c-3.2,0-4.4,3.7-4.8,5l-7.7,0.1c-0.3,0-0.6,0.2-0.7,0.5c0,0-0.1,0.2-0.2,0.6c0,0,0,0,0,0.1
		c0,0.1-2.9,5.5-5.2,10.1c-1.7,3.4-2.3,6.2-2.5,7.5c-0.2,0-0.3,0.1-0.4,0.3c-0.1,0.2-3.1,3.8-2.7,8.3c-0.3,2.6-2.5,21.6-2,24.2
		c0.5,2.6,3.9,3.5,5.2,3.7c0.6,2.4,2.5,9.2,5.8,9.6c1.1,0.1,5.1,0.2,10,0.2c2.7,0,5.7,0,8.7-0.1c16.6-0.4,17.8-1.6,18.2-2.1
		c1.9-2,3.6-7.2,4-8.7c1.5-0.6,3.4-1.7,3.6-3.6C384.7,110.3,381.4,91.5,381,89z M377.1,82.3c0.6,0.8,1.9,2.7,2.3,5
		c-1.3-1.1-3.1-2.8-3.7-4.5L377.1,82.3z M355,58.8c2.5,0,3.4,1.8,3.7,3.3l-6.9,0.1C352.2,61,353.2,58.8,355,58.8z M359.5,63.7
		c0,0,0.1,0,0.1,0c0,0,0,0,0.1,0c0,0,0,0,0.1,0l8.3-0.1c0.3,1,0.7,3.4-0.6,5.4c-1.4,2.1-4.3,3.3-8.7,3.6c0-2,0-3.3,0-3.3
		c0-0.4-0.4-0.8-0.8-0.8h-2.5c-0.4,0-0.8,0.3-0.8,0.8c0,0,0,1.4,0,3.5c-5.5-0.1-9.1-1.4-10.8-3.8c-1.3-1.9-1-4-0.8-5L359.5,63.7z
		 M357.3,93.5c-0.4,0-0.8,0-1,0c0-1.5-0.1-5.8-0.1-9.6h1.1C357.3,88.5,357.3,92.1,357.3,93.5z M358.7,79.2v3.2h-3.8v-3.2H358.7z
		 M356.2,77.6c0-3.3,0-6.3,0.1-7.6h1c0,0.7,0,1.9,0,3.3c0,0,0,0.1,0,0.1c0,0,0,0,0,0.1c0,1.2,0,2.7,0,4.2H356.2z M334.3,82.7
		l1.5,0.5c-0.6,1.7-2.3,3.6-3.5,4.7C332.6,85.5,333.8,83.5,334.3,82.7z M330.3,113.5c-0.3-1.8,1-14.9,2-23.5c0.5-0.4,1.8-1.6,3-3
		c-1,6.5-2.4,18.8-1.5,28.8C332.4,115.5,330.5,114.8,330.3,113.5z M375.6,124.2c-2,1.8-31.7,1.9-35.5,1.4c-1.9-0.2-3.8-5.3-4.6-8.9
		c-1.6-14.1,2.1-33.7,2.1-33.9c0,0,0,0,0,0c0,0,0,0,0,0c0,0,0-0.1,0-0.1c0,0,0,0,0,0c0,0,0-0.1,0-0.1c0,0,0,0,0,0c0,0,0-0.1,0-0.1
		c0,0,0,0,0-0.1c0,0,0-0.1,0-0.1c0,0,0,0,0,0c0,0,0,0-0.1-0.1c0,0,0,0,0,0c0,0,0,0-0.1-0.1c0,0,0,0-0.1,0c0,0,0,0-0.1,0
		c0,0,0,0-0.1,0c0,0,0,0,0,0l-1.6-0.5c0.2-1.1,0.7-3.8,2.4-7.1c1.3-2.5,2.7-5.3,3.7-7.3c0.2,0.9,0.5,1.8,1.1,2.7
		c2,2.9,6,4.4,12.1,4.5c0,1,0,2.2,0,3.4h-0.6c-0.4,0-0.8,0.3-0.8,0.8v4.7c0,0.4,0.3,0.8,0.8,0.8h0.5c0,10.4,0.1,10.5,0.3,10.8
		c0.2,0.2,0.3,0.4,1.4,0.4c0.4,0,1,0,1.8-0.1c0.3,0,0.6-0.2,0.7-0.5c0.1-0.2,0.2-0.5,0.1-10.6h0.6c0.4,0,0.8-0.3,0.8-0.8v-4.7
		c0-0.4-0.3-0.8-0.8-0.8h-0.6c0-1.2,0-2.4,0-3.5c4.9-0.3,8.3-1.7,10-4.3c0.6-0.9,0.9-1.8,1-2.7c1.5,3.9,3.6,9.8,5,14.3l-0.5,0.2
		c0,0,0,0,0,0c0,0,0,0-0.1,0c0,0,0,0-0.1,0c0,0,0,0-0.1,0c0,0,0,0-0.1,0.1c0,0,0,0,0,0c0,0,0,0,0,0.1c0,0,0,0,0,0.1c0,0,0,0.1,0,0.1
		c0,0,0,0,0,0.1c0,0,0,0.1,0,0.1c0,0,0,0,0,0.1c0,0,0,0.1,0,0.1c0,0,0,0,0,0c0,0,0,0.1,0,0.1c0,0,0,0,0,0c0,0,0,0,0,0
		c0,0.2,4.8,19.5,4,33.8c0,0,0,0,0,0c0,0,0,0.1,0,0.1c0,0,0,0.1,0,0.1c0,0,0,0,0,0c0,0,0,0,0,0.1c0,0,0,0,0,0.1c0,0,0,0.1,0,0.1
		c0,0,0,0,0,0c0,0,0.1,0.1,0.1,0.1c0,0,0,0,0,0c0,0,0,0,0.1,0.1c0,0,0,0,0,0c0,0,0,0,0.1,0c0,0,0,0,0.1,0c0,0,0.1,0,0.1,0
		c0,0,0,0,0.1,0c0,0,0.1,0,0.1,0c0,0,0,0,0,0c0,0,0,0,0,0h0l0,0c0,0,0,0,0,0c0,0,0,0,0.1,0c0,0,0.1,0,0.1,0c0,0,0,0,0,0c0,0,0,0,0,0
		c0,0,0,0,0.1,0C378.1,119.4,376.8,122.8,375.6,124.2z M382.8,112.8c-0.1,1.2-1.7,2-2.9,2.5c0,0,0,0-0.1,0c-0.1,0-0.2,0.1-0.3,0.1
		c0.4-10.1-1.8-22.3-3.1-28.7c1.2,1.3,2.6,2.3,3.1,2.8C381,98,383,111,382.8,112.8z"/>
</g>
</svg>
