<svg width="32" height="32" viewBox="0 0 32 32" fill="none" xmlns="http://www.w3.org/2000/svg">
<g clip-path="url(#clip0_208_641)">
<path d="M10.0669 29.0002C22.1394 29.0002 28.7444 18.9959 28.7444 10.3227C28.7444 10.0415 28.7381 9.75398 28.7256 9.47273C30.0105 8.54353 31.1193 7.39258 32 6.07398C30.8034 6.60638 29.5329 6.95409 28.2319 7.10523C29.6017 6.28412 30.6274 4.99421 31.1187 3.4746C29.8301 4.23832 28.4208 4.77706 26.9513 5.06772C25.9611 4.01566 24.652 3.31907 23.2262 3.08565C21.8005 2.85223 20.3376 3.09498 19.0637 3.77637C17.7897 4.45777 16.7757 5.53985 16.1785 6.85533C15.5812 8.1708 15.4339 9.6464 15.7594 11.054C13.15 10.923 10.5972 10.2452 8.26664 9.06438C5.93604 7.88357 3.87959 6.22616 2.23062 4.1996C1.39253 5.64457 1.13608 7.35444 1.51337 8.9817C1.89067 10.609 2.87342 12.0315 4.26188 12.9602C3.2195 12.9271 2.19997 12.6465 1.2875 12.1415V12.2227C1.28657 13.7391 1.8108 15.209 2.77108 16.3826C3.73136 17.5562 5.06843 18.361 6.555 18.6602C5.58941 18.9244 4.57598 18.9629 3.59313 18.7727C4.01261 20.0768 4.82876 21.2174 5.92769 22.0354C7.02662 22.8533 8.35349 23.3077 9.72313 23.3352C7.3979 25.1617 4.52557 26.1524 1.56875 26.1477C1.04438 26.1469 0.520532 26.1148 0 26.0515C3.00381 27.9786 6.49804 29.0021 10.0669 29.0002Z" fill="#378ACC"/>
</g>
<defs>
<clipPath id="clip0_208_641">
<rect width="32" height="32" fill="white"/>
</clipPath>
</defs>
</svg>
