<svg width="32" height="32" viewBox="0 0 32 32" fill="none" xmlns="http://www.w3.org/2000/svg">
<g clip-path="url(#clip0_126_291)">
<path fill-rule="evenodd" clip-rule="evenodd" d="M25.3136 22.5938C24.928 23.6853 23.3952 24.5883 22.1728 24.8523C21.336 25.03 20.2448 25.1705 16.568 23.6469C12.4384 21.936 6.704 15.8416 6.704 11.7859C6.704 9.72131 7.8944 7.31719 9.976 7.31719C10.9776 7.31719 11.1984 7.33672 11.528 8.12734C11.9136 9.05883 12.8544 11.3538 12.9664 11.5891C13.4288 12.5542 12.496 13.1191 11.8192 13.9594C11.6032 14.2122 11.3584 14.4857 11.632 14.9563C11.904 15.4172 12.8448 16.9505 14.2272 18.1813C16.0128 19.7721 17.4608 20.28 17.9792 20.4961C18.3648 20.6561 18.8256 20.6189 19.1072 20.318C19.464 19.9323 19.9072 19.2923 20.3584 18.6617C20.6768 18.2104 21.0816 18.154 21.5056 18.3141C21.792 18.4133 25.432 20.1037 25.5856 20.3742C25.6992 20.5711 25.6992 21.5022 25.3136 22.5938ZM16.0032 0H15.9952C7.17439 0 0 7.17656 0 16C0 19.4987 1.12801 22.7445 3.04641 25.3773L1.05281 31.3227L7.20161 29.3578C9.73121 31.0319 12.7504 32 16.0032 32C24.824 32 32 24.8234 32 16C32 7.17656 24.824 0 16.0032 0Z" fill="#2F83C5"/>
<g clip-path="url(#clip1_126_291)">
<path d="M26.88 9.12C23.04 3.2 15.2 1.44 9.12001 5.12C3.20001 8.8 1.28001 16.8 5.12001 22.72L5.44001 23.2L4.16001 28L8.96001 26.72L9.44001 27.04C11.52 28.16 13.76 28.8 16 28.8C18.4 28.8 20.8 28.16 22.88 26.88C28.8 23.04 30.56 15.2 26.88 9.12ZM23.52 21.44C22.88 22.4 22.08 23.04 20.96 23.2C20.32 23.2 19.52 23.52 16.32 22.24C13.6 20.96 11.36 18.88 9.76001 16.48C8.80001 15.36 8.32001 13.92 8.16001 12.48C8.16001 11.2 8.64001 10.08 9.44001 9.28C9.76001 8.96 10.08 8.8 10.4 8.8H11.2C11.52 8.8 11.84 8.8 12 9.44C12.32 10.24 13.12 12.16 13.12 12.32C13.28 12.48 13.28 12.8 13.12 12.96C13.28 13.28 13.12 13.6 12.96 13.76C12.8 13.92 12.64 14.24 12.48 14.4C12.16 14.56 12 14.88 12.16 15.2C12.8 16.16 13.6 17.12 14.4 17.92C15.36 18.72 16.32 19.36 17.44 19.84C17.76 20 18.08 20 18.24 19.68C18.4 19.36 19.2 18.56 19.52 18.24C19.84 17.92 20 17.92 20.32 18.08L22.88 19.36C23.2 19.52 23.52 19.68 23.68 19.84C23.84 20.32 23.84 20.96 23.52 21.44Z" fill="#2F83C5"/>
</g>
</g>
<defs>
<clipPath id="clip0_126_291">
<rect width="32" height="32" fill="white"/>
</clipPath>
<clipPath id="clip1_126_291">
<rect width="32" height="32" fill="white"/>
</clipPath>
</defs>
</svg>
